<svg width="42" height="41" viewBox="0 0 42 41" fill="none" xmlns="http://www.w3.org/2000/svg">
<path d="M0.13125 9.10969C0.395898 7.97769 1.04647 6.96696 1.97642 6.24304C2.90637 5.51912 4.06057 5.12492 5.25 5.125H36.75C37.9394 5.12492 39.0936 5.51912 40.0236 6.24304C40.9535 6.96696 41.6041 7.97769 41.8687 9.10969L21 21.5609L0.13125 9.10969ZM0 12.0361V30.2401L15.2329 21.1227L0 12.0361ZM17.7476 22.6269L0.501375 32.9435C0.927106 33.8211 1.59947 34.5625 2.44017 35.0815C3.28087 35.6005 4.2553 35.8757 5.25 35.875H21.672C21.2258 34.6404 20.9985 33.3405 21 32.0312C20.9982 30.3479 21.3748 28.6847 22.1032 27.159C22.8316 25.6332 23.8941 24.2821 25.2157 23.2009L24.2524 22.6243L21 24.5641L17.7476 22.6269ZM42 12.0361V24.7819C40.8937 23.4434 39.4941 22.3639 37.9042 21.6229C36.3142 20.8819 34.5744 20.4982 32.8125 20.5C31.0258 20.4978 29.262 20.8921 27.6544 21.6531L26.7671 21.1227L42 12.0361Z" fill="#015F43"/>
<path d="M42 32.0312C42 34.4099 41.032 36.6911 39.309 38.3731C37.5861 40.0551 35.2492 41 32.8125 41C30.3758 41 28.0389 40.0551 26.316 38.3731C24.593 36.6911 23.625 34.4099 23.625 32.0312C23.625 29.6526 24.593 27.3714 26.316 25.6894C28.0389 24.0074 30.3758 23.0625 32.8125 23.0625C35.2492 23.0625 37.5861 24.0074 39.309 25.6894C41.032 27.3714 42 29.6526 42 32.0312ZM36.7684 27.7288C36.6205 27.6423 36.4566 27.5851 36.2861 27.5604C36.1155 27.5357 35.9417 27.5441 35.7745 27.585C35.6072 27.626 35.4499 27.6986 35.3115 27.7989C35.173 27.8992 35.0562 28.0252 34.9676 28.1696L31.8964 33.1664L30.4605 31.7647C30.214 31.5242 29.8798 31.389 29.5312 31.389C29.1827 31.389 28.8485 31.5242 28.602 31.7647C28.3555 32.0053 28.2171 32.3316 28.2171 32.6719C28.2171 33.0121 28.3555 33.3384 28.602 33.579L30.6337 35.5598C30.8452 35.7667 31.1022 35.9237 31.3852 36.019C31.6682 36.1143 31.9698 36.1453 32.2669 36.1097C32.564 36.0742 32.849 35.9729 33.1 35.8137C33.351 35.6544 33.5615 35.4414 33.7155 35.1908L37.2199 29.4867C37.3085 29.3423 37.3671 29.1823 37.3924 29.0159C37.4177 28.8494 37.4091 28.6797 37.3672 28.5164C37.3252 28.3532 37.2508 28.1996 37.148 28.0645C37.0453 27.9293 36.9163 27.8153 36.7684 27.7288Z" fill="#3B2369"/>
</svg>
