<svg width="472" height="101" viewBox="0 0 472 101" fill="none" xmlns="http://www.w3.org/2000/svg">
<path d="M153.585 15.054L163.833 41.472C164.253 42.536 164.729 43.25 165.261 43.614C165.793 43.95 166.283 44.132 166.731 44.16V45C166.171 44.944 165.485 44.916 164.673 44.916C163.861 44.888 163.049 44.874 162.237 44.874C161.145 44.874 160.123 44.888 159.171 44.916C158.219 44.916 157.449 44.944 156.861 45V44.16C158.289 44.104 159.199 43.866 159.591 43.446C159.983 42.998 159.899 42.06 159.339 40.632L151.527 19.758L152.199 19.212L144.891 38.196C144.443 39.316 144.177 40.268 144.093 41.052C144.009 41.808 144.079 42.41 144.303 42.858C144.555 43.306 144.961 43.628 145.521 43.824C146.109 44.02 146.837 44.132 147.705 44.16V45C146.921 44.944 146.095 44.916 145.227 44.916C144.387 44.888 143.603 44.874 142.875 44.874C142.175 44.874 141.573 44.888 141.069 44.916C140.593 44.916 140.145 44.944 139.725 45V44.16C140.285 44.02 140.859 43.698 141.447 43.194C142.035 42.662 142.567 41.766 143.043 40.506L152.913 15.054C153.025 15.054 153.137 15.054 153.249 15.054C153.361 15.054 153.473 15.054 153.585 15.054ZM158.709 32.904V33.744H146.193L146.613 32.904H158.709ZM181.804 22.782C182.868 22.782 183.75 22.922 184.45 23.202C185.178 23.482 185.78 23.874 186.256 24.378C186.788 24.938 187.166 25.638 187.39 26.478C187.614 27.318 187.726 28.452 187.726 29.88V41.094C187.726 42.27 187.964 43.068 188.44 43.488C188.944 43.908 189.77 44.118 190.918 44.118V45C190.442 44.972 189.714 44.944 188.734 44.916C187.754 44.86 186.802 44.832 185.878 44.832C184.954 44.832 184.044 44.86 183.148 44.916C182.28 44.944 181.622 44.972 181.174 45V44.118C182.182 44.118 182.896 43.908 183.316 43.488C183.736 43.068 183.946 42.27 183.946 41.094V28.956C183.946 28.088 183.876 27.29 183.736 26.562C183.596 25.834 183.274 25.246 182.77 24.798C182.294 24.35 181.552 24.126 180.544 24.126C179.368 24.126 178.332 24.462 177.436 25.134C176.568 25.806 175.882 26.73 175.378 27.906C174.902 29.054 174.664 30.342 174.664 31.77V41.094C174.664 42.27 174.874 43.068 175.294 43.488C175.714 43.908 176.428 44.118 177.436 44.118V45C176.988 44.972 176.316 44.944 175.42 44.916C174.552 44.86 173.656 44.832 172.732 44.832C171.808 44.832 170.856 44.86 169.876 44.916C168.896 44.944 168.168 44.972 167.692 45V44.118C168.84 44.118 169.652 43.908 170.128 43.488C170.632 43.068 170.884 42.27 170.884 41.094V27.948C170.884 26.688 170.66 25.764 170.212 25.176C169.764 24.56 168.924 24.252 167.692 24.252V23.37C168.588 23.454 169.456 23.496 170.296 23.496C171.108 23.496 171.878 23.454 172.606 23.37C173.362 23.258 174.048 23.104 174.664 22.908V27.864C175.392 25.96 176.4 24.644 177.688 23.916C179.004 23.16 180.376 22.782 181.804 22.782ZM206.864 22.782C207.928 22.782 208.81 22.922 209.51 23.202C210.238 23.482 210.84 23.874 211.316 24.378C211.848 24.938 212.226 25.638 212.45 26.478C212.674 27.318 212.786 28.452 212.786 29.88V41.094C212.786 42.27 213.024 43.068 213.5 43.488C214.004 43.908 214.83 44.118 215.978 44.118V45C215.502 44.972 214.774 44.944 213.794 44.916C212.814 44.86 211.862 44.832 210.938 44.832C210.014 44.832 209.104 44.86 208.208 44.916C207.34 44.944 206.682 44.972 206.234 45V44.118C207.242 44.118 207.956 43.908 208.376 43.488C208.796 43.068 209.006 42.27 209.006 41.094V28.956C209.006 28.088 208.936 27.29 208.796 26.562C208.656 25.834 208.334 25.246 207.83 24.798C207.354 24.35 206.612 24.126 205.604 24.126C204.428 24.126 203.392 24.462 202.496 25.134C201.628 25.806 200.942 26.73 200.438 27.906C199.962 29.054 199.724 30.342 199.724 31.77V41.094C199.724 42.27 199.934 43.068 200.354 43.488C200.774 43.908 201.488 44.118 202.496 44.118V45C202.048 44.972 201.376 44.944 200.48 44.916C199.612 44.86 198.716 44.832 197.792 44.832C196.868 44.832 195.916 44.86 194.936 44.916C193.956 44.944 193.228 44.972 192.752 45V44.118C193.9 44.118 194.712 43.908 195.188 43.488C195.692 43.068 195.944 42.27 195.944 41.094V27.948C195.944 26.688 195.72 25.764 195.272 25.176C194.824 24.56 193.984 24.252 192.752 24.252V23.37C193.648 23.454 194.516 23.496 195.356 23.496C196.168 23.496 196.938 23.454 197.666 23.37C198.422 23.258 199.108 23.104 199.724 22.908V27.864C200.452 25.96 201.46 24.644 202.748 23.916C204.064 23.16 205.436 22.782 206.864 22.782ZM228.103 22.782C229.895 22.782 231.505 23.174 232.933 23.958C234.361 24.742 235.495 25.974 236.335 27.654C237.203 29.334 237.637 31.518 237.637 34.206C237.637 36.894 237.203 39.078 236.335 40.758C235.495 42.41 234.361 43.628 232.933 44.412C231.505 45.196 229.895 45.588 228.103 45.588C226.339 45.588 224.729 45.196 223.273 44.412C221.845 43.628 220.697 42.41 219.829 40.758C218.989 39.078 218.569 36.894 218.569 34.206C218.569 31.518 218.989 29.334 219.829 27.654C220.697 25.974 221.845 24.742 223.273 23.958C224.729 23.174 226.339 22.782 228.103 22.782ZM228.103 23.622C226.507 23.622 225.191 24.448 224.155 26.1C223.147 27.752 222.643 30.454 222.643 34.206C222.643 37.958 223.147 40.66 224.155 42.312C225.191 43.936 226.507 44.748 228.103 44.748C229.699 44.748 231.001 43.936 232.009 42.312C233.045 40.66 233.563 37.958 233.563 34.206C233.563 30.454 233.045 27.752 232.009 26.1C231.001 24.448 229.699 23.622 228.103 23.622ZM262.664 15.264C262.552 16.328 262.468 17.364 262.412 18.372C262.384 19.352 262.37 20.108 262.37 20.64C262.37 21.312 262.384 21.942 262.412 22.53C262.44 23.118 262.468 23.636 262.496 24.084H261.53C261.334 22.124 261.068 20.584 260.732 19.464C260.396 18.316 259.808 17.49 258.968 16.986C258.128 16.482 256.826 16.23 255.062 16.23H252.794V40.128C252.794 41.248 252.892 42.088 253.088 42.648C253.312 43.208 253.732 43.586 254.348 43.782C254.964 43.978 255.86 44.104 257.036 44.16V45C256.308 44.944 255.384 44.916 254.264 44.916C253.144 44.888 252.01 44.874 250.862 44.874C249.602 44.874 248.412 44.888 247.292 44.916C246.2 44.916 245.318 44.944 244.646 45V44.16C245.822 44.104 246.718 43.978 247.334 43.782C247.95 43.586 248.356 43.208 248.552 42.648C248.776 42.088 248.888 41.248 248.888 40.128V16.23H246.62C244.884 16.23 243.582 16.482 242.714 16.986C241.874 17.49 241.286 18.316 240.95 19.464C240.614 20.584 240.348 22.124 240.152 24.084H239.186C239.242 23.636 239.27 23.118 239.27 22.53C239.298 21.942 239.312 21.312 239.312 20.64C239.312 20.108 239.284 19.352 239.228 18.372C239.2 17.364 239.13 16.328 239.018 15.264C240.194 15.292 241.468 15.32 242.84 15.348C244.24 15.376 245.64 15.39 247.04 15.39C248.44 15.39 249.714 15.39 250.862 15.39C252.01 15.39 253.27 15.39 254.642 15.39C256.042 15.39 257.442 15.376 258.842 15.348C260.242 15.32 261.516 15.292 262.664 15.264ZM286.608 15.264C286.496 16.244 286.412 17.196 286.356 18.12C286.328 19.044 286.314 19.744 286.314 20.22C286.314 20.724 286.328 21.214 286.356 21.69C286.384 22.138 286.412 22.516 286.44 22.824H285.474C285.306 21.172 285.068 19.87 284.76 18.918C284.452 17.938 283.92 17.252 283.164 16.86C282.436 16.44 281.33 16.23 279.846 16.23H276.36C275.408 16.23 274.68 16.314 274.176 16.482C273.7 16.622 273.378 16.944 273.21 17.448C273.042 17.924 272.958 18.68 272.958 19.716V40.548C272.958 41.556 273.042 42.312 273.21 42.816C273.378 43.32 273.7 43.656 274.176 43.824C274.68 43.964 275.408 44.034 276.36 44.034H279.426C281.19 44.034 282.52 43.796 283.416 43.32C284.34 42.844 284.998 42.074 285.39 41.01C285.81 39.918 286.118 38.448 286.314 36.6H287.28C287.196 37.356 287.154 38.364 287.154 39.624C287.154 40.156 287.168 40.926 287.196 41.934C287.252 42.914 287.336 43.936 287.448 45C286.02 44.944 284.41 44.916 282.618 44.916C280.826 44.888 279.23 44.874 277.83 44.874C277.214 44.874 276.416 44.874 275.436 44.874C274.484 44.874 273.448 44.888 272.328 44.916C271.208 44.916 270.074 44.93 268.926 44.958C267.778 44.958 266.686 44.972 265.65 45V44.16C266.602 44.104 267.316 43.992 267.792 43.824C268.296 43.656 268.632 43.32 268.8 42.816C268.968 42.312 269.052 41.556 269.052 40.548V19.716C269.052 18.68 268.968 17.924 268.8 17.448C268.632 16.944 268.296 16.608 267.792 16.44C267.316 16.244 266.602 16.132 265.65 16.104V15.264C266.686 15.292 267.778 15.32 268.926 15.348C270.074 15.348 271.208 15.362 272.328 15.39C273.448 15.39 274.484 15.39 275.436 15.39C276.416 15.39 277.214 15.39 277.83 15.39C279.118 15.39 280.574 15.39 282.198 15.39C283.85 15.362 285.32 15.32 286.608 15.264ZM279.384 29.628C279.384 29.628 279.384 29.768 279.384 30.048C279.384 30.328 279.384 30.468 279.384 30.468H271.698C271.698 30.468 271.698 30.328 271.698 30.048C271.698 29.768 271.698 29.628 271.698 29.628H279.384ZM280.602 24.084C280.49 25.68 280.434 26.898 280.434 27.738C280.462 28.578 280.476 29.348 280.476 30.048C280.476 30.748 280.49 31.518 280.518 32.358C280.546 33.198 280.616 34.416 280.728 36.012H279.762C279.65 35.116 279.51 34.248 279.342 33.408C279.202 32.54 278.866 31.84 278.334 31.308C277.83 30.748 276.962 30.468 275.73 30.468V29.628C276.654 29.628 277.354 29.446 277.83 29.082C278.334 28.69 278.698 28.2 278.922 27.612C279.146 27.024 279.3 26.422 279.384 25.806C279.468 25.162 279.552 24.588 279.636 24.084H280.602ZM291.243 15.264C291.831 15.292 292.601 15.32 293.553 15.348C294.505 15.376 295.443 15.39 296.367 15.39C297.683 15.39 298.943 15.376 300.147 15.348C301.351 15.32 302.205 15.306 302.709 15.306C306.097 15.306 308.631 16.076 310.311 17.616C311.991 19.156 312.831 21.144 312.831 23.58C312.831 24.588 312.663 25.652 312.327 26.772C311.991 27.864 311.403 28.886 310.563 29.838C309.751 30.762 308.631 31.518 307.203 32.106C305.775 32.694 303.969 32.988 301.785 32.988H297.753V32.148H301.365C303.353 32.148 304.865 31.77 305.901 31.014C306.965 30.258 307.679 29.264 308.043 28.032C308.435 26.8 308.631 25.47 308.631 24.042C308.631 21.382 308.099 19.394 307.035 18.078C305.999 16.762 304.207 16.104 301.659 16.104C300.371 16.104 299.531 16.342 299.139 16.818C298.747 17.294 298.551 18.26 298.551 19.716V40.548C298.551 41.556 298.649 42.312 298.845 42.816C299.069 43.32 299.489 43.656 300.105 43.824C300.721 43.992 301.617 44.104 302.793 44.16V45C302.065 44.944 301.141 44.916 300.021 44.916C298.901 44.888 297.767 44.874 296.619 44.874C295.527 44.874 294.505 44.888 293.553 44.916C292.601 44.916 291.831 44.944 291.243 45V44.16C292.195 44.104 292.909 43.992 293.385 43.824C293.889 43.656 294.225 43.32 294.393 42.816C294.561 42.312 294.645 41.556 294.645 40.548V19.716C294.645 18.68 294.561 17.924 294.393 17.448C294.225 16.944 293.889 16.608 293.385 16.44C292.909 16.244 292.195 16.132 291.243 16.104V15.264Z" fill="#00875F"/>
<path d="M141.764 59.9307C142.352 59.9587 143.122 59.9867 144.074 60.0147C145.026 60.0427 145.964 60.0567 146.888 60.0567C148.204 60.0567 149.464 60.0427 150.668 60.0147C151.872 59.9867 152.726 59.9727 153.23 59.9727C156.17 59.9727 158.382 60.5887 159.866 61.8207C161.35 63.0527 162.092 64.6347 162.092 66.5667C162.092 67.5467 161.882 68.5127 161.462 69.4647C161.07 70.3887 160.398 71.2427 159.446 72.0267C158.522 72.7827 157.276 73.3987 155.708 73.8747V73.9587C157.92 74.2387 159.642 74.7707 160.874 75.5547C162.134 76.3107 163.016 77.2067 163.52 78.2427C164.024 79.2787 164.276 80.3707 164.276 81.5187C164.276 83.1147 163.87 84.5287 163.058 85.7607C162.274 86.9647 161.126 87.9167 159.614 88.6167C158.102 89.3167 156.296 89.6667 154.196 89.6667C153.58 89.6667 152.656 89.6527 151.424 89.6247C150.192 89.5687 148.708 89.5407 146.972 89.5407C145.992 89.5407 145.026 89.5547 144.074 89.5827C143.122 89.5827 142.352 89.6107 141.764 89.6667V88.8267C142.716 88.7707 143.43 88.6587 143.906 88.4907C144.41 88.3227 144.746 87.9867 144.914 87.4827C145.082 86.9787 145.166 86.2227 145.166 85.2147V64.3827C145.166 63.3467 145.082 62.5907 144.914 62.1147C144.746 61.6107 144.41 61.2747 143.906 61.1067C143.43 60.9107 142.716 60.7987 141.764 60.7707V59.9307ZM152.18 60.7707C150.892 60.7707 150.052 61.0087 149.66 61.4847C149.268 61.9607 149.072 62.9267 149.072 64.3827V85.2147C149.072 86.1947 149.156 86.9367 149.324 87.4407C149.492 87.9447 149.8 88.2807 150.248 88.4487C150.696 88.6167 151.354 88.7007 152.222 88.7007C154.966 88.7007 156.954 88.0707 158.186 86.8107C159.446 85.5227 160.076 83.7027 160.076 81.3507C160.076 79.1947 159.488 77.5287 158.312 76.3527C157.164 75.1767 155.26 74.5887 152.6 74.5887H148.274C148.274 74.5887 148.274 74.4767 148.274 74.2527C148.274 74.0007 148.274 73.8747 148.274 73.8747H151.886C153.538 73.8747 154.812 73.5667 155.708 72.9507C156.604 72.3067 157.22 71.4667 157.556 70.4307C157.892 69.3667 158.06 68.2327 158.06 67.0287C158.06 64.9567 157.598 63.4027 156.674 62.3667C155.778 61.3027 154.28 60.7707 152.18 60.7707ZM173.35 89.9607C172.202 89.9607 171.208 89.7507 170.368 89.3307C169.528 88.8827 168.884 88.2667 168.436 87.4827C168.016 86.6987 167.806 85.7887 167.806 84.7527C167.806 83.5207 168.086 82.5127 168.646 81.7287C169.234 80.9447 169.976 80.3147 170.872 79.8387C171.768 79.3627 172.706 78.9707 173.686 78.6627C174.694 78.3267 175.646 78.0187 176.542 77.7387C177.438 77.4307 178.166 77.0807 178.726 76.6887C179.314 76.2967 179.608 75.7787 179.608 75.1347V72.5307C179.608 71.3547 179.426 70.4587 179.062 69.8427C178.726 69.2267 178.264 68.8207 177.676 68.6247C177.088 68.4007 176.43 68.2887 175.702 68.2887C175.002 68.2887 174.246 68.3867 173.434 68.5827C172.65 68.7787 172.02 69.1847 171.544 69.8007C172.076 69.9127 172.538 70.1927 172.93 70.6407C173.322 71.0887 173.518 71.6627 173.518 72.3627C173.518 73.0627 173.294 73.6227 172.846 74.0427C172.398 74.4347 171.824 74.6307 171.124 74.6307C170.312 74.6307 169.71 74.3787 169.318 73.8747C168.954 73.3427 168.772 72.7547 168.772 72.1107C168.772 71.3827 168.954 70.7947 169.318 70.3467C169.682 69.8987 170.144 69.4787 170.704 69.0867C171.348 68.6387 172.174 68.2607 173.182 67.9527C174.218 67.6167 175.38 67.4487 176.668 67.4487C177.816 67.4487 178.796 67.5887 179.608 67.8687C180.42 68.1207 181.092 68.4987 181.624 69.0027C182.352 69.6747 182.828 70.5007 183.052 71.4807C183.276 72.4327 183.388 73.5807 183.388 74.9247V86.6007C183.388 87.3007 183.486 87.8047 183.682 88.1127C183.906 88.4207 184.242 88.5747 184.69 88.5747C184.998 88.5747 185.292 88.5047 185.572 88.3647C185.852 88.2247 186.188 88.0007 186.58 87.6927L187.042 88.4067C186.454 88.8547 185.894 89.2327 185.362 89.5407C184.83 89.8207 184.116 89.9607 183.22 89.9607C182.408 89.9607 181.736 89.8207 181.204 89.5407C180.672 89.2607 180.266 88.8547 179.986 88.3227C179.734 87.7627 179.608 87.0627 179.608 86.2227C178.852 87.4827 177.942 88.4207 176.878 89.0367C175.842 89.6527 174.666 89.9607 173.35 89.9607ZM174.862 88.2807C175.786 88.2807 176.64 88.0147 177.424 87.4827C178.236 86.9507 178.964 86.1527 179.608 85.0887V76.8567C179.272 77.3327 178.782 77.7387 178.138 78.0747C177.494 78.3827 176.794 78.7047 176.038 79.0407C175.282 79.3487 174.554 79.7267 173.854 80.1747C173.182 80.5947 172.622 81.1547 172.174 81.8547C171.726 82.5547 171.502 83.4647 171.502 84.5847C171.502 85.7047 171.796 86.6007 172.384 87.2727C173 87.9447 173.826 88.2807 174.862 88.2807ZM195.822 67.4487C196.942 67.4487 197.894 67.6307 198.678 67.9947C199.462 68.3587 200.036 68.6947 200.4 69.0027C201.324 69.7587 201.884 69.2547 202.08 67.4907H203.046C202.99 68.2747 202.948 69.2127 202.92 70.3047C202.892 71.3687 202.878 72.8107 202.878 74.6307H201.912C201.744 73.5947 201.45 72.5867 201.03 71.6067C200.638 70.6267 200.05 69.8287 199.266 69.2127C198.482 68.5687 197.46 68.2467 196.2 68.2467C195.22 68.2467 194.394 68.5267 193.722 69.0867C193.078 69.6187 192.756 70.4167 192.756 71.4807C192.756 72.3207 193.008 73.0487 193.512 73.6647C194.016 74.2527 194.674 74.8127 195.486 75.3447C196.298 75.8487 197.18 76.4087 198.132 77.0247C199.196 77.6967 200.162 78.3827 201.03 79.0827C201.898 79.7827 202.584 80.5527 203.088 81.3927C203.62 82.2327 203.886 83.2267 203.886 84.3747C203.886 85.6627 203.55 86.7407 202.878 87.6087C202.206 88.4767 201.324 89.1347 200.232 89.5827C199.168 90.0307 197.992 90.2547 196.704 90.2547C196.088 90.2547 195.5 90.1987 194.94 90.0867C194.408 90.0027 193.89 89.8627 193.386 89.6667C193.106 89.5267 192.812 89.3587 192.504 89.1627C192.224 88.9667 191.944 88.7567 191.664 88.5327C191.384 88.3087 191.132 88.3227 190.908 88.5747C190.684 88.7987 190.516 89.2607 190.404 89.9607H189.438C189.494 89.0647 189.536 87.9727 189.564 86.6847C189.592 85.3967 189.606 83.6887 189.606 81.5607H190.572C190.768 83.1287 191.048 84.5007 191.412 85.6767C191.776 86.8527 192.35 87.7767 193.134 88.4487C193.918 89.0927 195.01 89.4147 196.41 89.4147C196.97 89.4147 197.53 89.2887 198.09 89.0367C198.678 88.7847 199.168 88.3647 199.56 87.7767C199.952 87.1887 200.148 86.4047 200.148 85.4247C200.148 84.1927 199.7 83.1847 198.804 82.4007C197.908 81.6167 196.774 80.7907 195.402 79.9227C194.394 79.2787 193.442 78.6347 192.546 77.9907C191.678 77.3467 190.964 76.6187 190.404 75.8067C189.872 74.9947 189.606 74.0147 189.606 72.8667C189.606 71.6067 189.886 70.5847 190.446 69.8007C191.034 68.9887 191.804 68.4007 192.756 68.0367C193.708 67.6447 194.73 67.4487 195.822 67.4487ZM213.683 56.7807V72.4887C214.411 70.5847 215.419 69.2687 216.707 68.5407C218.023 67.8127 219.395 67.4487 220.823 67.4487C221.887 67.4487 222.769 67.5887 223.469 67.8687C224.197 68.1487 224.799 68.5407 225.275 69.0447C225.807 69.6047 226.185 70.3047 226.409 71.1447C226.633 71.9847 226.745 73.1187 226.745 74.5467V85.7607C226.745 86.9367 226.983 87.7347 227.459 88.1547C227.963 88.5747 228.789 88.7847 229.937 88.7847V89.6667C229.461 89.6387 228.733 89.6107 227.753 89.5827C226.773 89.5267 225.821 89.4987 224.897 89.4987C223.973 89.4987 223.063 89.5267 222.167 89.5827C221.299 89.6107 220.641 89.6387 220.193 89.6667V88.7847C221.201 88.7847 221.915 88.5747 222.335 88.1547C222.755 87.7347 222.965 86.9367 222.965 85.7607V73.6227C222.965 72.7547 222.895 71.9567 222.755 71.2287C222.615 70.5007 222.293 69.9127 221.789 69.4647C221.313 69.0167 220.571 68.7927 219.563 68.7927C218.415 68.7927 217.393 69.1147 216.497 69.7587C215.629 70.4027 214.943 71.2987 214.439 72.4467C213.935 73.5947 213.683 74.9107 213.683 76.3947V85.7607C213.683 86.9367 213.893 87.7347 214.313 88.1547C214.733 88.5747 215.447 88.7847 216.455 88.7847V89.6667C216.007 89.6387 215.335 89.6107 214.439 89.5827C213.571 89.5267 212.675 89.4987 211.751 89.4987C210.827 89.4987 209.875 89.5267 208.895 89.5827C207.915 89.6107 207.187 89.6387 206.711 89.6667V88.7847C207.859 88.7847 208.671 88.5747 209.147 88.1547C209.651 87.7347 209.903 86.9367 209.903 85.7607V61.8207C209.903 60.5607 209.679 59.6367 209.231 59.0487C208.783 58.4327 207.943 58.1247 206.711 58.1247V57.2427C207.607 57.3267 208.475 57.3687 209.315 57.3687C210.127 57.3687 210.897 57.3267 211.625 57.2427C212.381 57.1307 213.067 56.9767 213.683 56.7807Z" fill="#4F5B71"/>
<path d="M253.495 59.9307V60.7707C252.543 60.7987 251.815 60.9107 251.311 61.1067C250.835 61.2747 250.513 61.6107 250.345 62.1147C250.177 62.5907 250.093 63.3467 250.093 64.3827V85.2147C250.093 86.2227 250.177 86.9787 250.345 87.4827C250.513 87.9867 250.835 88.3227 251.311 88.4907C251.815 88.6587 252.543 88.7707 253.495 88.8267V89.6667C252.851 89.6107 252.039 89.5827 251.059 89.5827C250.107 89.5547 249.141 89.5407 248.161 89.5407C247.069 89.5407 246.047 89.5547 245.095 89.5827C244.143 89.5827 243.373 89.6107 242.785 89.6667V88.8267C243.737 88.7707 244.451 88.6587 244.927 88.4907C245.431 88.3227 245.767 87.9867 245.935 87.4827C246.103 86.9787 246.187 86.2227 246.187 85.2147V64.3827C246.187 63.3467 246.103 62.5907 245.935 62.1147C245.767 61.6107 245.431 61.2747 244.927 61.1067C244.451 60.9107 243.737 60.7987 242.785 60.7707V59.9307C243.373 59.9587 244.143 59.9867 245.095 60.0147C246.047 60.0427 247.069 60.0567 248.161 60.0567C249.141 60.0567 250.107 60.0427 251.059 60.0147C252.039 59.9867 252.851 59.9587 253.495 59.9307ZM270.584 67.4487C271.648 67.4487 272.53 67.5887 273.23 67.8687C273.958 68.1487 274.56 68.5407 275.036 69.0447C275.568 69.6047 275.946 70.3047 276.17 71.1447C276.394 71.9847 276.506 73.1187 276.506 74.5467V85.7607C276.506 86.9367 276.744 87.7347 277.22 88.1547C277.724 88.5747 278.55 88.7847 279.698 88.7847V89.6667C279.222 89.6387 278.494 89.6107 277.514 89.5827C276.534 89.5267 275.582 89.4987 274.658 89.4987C273.734 89.4987 272.824 89.5267 271.928 89.5827C271.06 89.6107 270.402 89.6387 269.954 89.6667V88.7847C270.962 88.7847 271.676 88.5747 272.096 88.1547C272.516 87.7347 272.726 86.9367 272.726 85.7607V73.6227C272.726 72.7547 272.656 71.9567 272.516 71.2287C272.376 70.5007 272.054 69.9127 271.55 69.4647C271.074 69.0167 270.332 68.7927 269.324 68.7927C268.148 68.7927 267.112 69.1287 266.216 69.8007C265.348 70.4727 264.662 71.3967 264.158 72.5727C263.682 73.7207 263.444 75.0087 263.444 76.4367V85.7607C263.444 86.9367 263.654 87.7347 264.074 88.1547C264.494 88.5747 265.208 88.7847 266.216 88.7847V89.6667C265.768 89.6387 265.096 89.6107 264.2 89.5827C263.332 89.5267 262.436 89.4987 261.512 89.4987C260.588 89.4987 259.636 89.5267 258.656 89.5827C257.676 89.6107 256.948 89.6387 256.472 89.6667V88.7847C257.62 88.7847 258.432 88.5747 258.908 88.1547C259.412 87.7347 259.664 86.9367 259.664 85.7607V72.6147C259.664 71.3547 259.44 70.4307 258.992 69.8427C258.544 69.2267 257.704 68.9187 256.472 68.9187V68.0367C257.368 68.1207 258.236 68.1627 259.076 68.1627C259.888 68.1627 260.658 68.1207 261.386 68.0367C262.142 67.9247 262.828 67.7707 263.444 67.5747V72.5307C264.172 70.6267 265.18 69.3107 266.468 68.5827C267.784 67.8267 269.156 67.4487 270.584 67.4487ZM288.294 61.0647V68.0787H294.51V68.9187H288.294V85.1727C288.294 86.4887 288.532 87.4127 289.008 87.9447C289.484 88.4767 290.142 88.7427 290.982 88.7427C291.822 88.7427 292.55 88.4067 293.166 87.7347C293.782 87.0347 294.314 85.8727 294.762 84.2487L295.602 84.4587C295.322 86.0827 294.762 87.4547 293.922 88.5747C293.11 89.6947 291.85 90.2547 290.142 90.2547C289.19 90.2547 288.406 90.1287 287.79 89.8767C287.174 89.6527 286.628 89.3167 286.152 88.8687C285.536 88.2247 285.102 87.4547 284.85 86.5587C284.626 85.6627 284.514 84.4727 284.514 82.9887V68.9187H280.482V68.0787H284.514V61.6527C285.214 61.6247 285.886 61.5687 286.53 61.4847C287.174 61.4007 287.762 61.2607 288.294 61.0647ZM306.586 67.4487C309.05 67.4487 310.968 68.2047 312.34 69.7167C313.74 71.2007 314.44 73.5247 314.44 76.6887H299.614L299.572 75.8907H310.408C310.464 74.5187 310.352 73.2587 310.072 72.1107C309.792 70.9347 309.344 69.9967 308.728 69.2967C308.14 68.5967 307.37 68.2467 306.418 68.2467C305.13 68.2467 303.982 68.8907 302.974 70.1787C301.994 71.4667 301.406 73.5107 301.21 76.3107L301.336 76.4787C301.28 76.8987 301.238 77.3607 301.21 77.8647C301.182 78.3687 301.168 78.8727 301.168 79.3767C301.168 81.2807 301.476 82.9187 302.092 84.2907C302.708 85.6627 303.506 86.7127 304.486 87.4407C305.494 88.1407 306.53 88.4907 307.594 88.4907C308.434 88.4907 309.232 88.3647 309.988 88.1127C310.744 87.8327 311.444 87.3847 312.088 86.7687C312.732 86.1527 313.292 85.3267 313.768 84.2907L314.608 84.6267C314.3 85.5507 313.796 86.4467 313.096 87.3147C312.396 88.1827 311.514 88.8967 310.45 89.4567C309.386 89.9887 308.154 90.2547 306.754 90.2547C304.738 90.2547 303.002 89.7927 301.546 88.8687C300.118 87.9447 299.012 86.6707 298.228 85.0467C297.472 83.3947 297.094 81.5047 297.094 79.3767C297.094 76.9127 297.486 74.7987 298.27 73.0347C299.054 71.2427 300.16 69.8707 301.588 68.9187C303.016 67.9387 304.682 67.4487 306.586 67.4487ZM330.688 67.4487C331.444 67.4487 332.102 67.6027 332.662 67.9107C333.25 68.2187 333.698 68.6247 334.006 69.1287C334.342 69.6047 334.51 70.1507 334.51 70.7667C334.51 71.4667 334.286 72.0827 333.838 72.6147C333.418 73.1467 332.844 73.4127 332.116 73.4127C331.528 73.4127 331.01 73.2307 330.562 72.8667C330.114 72.4747 329.89 71.9287 329.89 71.2287C329.89 70.6967 330.03 70.2487 330.31 69.8847C330.618 69.4927 330.954 69.1847 331.318 68.9607C331.122 68.6807 330.828 68.5407 330.436 68.5407C329.568 68.5407 328.77 68.8067 328.042 69.3387C327.314 69.8427 326.698 70.5007 326.194 71.3127C325.69 72.1247 325.298 72.9927 325.018 73.9167C324.738 74.8127 324.598 75.6527 324.598 76.4367V85.3407C324.598 86.7127 324.99 87.6367 325.774 88.1127C326.586 88.5607 327.678 88.7847 329.05 88.7847V89.6667C328.406 89.6387 327.496 89.6107 326.32 89.5827C325.144 89.5267 323.898 89.4987 322.582 89.4987C321.63 89.4987 320.678 89.5267 319.726 89.5827C318.802 89.6107 318.102 89.6387 317.626 89.6667V88.7847C318.774 88.7847 319.586 88.5747 320.062 88.1547C320.566 87.7347 320.818 86.9367 320.818 85.7607V72.6147C320.818 71.3547 320.594 70.4307 320.146 69.8427C319.698 69.2267 318.858 68.9187 317.626 68.9187V68.0367C318.522 68.1207 319.39 68.1627 320.23 68.1627C321.042 68.1627 321.812 68.1207 322.54 68.0367C323.296 67.9247 323.982 67.7707 324.598 67.5747V72.8247C324.906 72.0127 325.34 71.2007 325.9 70.3887C326.488 69.5487 327.188 68.8487 328 68.2887C328.812 67.7287 329.708 67.4487 330.688 67.4487ZM346.539 56.8227C347.323 56.8227 348.009 56.9347 348.597 57.1587C349.213 57.3547 349.745 57.6207 350.193 57.9567C350.613 58.2927 350.935 58.6847 351.159 59.1327C351.383 59.5807 351.495 60.0567 351.495 60.5607C351.495 61.2047 351.285 61.7367 350.865 62.1567C350.445 62.5767 349.913 62.7867 349.269 62.7867C348.653 62.7867 348.107 62.5907 347.631 62.1987C347.183 61.7787 346.959 61.2187 346.959 60.5187C346.959 59.9307 347.113 59.4547 347.421 59.0907C347.757 58.7267 348.191 58.4887 348.723 58.3767C348.639 58.1247 348.415 57.9147 348.051 57.7467C347.715 57.5507 347.253 57.4527 346.665 57.4527C346.021 57.4527 345.461 57.5927 344.985 57.8727C344.537 58.1527 344.187 58.5307 343.935 59.0067C343.599 59.5947 343.389 60.4767 343.305 61.6527C343.221 62.8007 343.179 64.5787 343.179 66.9867V68.0787H347.673V68.9187H343.179V85.3407C343.179 86.7127 343.571 87.6367 344.355 88.1127C345.167 88.5607 346.259 88.7847 347.631 88.7847V89.6667C346.987 89.6387 346.077 89.6107 344.901 89.5827C343.725 89.5267 342.479 89.4987 341.163 89.4987C340.211 89.4987 339.259 89.5267 338.307 89.5827C337.383 89.6107 336.683 89.6387 336.207 89.6667V88.7847C337.355 88.7847 338.167 88.5747 338.643 88.1547C339.147 87.7347 339.399 86.9367 339.399 85.7607V68.9187H336.039V68.0787H339.399C339.399 66.4267 339.469 65.0407 339.609 63.9207C339.749 62.8007 339.973 61.8487 340.281 61.0647C340.589 60.2527 341.009 59.5387 341.541 58.9227C342.101 58.2787 342.815 57.7747 343.683 57.4107C344.551 57.0187 345.503 56.8227 346.539 56.8227ZM356.075 89.9607C354.927 89.9607 353.933 89.7507 353.093 89.3307C352.253 88.8827 351.609 88.2667 351.161 87.4827C350.741 86.6987 350.531 85.7887 350.531 84.7527C350.531 83.5207 350.811 82.5127 351.371 81.7287C351.959 80.9447 352.701 80.3147 353.597 79.8387C354.493 79.3627 355.431 78.9707 356.411 78.6627C357.419 78.3267 358.371 78.0187 359.267 77.7387C360.163 77.4307 360.891 77.0807 361.451 76.6887C362.039 76.2967 362.333 75.7787 362.333 75.1347V72.5307C362.333 71.3547 362.151 70.4587 361.787 69.8427C361.451 69.2267 360.989 68.8207 360.401 68.6247C359.813 68.4007 359.155 68.2887 358.427 68.2887C357.727 68.2887 356.971 68.3867 356.159 68.5827C355.375 68.7787 354.745 69.1847 354.269 69.8007C354.801 69.9127 355.263 70.1927 355.655 70.6407C356.047 71.0887 356.243 71.6627 356.243 72.3627C356.243 73.0627 356.019 73.6227 355.571 74.0427C355.123 74.4347 354.549 74.6307 353.849 74.6307C353.037 74.6307 352.435 74.3787 352.043 73.8747C351.679 73.3427 351.497 72.7547 351.497 72.1107C351.497 71.3827 351.679 70.7947 352.043 70.3467C352.407 69.8987 352.869 69.4787 353.429 69.0867C354.073 68.6387 354.899 68.2607 355.907 67.9527C356.943 67.6167 358.105 67.4487 359.393 67.4487C360.541 67.4487 361.521 67.5887 362.333 67.8687C363.145 68.1207 363.817 68.4987 364.349 69.0027C365.077 69.6747 365.553 70.5007 365.777 71.4807C366.001 72.4327 366.113 73.5807 366.113 74.9247V86.6007C366.113 87.3007 366.211 87.8047 366.407 88.1127C366.631 88.4207 366.967 88.5747 367.415 88.5747C367.723 88.5747 368.017 88.5047 368.297 88.3647C368.577 88.2247 368.913 88.0007 369.305 87.6927L369.767 88.4067C369.179 88.8547 368.619 89.2327 368.087 89.5407C367.555 89.8207 366.841 89.9607 365.945 89.9607C365.133 89.9607 364.461 89.8207 363.929 89.5407C363.397 89.2607 362.991 88.8547 362.711 88.3227C362.459 87.7627 362.333 87.0627 362.333 86.2227C361.577 87.4827 360.667 88.4207 359.603 89.0367C358.567 89.6527 357.391 89.9607 356.075 89.9607ZM357.587 88.2807C358.511 88.2807 359.365 88.0147 360.149 87.4827C360.961 86.9507 361.689 86.1527 362.333 85.0887V76.8567C361.997 77.3327 361.507 77.7387 360.863 78.0747C360.219 78.3827 359.519 78.7047 358.763 79.0407C358.007 79.3487 357.279 79.7267 356.579 80.1747C355.907 80.5947 355.347 81.1547 354.899 81.8547C354.451 82.5547 354.227 83.4647 354.227 84.5847C354.227 85.7047 354.521 86.6007 355.109 87.2727C355.725 87.9447 356.551 88.2807 357.587 88.2807ZM381.529 67.4487C382.425 67.4487 383.293 67.5607 384.133 67.7847C384.973 68.0087 385.729 68.3447 386.401 68.7927C387.045 69.2127 387.535 69.7027 387.871 70.2627C388.207 70.7947 388.375 71.3827 388.375 72.0267C388.375 72.7827 388.165 73.3707 387.745 73.7907C387.325 74.1827 386.793 74.3787 386.149 74.3787C385.533 74.3787 384.987 74.1967 384.511 73.8327C384.063 73.4687 383.839 72.9507 383.839 72.2787C383.839 71.6347 384.007 71.1167 384.343 70.7247C384.707 70.3327 385.127 70.0807 385.603 69.9687C385.323 69.4647 384.819 69.0447 384.091 68.7087C383.391 68.3727 382.635 68.2047 381.823 68.2047C381.123 68.2047 380.423 68.3727 379.723 68.7087C379.023 69.0447 378.379 69.6047 377.791 70.3887C377.203 71.1447 376.727 72.1947 376.363 73.5387C375.999 74.8547 375.817 76.5067 375.817 78.4947C375.817 80.9587 376.097 82.9187 376.657 84.3747C377.217 85.8307 377.945 86.8807 378.841 87.5247C379.765 88.1407 380.773 88.4487 381.865 88.4487C382.593 88.4487 383.335 88.3087 384.091 88.0287C384.847 87.7487 385.561 87.3007 386.233 86.6847C386.905 86.0407 387.479 85.1867 387.955 84.1227L388.753 84.4167C388.473 85.3127 388.011 86.2227 387.367 87.1467C386.723 88.0427 385.883 88.7847 384.847 89.3727C383.811 89.9607 382.537 90.2547 381.025 90.2547C379.289 90.2547 377.721 89.8067 376.321 88.9107C374.921 88.0147 373.801 86.7407 372.961 85.0887C372.149 83.4087 371.743 81.4207 371.743 79.1247C371.743 76.8287 372.149 74.8127 372.961 73.0767C373.801 71.3127 374.963 69.9407 376.447 68.9607C377.931 67.9527 379.625 67.4487 381.529 67.4487ZM401.66 67.4487C404.124 67.4487 406.042 68.2047 407.414 69.7167C408.814 71.2007 409.514 73.5247 409.514 76.6887H394.688L394.646 75.8907H405.482C405.538 74.5187 405.426 73.2587 405.146 72.1107C404.866 70.9347 404.418 69.9967 403.802 69.2967C403.214 68.5967 402.444 68.2467 401.492 68.2467C400.204 68.2467 399.056 68.8907 398.048 70.1787C397.068 71.4667 396.48 73.5107 396.284 76.3107L396.41 76.4787C396.354 76.8987 396.312 77.3607 396.284 77.8647C396.256 78.3687 396.242 78.8727 396.242 79.3767C396.242 81.2807 396.55 82.9187 397.166 84.2907C397.782 85.6627 398.58 86.7127 399.56 87.4407C400.568 88.1407 401.604 88.4907 402.668 88.4907C403.508 88.4907 404.306 88.3647 405.062 88.1127C405.818 87.8327 406.518 87.3847 407.162 86.7687C407.806 86.1527 408.366 85.3267 408.842 84.2907L409.682 84.6267C409.374 85.5507 408.87 86.4467 408.17 87.3147C407.47 88.1827 406.588 88.8967 405.524 89.4567C404.46 89.9887 403.228 90.2547 401.828 90.2547C399.812 90.2547 398.076 89.7927 396.62 88.8687C395.192 87.9447 394.086 86.6707 393.302 85.0467C392.546 83.3947 392.168 81.5047 392.168 79.3767C392.168 76.9127 392.56 74.7987 393.344 73.0347C394.128 71.2427 395.234 69.8707 396.662 68.9187C398.09 67.9387 399.756 67.4487 401.66 67.4487Z" fill="#4F5B71"/>
<path d="M134.5 50C134.5 73.4721 115.472 92.5 92 92.5C68.5279 92.5 49.5 73.4721 49.5 50C49.5 26.5279 68.5279 7.5 92 7.5C115.472 7.5 134.5 26.5279 134.5 50Z" fill="white" stroke="#00875F"/>
<path d="M55.3751 50.3119C54.884 51.0291 55.055 52.0261 55.757 52.5387L90.1315 77.6374C90.8336 78.15 91.8008 77.9841 92.292 77.2669V77.2669C92.7831 76.5496 92.6121 75.5526 91.9101 75.04L57.5356 49.9413C56.8335 49.4287 55.8662 49.5946 55.3751 50.3119V50.3119Z" fill="#00875F"/>
<rect width="21.7644" height="3.14797" rx="1.57399" transform="matrix(0.807628 0.589693 0.56498 -0.825105 73.7012 28.0669)" fill="#00875F"/>
<rect width="34.8414" height="3.14797" rx="1.57399" transform="matrix(0.807628 0.589693 0.56498 -0.825105 63.7153 39.9373)" fill="#00875F"/>
<rect width="21.6099" height="3.14797" rx="1.57399" transform="matrix(0.807628 -0.589693 0.56498 0.825105 90.28 35.8684)" fill="#00875F"/>
<path d="M91.1693 56.6737C90.6782 55.9564 90.8492 54.9594 91.5512 54.4468L116.864 35.9645C117.566 35.4519 118.533 35.6178 119.025 36.335V36.335C119.516 37.0523 119.345 38.0493 118.643 38.5619L93.3298 57.0442C92.6277 57.5569 91.6604 57.391 91.1693 56.6737V56.6737Z" fill="#00875F"/>
<path d="M90.28 15.8868C90.28 14.9368 91.0501 14.1667 92 14.1667V14.1667C92.95 14.1667 93.72 14.9368 93.72 15.8867V89.4167H90.28V15.8868Z" fill="#00875F"/>
<path d="M91.9349 75.1005C91.4438 74.3832 91.6148 73.3862 92.3168 72.8736L125.93 48.3307C126.632 47.818 127.6 47.9839 128.091 48.7012V48.7012C128.582 49.4184 128.411 50.4154 127.709 50.9281L94.0954 75.471C93.3933 75.9836 92.4261 75.8177 91.9349 75.1005V75.1005Z" fill="#00875F"/>
</svg>
