<svg width="24" height="24" viewBox="0 0 24 24" fill="none" xmlns="http://www.w3.org/2000/svg">
<path d="M3 1.56936C2.60218 1.56936 2.22064 1.7347 1.93934 2.02901C1.65804 2.32332 1.5 2.72249 1.5 3.13871V15.6936C1.5 16.1098 1.65804 16.509 1.93934 16.8033C2.22064 17.0976 2.60218 17.2629 3 17.2629H17.379C18.1746 17.2631 18.9375 17.5939 19.5 18.1826L22.5 21.3213V3.13871C22.5 2.72249 22.342 2.32332 22.0607 2.02901C21.7794 1.7347 21.3978 1.56936 21 1.56936H3ZM21 0C21.7956 0 22.5587 0.330685 23.1213 0.919308C23.6839 1.50793 24 2.30627 24 3.13871V23.2155C24 23.3708 23.9559 23.5225 23.8734 23.6516C23.7909 23.7806 23.6737 23.8812 23.5365 23.9405C23.3994 23.9998 23.2485 24.0152 23.1029 23.9848C22.9574 23.9543 22.8238 23.8794 22.719 23.7695L18.4395 19.2921C18.1583 18.9978 17.7768 18.8324 17.379 18.8323H3C2.20435 18.8323 1.44129 18.5016 0.87868 17.913C0.316071 17.3243 0 16.526 0 15.6936V3.13871C0 2.30627 0.316071 1.50793 0.87868 0.919308C1.44129 0.330685 2.20435 0 3 0L21 0Z" fill="#F5F5F5"/>
<path d="M7.5 9.41628C7.5 9.8325 7.34196 10.2317 7.06066 10.526C6.77936 10.8203 6.39782 10.9856 6 10.9856C5.60218 10.9856 5.22064 10.8203 4.93934 10.526C4.65804 10.2317 4.5 9.8325 4.5 9.41628C4.5 9.00006 4.65804 8.60089 4.93934 8.30658C5.22064 8.01227 5.60218 7.84692 6 7.84692C6.39782 7.84692 6.77936 8.01227 7.06066 8.30658C7.34196 8.60089 7.5 9.00006 7.5 9.41628ZM13.5 9.41628C13.5 9.8325 13.342 10.2317 13.0607 10.526C12.7794 10.8203 12.3978 10.9856 12 10.9856C11.6022 10.9856 11.2206 10.8203 10.9393 10.526C10.658 10.2317 10.5 9.8325 10.5 9.41628C10.5 9.00006 10.658 8.60089 10.9393 8.30658C11.2206 8.01227 11.6022 7.84692 12 7.84692C12.3978 7.84692 12.7794 8.01227 13.0607 8.30658C13.342 8.60089 13.5 9.00006 13.5 9.41628ZM19.5 9.41628C19.5 9.8325 19.342 10.2317 19.0607 10.526C18.7794 10.8203 18.3978 10.9856 18 10.9856C17.6022 10.9856 17.2206 10.8203 16.9393 10.526C16.658 10.2317 16.5 9.8325 16.5 9.41628C16.5 9.00006 16.658 8.60089 16.9393 8.30658C17.2206 8.01227 17.6022 7.84692 18 7.84692C18.3978 7.84692 18.7794 8.01227 19.0607 8.30658C19.342 8.60089 19.5 9.00006 19.5 9.41628Z" fill="#F5F5F5"/>
</svg>
