<svg width="24" height="24" viewBox="0 0 24 24" fill="none" xmlns="http://www.w3.org/2000/svg">
<path d="M0 17.1429C0 16.6882 0.180612 16.2522 0.502103 15.9307C0.823593 15.6092 1.25963 15.4286 1.71429 15.4286H5.14286C5.59751 15.4286 6.03355 15.6092 6.35504 15.9307C6.67653 16.2522 6.85714 16.6882 6.85714 17.1429V22.2857C6.85714 22.7404 6.67653 23.1764 6.35504 23.4979C6.03355 23.8194 5.59751 24 5.14286 24H1.71429C1.25963 24 0.823593 23.8194 0.502103 23.4979C0.180612 23.1764 0 22.7404 0 22.2857V17.1429ZM8.57143 10.2857C8.57143 9.83106 8.75204 9.39502 9.07353 9.07353C9.39502 8.75204 9.83106 8.57143 10.2857 8.57143H13.7143C14.1689 8.57143 14.605 8.75204 14.9265 9.07353C15.248 9.39502 15.4286 9.83106 15.4286 10.2857V22.2857C15.4286 22.7404 15.248 23.1764 14.9265 23.4979C14.605 23.8194 14.1689 24 13.7143 24H10.2857C9.83106 24 9.39502 23.8194 9.07353 23.4979C8.75204 23.1764 8.57143 22.7404 8.57143 22.2857V10.2857ZM17.1429 1.71429C17.1429 1.25963 17.3235 0.823593 17.645 0.502103C17.9665 0.180612 18.4025 0 18.8571 0H22.2857C22.7404 0 23.1764 0.180612 23.4979 0.502103C23.8194 0.823593 24 1.25963 24 1.71429V22.2857C24 22.7404 23.8194 23.1764 23.4979 23.4979C23.1764 23.8194 22.7404 24 22.2857 24H18.8571C18.4025 24 17.9665 23.8194 17.645 23.4979C17.3235 23.1764 17.1429 22.7404 17.1429 22.2857V1.71429Z" fill="#F5F5F5"/>
</svg>
