<svg width="472" height="101" viewBox="0 0 472 101" fill="none" xmlns="http://www.w3.org/2000/svg">
<path d="M153.585 15.054L163.833 41.472C164.253 42.536 164.729 43.25 165.261 43.614C165.793 43.95 166.283 44.132 166.731 44.16V45C166.171 44.944 165.485 44.916 164.673 44.916C163.861 44.888 163.049 44.874 162.237 44.874C161.145 44.874 160.123 44.888 159.171 44.916C158.219 44.916 157.449 44.944 156.861 45V44.16C158.289 44.104 159.199 43.866 159.591 43.446C159.983 42.998 159.899 42.06 159.339 40.632L151.527 19.758L152.199 19.212L144.891 38.196C144.443 39.316 144.177 40.268 144.093 41.052C144.009 41.808 144.079 42.41 144.303 42.858C144.555 43.306 144.961 43.628 145.521 43.824C146.109 44.02 146.837 44.132 147.705 44.16V45C146.921 44.944 146.095 44.916 145.227 44.916C144.387 44.888 143.603 44.874 142.875 44.874C142.175 44.874 141.573 44.888 141.069 44.916C140.593 44.916 140.145 44.944 139.725 45V44.16C140.285 44.02 140.859 43.698 141.447 43.194C142.035 42.662 142.567 41.766 143.043 40.506L152.913 15.054C153.025 15.054 153.137 15.054 153.249 15.054C153.361 15.054 153.473 15.054 153.585 15.054ZM158.709 32.904V33.744H146.193L146.613 32.904H158.709ZM181.804 22.782C182.868 22.782 183.75 22.922 184.45 23.202C185.178 23.482 185.78 23.874 186.256 24.378C186.788 24.938 187.166 25.638 187.39 26.478C187.614 27.318 187.726 28.452 187.726 29.88V41.094C187.726 42.27 187.964 43.068 188.44 43.488C188.944 43.908 189.77 44.118 190.918 44.118V45C190.442 44.972 189.714 44.944 188.734 44.916C187.754 44.86 186.802 44.832 185.878 44.832C184.954 44.832 184.044 44.86 183.148 44.916C182.28 44.944 181.622 44.972 181.174 45V44.118C182.182 44.118 182.896 43.908 183.316 43.488C183.736 43.068 183.946 42.27 183.946 41.094V28.956C183.946 28.088 183.876 27.29 183.736 26.562C183.596 25.834 183.274 25.246 182.77 24.798C182.294 24.35 181.552 24.126 180.544 24.126C179.368 24.126 178.332 24.462 177.436 25.134C176.568 25.806 175.882 26.73 175.378 27.906C174.902 29.054 174.664 30.342 174.664 31.77V41.094C174.664 42.27 174.874 43.068 175.294 43.488C175.714 43.908 176.428 44.118 177.436 44.118V45C176.988 44.972 176.316 44.944 175.42 44.916C174.552 44.86 173.656 44.832 172.732 44.832C171.808 44.832 170.856 44.86 169.876 44.916C168.896 44.944 168.168 44.972 167.692 45V44.118C168.84 44.118 169.652 43.908 170.128 43.488C170.632 43.068 170.884 42.27 170.884 41.094V27.948C170.884 26.688 170.66 25.764 170.212 25.176C169.764 24.56 168.924 24.252 167.692 24.252V23.37C168.588 23.454 169.456 23.496 170.296 23.496C171.108 23.496 171.878 23.454 172.606 23.37C173.362 23.258 174.048 23.104 174.664 22.908V27.864C175.392 25.96 176.4 24.644 177.688 23.916C179.004 23.16 180.376 22.782 181.804 22.782ZM206.864 22.782C207.928 22.782 208.81 22.922 209.51 23.202C210.238 23.482 210.84 23.874 211.316 24.378C211.848 24.938 212.226 25.638 212.45 26.478C212.674 27.318 212.786 28.452 212.786 29.88V41.094C212.786 42.27 213.024 43.068 213.5 43.488C214.004 43.908 214.83 44.118 215.978 44.118V45C215.502 44.972 214.774 44.944 213.794 44.916C212.814 44.86 211.862 44.832 210.938 44.832C210.014 44.832 209.104 44.86 208.208 44.916C207.34 44.944 206.682 44.972 206.234 45V44.118C207.242 44.118 207.956 43.908 208.376 43.488C208.796 43.068 209.006 42.27 209.006 41.094V28.956C209.006 28.088 208.936 27.29 208.796 26.562C208.656 25.834 208.334 25.246 207.83 24.798C207.354 24.35 206.612 24.126 205.604 24.126C204.428 24.126 203.392 24.462 202.496 25.134C201.628 25.806 200.942 26.73 200.438 27.906C199.962 29.054 199.724 30.342 199.724 31.77V41.094C199.724 42.27 199.934 43.068 200.354 43.488C200.774 43.908 201.488 44.118 202.496 44.118V45C202.048 44.972 201.376 44.944 200.48 44.916C199.612 44.86 198.716 44.832 197.792 44.832C196.868 44.832 195.916 44.86 194.936 44.916C193.956 44.944 193.228 44.972 192.752 45V44.118C193.9 44.118 194.712 43.908 195.188 43.488C195.692 43.068 195.944 42.27 195.944 41.094V27.948C195.944 26.688 195.72 25.764 195.272 25.176C194.824 24.56 193.984 24.252 192.752 24.252V23.37C193.648 23.454 194.516 23.496 195.356 23.496C196.168 23.496 196.938 23.454 197.666 23.37C198.422 23.258 199.108 23.104 199.724 22.908V27.864C200.452 25.96 201.46 24.644 202.748 23.916C204.064 23.16 205.436 22.782 206.864 22.782ZM228.103 22.782C229.895 22.782 231.505 23.174 232.933 23.958C234.361 24.742 235.495 25.974 236.335 27.654C237.203 29.334 237.637 31.518 237.637 34.206C237.637 36.894 237.203 39.078 236.335 40.758C235.495 42.41 234.361 43.628 232.933 44.412C231.505 45.196 229.895 45.588 228.103 45.588C226.339 45.588 224.729 45.196 223.273 44.412C221.845 43.628 220.697 42.41 219.829 40.758C218.989 39.078 218.569 36.894 218.569 34.206C218.569 31.518 218.989 29.334 219.829 27.654C220.697 25.974 221.845 24.742 223.273 23.958C224.729 23.174 226.339 22.782 228.103 22.782ZM228.103 23.622C226.507 23.622 225.191 24.448 224.155 26.1C223.147 27.752 222.643 30.454 222.643 34.206C222.643 37.958 223.147 40.66 224.155 42.312C225.191 43.936 226.507 44.748 228.103 44.748C229.699 44.748 231.001 43.936 232.009 42.312C233.045 40.66 233.563 37.958 233.563 34.206C233.563 30.454 233.045 27.752 232.009 26.1C231.001 24.448 229.699 23.622 228.103 23.622ZM262.664 15.264C262.552 16.328 262.468 17.364 262.412 18.372C262.384 19.352 262.37 20.108 262.37 20.64C262.37 21.312 262.384 21.942 262.412 22.53C262.44 23.118 262.468 23.636 262.496 24.084H261.53C261.334 22.124 261.068 20.584 260.732 19.464C260.396 18.316 259.808 17.49 258.968 16.986C258.128 16.482 256.826 16.23 255.062 16.23H252.794V40.128C252.794 41.248 252.892 42.088 253.088 42.648C253.312 43.208 253.732 43.586 254.348 43.782C254.964 43.978 255.86 44.104 257.036 44.16V45C256.308 44.944 255.384 44.916 254.264 44.916C253.144 44.888 252.01 44.874 250.862 44.874C249.602 44.874 248.412 44.888 247.292 44.916C246.2 44.916 245.318 44.944 244.646 45V44.16C245.822 44.104 246.718 43.978 247.334 43.782C247.95 43.586 248.356 43.208 248.552 42.648C248.776 42.088 248.888 41.248 248.888 40.128V16.23H246.62C244.884 16.23 243.582 16.482 242.714 16.986C241.874 17.49 241.286 18.316 240.95 19.464C240.614 20.584 240.348 22.124 240.152 24.084H239.186C239.242 23.636 239.27 23.118 239.27 22.53C239.298 21.942 239.312 21.312 239.312 20.64C239.312 20.108 239.284 19.352 239.228 18.372C239.2 17.364 239.13 16.328 239.018 15.264C240.194 15.292 241.468 15.32 242.84 15.348C244.24 15.376 245.64 15.39 247.04 15.39C248.44 15.39 249.714 15.39 250.862 15.39C252.01 15.39 253.27 15.39 254.642 15.39C256.042 15.39 257.442 15.376 258.842 15.348C260.242 15.32 261.516 15.292 262.664 15.264ZM286.608 15.264C286.496 16.244 286.412 17.196 286.356 18.12C286.328 19.044 286.314 19.744 286.314 20.22C286.314 20.724 286.328 21.214 286.356 21.69C286.384 22.138 286.412 22.516 286.44 22.824H285.474C285.306 21.172 285.068 19.87 284.76 18.918C284.452 17.938 283.92 17.252 283.164 16.86C282.436 16.44 281.33 16.23 279.846 16.23H276.36C275.408 16.23 274.68 16.314 274.176 16.482C273.7 16.622 273.378 16.944 273.21 17.448C273.042 17.924 272.958 18.68 272.958 19.716V40.548C272.958 41.556 273.042 42.312 273.21 42.816C273.378 43.32 273.7 43.656 274.176 43.824C274.68 43.964 275.408 44.034 276.36 44.034H279.426C281.19 44.034 282.52 43.796 283.416 43.32C284.34 42.844 284.998 42.074 285.39 41.01C285.81 39.918 286.118 38.448 286.314 36.6H287.28C287.196 37.356 287.154 38.364 287.154 39.624C287.154 40.156 287.168 40.926 287.196 41.934C287.252 42.914 287.336 43.936 287.448 45C286.02 44.944 284.41 44.916 282.618 44.916C280.826 44.888 279.23 44.874 277.83 44.874C277.214 44.874 276.416 44.874 275.436 44.874C274.484 44.874 273.448 44.888 272.328 44.916C271.208 44.916 270.074 44.93 268.926 44.958C267.778 44.958 266.686 44.972 265.65 45V44.16C266.602 44.104 267.316 43.992 267.792 43.824C268.296 43.656 268.632 43.32 268.8 42.816C268.968 42.312 269.052 41.556 269.052 40.548V19.716C269.052 18.68 268.968 17.924 268.8 17.448C268.632 16.944 268.296 16.608 267.792 16.44C267.316 16.244 266.602 16.132 265.65 16.104V15.264C266.686 15.292 267.778 15.32 268.926 15.348C270.074 15.348 271.208 15.362 272.328 15.39C273.448 15.39 274.484 15.39 275.436 15.39C276.416 15.39 277.214 15.39 277.83 15.39C279.118 15.39 280.574 15.39 282.198 15.39C283.85 15.362 285.32 15.32 286.608 15.264ZM279.384 29.628C279.384 29.628 279.384 29.768 279.384 30.048C279.384 30.328 279.384 30.468 279.384 30.468H271.698C271.698 30.468 271.698 30.328 271.698 30.048C271.698 29.768 271.698 29.628 271.698 29.628H279.384ZM280.602 24.084C280.49 25.68 280.434 26.898 280.434 27.738C280.462 28.578 280.476 29.348 280.476 30.048C280.476 30.748 280.49 31.518 280.518 32.358C280.546 33.198 280.616 34.416 280.728 36.012H279.762C279.65 35.116 279.51 34.248 279.342 33.408C279.202 32.54 278.866 31.84 278.334 31.308C277.83 30.748 276.962 30.468 275.73 30.468V29.628C276.654 29.628 277.354 29.446 277.83 29.082C278.334 28.69 278.698 28.2 278.922 27.612C279.146 27.024 279.3 26.422 279.384 25.806C279.468 25.162 279.552 24.588 279.636 24.084H280.602ZM291.243 15.264C291.831 15.292 292.601 15.32 293.553 15.348C294.505 15.376 295.443 15.39 296.367 15.39C297.683 15.39 298.943 15.376 300.147 15.348C301.351 15.32 302.205 15.306 302.709 15.306C306.097 15.306 308.631 16.076 310.311 17.616C311.991 19.156 312.831 21.144 312.831 23.58C312.831 24.588 312.663 25.652 312.327 26.772C311.991 27.864 311.403 28.886 310.563 29.838C309.751 30.762 308.631 31.518 307.203 32.106C305.775 32.694 303.969 32.988 301.785 32.988H297.753V32.148H301.365C303.353 32.148 304.865 31.77 305.901 31.014C306.965 30.258 307.679 29.264 308.043 28.032C308.435 26.8 308.631 25.47 308.631 24.042C308.631 21.382 308.099 19.394 307.035 18.078C305.999 16.762 304.207 16.104 301.659 16.104C300.371 16.104 299.531 16.342 299.139 16.818C298.747 17.294 298.551 18.26 298.551 19.716V40.548C298.551 41.556 298.649 42.312 298.845 42.816C299.069 43.32 299.489 43.656 300.105 43.824C300.721 43.992 301.617 44.104 302.793 44.16V45C302.065 44.944 301.141 44.916 300.021 44.916C298.901 44.888 297.767 44.874 296.619 44.874C295.527 44.874 294.505 44.888 293.553 44.916C292.601 44.916 291.831 44.944 291.243 45V44.16C292.195 44.104 292.909 43.992 293.385 43.824C293.889 43.656 294.225 43.32 294.393 42.816C294.561 42.312 294.645 41.556 294.645 40.548V19.716C294.645 18.68 294.561 17.924 294.393 17.448C294.225 16.944 293.889 16.608 293.385 16.44C292.909 16.244 292.195 16.132 291.243 16.104V15.264Z" fill="#00875F"/>
<path d="M155.792 59.3427C157.612 59.3427 159.082 59.6227 160.202 60.1827C161.322 60.7147 162.372 61.3447 163.352 62.0727C163.716 62.3527 163.996 62.4927 164.192 62.4927C164.724 62.4927 165.074 61.6387 165.242 59.9307H166.208C166.152 60.9667 166.11 62.2267 166.082 63.7107C166.054 65.1947 166.04 67.1547 166.04 69.5907H165.074C164.878 68.4147 164.64 67.2807 164.36 66.1887C164.08 65.0967 163.618 64.1587 162.974 63.3747C162.162 62.3387 161.098 61.5407 159.782 60.9807C158.466 60.3927 157.108 60.0987 155.708 60.0987C154.308 60.0987 153.034 60.4487 151.886 61.1487C150.766 61.8207 149.8 62.8007 148.988 64.0887C148.176 65.3767 147.546 66.9307 147.098 68.7507C146.678 70.5427 146.468 72.5727 146.468 74.8407C146.468 79.8807 147.28 83.5767 148.904 85.9287C150.528 88.2527 153.048 89.4147 156.464 89.4147C157.472 89.4147 158.34 89.2747 159.068 88.9947C159.824 88.6867 160.412 88.3927 160.832 88.1127C161.364 87.7487 161.7 87.4127 161.84 87.1047C161.98 86.7687 162.05 86.3347 162.05 85.8027V81.7707C162.05 80.6227 161.938 79.7687 161.714 79.2087C161.49 78.6487 161.07 78.2707 160.454 78.0747C159.866 77.8787 158.984 77.7667 157.808 77.7387V76.8987C158.312 76.9267 158.9 76.9547 159.572 76.9827C160.244 76.9827 160.944 76.9967 161.672 77.0247C162.428 77.0247 163.114 77.0247 163.73 77.0247C164.654 77.0247 165.48 77.0107 166.208 76.9827C166.964 76.9547 167.594 76.9267 168.098 76.8987V77.7387C167.482 77.7667 167.02 77.8647 166.712 78.0327C166.404 78.2007 166.194 78.5367 166.082 79.0407C165.998 79.5447 165.956 80.3147 165.956 81.3507V89.6667H165.116C165.088 89.1907 164.976 88.6727 164.78 88.1127C164.612 87.5527 164.346 87.2727 163.982 87.2727C163.814 87.2727 163.646 87.3147 163.478 87.3987C163.31 87.4827 163.016 87.6787 162.596 87.9867C161.672 88.6867 160.692 89.2467 159.656 89.6667C158.62 90.0587 157.416 90.2547 156.044 90.2547C153.16 90.2547 150.682 89.6667 148.61 88.4907C146.566 87.2867 144.998 85.5647 143.906 83.3247C142.814 81.0847 142.268 78.4107 142.268 75.3027C142.268 72.0267 142.856 69.1987 144.032 66.8187C145.208 64.4387 146.804 62.6047 148.82 61.3167C150.864 60.0007 153.188 59.3427 155.792 59.3427ZM183.811 67.4487C184.567 67.4487 185.225 67.6027 185.785 67.9107C186.373 68.2187 186.821 68.6247 187.129 69.1287C187.465 69.6047 187.633 70.1507 187.633 70.7667C187.633 71.4667 187.409 72.0827 186.961 72.6147C186.541 73.1467 185.967 73.4127 185.239 73.4127C184.651 73.4127 184.133 73.2307 183.685 72.8667C183.237 72.4747 183.013 71.9287 183.013 71.2287C183.013 70.6967 183.153 70.2487 183.433 69.8847C183.741 69.4927 184.077 69.1847 184.441 68.9607C184.245 68.6807 183.951 68.5407 183.559 68.5407C182.691 68.5407 181.893 68.8067 181.165 69.3387C180.437 69.8427 179.821 70.5007 179.317 71.3127C178.813 72.1247 178.421 72.9927 178.141 73.9167C177.861 74.8127 177.721 75.6527 177.721 76.4367V85.3407C177.721 86.7127 178.113 87.6367 178.897 88.1127C179.709 88.5607 180.801 88.7847 182.173 88.7847V89.6667C181.529 89.6387 180.619 89.6107 179.443 89.5827C178.267 89.5267 177.021 89.4987 175.705 89.4987C174.753 89.4987 173.801 89.5267 172.849 89.5827C171.925 89.6107 171.225 89.6387 170.749 89.6667V88.7847C171.897 88.7847 172.709 88.5747 173.185 88.1547C173.689 87.7347 173.941 86.9367 173.941 85.7607V72.6147C173.941 71.3547 173.717 70.4307 173.269 69.8427C172.821 69.2267 171.981 68.9187 170.749 68.9187V68.0367C171.645 68.1207 172.513 68.1627 173.353 68.1627C174.165 68.1627 174.935 68.1207 175.663 68.0367C176.419 67.9247 177.105 67.7707 177.721 67.5747V72.8247C178.029 72.0127 178.463 71.2007 179.023 70.3887C179.611 69.5487 180.311 68.8487 181.123 68.2887C181.935 67.7287 182.831 67.4487 183.811 67.4487ZM195.416 89.9607C194.268 89.9607 193.274 89.7507 192.434 89.3307C191.594 88.8827 190.95 88.2667 190.502 87.4827C190.082 86.6987 189.872 85.7887 189.872 84.7527C189.872 83.5207 190.152 82.5127 190.712 81.7287C191.3 80.9447 192.042 80.3147 192.938 79.8387C193.834 79.3627 194.772 78.9707 195.752 78.6627C196.76 78.3267 197.712 78.0187 198.608 77.7387C199.504 77.4307 200.232 77.0807 200.792 76.6887C201.38 76.2967 201.674 75.7787 201.674 75.1347V72.5307C201.674 71.3547 201.492 70.4587 201.128 69.8427C200.792 69.2267 200.33 68.8207 199.742 68.6247C199.154 68.4007 198.496 68.2887 197.768 68.2887C197.068 68.2887 196.312 68.3867 195.5 68.5827C194.716 68.7787 194.086 69.1847 193.61 69.8007C194.142 69.9127 194.604 70.1927 194.996 70.6407C195.388 71.0887 195.584 71.6627 195.584 72.3627C195.584 73.0627 195.36 73.6227 194.912 74.0427C194.464 74.4347 193.89 74.6307 193.19 74.6307C192.378 74.6307 191.776 74.3787 191.384 73.8747C191.02 73.3427 190.838 72.7547 190.838 72.1107C190.838 71.3827 191.02 70.7947 191.384 70.3467C191.748 69.8987 192.21 69.4787 192.77 69.0867C193.414 68.6387 194.24 68.2607 195.248 67.9527C196.284 67.6167 197.446 67.4487 198.734 67.4487C199.882 67.4487 200.862 67.5887 201.674 67.8687C202.486 68.1207 203.158 68.4987 203.69 69.0027C204.418 69.6747 204.894 70.5007 205.118 71.4807C205.342 72.4327 205.454 73.5807 205.454 74.9247V86.6007C205.454 87.3007 205.552 87.8047 205.748 88.1127C205.972 88.4207 206.308 88.5747 206.756 88.5747C207.064 88.5747 207.358 88.5047 207.638 88.3647C207.918 88.2247 208.254 88.0007 208.646 87.6927L209.108 88.4067C208.52 88.8547 207.96 89.2327 207.428 89.5407C206.896 89.8207 206.182 89.9607 205.286 89.9607C204.474 89.9607 203.802 89.8207 203.27 89.5407C202.738 89.2607 202.332 88.8547 202.052 88.3227C201.8 87.7627 201.674 87.0627 201.674 86.2227C200.918 87.4827 200.008 88.4207 198.944 89.0367C197.908 89.6527 196.732 89.9607 195.416 89.9607ZM196.928 88.2807C197.852 88.2807 198.706 88.0147 199.49 87.4827C200.302 86.9507 201.03 86.1527 201.674 85.0887V76.8567C201.338 77.3327 200.848 77.7387 200.204 78.0747C199.56 78.3827 198.86 78.7047 198.104 79.0407C197.348 79.3487 196.62 79.7267 195.92 80.1747C195.248 80.5947 194.688 81.1547 194.24 81.8547C193.792 82.5547 193.568 83.4647 193.568 84.5847C193.568 85.7047 193.862 86.6007 194.45 87.2727C195.066 87.9447 195.892 88.2807 196.928 88.2807ZM217.048 67.5747V93.3627C217.048 94.5667 217.398 95.3647 218.098 95.7567C218.826 96.1767 219.82 96.3867 221.08 96.3867V97.2687C220.464 97.2407 219.61 97.1987 218.518 97.1427C217.426 97.1147 216.264 97.1007 215.032 97.1007C214.164 97.1007 213.296 97.1147 212.428 97.1427C211.588 97.1987 210.944 97.2407 210.496 97.2687V96.3867C211.504 96.3867 212.218 96.2047 212.638 95.8407C213.058 95.4767 213.268 94.7907 213.268 93.7827V72.6147C213.268 71.3547 213.044 70.4307 212.596 69.8427C212.148 69.2267 211.308 68.9187 210.076 68.9187V68.0367C210.972 68.1207 211.84 68.1627 212.68 68.1627C213.492 68.1627 214.262 68.1207 214.99 68.0367C215.746 67.9247 216.432 67.7707 217.048 67.5747ZM223.768 67.4487C225.252 67.4487 226.582 67.8547 227.758 68.6667C228.934 69.4507 229.858 70.6127 230.53 72.1527C231.23 73.6927 231.58 75.5967 231.58 77.8647C231.58 79.3767 231.398 80.8747 231.034 82.3587C230.67 83.8147 230.096 85.1447 229.312 86.3487C228.556 87.5247 227.562 88.4767 226.33 89.2047C225.126 89.9047 223.67 90.2547 221.962 90.2547C220.646 90.2547 219.498 89.9467 218.518 89.3307C217.566 88.7147 216.922 87.9727 216.586 87.1047L217.006 86.5167C217.398 87.3007 217.958 87.9587 218.686 88.4907C219.442 89.0227 220.38 89.2887 221.5 89.2887C223.068 89.2887 224.286 88.7987 225.154 87.8187C226.022 86.8387 226.624 85.5367 226.96 83.9127C227.324 82.2607 227.506 80.4407 227.506 78.4527C227.506 76.2127 227.324 74.3787 226.96 72.9507C226.596 71.5227 226.05 70.4587 225.322 69.7587C224.594 69.0587 223.698 68.7087 222.634 68.7087C221.262 68.7087 220.016 69.2827 218.896 70.4307C217.776 71.5507 217.062 73.2587 216.754 75.5547L216.25 74.9667C216.558 72.5867 217.398 70.7387 218.77 69.4227C220.17 68.1067 221.836 67.4487 223.768 67.4487ZM241.369 56.7807V72.4887C242.097 70.5847 243.105 69.2687 244.393 68.5407C245.709 67.8127 247.081 67.4487 248.509 67.4487C249.573 67.4487 250.455 67.5887 251.155 67.8687C251.883 68.1487 252.485 68.5407 252.961 69.0447C253.493 69.6047 253.871 70.3047 254.095 71.1447C254.319 71.9847 254.431 73.1187 254.431 74.5467V85.7607C254.431 86.9367 254.669 87.7347 255.145 88.1547C255.649 88.5747 256.475 88.7847 257.623 88.7847V89.6667C257.147 89.6387 256.419 89.6107 255.439 89.5827C254.459 89.5267 253.507 89.4987 252.583 89.4987C251.659 89.4987 250.749 89.5267 249.853 89.5827C248.985 89.6107 248.327 89.6387 247.879 89.6667V88.7847C248.887 88.7847 249.601 88.5747 250.021 88.1547C250.441 87.7347 250.651 86.9367 250.651 85.7607V73.6227C250.651 72.7547 250.581 71.9567 250.441 71.2287C250.301 70.5007 249.979 69.9127 249.475 69.4647C248.999 69.0167 248.257 68.7927 247.249 68.7927C246.101 68.7927 245.079 69.1147 244.183 69.7587C243.315 70.4027 242.629 71.2987 242.125 72.4467C241.621 73.5947 241.369 74.9107 241.369 76.3947V85.7607C241.369 86.9367 241.579 87.7347 241.999 88.1547C242.419 88.5747 243.133 88.7847 244.141 88.7847V89.6667C243.693 89.6387 243.021 89.6107 242.125 89.5827C241.257 89.5267 240.361 89.4987 239.437 89.4987C238.513 89.4987 237.561 89.5267 236.581 89.5827C235.601 89.6107 234.873 89.6387 234.397 89.6667V88.7847C235.545 88.7847 236.357 88.5747 236.833 88.1547C237.337 87.7347 237.589 86.9367 237.589 85.7607V61.8207C237.589 60.5607 237.365 59.6367 236.917 59.0487C236.469 58.4327 235.629 58.1247 234.397 58.1247V57.2427C235.293 57.3267 236.161 57.3687 237.001 57.3687C237.813 57.3687 238.583 57.3267 239.311 57.2427C240.067 57.1307 240.753 56.9767 241.369 56.7807ZM264.254 57.5367C264.982 57.5367 265.612 57.8027 266.144 58.3347C266.676 58.8667 266.942 59.4967 266.942 60.2247C266.942 60.9527 266.676 61.5827 266.144 62.1147C265.612 62.6467 264.982 62.9127 264.254 62.9127C263.526 62.9127 262.896 62.6467 262.364 62.1147C261.832 61.5827 261.566 60.9527 261.566 60.2247C261.566 59.4967 261.832 58.8667 262.364 58.3347C262.896 57.8027 263.526 57.5367 264.254 57.5367ZM266.438 67.5747V85.7607C266.438 86.9367 266.676 87.7347 267.152 88.1547C267.656 88.5747 268.482 88.7847 269.63 88.7847V89.6667C269.154 89.6387 268.426 89.6107 267.446 89.5827C266.494 89.5267 265.528 89.4987 264.548 89.4987C263.596 89.4987 262.63 89.5267 261.65 89.5827C260.67 89.6107 259.942 89.6387 259.466 89.6667V88.7847C260.614 88.7847 261.426 88.5747 261.902 88.1547C262.406 87.7347 262.658 86.9367 262.658 85.7607V72.6147C262.658 71.3547 262.434 70.4307 261.986 69.8427C261.538 69.2267 260.698 68.9187 259.466 68.9187V68.0367C260.362 68.1207 261.23 68.1627 262.07 68.1627C262.882 68.1627 263.652 68.1207 264.38 68.0367C265.136 67.9247 265.822 67.7707 266.438 67.5747ZM282.271 67.4487C283.167 67.4487 284.035 67.5607 284.875 67.7847C285.715 68.0087 286.471 68.3447 287.143 68.7927C287.787 69.2127 288.277 69.7027 288.613 70.2627C288.949 70.7947 289.117 71.3827 289.117 72.0267C289.117 72.7827 288.907 73.3707 288.487 73.7907C288.067 74.1827 287.535 74.3787 286.891 74.3787C286.275 74.3787 285.729 74.1967 285.253 73.8327C284.805 73.4687 284.581 72.9507 284.581 72.2787C284.581 71.6347 284.749 71.1167 285.085 70.7247C285.449 70.3327 285.869 70.0807 286.345 69.9687C286.065 69.4647 285.561 69.0447 284.833 68.7087C284.133 68.3727 283.377 68.2047 282.565 68.2047C281.865 68.2047 281.165 68.3727 280.465 68.7087C279.765 69.0447 279.121 69.6047 278.533 70.3887C277.945 71.1447 277.469 72.1947 277.105 73.5387C276.741 74.8547 276.559 76.5067 276.559 78.4947C276.559 80.9587 276.839 82.9187 277.399 84.3747C277.959 85.8307 278.687 86.8807 279.583 87.5247C280.507 88.1407 281.515 88.4487 282.607 88.4487C283.335 88.4487 284.077 88.3087 284.833 88.0287C285.589 87.7487 286.303 87.3007 286.975 86.6847C287.647 86.0407 288.221 85.1867 288.697 84.1227L289.495 84.4167C289.215 85.3127 288.753 86.2227 288.109 87.1467C287.465 88.0427 286.625 88.7847 285.589 89.3727C284.553 89.9607 283.279 90.2547 281.767 90.2547C280.031 90.2547 278.463 89.8067 277.063 88.9107C275.663 88.0147 274.543 86.7407 273.703 85.0887C272.891 83.4087 272.485 81.4207 272.485 79.1247C272.485 76.8287 272.891 74.8127 273.703 73.0767C274.543 71.3127 275.705 69.9407 277.189 68.9607C278.673 67.9527 280.367 67.4487 282.271 67.4487ZM313.912 59.9307V60.7707C312.96 60.7987 312.232 60.9107 311.728 61.1067C311.252 61.2747 310.93 61.6107 310.762 62.1147C310.594 62.5907 310.51 63.3467 310.51 64.3827V85.2147C310.51 86.2227 310.594 86.9787 310.762 87.4827C310.93 87.9867 311.252 88.3227 311.728 88.4907C312.232 88.6587 312.96 88.7707 313.912 88.8267V89.6667C313.268 89.6107 312.456 89.5827 311.476 89.5827C310.524 89.5547 309.558 89.5407 308.578 89.5407C307.486 89.5407 306.464 89.5547 305.512 89.5827C304.56 89.5827 303.79 89.6107 303.202 89.6667V88.8267C304.154 88.7707 304.868 88.6587 305.344 88.4907C305.848 88.3227 306.184 87.9867 306.352 87.4827C306.52 86.9787 306.604 86.2227 306.604 85.2147V64.3827C306.604 63.3467 306.52 62.5907 306.352 62.1147C306.184 61.6107 305.848 61.2747 305.344 61.1067C304.868 60.9107 304.154 60.7987 303.202 60.7707V59.9307C303.79 59.9587 304.56 59.9867 305.512 60.0147C306.464 60.0427 307.486 60.0567 308.578 60.0567C309.558 60.0567 310.524 60.0427 311.476 60.0147C312.456 59.9867 313.268 59.9587 313.912 59.9307ZM331 67.4487C332.064 67.4487 332.946 67.5887 333.646 67.8687C334.374 68.1487 334.976 68.5407 335.452 69.0447C335.984 69.6047 336.362 70.3047 336.586 71.1447C336.81 71.9847 336.922 73.1187 336.922 74.5467V85.7607C336.922 86.9367 337.16 87.7347 337.636 88.1547C338.14 88.5747 338.966 88.7847 340.114 88.7847V89.6667C339.638 89.6387 338.91 89.6107 337.93 89.5827C336.95 89.5267 335.998 89.4987 335.074 89.4987C334.15 89.4987 333.24 89.5267 332.344 89.5827C331.476 89.6107 330.818 89.6387 330.37 89.6667V88.7847C331.378 88.7847 332.092 88.5747 332.512 88.1547C332.932 87.7347 333.142 86.9367 333.142 85.7607V73.6227C333.142 72.7547 333.072 71.9567 332.932 71.2287C332.792 70.5007 332.47 69.9127 331.966 69.4647C331.49 69.0167 330.748 68.7927 329.74 68.7927C328.564 68.7927 327.528 69.1287 326.632 69.8007C325.764 70.4727 325.078 71.3967 324.574 72.5727C324.098 73.7207 323.86 75.0087 323.86 76.4367V85.7607C323.86 86.9367 324.07 87.7347 324.49 88.1547C324.91 88.5747 325.624 88.7847 326.632 88.7847V89.6667C326.184 89.6387 325.512 89.6107 324.616 89.5827C323.748 89.5267 322.852 89.4987 321.928 89.4987C321.004 89.4987 320.052 89.5267 319.072 89.5827C318.092 89.6107 317.364 89.6387 316.888 89.6667V88.7847C318.036 88.7847 318.848 88.5747 319.324 88.1547C319.828 87.7347 320.08 86.9367 320.08 85.7607V72.6147C320.08 71.3547 319.856 70.4307 319.408 69.8427C318.96 69.2267 318.12 68.9187 316.888 68.9187V68.0367C317.784 68.1207 318.652 68.1627 319.492 68.1627C320.304 68.1627 321.074 68.1207 321.802 68.0367C322.558 67.9247 323.244 67.7707 323.86 67.5747V72.5307C324.588 70.6267 325.596 69.3107 326.884 68.5827C328.2 67.8267 329.572 67.4487 331 67.4487ZM348.71 61.0647V68.0787H354.926V68.9187H348.71V85.1727C348.71 86.4887 348.948 87.4127 349.424 87.9447C349.9 88.4767 350.558 88.7427 351.398 88.7427C352.238 88.7427 352.966 88.4067 353.582 87.7347C354.198 87.0347 354.73 85.8727 355.178 84.2487L356.018 84.4587C355.738 86.0827 355.178 87.4547 354.338 88.5747C353.526 89.6947 352.266 90.2547 350.558 90.2547C349.606 90.2547 348.822 90.1287 348.206 89.8767C347.59 89.6527 347.044 89.3167 346.568 88.8687C345.952 88.2247 345.518 87.4547 345.266 86.5587C345.042 85.6627 344.93 84.4727 344.93 82.9887V68.9187H340.898V68.0787H344.93V61.6527C345.63 61.6247 346.302 61.5687 346.946 61.4847C347.59 61.4007 348.178 61.2607 348.71 61.0647ZM367.002 67.4487C369.466 67.4487 371.384 68.2047 372.756 69.7167C374.156 71.2007 374.856 73.5247 374.856 76.6887H360.03L359.988 75.8907H370.824C370.88 74.5187 370.768 73.2587 370.488 72.1107C370.208 70.9347 369.76 69.9967 369.144 69.2967C368.556 68.5967 367.786 68.2467 366.834 68.2467C365.546 68.2467 364.398 68.8907 363.39 70.1787C362.41 71.4667 361.822 73.5107 361.626 76.3107L361.752 76.4787C361.696 76.8987 361.654 77.3607 361.626 77.8647C361.598 78.3687 361.584 78.8727 361.584 79.3767C361.584 81.2807 361.892 82.9187 362.508 84.2907C363.124 85.6627 363.922 86.7127 364.902 87.4407C365.91 88.1407 366.946 88.4907 368.01 88.4907C368.85 88.4907 369.648 88.3647 370.404 88.1127C371.16 87.8327 371.86 87.3847 372.504 86.7687C373.148 86.1527 373.708 85.3267 374.184 84.2907L375.024 84.6267C374.716 85.5507 374.212 86.4467 373.512 87.3147C372.812 88.1827 371.93 88.8967 370.866 89.4567C369.802 89.9887 368.57 90.2547 367.17 90.2547C365.154 90.2547 363.418 89.7927 361.962 88.8687C360.534 87.9447 359.428 86.6707 358.644 85.0467C357.888 83.3947 357.51 81.5047 357.51 79.3767C357.51 76.9127 357.902 74.7987 358.686 73.0347C359.47 71.2427 360.576 69.8707 362.004 68.9187C363.432 67.9387 365.098 67.4487 367.002 67.4487ZM391.104 67.4487C391.86 67.4487 392.518 67.6027 393.078 67.9107C393.666 68.2187 394.114 68.6247 394.422 69.1287C394.758 69.6047 394.926 70.1507 394.926 70.7667C394.926 71.4667 394.702 72.0827 394.254 72.6147C393.834 73.1467 393.26 73.4127 392.532 73.4127C391.944 73.4127 391.426 73.2307 390.978 72.8667C390.53 72.4747 390.306 71.9287 390.306 71.2287C390.306 70.6967 390.446 70.2487 390.726 69.8847C391.034 69.4927 391.37 69.1847 391.734 68.9607C391.538 68.6807 391.244 68.5407 390.852 68.5407C389.984 68.5407 389.186 68.8067 388.458 69.3387C387.73 69.8427 387.114 70.5007 386.61 71.3127C386.106 72.1247 385.714 72.9927 385.434 73.9167C385.154 74.8127 385.014 75.6527 385.014 76.4367V85.3407C385.014 86.7127 385.406 87.6367 386.19 88.1127C387.002 88.5607 388.094 88.7847 389.466 88.7847V89.6667C388.822 89.6387 387.912 89.6107 386.736 89.5827C385.56 89.5267 384.314 89.4987 382.998 89.4987C382.046 89.4987 381.094 89.5267 380.142 89.5827C379.218 89.6107 378.518 89.6387 378.042 89.6667V88.7847C379.19 88.7847 380.002 88.5747 380.478 88.1547C380.982 87.7347 381.234 86.9367 381.234 85.7607V72.6147C381.234 71.3547 381.01 70.4307 380.562 69.8427C380.114 69.2267 379.274 68.9187 378.042 68.9187V68.0367C378.938 68.1207 379.806 68.1627 380.646 68.1627C381.458 68.1627 382.228 68.1207 382.956 68.0367C383.712 67.9247 384.398 67.7707 385.014 67.5747V72.8247C385.322 72.0127 385.756 71.2007 386.316 70.3887C386.904 69.5487 387.604 68.8487 388.416 68.2887C389.228 67.7287 390.124 67.4487 391.104 67.4487ZM406.955 56.8227C407.739 56.8227 408.425 56.9347 409.013 57.1587C409.629 57.3547 410.161 57.6207 410.609 57.9567C411.029 58.2927 411.351 58.6847 411.575 59.1327C411.799 59.5807 411.911 60.0567 411.911 60.5607C411.911 61.2047 411.701 61.7367 411.281 62.1567C410.861 62.5767 410.329 62.7867 409.685 62.7867C409.069 62.7867 408.523 62.5907 408.047 62.1987C407.599 61.7787 407.375 61.2187 407.375 60.5187C407.375 59.9307 407.529 59.4547 407.837 59.0907C408.173 58.7267 408.607 58.4887 409.139 58.3767C409.055 58.1247 408.831 57.9147 408.467 57.7467C408.131 57.5507 407.669 57.4527 407.081 57.4527C406.437 57.4527 405.877 57.5927 405.401 57.8727C404.953 58.1527 404.603 58.5307 404.351 59.0067C404.015 59.5947 403.805 60.4767 403.721 61.6527C403.637 62.8007 403.595 64.5787 403.595 66.9867V68.0787H408.089V68.9187H403.595V85.3407C403.595 86.7127 403.987 87.6367 404.771 88.1127C405.583 88.5607 406.675 88.7847 408.047 88.7847V89.6667C407.403 89.6387 406.493 89.6107 405.317 89.5827C404.141 89.5267 402.895 89.4987 401.579 89.4987C400.627 89.4987 399.675 89.5267 398.723 89.5827C397.799 89.6107 397.099 89.6387 396.623 89.6667V88.7847C397.771 88.7847 398.583 88.5747 399.059 88.1547C399.563 87.7347 399.815 86.9367 399.815 85.7607V68.9187H396.455V68.0787H399.815C399.815 66.4267 399.885 65.0407 400.025 63.9207C400.165 62.8007 400.389 61.8487 400.697 61.0647C401.005 60.2527 401.425 59.5387 401.957 58.9227C402.517 58.2787 403.231 57.7747 404.099 57.4107C404.967 57.0187 405.919 56.8227 406.955 56.8227ZM416.491 89.9607C415.343 89.9607 414.349 89.7507 413.509 89.3307C412.669 88.8827 412.025 88.2667 411.577 87.4827C411.157 86.6987 410.947 85.7887 410.947 84.7527C410.947 83.5207 411.227 82.5127 411.787 81.7287C412.375 80.9447 413.117 80.3147 414.013 79.8387C414.909 79.3627 415.847 78.9707 416.827 78.6627C417.835 78.3267 418.787 78.0187 419.683 77.7387C420.579 77.4307 421.307 77.0807 421.867 76.6887C422.455 76.2967 422.749 75.7787 422.749 75.1347V72.5307C422.749 71.3547 422.567 70.4587 422.203 69.8427C421.867 69.2267 421.405 68.8207 420.817 68.6247C420.229 68.4007 419.571 68.2887 418.843 68.2887C418.143 68.2887 417.387 68.3867 416.575 68.5827C415.791 68.7787 415.161 69.1847 414.685 69.8007C415.217 69.9127 415.679 70.1927 416.071 70.6407C416.463 71.0887 416.659 71.6627 416.659 72.3627C416.659 73.0627 416.435 73.6227 415.987 74.0427C415.539 74.4347 414.965 74.6307 414.265 74.6307C413.453 74.6307 412.851 74.3787 412.459 73.8747C412.095 73.3427 411.913 72.7547 411.913 72.1107C411.913 71.3827 412.095 70.7947 412.459 70.3467C412.823 69.8987 413.285 69.4787 413.845 69.0867C414.489 68.6387 415.315 68.2607 416.323 67.9527C417.359 67.6167 418.521 67.4487 419.809 67.4487C420.957 67.4487 421.937 67.5887 422.749 67.8687C423.561 68.1207 424.233 68.4987 424.765 69.0027C425.493 69.6747 425.969 70.5007 426.193 71.4807C426.417 72.4327 426.529 73.5807 426.529 74.9247V86.6007C426.529 87.3007 426.627 87.8047 426.823 88.1127C427.047 88.4207 427.383 88.5747 427.831 88.5747C428.139 88.5747 428.433 88.5047 428.713 88.3647C428.993 88.2247 429.329 88.0007 429.721 87.6927L430.183 88.4067C429.595 88.8547 429.035 89.2327 428.503 89.5407C427.971 89.8207 427.257 89.9607 426.361 89.9607C425.549 89.9607 424.877 89.8207 424.345 89.5407C423.813 89.2607 423.407 88.8547 423.127 88.3227C422.875 87.7627 422.749 87.0627 422.749 86.2227C421.993 87.4827 421.083 88.4207 420.019 89.0367C418.983 89.6527 417.807 89.9607 416.491 89.9607ZM418.003 88.2807C418.927 88.2807 419.781 88.0147 420.565 87.4827C421.377 86.9507 422.105 86.1527 422.749 85.0887V76.8567C422.413 77.3327 421.923 77.7387 421.279 78.0747C420.635 78.3827 419.935 78.7047 419.179 79.0407C418.423 79.3487 417.695 79.7267 416.995 80.1747C416.323 80.5947 415.763 81.1547 415.315 81.8547C414.867 82.5547 414.643 83.4647 414.643 84.5847C414.643 85.7047 414.937 86.6007 415.525 87.2727C416.141 87.9447 416.967 88.2807 418.003 88.2807ZM441.945 67.4487C442.841 67.4487 443.709 67.5607 444.549 67.7847C445.389 68.0087 446.145 68.3447 446.817 68.7927C447.461 69.2127 447.951 69.7027 448.287 70.2627C448.623 70.7947 448.791 71.3827 448.791 72.0267C448.791 72.7827 448.581 73.3707 448.161 73.7907C447.741 74.1827 447.209 74.3787 446.565 74.3787C445.949 74.3787 445.403 74.1967 444.927 73.8327C444.479 73.4687 444.255 72.9507 444.255 72.2787C444.255 71.6347 444.423 71.1167 444.759 70.7247C445.123 70.3327 445.543 70.0807 446.019 69.9687C445.739 69.4647 445.235 69.0447 444.507 68.7087C443.807 68.3727 443.051 68.2047 442.239 68.2047C441.539 68.2047 440.839 68.3727 440.139 68.7087C439.439 69.0447 438.795 69.6047 438.207 70.3887C437.619 71.1447 437.143 72.1947 436.779 73.5387C436.415 74.8547 436.233 76.5067 436.233 78.4947C436.233 80.9587 436.513 82.9187 437.073 84.3747C437.633 85.8307 438.361 86.8807 439.257 87.5247C440.181 88.1407 441.189 88.4487 442.281 88.4487C443.009 88.4487 443.751 88.3087 444.507 88.0287C445.263 87.7487 445.977 87.3007 446.649 86.6847C447.321 86.0407 447.895 85.1867 448.371 84.1227L449.169 84.4167C448.889 85.3127 448.427 86.2227 447.783 87.1467C447.139 88.0427 446.299 88.7847 445.263 89.3727C444.227 89.9607 442.953 90.2547 441.441 90.2547C439.705 90.2547 438.137 89.8067 436.737 88.9107C435.337 88.0147 434.217 86.7407 433.377 85.0887C432.565 83.4087 432.159 81.4207 432.159 79.1247C432.159 76.8287 432.565 74.8127 433.377 73.0767C434.217 71.3127 435.379 69.9407 436.863 68.9607C438.347 67.9527 440.041 67.4487 441.945 67.4487ZM462.076 67.4487C464.54 67.4487 466.458 68.2047 467.83 69.7167C469.23 71.2007 469.93 73.5247 469.93 76.6887H455.104L455.062 75.8907H465.898C465.954 74.5187 465.842 73.2587 465.562 72.1107C465.282 70.9347 464.834 69.9967 464.218 69.2967C463.63 68.5967 462.86 68.2467 461.908 68.2467C460.62 68.2467 459.472 68.8907 458.464 70.1787C457.484 71.4667 456.896 73.5107 456.7 76.3107L456.826 76.4787C456.77 76.8987 456.728 77.3607 456.7 77.8647C456.672 78.3687 456.658 78.8727 456.658 79.3767C456.658 81.2807 456.966 82.9187 457.582 84.2907C458.198 85.6627 458.996 86.7127 459.976 87.4407C460.984 88.1407 462.02 88.4907 463.084 88.4907C463.924 88.4907 464.722 88.3647 465.478 88.1127C466.234 87.8327 466.934 87.3847 467.578 86.7687C468.222 86.1527 468.782 85.3267 469.258 84.2907L470.098 84.6267C469.79 85.5507 469.286 86.4467 468.586 87.3147C467.886 88.1827 467.004 88.8967 465.94 89.4567C464.876 89.9887 463.644 90.2547 462.244 90.2547C460.228 90.2547 458.492 89.7927 457.036 88.8687C455.608 87.9447 454.502 86.6707 453.718 85.0467C452.962 83.3947 452.584 81.5047 452.584 79.3767C452.584 76.9127 452.976 74.7987 453.76 73.0347C454.544 71.2427 455.65 69.8707 457.078 68.9187C458.506 67.9387 460.172 67.4487 462.076 67.4487Z" fill="#1D63ED"/>
<path d="M134.5 50C134.5 73.4721 115.472 92.5 92 92.5C68.5279 92.5 49.5 73.4721 49.5 50C49.5 26.5279 68.5279 7.5 92 7.5C115.472 7.5 134.5 26.5279 134.5 50Z" fill="white" stroke="#00875F"/>
<path d="M55.3751 50.3119C54.884 51.0291 55.055 52.0261 55.757 52.5387L90.1315 77.6374C90.8336 78.15 91.8008 77.9841 92.292 77.2669V77.2669C92.7831 76.5496 92.6121 75.5526 91.9101 75.04L57.5356 49.9413C56.8335 49.4287 55.8662 49.5946 55.3751 50.3119V50.3119Z" fill="#00875F"/>
<rect width="21.7644" height="3.14797" rx="1.57399" transform="matrix(0.807628 0.589693 0.56498 -0.825105 73.7012 28.0669)" fill="#00875F"/>
<rect width="34.8414" height="3.14797" rx="1.57399" transform="matrix(0.807628 0.589693 0.56498 -0.825105 63.7153 39.9373)" fill="#00875F"/>
<rect width="21.6099" height="3.14797" rx="1.57399" transform="matrix(0.807628 -0.589693 0.56498 0.825105 90.28 35.8684)" fill="#00875F"/>
<path d="M91.1693 56.6737C90.6782 55.9564 90.8492 54.9594 91.5512 54.4468L116.864 35.9645C117.566 35.4519 118.533 35.6178 119.025 36.335V36.335C119.516 37.0523 119.345 38.0493 118.643 38.5619L93.3298 57.0442C92.6277 57.5569 91.6604 57.391 91.1693 56.6737V56.6737Z" fill="#00875F"/>
<path d="M90.28 15.8868C90.28 14.9368 91.0501 14.1667 92 14.1667V14.1667C92.95 14.1667 93.72 14.9368 93.72 15.8867V89.4167H90.28V15.8868Z" fill="#00875F"/>
<path d="M91.9349 75.1005C91.4438 74.3832 91.6148 73.3862 92.3168 72.8736L125.93 48.3307C126.632 47.818 127.6 47.9839 128.091 48.7012V48.7012C128.582 49.4184 128.411 50.4154 127.709 50.9281L94.0954 75.471C93.3933 75.9836 92.4261 75.8177 91.9349 75.1005V75.1005Z" fill="#00875F"/>
</svg>
