<svg width="24" height="24" viewBox="0 0 24 24" fill="none" xmlns="http://www.w3.org/2000/svg">
<path d="M12.6535 0.251802C12.5678 0.171984 12.4659 0.108658 12.3538 0.0654494C12.2416 0.0222411 12.1214 0 12 0C11.8786 0 11.7584 0.0222411 11.6462 0.0654494C11.5341 0.108658 11.4322 0.171984 11.3465 0.251802L0.26954 10.5369C0.183875 10.6166 0.115977 10.7112 0.0697277 10.8154C0.0234784 10.9195 -0.000215169 11.031 1.4723e-06 11.1437V23.1429C1.4723e-06 23.3702 0.0972539 23.5882 0.270364 23.749C0.443475 23.9097 0.678263 24 0.923078 24H9.23077C9.47558 24 9.71037 23.9097 9.88348 23.749C10.0566 23.5882 10.1538 23.3702 10.1538 23.1429V16.2862H13.8462V23.1429C13.8462 23.3702 13.9434 23.5882 14.1165 23.749C14.2896 23.9097 14.5244 24 14.7692 24H23.0769C23.3217 24 23.5565 23.9097 23.7296 23.749C23.9027 23.5882 24 23.3702 24 23.1429V11.1437C24.0002 11.031 23.9765 10.9195 23.9303 10.8154C23.884 10.7112 23.8161 10.6166 23.7305 10.5369L21.2308 8.21758V2.5728C21.2308 2.34548 21.1335 2.12748 20.9604 1.96674C20.7873 1.80601 20.5525 1.71571 20.3077 1.71571H18.4615C18.2167 1.71571 17.9819 1.80601 17.8088 1.96674C17.6357 2.12748 17.5385 2.34548 17.5385 2.5728V4.78923L12.6535 0.251802ZM1.84616 22.2858V11.4985L12 2.07054L22.1538 11.4985V22.2858H15.6923V15.4291C15.6923 15.2018 15.5951 14.9838 15.4219 14.8231C15.2488 14.6623 15.014 14.572 14.7692 14.572H9.23077C8.98596 14.572 8.75117 14.6623 8.57806 14.8231C8.40495 14.9838 8.30769 15.2018 8.30769 15.4291V22.2858H1.84616Z" fill="#F5F5F5"/>
</svg>
