<svg width="24" height="24" viewBox="0 0 24 24" fill="none" xmlns="http://www.w3.org/2000/svg">
<path d="M16.4914 6.02766C16.4072 5.17842 16.4239 4.39336 16.6252 3.65128C16.7266 3.27984 16.8746 2.91792 17.0834 2.56022C17.2931 2.20167 17.5645 1.8473 17.9164 1.49545L18.4942 0.917578L17.577 0L16.9988 0.577453C16.4572 1.119 16.0586 1.68933 15.7809 2.28089C15.3624 3.16973 15.2189 4.104 15.2294 5.03911C15.2381 5.97506 15.3936 6.91603 15.5725 7.86117C15.6893 8.47692 15.7901 9.06938 15.8464 9.63511C15.931 10.4843 15.914 11.2698 15.7122 12.0115C15.6113 12.3825 15.4633 12.7448 15.254 13.1029C15.0443 13.461 14.7729 13.815 14.421 14.1669V14.1673H14.4214L14.1675 14.4212C14.0996 14.4887 14.0324 14.5534 13.9637 14.6155L9.80871 10.4606C9.60358 10.6866 9.43051 10.9176 9.28294 11.1598L13.2737 15.15C13.0973 15.2625 12.9205 15.36 12.7425 15.4434C12.5453 15.5364 12.3465 15.6127 12.1438 15.6736L8.79853 12.3284C8.71846 12.664 8.67552 13.0238 8.6676 13.4231L11.1149 15.87C10.9023 15.8887 10.6855 15.8954 10.4641 15.8941C9.96836 15.8892 9.45142 15.8366 8.91192 15.7545C8.93442 15.8779 8.95612 15.9963 8.9782 16.1118C9.03197 16.3915 9.08531 16.6854 9.13453 16.9894C9.31923 17.0153 9.50307 17.0369 9.68692 17.0552C10.6246 17.1482 11.5639 17.1369 12.4794 16.8885C12.9372 16.7647 13.3862 16.5808 13.8219 16.3256C14.2571 16.0709 14.6799 15.7445 15.0852 15.3392L15.3386 15.0849C15.8802 14.5442 16.2783 13.9735 16.5573 13.3815C16.9754 12.4926 17.1184 11.5592 17.1088 10.6237C17.0992 9.6877 16.9441 8.74631 16.7657 7.80159C16.6481 7.18538 16.5476 6.59339 16.4914 6.02766Z" fill="#F5F5F5"/>
<path d="M23.0825 5.50614L22.505 6.08354C22.4366 6.15151 22.3695 6.21615 22.3011 6.27784L18.1458 2.12256C17.941 2.34896 17.768 2.58034 17.6204 2.8217L21.6107 6.81236C21.4343 6.92532 21.2584 7.02245 21.08 7.10584C20.8827 7.19879 20.6835 7.27506 20.4813 7.33595L17.136 3.99114C17.0559 4.32629 17.013 4.68611 17.0055 5.08548L19.4523 7.53231C19.2397 7.55148 19.0229 7.55776 18.8015 7.5565C18.3058 7.5519 17.7888 7.49898 17.2493 7.41643C17.2718 7.53986 17.2931 7.65911 17.316 7.77456C17.369 8.05426 17.4224 8.34775 17.472 8.65173C17.6566 8.67756 17.8401 8.69926 18.0239 8.71764C18.962 8.81054 19.9017 8.79971 20.8165 8.55086C21.2742 8.42706 21.7237 8.24359 22.1593 7.98807C22.5941 7.73378 23.0169 7.40687 23.423 7.00121L24 6.42339L23.0825 5.50614Z" fill="#F5F5F5"/>
<path d="M6.37959 21.1783L2.38969 17.1885C2.56524 17.0747 2.74201 16.9772 2.92 16.8942C3.11763 16.8012 3.31648 16.7245 3.5187 16.664L6.86401 20.0093C6.94407 19.6741 6.98701 19.3139 6.99451 18.9145L4.54852 16.4685C4.76115 16.4498 4.97753 16.4418 5.19888 16.4435C5.69417 16.4481 6.21159 16.5018 6.74982 16.584C6.72816 16.4602 6.7065 16.3405 6.68438 16.2255C6.63103 15.9461 6.57806 15.6518 6.52847 15.3479C6.34415 15.3237 6.16077 15.3016 5.97688 15.2832C5.03837 15.189 4.09828 15.1998 3.18312 15.4487C2.72706 15.5739 2.27635 15.7573 1.84068 16.012C1.40586 16.2663 0.983084 16.5927 0.577419 16.9988L0 17.5762L0.917645 18.4943L1.49506 17.9164C1.56303 17.8485 1.631 17.7839 1.6994 17.7221L5.85477 21.877C6.05901 21.6511 6.23282 21.4197 6.37959 21.1783Z" fill="#F5F5F5"/>
<path d="M8.15399 14.3652C8.07017 13.516 8.08644 12.7305 8.28782 11.9893C8.38912 11.617 8.53673 11.2556 8.74641 10.8974C8.95566 10.5393 9.2275 10.1846 9.57939 9.83268L9.83327 9.57918L9.83285 9.57838C9.9004 9.51041 9.96837 9.44619 10.0371 9.38488L14.1917 13.5394C14.3964 13.3134 14.5703 13.0816 14.7166 12.8406L10.7267 8.85088C10.9027 8.73707 11.0798 8.63948 11.2575 8.55651C11.4551 8.46398 11.6539 8.38682 11.8562 8.32635L15.2015 11.6712C15.282 11.336 15.3245 10.9766 15.332 10.5772L12.8859 8.13084C13.0981 8.11209 13.3149 8.10416 13.5363 8.10627C14.0312 8.11087 14.549 8.16463 15.0872 8.24596C15.0656 8.12254 15.0439 8.00329 15.0218 7.88784C14.9684 7.60809 14.9151 7.31455 14.8659 7.01066C14.682 6.98563 14.4982 6.9636 14.3143 6.94523C13.3754 6.8518 12.4357 6.86268 11.5205 7.11154C11.0644 7.23618 10.6138 7.41965 10.1781 7.67437C9.74327 7.92909 9.3205 8.2551 8.91483 8.66118L8.91525 8.6616L8.66137 8.91548C8.12024 9.4566 7.72165 10.0269 7.44354 10.619C7.02498 11.5078 6.88154 12.4416 6.89195 13.3763C6.90076 14.3127 7.0562 15.2541 7.23466 16.1988C7.3518 16.8146 7.45268 17.407 7.50897 17.9723C7.59316 18.8224 7.57652 19.607 7.37472 20.3491C7.27384 20.7201 7.12581 21.0824 6.91693 21.4406C6.70721 21.7987 6.43495 22.1522 6.08352 22.5045L5.5061 23.0824L6.42337 23.9999L7.00164 23.4225C7.54277 22.8814 7.94136 22.3106 8.21985 21.719C8.63803 20.8302 8.78142 19.8967 8.77144 18.9612C8.76183 18.0248 8.60634 17.0843 8.42789 16.1396C8.31074 15.5233 8.21024 14.9314 8.15399 14.3652Z" fill="#F5F5F5"/>
</svg>
