<svg width="86" height="86" viewBox="0 0 86 86" fill="none" xmlns="http://www.w3.org/2000/svg">
<path d="M85.5 43C85.5 66.4721 66.4721 85.5 43 85.5C19.5279 85.5 0.5 66.4721 0.5 43C0.5 19.5279 19.5279 0.5 43 0.5C66.4721 0.5 85.5 19.5279 85.5 43Z" fill="white" stroke="#00875F"/>
<path d="M6.3751 43.3119C5.88397 44.0291 6.05496 45.0261 6.75702 45.5387L41.1315 70.6374C41.8336 71.15 42.8008 70.9841 43.292 70.2669C43.7831 69.5496 43.6121 68.5526 42.9101 68.04L8.53556 42.9413C7.8335 42.4287 6.86623 42.5946 6.3751 43.3119Z" fill="#00875F"/>
<rect width="21.7644" height="3.14797" rx="1.57399" transform="matrix(0.807628 0.589693 0.56498 -0.825105 24.7012 21.0669)" fill="#00875F"/>
<rect width="34.8414" height="3.14797" rx="1.57399" transform="matrix(0.807628 0.589693 0.56498 -0.825105 14.7153 32.9373)" fill="#00875F"/>
<rect width="21.6099" height="3.14797" rx="1.57399" transform="matrix(0.807628 -0.589693 0.56498 0.825105 41.28 28.8684)" fill="#00875F"/>
<path d="M42.1693 49.6737C41.6782 48.9564 41.8492 47.9594 42.5512 47.4468L67.8642 28.9645C68.5662 28.4519 69.5335 28.6178 70.0246 29.335C70.5158 30.0523 70.3448 31.0493 69.6427 31.5619L44.3298 50.0442C43.6277 50.5569 42.6604 50.391 42.1693 49.6737Z" fill="#00875F"/>
<path d="M41.28 8.88675C41.28 7.93682 42.0501 7.16675 43 7.16675C43.95 7.16675 44.72 7.93682 44.72 8.88675V82.4167H41.28V8.88675Z" fill="#00875F"/>
<path d="M42.9349 68.1005C42.4438 67.3832 42.6148 66.3862 43.3168 65.8736L76.9302 41.3307C77.6323 40.818 78.5995 40.9839 79.0907 41.7012C79.5818 42.4184 79.4108 43.4154 78.7087 43.9281L45.0954 68.471C44.3933 68.9836 43.4261 68.8177 42.9349 68.1005Z" fill="#00875F"/>
</svg>
