<svg width="632" height="95" viewBox="0 0 632 95" fill="none" xmlns="http://www.w3.org/2000/svg">
<path d="M85.5 46C85.5 69.4721 66.4721 88.5 43 88.5C19.5279 88.5 0.5 69.4721 0.5 46C0.5 22.5279 19.5279 3.5 43 3.5C66.4721 3.5 85.5 22.5279 85.5 46Z" fill="white" stroke="#00875F"/>
<path d="M6.3751 46.3119C5.88397 47.0291 6.05496 48.0261 6.75702 48.5387L41.1315 73.6374C41.8336 74.15 42.8008 73.9841 43.292 73.2669V73.2669C43.7831 72.5496 43.6121 71.5526 42.9101 71.04L8.53556 45.9413C7.8335 45.4287 6.86623 45.5946 6.3751 46.3119V46.3119Z" fill="#00875F"/>
<rect width="21.7644" height="3.14797" rx="1.57399" transform="matrix(0.807628 0.589693 0.56498 -0.825105 24.7012 24.0669)" fill="#00875F"/>
<rect width="34.8414" height="3.14797" rx="1.57399" transform="matrix(0.807628 0.589693 0.56498 -0.825105 14.7153 35.9373)" fill="#00875F"/>
<rect width="21.6099" height="3.14797" rx="1.57399" transform="matrix(0.807628 -0.589693 0.56498 0.825105 41.28 31.8684)" fill="#00875F"/>
<path d="M42.1693 52.6737C41.6782 51.9564 41.8492 50.9594 42.5512 50.4468L67.8642 31.9645C68.5662 31.4519 69.5335 31.6178 70.0246 32.335V32.335C70.5158 33.0523 70.3448 34.0493 69.6427 34.5619L44.3298 53.0442C43.6277 53.5569 42.6604 53.391 42.1693 52.6737V52.6737Z" fill="#00875F"/>
<path d="M41.28 11.8868C41.28 10.9368 42.0501 10.1667 43 10.1667V10.1667C43.95 10.1667 44.72 10.9368 44.72 11.8867V85.4167H41.28V11.8868Z" fill="#00875F"/>
<path d="M42.9349 71.1005C42.4438 70.3832 42.6148 69.3862 43.3168 68.8736L76.9302 44.3307C77.6323 43.818 78.5995 43.9839 79.0907 44.7012V44.7012C79.5818 45.4184 79.4108 46.4154 78.7087 46.9281L45.0954 71.471C44.3933 71.9836 43.4261 71.8177 42.9349 71.1005V71.1005Z" fill="#00875F"/>
<path d="M110.051 15.054L120.299 41.472C120.719 42.536 121.195 43.25 121.727 43.614C122.259 43.95 122.749 44.132 123.197 44.16V45C122.637 44.944 121.951 44.916 121.139 44.916C120.327 44.888 119.515 44.874 118.703 44.874C117.611 44.874 116.589 44.888 115.637 44.916C114.685 44.916 113.915 44.944 113.327 45V44.16C114.755 44.104 115.665 43.866 116.057 43.446C116.449 42.998 116.365 42.06 115.805 40.632L107.993 19.758L108.665 19.212L101.357 38.196C100.909 39.316 100.643 40.268 100.559 41.052C100.475 41.808 100.545 42.41 100.769 42.858C101.021 43.306 101.427 43.628 101.987 43.824C102.575 44.02 103.303 44.132 104.171 44.16V45C103.387 44.944 102.561 44.916 101.693 44.916C100.853 44.888 100.069 44.874 99.3414 44.874C98.6414 44.874 98.0394 44.888 97.5354 44.916C97.0594 44.916 96.6114 44.944 96.1914 45V44.16C96.7514 44.02 97.3254 43.698 97.9134 43.194C98.5014 42.662 99.0334 41.766 99.5094 40.506L109.379 15.054C109.491 15.054 109.603 15.054 109.715 15.054C109.827 15.054 109.939 15.054 110.051 15.054ZM115.175 32.904V33.744H102.659L103.079 32.904H115.175ZM138.27 22.782C139.334 22.782 140.216 22.922 140.916 23.202C141.644 23.482 142.246 23.874 142.722 24.378C143.254 24.938 143.632 25.638 143.856 26.478C144.08 27.318 144.192 28.452 144.192 29.88V41.094C144.192 42.27 144.43 43.068 144.906 43.488C145.41 43.908 146.236 44.118 147.384 44.118V45C146.908 44.972 146.18 44.944 145.2 44.916C144.22 44.86 143.268 44.832 142.344 44.832C141.42 44.832 140.51 44.86 139.614 44.916C138.746 44.944 138.088 44.972 137.64 45V44.118C138.648 44.118 139.362 43.908 139.782 43.488C140.202 43.068 140.412 42.27 140.412 41.094V28.956C140.412 28.088 140.342 27.29 140.202 26.562C140.062 25.834 139.74 25.246 139.236 24.798C138.76 24.35 138.018 24.126 137.01 24.126C135.834 24.126 134.798 24.462 133.902 25.134C133.034 25.806 132.348 26.73 131.844 27.906C131.368 29.054 131.13 30.342 131.13 31.77V41.094C131.13 42.27 131.34 43.068 131.76 43.488C132.18 43.908 132.894 44.118 133.902 44.118V45C133.454 44.972 132.782 44.944 131.886 44.916C131.018 44.86 130.122 44.832 129.198 44.832C128.274 44.832 127.322 44.86 126.342 44.916C125.362 44.944 124.634 44.972 124.158 45V44.118C125.306 44.118 126.118 43.908 126.594 43.488C127.098 43.068 127.35 42.27 127.35 41.094V27.948C127.35 26.688 127.126 25.764 126.678 25.176C126.23 24.56 125.39 24.252 124.158 24.252V23.37C125.054 23.454 125.922 23.496 126.762 23.496C127.574 23.496 128.344 23.454 129.072 23.37C129.828 23.258 130.514 23.104 131.13 22.908V27.864C131.858 25.96 132.866 24.644 134.154 23.916C135.47 23.16 136.842 22.782 138.27 22.782ZM163.331 22.782C164.395 22.782 165.277 22.922 165.977 23.202C166.705 23.482 167.307 23.874 167.783 24.378C168.315 24.938 168.693 25.638 168.917 26.478C169.141 27.318 169.253 28.452 169.253 29.88V41.094C169.253 42.27 169.491 43.068 169.967 43.488C170.471 43.908 171.297 44.118 172.445 44.118V45C171.969 44.972 171.241 44.944 170.261 44.916C169.281 44.86 168.329 44.832 167.405 44.832C166.481 44.832 165.571 44.86 164.675 44.916C163.807 44.944 163.149 44.972 162.701 45V44.118C163.709 44.118 164.423 43.908 164.843 43.488C165.263 43.068 165.473 42.27 165.473 41.094V28.956C165.473 28.088 165.403 27.29 165.263 26.562C165.123 25.834 164.801 25.246 164.297 24.798C163.821 24.35 163.079 24.126 162.071 24.126C160.895 24.126 159.859 24.462 158.963 25.134C158.095 25.806 157.409 26.73 156.905 27.906C156.429 29.054 156.191 30.342 156.191 31.77V41.094C156.191 42.27 156.401 43.068 156.821 43.488C157.241 43.908 157.955 44.118 158.963 44.118V45C158.515 44.972 157.843 44.944 156.947 44.916C156.079 44.86 155.183 44.832 154.259 44.832C153.335 44.832 152.383 44.86 151.403 44.916C150.423 44.944 149.695 44.972 149.219 45V44.118C150.367 44.118 151.179 43.908 151.655 43.488C152.159 43.068 152.411 42.27 152.411 41.094V27.948C152.411 26.688 152.187 25.764 151.739 25.176C151.291 24.56 150.451 24.252 149.219 24.252V23.37C150.115 23.454 150.983 23.496 151.823 23.496C152.635 23.496 153.405 23.454 154.133 23.37C154.889 23.258 155.575 23.104 156.191 22.908V27.864C156.919 25.96 157.927 24.644 159.215 23.916C160.531 23.16 161.903 22.782 163.331 22.782ZM184.57 22.782C186.362 22.782 187.972 23.174 189.4 23.958C190.828 24.742 191.962 25.974 192.802 27.654C193.67 29.334 194.104 31.518 194.104 34.206C194.104 36.894 193.67 39.078 192.802 40.758C191.962 42.41 190.828 43.628 189.4 44.412C187.972 45.196 186.362 45.588 184.57 45.588C182.806 45.588 181.196 45.196 179.74 44.412C178.312 43.628 177.164 42.41 176.296 40.758C175.456 39.078 175.036 36.894 175.036 34.206C175.036 31.518 175.456 29.334 176.296 27.654C177.164 25.974 178.312 24.742 179.74 23.958C181.196 23.174 182.806 22.782 184.57 22.782ZM184.57 23.622C182.974 23.622 181.658 24.448 180.622 26.1C179.614 27.752 179.11 30.454 179.11 34.206C179.11 37.958 179.614 40.66 180.622 42.312C181.658 43.936 182.974 44.748 184.57 44.748C186.166 44.748 187.468 43.936 188.476 42.312C189.512 40.66 190.03 37.958 190.03 34.206C190.03 30.454 189.512 27.752 188.476 26.1C187.468 24.448 186.166 23.622 184.57 23.622ZM219.131 15.264C219.019 16.328 218.935 17.364 218.879 18.372C218.851 19.352 218.837 20.108 218.837 20.64C218.837 21.312 218.851 21.942 218.879 22.53C218.907 23.118 218.935 23.636 218.963 24.084H217.997C217.801 22.124 217.535 20.584 217.199 19.464C216.863 18.316 216.275 17.49 215.435 16.986C214.595 16.482 213.293 16.23 211.529 16.23H209.261V40.128C209.261 41.248 209.359 42.088 209.555 42.648C209.779 43.208 210.199 43.586 210.815 43.782C211.431 43.978 212.327 44.104 213.503 44.16V45C212.775 44.944 211.851 44.916 210.731 44.916C209.611 44.888 208.477 44.874 207.329 44.874C206.069 44.874 204.879 44.888 203.759 44.916C202.667 44.916 201.785 44.944 201.113 45V44.16C202.289 44.104 203.185 43.978 203.801 43.782C204.417 43.586 204.823 43.208 205.019 42.648C205.243 42.088 205.355 41.248 205.355 40.128V16.23H203.087C201.351 16.23 200.049 16.482 199.181 16.986C198.341 17.49 197.753 18.316 197.417 19.464C197.081 20.584 196.815 22.124 196.619 24.084H195.653C195.709 23.636 195.737 23.118 195.737 22.53C195.765 21.942 195.779 21.312 195.779 20.64C195.779 20.108 195.751 19.352 195.695 18.372C195.667 17.364 195.597 16.328 195.485 15.264C196.661 15.292 197.935 15.32 199.307 15.348C200.707 15.376 202.107 15.39 203.507 15.39C204.907 15.39 206.181 15.39 207.329 15.39C208.477 15.39 209.737 15.39 211.109 15.39C212.509 15.39 213.909 15.376 215.309 15.348C216.709 15.32 217.983 15.292 219.131 15.264ZM243.075 15.264C242.963 16.244 242.879 17.196 242.823 18.12C242.795 19.044 242.781 19.744 242.781 20.22C242.781 20.724 242.795 21.214 242.823 21.69C242.851 22.138 242.879 22.516 242.907 22.824H241.941C241.773 21.172 241.535 19.87 241.227 18.918C240.919 17.938 240.387 17.252 239.631 16.86C238.903 16.44 237.797 16.23 236.313 16.23H232.827C231.875 16.23 231.147 16.314 230.643 16.482C230.167 16.622 229.845 16.944 229.677 17.448C229.509 17.924 229.425 18.68 229.425 19.716V40.548C229.425 41.556 229.509 42.312 229.677 42.816C229.845 43.32 230.167 43.656 230.643 43.824C231.147 43.964 231.875 44.034 232.827 44.034H235.893C237.657 44.034 238.987 43.796 239.883 43.32C240.807 42.844 241.465 42.074 241.857 41.01C242.277 39.918 242.585 38.448 242.781 36.6H243.747C243.663 37.356 243.621 38.364 243.621 39.624C243.621 40.156 243.635 40.926 243.663 41.934C243.719 42.914 243.803 43.936 243.915 45C242.487 44.944 240.877 44.916 239.085 44.916C237.293 44.888 235.697 44.874 234.297 44.874C233.681 44.874 232.883 44.874 231.903 44.874C230.951 44.874 229.915 44.888 228.795 44.916C227.675 44.916 226.541 44.93 225.393 44.958C224.245 44.958 223.153 44.972 222.117 45V44.16C223.069 44.104 223.783 43.992 224.259 43.824C224.763 43.656 225.099 43.32 225.267 42.816C225.435 42.312 225.519 41.556 225.519 40.548V19.716C225.519 18.68 225.435 17.924 225.267 17.448C225.099 16.944 224.763 16.608 224.259 16.44C223.783 16.244 223.069 16.132 222.117 16.104V15.264C223.153 15.292 224.245 15.32 225.393 15.348C226.541 15.348 227.675 15.362 228.795 15.39C229.915 15.39 230.951 15.39 231.903 15.39C232.883 15.39 233.681 15.39 234.297 15.39C235.585 15.39 237.041 15.39 238.665 15.39C240.317 15.362 241.787 15.32 243.075 15.264ZM235.851 29.628C235.851 29.628 235.851 29.768 235.851 30.048C235.851 30.328 235.851 30.468 235.851 30.468H228.165C228.165 30.468 228.165 30.328 228.165 30.048C228.165 29.768 228.165 29.628 228.165 29.628H235.851ZM237.069 24.084C236.957 25.68 236.901 26.898 236.901 27.738C236.929 28.578 236.943 29.348 236.943 30.048C236.943 30.748 236.957 31.518 236.985 32.358C237.013 33.198 237.083 34.416 237.195 36.012H236.229C236.117 35.116 235.977 34.248 235.809 33.408C235.669 32.54 235.333 31.84 234.801 31.308C234.297 30.748 233.429 30.468 232.197 30.468V29.628C233.121 29.628 233.821 29.446 234.297 29.082C234.801 28.69 235.165 28.2 235.389 27.612C235.613 27.024 235.767 26.422 235.851 25.806C235.935 25.162 236.019 24.588 236.103 24.084H237.069ZM247.71 15.264C248.298 15.292 249.068 15.32 250.02 15.348C250.972 15.376 251.91 15.39 252.834 15.39C254.15 15.39 255.41 15.376 256.614 15.348C257.818 15.32 258.672 15.306 259.176 15.306C262.564 15.306 265.098 16.076 266.778 17.616C268.458 19.156 269.298 21.144 269.298 23.58C269.298 24.588 269.13 25.652 268.794 26.772C268.458 27.864 267.87 28.886 267.03 29.838C266.218 30.762 265.098 31.518 263.67 32.106C262.242 32.694 260.436 32.988 258.252 32.988H254.22V32.148H257.832C259.82 32.148 261.332 31.77 262.368 31.014C263.432 30.258 264.146 29.264 264.51 28.032C264.902 26.8 265.098 25.47 265.098 24.042C265.098 21.382 264.566 19.394 263.502 18.078C262.466 16.762 260.674 16.104 258.126 16.104C256.838 16.104 255.998 16.342 255.606 16.818C255.214 17.294 255.018 18.26 255.018 19.716V40.548C255.018 41.556 255.116 42.312 255.312 42.816C255.536 43.32 255.956 43.656 256.572 43.824C257.188 43.992 258.084 44.104 259.26 44.16V45C258.532 44.944 257.608 44.916 256.488 44.916C255.368 44.888 254.234 44.874 253.086 44.874C251.994 44.874 250.972 44.888 250.02 44.916C249.068 44.916 248.298 44.944 247.71 45V44.16C248.662 44.104 249.376 43.992 249.852 43.824C250.356 43.656 250.692 43.32 250.86 42.816C251.028 42.312 251.112 41.556 251.112 40.548V19.716C251.112 18.68 251.028 17.924 250.86 17.448C250.692 16.944 250.356 16.608 249.852 16.44C249.376 16.244 248.662 16.132 247.71 16.104V15.264Z" fill="#00875F"/>
<path d="M104.463 63.1287L110.807 79.4827C111.067 80.1414 111.362 80.5834 111.691 80.8087C112.021 81.0167 112.324 81.1294 112.601 81.1467V81.6667C112.255 81.6321 111.83 81.6147 111.327 81.6147C110.825 81.5974 110.322 81.5887 109.819 81.5887C109.143 81.5887 108.511 81.5974 107.921 81.6147C107.332 81.6147 106.855 81.6321 106.491 81.6667V81.1467C107.375 81.1121 107.939 80.9647 108.181 80.7047C108.424 80.4274 108.372 79.8467 108.025 78.9627L103.189 66.0407L103.605 65.7027L99.0814 77.4547C98.8041 78.1481 98.6394 78.7374 98.5874 79.2227C98.5354 79.6907 98.5788 80.0634 98.7174 80.3407C98.8734 80.6181 99.1248 80.8174 99.4714 80.9387C99.8354 81.0601 100.286 81.1294 100.823 81.1467V81.6667C100.338 81.6321 99.8268 81.6147 99.2894 81.6147C98.7694 81.5974 98.2841 81.5887 97.8334 81.5887C97.4001 81.5887 97.0274 81.5974 96.7154 81.6147C96.4208 81.6147 96.1434 81.6321 95.8834 81.6667V81.1467C96.2301 81.0601 96.5854 80.8607 96.9494 80.5487C97.3134 80.2194 97.6428 79.6647 97.9374 78.8847L104.047 63.1287C104.117 63.1287 104.186 63.1287 104.255 63.1287C104.325 63.1287 104.394 63.1287 104.463 63.1287ZM107.635 74.1787V74.6987H99.8874L100.147 74.1787H107.635ZM121.932 67.9127C122.591 67.9127 123.137 67.9994 123.57 68.1727C124.021 68.3461 124.394 68.5887 124.688 68.9007C125.018 69.2474 125.252 69.6807 125.39 70.2007C125.529 70.7207 125.598 71.4227 125.598 72.3067V79.2487C125.598 79.9767 125.746 80.4707 126.04 80.7307C126.352 80.9907 126.864 81.1207 127.574 81.1207V81.6667C127.28 81.6494 126.829 81.6321 126.222 81.6147C125.616 81.5801 125.026 81.5627 124.454 81.5627C123.882 81.5627 123.319 81.5801 122.764 81.6147C122.227 81.6321 121.82 81.6494 121.542 81.6667V81.1207C122.166 81.1207 122.608 80.9907 122.868 80.7307C123.128 80.4707 123.258 79.9767 123.258 79.2487V71.7347C123.258 71.1974 123.215 70.7034 123.128 70.2527C123.042 69.8021 122.842 69.4381 122.53 69.1607C122.236 68.8834 121.776 68.7447 121.152 68.7447C120.424 68.7447 119.783 68.9527 119.228 69.3687C118.691 69.7847 118.266 70.3567 117.954 71.0847C117.66 71.7954 117.512 72.5927 117.512 73.4767V79.2487C117.512 79.9767 117.642 80.4707 117.902 80.7307C118.162 80.9907 118.604 81.1207 119.228 81.1207V81.6667C118.951 81.6494 118.535 81.6321 117.98 81.6147C117.443 81.5801 116.888 81.5627 116.316 81.5627C115.744 81.5627 115.155 81.5801 114.548 81.6147C113.942 81.6321 113.491 81.6494 113.196 81.6667V81.1207C113.907 81.1207 114.41 80.9907 114.704 80.7307C115.016 80.4707 115.172 79.9767 115.172 79.2487V71.1107C115.172 70.3307 115.034 69.7587 114.756 69.3947C114.479 69.0134 113.959 68.8227 113.196 68.8227V68.2767C113.751 68.3287 114.288 68.3547 114.808 68.3547C115.311 68.3547 115.788 68.3287 116.238 68.2767C116.706 68.2074 117.131 68.1121 117.512 67.9907V71.0587C117.963 69.8801 118.587 69.0654 119.384 68.6147C120.199 68.1467 121.048 67.9127 121.932 67.9127ZM137.446 67.9127C138.105 67.9127 138.651 67.9994 139.084 68.1727C139.535 68.3461 139.907 68.5887 140.202 68.9007C140.531 69.2474 140.765 69.6807 140.904 70.2007C141.043 70.7207 141.112 71.4227 141.112 72.3067V79.2487C141.112 79.9767 141.259 80.4707 141.554 80.7307C141.866 80.9907 142.377 81.1207 143.088 81.1207V81.6667C142.793 81.6494 142.343 81.6321 141.736 81.6147C141.129 81.5801 140.54 81.5627 139.968 81.5627C139.396 81.5627 138.833 81.5801 138.278 81.6147C137.741 81.6321 137.333 81.6494 137.056 81.6667V81.1207C137.68 81.1207 138.122 80.9907 138.382 80.7307C138.642 80.4707 138.772 79.9767 138.772 79.2487V71.7347C138.772 71.1974 138.729 70.7034 138.642 70.2527C138.555 69.8021 138.356 69.4381 138.044 69.1607C137.749 68.8834 137.29 68.7447 136.666 68.7447C135.938 68.7447 135.297 68.9527 134.742 69.3687C134.205 69.7847 133.78 70.3567 133.468 71.0847C133.173 71.7954 133.026 72.5927 133.026 73.4767V79.2487C133.026 79.9767 133.156 80.4707 133.416 80.7307C133.676 80.9907 134.118 81.1207 134.742 81.1207V81.6667C134.465 81.6494 134.049 81.6321 133.494 81.6147C132.957 81.5801 132.402 81.5627 131.83 81.5627C131.258 81.5627 130.669 81.5801 130.062 81.6147C129.455 81.6321 129.005 81.6494 128.71 81.6667V81.1207C129.421 81.1207 129.923 80.9907 130.218 80.7307C130.53 80.4707 130.686 79.9767 130.686 79.2487V71.1107C130.686 70.3307 130.547 69.7587 130.27 69.3947C129.993 69.0134 129.473 68.8227 128.71 68.8227V68.2767C129.265 68.3287 129.802 68.3547 130.322 68.3547C130.825 68.3547 131.301 68.3287 131.752 68.2767C132.22 68.2074 132.645 68.1121 133.026 67.9907V71.0587C133.477 69.8801 134.101 69.0654 134.898 68.6147C135.713 68.1467 136.562 67.9127 137.446 67.9127ZM150.594 67.9127C151.703 67.9127 152.7 68.1554 153.584 68.6407C154.468 69.1261 155.17 69.8887 155.69 70.9287C156.227 71.9687 156.496 73.3207 156.496 74.9847C156.496 76.6487 156.227 78.0007 155.69 79.0407C155.17 80.0634 154.468 80.8174 153.584 81.3027C152.7 81.7881 151.703 82.0307 150.594 82.0307C149.502 82.0307 148.505 81.7881 147.604 81.3027C146.72 80.8174 146.009 80.0634 145.472 79.0407C144.952 78.0007 144.692 76.6487 144.692 74.9847C144.692 73.3207 144.952 71.9687 145.472 70.9287C146.009 69.8887 146.72 69.1261 147.604 68.6407C148.505 68.1554 149.502 67.9127 150.594 67.9127ZM150.594 68.4327C149.606 68.4327 148.791 68.9441 148.15 69.9667C147.526 70.9894 147.214 72.6621 147.214 74.9847C147.214 77.3074 147.526 78.9801 148.15 80.0027C148.791 81.0081 149.606 81.5107 150.594 81.5107C151.582 81.5107 152.388 81.0081 153.012 80.0027C153.653 78.9801 153.974 77.3074 153.974 74.9847C153.974 72.6621 153.653 70.9894 153.012 69.9667C152.388 68.9441 151.582 68.4327 150.594 68.4327ZM162.654 63.9607V68.3027H166.502V68.8227H162.654V78.8847C162.654 79.6994 162.801 80.2714 163.096 80.6007C163.391 80.9301 163.798 81.0947 164.318 81.0947C164.838 81.0947 165.289 80.8867 165.67 80.4707C166.051 80.0374 166.381 79.3181 166.658 78.3127L167.178 78.4427C167.005 79.4481 166.658 80.2974 166.138 80.9907C165.635 81.6841 164.855 82.0307 163.798 82.0307C163.209 82.0307 162.723 81.9527 162.342 81.7967C161.961 81.6581 161.623 81.4501 161.328 81.1727C160.947 80.7741 160.678 80.2974 160.522 79.7427C160.383 79.1881 160.314 78.4514 160.314 77.5327V68.8227H157.818V68.3027H160.314V64.3247C160.747 64.3074 161.163 64.2727 161.562 64.2207C161.961 64.1687 162.325 64.0821 162.654 63.9607ZM171.351 81.8487C170.641 81.8487 170.025 81.7187 169.505 81.4587C168.985 81.1814 168.587 80.8001 168.309 80.3147C168.049 79.8294 167.919 79.2661 167.919 78.6247C167.919 77.8621 168.093 77.2381 168.439 76.7527C168.803 76.2674 169.263 75.8774 169.817 75.5827C170.372 75.2881 170.953 75.0454 171.559 74.8547C172.183 74.6467 172.773 74.4561 173.327 74.2827C173.882 74.0921 174.333 73.8754 174.679 73.6327C175.043 73.3901 175.225 73.0694 175.225 72.6707V71.0587C175.225 70.3307 175.113 69.7761 174.887 69.3947C174.679 69.0134 174.393 68.7621 174.029 68.6407C173.665 68.5021 173.258 68.4327 172.807 68.4327C172.374 68.4327 171.906 68.4934 171.403 68.6147C170.918 68.7361 170.528 68.9874 170.233 69.3687C170.563 69.4381 170.849 69.6114 171.091 69.8887C171.334 70.1661 171.455 70.5214 171.455 70.9547C171.455 71.3881 171.317 71.7347 171.039 71.9947C170.762 72.2374 170.407 72.3587 169.973 72.3587C169.471 72.3587 169.098 72.2027 168.855 71.8907C168.63 71.5614 168.517 71.1974 168.517 70.7987C168.517 70.3481 168.63 69.9841 168.855 69.7067C169.081 69.4294 169.367 69.1694 169.713 68.9267C170.112 68.6494 170.623 68.4154 171.247 68.2247C171.889 68.0167 172.608 67.9127 173.405 67.9127C174.116 67.9127 174.723 67.9994 175.225 68.1727C175.728 68.3287 176.144 68.5627 176.473 68.8747C176.924 69.2907 177.219 69.8021 177.357 70.4087C177.496 70.9981 177.565 71.7087 177.565 72.5407V79.7687C177.565 80.2021 177.626 80.5141 177.747 80.7047C177.886 80.8954 178.094 80.9907 178.371 80.9907C178.562 80.9907 178.744 80.9474 178.917 80.8607C179.091 80.7741 179.299 80.6354 179.541 80.4447L179.827 80.8867C179.463 81.1641 179.117 81.3981 178.787 81.5887C178.458 81.7621 178.016 81.8487 177.461 81.8487C176.959 81.8487 176.543 81.7621 176.213 81.5887C175.884 81.4154 175.633 81.1641 175.459 80.8347C175.303 80.4881 175.225 80.0547 175.225 79.5347C174.757 80.3147 174.194 80.8954 173.535 81.2767C172.894 81.6581 172.166 81.8487 171.351 81.8487ZM172.287 80.8087C172.859 80.8087 173.388 80.6441 173.873 80.3147C174.376 79.9854 174.827 79.4914 175.225 78.8327V73.7367C175.017 74.0314 174.714 74.2827 174.315 74.4907C173.917 74.6814 173.483 74.8807 173.015 75.0887C172.547 75.2794 172.097 75.5134 171.663 75.7907C171.247 76.0507 170.901 76.3974 170.623 76.8307C170.346 77.2641 170.207 77.8274 170.207 78.5207C170.207 79.2141 170.389 79.7687 170.753 80.1847C171.135 80.6007 171.646 80.8087 172.287 80.8087ZM184.794 63.9607V68.3027H188.642V68.8227H184.794V78.8847C184.794 79.6994 184.942 80.2714 185.236 80.6007C185.531 80.9301 185.938 81.0947 186.458 81.0947C186.978 81.0947 187.429 80.8867 187.81 80.4707C188.192 80.0374 188.521 79.3181 188.798 78.3127L189.318 78.4427C189.145 79.4481 188.798 80.2974 188.278 80.9907C187.776 81.6841 186.996 82.0307 185.938 82.0307C185.349 82.0307 184.864 81.9527 184.482 81.7967C184.101 81.6581 183.763 81.4501 183.468 81.1727C183.087 80.7741 182.818 80.2974 182.662 79.7427C182.524 79.1881 182.454 78.4514 182.454 77.5327V68.8227H179.958V68.3027H182.454V64.3247C182.888 64.3074 183.304 64.2727 183.702 64.2207C184.101 64.1687 184.465 64.0821 184.794 63.9607ZM192.764 61.7767C193.215 61.7767 193.605 61.9414 193.934 62.2707C194.263 62.6001 194.428 62.9901 194.428 63.4407C194.428 63.8914 194.263 64.2814 193.934 64.6107C193.605 64.9401 193.215 65.1047 192.764 65.1047C192.313 65.1047 191.923 64.9401 191.594 64.6107C191.265 64.2814 191.1 63.8914 191.1 63.4407C191.1 62.9901 191.265 62.6001 191.594 62.2707C191.923 61.9414 192.313 61.7767 192.764 61.7767ZM194.116 67.9907V79.2487C194.116 79.9767 194.263 80.4707 194.558 80.7307C194.87 80.9907 195.381 81.1207 196.092 81.1207V81.6667C195.797 81.6494 195.347 81.6321 194.74 81.6147C194.151 81.5801 193.553 81.5627 192.946 81.5627C192.357 81.5627 191.759 81.5801 191.152 81.6147C190.545 81.6321 190.095 81.6494 189.8 81.6667V81.1207C190.511 81.1207 191.013 80.9907 191.308 80.7307C191.62 80.4707 191.776 79.9767 191.776 79.2487V71.1107C191.776 70.3307 191.637 69.7587 191.36 69.3947C191.083 69.0134 190.563 68.8227 189.8 68.8227V68.2767C190.355 68.3287 190.892 68.3547 191.412 68.3547C191.915 68.3547 192.391 68.3287 192.842 68.2767C193.31 68.2074 193.735 68.1121 194.116 67.9907ZM203.787 67.9127C204.896 67.9127 205.893 68.1554 206.777 68.6407C207.661 69.1261 208.363 69.8887 208.883 70.9287C209.42 71.9687 209.689 73.3207 209.689 74.9847C209.689 76.6487 209.42 78.0007 208.883 79.0407C208.363 80.0634 207.661 80.8174 206.777 81.3027C205.893 81.7881 204.896 82.0307 203.787 82.0307C202.695 82.0307 201.698 81.7881 200.797 81.3027C199.913 80.8174 199.202 80.0634 198.665 79.0407C198.145 78.0007 197.885 76.6487 197.885 74.9847C197.885 73.3207 198.145 71.9687 198.665 70.9287C199.202 69.8887 199.913 69.1261 200.797 68.6407C201.698 68.1554 202.695 67.9127 203.787 67.9127ZM203.787 68.4327C202.799 68.4327 201.984 68.9441 201.343 69.9667C200.719 70.9894 200.407 72.6621 200.407 74.9847C200.407 77.3074 200.719 78.9801 201.343 80.0027C201.984 81.0081 202.799 81.5107 203.787 81.5107C204.775 81.5107 205.581 81.0081 206.205 80.0027C206.846 78.9801 207.167 77.3074 207.167 74.9847C207.167 72.6621 206.846 70.9894 206.205 69.9667C205.581 68.9441 204.775 68.4327 203.787 68.4327ZM220.397 67.9127C221.056 67.9127 221.602 67.9994 222.035 68.1727C222.486 68.3461 222.859 68.5887 223.153 68.9007C223.483 69.2474 223.717 69.6807 223.855 70.2007C223.994 70.7207 224.063 71.4227 224.063 72.3067V79.2487C224.063 79.9767 224.211 80.4707 224.505 80.7307C224.817 80.9907 225.329 81.1207 226.039 81.1207V81.6667C225.745 81.6494 225.294 81.6321 224.687 81.6147C224.081 81.5801 223.491 81.5627 222.919 81.5627C222.347 81.5627 221.784 81.5801 221.229 81.6147C220.692 81.6321 220.285 81.6494 220.007 81.6667V81.1207C220.631 81.1207 221.073 80.9907 221.333 80.7307C221.593 80.4707 221.723 79.9767 221.723 79.2487V71.7347C221.723 71.1974 221.68 70.7034 221.593 70.2527C221.507 69.8021 221.307 69.4381 220.995 69.1607C220.701 68.8834 220.241 68.7447 219.617 68.7447C218.889 68.7447 218.248 68.9527 217.693 69.3687C217.156 69.7847 216.731 70.3567 216.419 71.0847C216.125 71.7954 215.977 72.5927 215.977 73.4767V79.2487C215.977 79.9767 216.107 80.4707 216.367 80.7307C216.627 80.9907 217.069 81.1207 217.693 81.1207V81.6667C217.416 81.6494 217 81.6321 216.445 81.6147C215.908 81.5801 215.353 81.5627 214.781 81.5627C214.209 81.5627 213.62 81.5801 213.013 81.6147C212.407 81.6321 211.956 81.6494 211.661 81.6667V81.1207C212.372 81.1207 212.875 80.9907 213.169 80.7307C213.481 80.4707 213.637 79.9767 213.637 79.2487V71.1107C213.637 70.3307 213.499 69.7587 213.221 69.3947C212.944 69.0134 212.424 68.8227 211.661 68.8227V68.2767C212.216 68.3287 212.753 68.3547 213.273 68.3547C213.776 68.3547 214.253 68.3287 214.703 68.2767C215.171 68.2074 215.596 68.1121 215.977 67.9907V71.0587C216.428 69.8801 217.052 69.0654 217.849 68.6147C218.664 68.1467 219.513 67.9127 220.397 67.9127ZM240.02 67.9127C241.129 67.9127 242.126 68.1554 243.01 68.6407C243.894 69.1261 244.596 69.8887 245.116 70.9287C245.653 71.9687 245.922 73.3207 245.922 74.9847C245.922 76.6487 245.653 78.0007 245.116 79.0407C244.596 80.0634 243.894 80.8174 243.01 81.3027C242.126 81.7881 241.129 82.0307 240.02 82.0307C238.928 82.0307 237.931 81.7881 237.03 81.3027C236.146 80.8174 235.435 80.0634 234.898 79.0407C234.378 78.0007 234.118 76.6487 234.118 74.9847C234.118 73.3207 234.378 71.9687 234.898 70.9287C235.435 69.8887 236.146 69.1261 237.03 68.6407C237.931 68.1554 238.928 67.9127 240.02 67.9127ZM240.02 68.4327C239.032 68.4327 238.217 68.9441 237.576 69.9667C236.952 70.9894 236.64 72.6621 236.64 74.9847C236.64 77.3074 236.952 78.9801 237.576 80.0027C238.217 81.0081 239.032 81.5107 240.02 81.5107C241.008 81.5107 241.814 81.0081 242.438 80.0027C243.079 78.9801 243.4 77.3074 243.4 74.9847C243.4 72.6621 243.079 70.9894 242.438 69.9667C241.814 68.9441 241.008 68.4327 240.02 68.4327ZM254.316 61.3347C254.801 61.3347 255.226 61.4041 255.59 61.5427C255.971 61.6641 256.3 61.8287 256.578 62.0367C256.838 62.2447 257.037 62.4874 257.176 62.7647C257.314 63.0421 257.384 63.3367 257.384 63.6487C257.384 64.0474 257.254 64.3767 256.994 64.6367C256.734 64.8967 256.404 65.0267 256.006 65.0267C255.624 65.0267 255.286 64.9054 254.992 64.6627C254.714 64.4027 254.576 64.0561 254.576 63.6227C254.576 63.2587 254.671 62.9641 254.862 62.7387C255.07 62.5134 255.338 62.3661 255.668 62.2967C255.616 62.1407 255.477 62.0107 255.252 61.9067C255.044 61.7854 254.758 61.7247 254.394 61.7247C253.995 61.7247 253.648 61.8114 253.354 61.9847C253.076 62.1581 252.86 62.3921 252.704 62.6867C252.496 63.0507 252.366 63.5967 252.314 64.3247C252.262 65.0354 252.236 66.1361 252.236 67.6267V68.3027H255.018V68.8227H252.236V78.9887C252.236 79.8381 252.478 80.4101 252.964 80.7047C253.466 80.9821 254.142 81.1207 254.992 81.1207V81.6667C254.593 81.6494 254.03 81.6321 253.302 81.6147C252.574 81.5801 251.802 81.5627 250.988 81.5627C250.398 81.5627 249.809 81.5801 249.22 81.6147C248.648 81.6321 248.214 81.6494 247.92 81.6667V81.1207C248.63 81.1207 249.133 80.9907 249.428 80.7307C249.74 80.4707 249.896 79.9767 249.896 79.2487V68.8227H247.816V68.3027H249.896C249.896 67.2801 249.939 66.4221 250.026 65.7287C250.112 65.0354 250.251 64.4461 250.442 63.9607C250.632 63.4581 250.892 63.0161 251.222 62.6347C251.568 62.2361 252.01 61.9241 252.548 61.6987C253.085 61.4561 253.674 61.3347 254.316 61.3347ZM266.857 63.9607V68.3027H270.705V68.8227H266.857V78.8847C266.857 79.6994 267.004 80.2714 267.299 80.6007C267.594 80.9301 268.001 81.0947 268.521 81.0947C269.041 81.0947 269.492 80.8867 269.873 80.4707C270.254 80.0374 270.584 79.3181 270.861 78.3127L271.381 78.4427C271.208 79.4481 270.861 80.2974 270.341 80.9907C269.838 81.6841 269.058 82.0307 268.001 82.0307C267.412 82.0307 266.926 81.9527 266.545 81.7967C266.164 81.6581 265.826 81.4501 265.531 81.1727C265.15 80.7741 264.881 80.2974 264.725 79.7427C264.586 79.1881 264.517 78.4514 264.517 77.5327V68.8227H262.021V68.3027H264.517V64.3247C264.95 64.3074 265.366 64.2727 265.765 64.2207C266.164 64.1687 266.528 64.0821 266.857 63.9607ZM279.948 67.9127C280.416 67.9127 280.824 68.0081 281.17 68.1987C281.534 68.3894 281.812 68.6407 282.002 68.9527C282.21 69.2474 282.314 69.5854 282.314 69.9667C282.314 70.4001 282.176 70.7814 281.898 71.1107C281.638 71.4401 281.283 71.6047 280.832 71.6047C280.468 71.6047 280.148 71.4921 279.87 71.2667C279.593 71.0241 279.454 70.6861 279.454 70.2527C279.454 69.9234 279.541 69.6461 279.714 69.4207C279.905 69.1781 280.113 68.9874 280.338 68.8487C280.217 68.6754 280.035 68.5887 279.792 68.5887C279.255 68.5887 278.761 68.7534 278.31 69.0827C277.86 69.3947 277.478 69.8021 277.166 70.3047C276.854 70.8074 276.612 71.3447 276.438 71.9167C276.265 72.4714 276.178 72.9914 276.178 73.4767V78.9887C276.178 79.8381 276.421 80.4101 276.906 80.7047C277.409 80.9821 278.085 81.1207 278.934 81.1207V81.6667C278.536 81.6494 277.972 81.6321 277.244 81.6147C276.516 81.5801 275.745 81.5627 274.93 81.5627C274.341 81.5627 273.752 81.5801 273.162 81.6147C272.59 81.6321 272.157 81.6494 271.862 81.6667V81.1207C272.573 81.1207 273.076 80.9907 273.37 80.7307C273.682 80.4707 273.838 79.9767 273.838 79.2487V71.1107C273.838 70.3307 273.7 69.7587 273.422 69.3947C273.145 69.0134 272.625 68.8227 271.862 68.8227V68.2767C272.417 68.3287 272.954 68.3547 273.474 68.3547C273.977 68.3547 274.454 68.3287 274.904 68.2767C275.372 68.2074 275.797 68.1121 276.178 67.9907V71.2407C276.369 70.7381 276.638 70.2354 276.984 69.7327C277.348 69.2127 277.782 68.7794 278.284 68.4327C278.787 68.0861 279.342 67.9127 279.948 67.9127ZM287.133 81.8487C286.422 81.8487 285.807 81.7187 285.287 81.4587C284.767 81.1814 284.368 80.8001 284.091 80.3147C283.831 79.8294 283.701 79.2661 283.701 78.6247C283.701 77.8621 283.874 77.2381 284.221 76.7527C284.585 76.2674 285.044 75.8774 285.599 75.5827C286.153 75.2881 286.734 75.0454 287.341 74.8547C287.965 74.6467 288.554 74.4561 289.109 74.2827C289.663 74.0921 290.114 73.8754 290.461 73.6327C290.825 73.3901 291.007 73.0694 291.007 72.6707V71.0587C291.007 70.3307 290.894 69.7761 290.669 69.3947C290.461 69.0134 290.175 68.7621 289.811 68.6407C289.447 68.5021 289.039 68.4327 288.589 68.4327C288.155 68.4327 287.687 68.4934 287.185 68.6147C286.699 68.7361 286.309 68.9874 286.015 69.3687C286.344 69.4381 286.63 69.6114 286.873 69.8887C287.115 70.1661 287.237 70.5214 287.237 70.9547C287.237 71.3881 287.098 71.7347 286.821 71.9947C286.543 72.2374 286.188 72.3587 285.755 72.3587C285.252 72.3587 284.879 72.2027 284.637 71.8907C284.411 71.5614 284.299 71.1974 284.299 70.7987C284.299 70.3481 284.411 69.9841 284.637 69.7067C284.862 69.4294 285.148 69.1694 285.495 68.9267C285.893 68.6494 286.405 68.4154 287.029 68.2247C287.67 68.0167 288.389 67.9127 289.187 67.9127C289.897 67.9127 290.504 67.9994 291.007 68.1727C291.509 68.3287 291.925 68.5627 292.255 68.8747C292.705 69.2907 293 69.8021 293.139 70.4087C293.277 70.9981 293.347 71.7087 293.347 72.5407V79.7687C293.347 80.2021 293.407 80.5141 293.529 80.7047C293.667 80.8954 293.875 80.9907 294.153 80.9907C294.343 80.9907 294.525 80.9474 294.699 80.8607C294.872 80.7741 295.08 80.6354 295.323 80.4447L295.609 80.8867C295.245 81.1641 294.898 81.3981 294.569 81.5887C294.239 81.7621 293.797 81.8487 293.243 81.8487C292.74 81.8487 292.324 81.7621 291.995 81.5887C291.665 81.4154 291.414 81.1641 291.241 80.8347C291.085 80.4881 291.007 80.0547 291.007 79.5347C290.539 80.3147 289.975 80.8954 289.317 81.2767C288.675 81.6581 287.947 81.8487 287.133 81.8487ZM288.069 80.8087C288.641 80.8087 289.169 80.6441 289.655 80.3147C290.157 79.9854 290.608 79.4914 291.007 78.8327V73.7367C290.799 74.0314 290.495 74.2827 290.097 74.4907C289.698 74.6814 289.265 74.8807 288.797 75.0887C288.329 75.2794 287.878 75.5134 287.445 75.7907C287.029 76.0507 286.682 76.3974 286.405 76.8307C286.127 77.2641 285.989 77.8274 285.989 78.5207C285.989 79.2141 286.171 79.7687 286.535 80.1847C286.916 80.6007 287.427 80.8087 288.069 80.8087ZM305.126 67.9127C305.784 67.9127 306.33 67.9994 306.764 68.1727C307.214 68.3461 307.587 68.5887 307.882 68.9007C308.211 69.2474 308.445 69.6807 308.584 70.2007C308.722 70.7207 308.792 71.4227 308.792 72.3067V79.2487C308.792 79.9767 308.939 80.4707 309.234 80.7307C309.546 80.9907 310.057 81.1207 310.768 81.1207V81.6667C310.473 81.6494 310.022 81.6321 309.416 81.6147C308.809 81.5801 308.22 81.5627 307.648 81.5627C307.076 81.5627 306.512 81.5801 305.958 81.6147C305.42 81.6321 305.013 81.6494 304.736 81.6667V81.1207C305.36 81.1207 305.802 80.9907 306.062 80.7307C306.322 80.4707 306.452 79.9767 306.452 79.2487V71.7347C306.452 71.1974 306.408 70.7034 306.322 70.2527C306.235 69.8021 306.036 69.4381 305.724 69.1607C305.429 68.8834 304.97 68.7447 304.346 68.7447C303.618 68.7447 302.976 68.9527 302.422 69.3687C301.884 69.7847 301.46 70.3567 301.148 71.0847C300.853 71.7954 300.706 72.5927 300.706 73.4767V79.2487C300.706 79.9767 300.836 80.4707 301.096 80.7307C301.356 80.9907 301.798 81.1207 302.422 81.1207V81.6667C302.144 81.6494 301.728 81.6321 301.174 81.6147C300.636 81.5801 300.082 81.5627 299.51 81.5627C298.938 81.5627 298.348 81.5801 297.742 81.6147C297.135 81.6321 296.684 81.6494 296.39 81.6667V81.1207C297.1 81.1207 297.603 80.9907 297.898 80.7307C298.21 80.4707 298.366 79.9767 298.366 79.2487V71.1107C298.366 70.3307 298.227 69.7587 297.95 69.3947C297.672 69.0134 297.152 68.8227 296.39 68.8227V68.2767C296.944 68.3287 297.482 68.3547 298.002 68.3547C298.504 68.3547 298.981 68.3287 299.432 68.2767C299.9 68.2074 300.324 68.1121 300.706 67.9907V71.0587C301.156 69.8801 301.78 69.0654 302.578 68.6147C303.392 68.1467 304.242 67.9127 305.126 67.9127ZM316.557 67.9127C317.251 67.9127 317.84 68.0254 318.325 68.2507C318.811 68.4761 319.166 68.6841 319.391 68.8747C319.963 69.3427 320.31 69.0307 320.431 67.9387H321.029C320.995 68.4241 320.969 69.0047 320.951 69.6807C320.934 70.3394 320.925 71.2321 320.925 72.3587H320.327C320.223 71.7174 320.041 71.0934 319.781 70.4867C319.539 69.8801 319.175 69.3861 318.689 69.0047C318.204 68.6061 317.571 68.4067 316.791 68.4067C316.185 68.4067 315.673 68.5801 315.257 68.9267C314.859 69.2561 314.659 69.7501 314.659 70.4087C314.659 70.9287 314.815 71.3794 315.127 71.7607C315.439 72.1247 315.847 72.4714 316.349 72.8007C316.852 73.1127 317.398 73.4594 317.987 73.8407C318.646 74.2567 319.244 74.6814 319.781 75.1147C320.319 75.5481 320.743 76.0247 321.055 76.5447C321.385 77.0647 321.549 77.6801 321.549 78.3907C321.549 79.1881 321.341 79.8554 320.925 80.3927C320.509 80.9301 319.963 81.3374 319.287 81.6147C318.629 81.8921 317.901 82.0307 317.103 82.0307C316.722 82.0307 316.358 81.9961 316.011 81.9267C315.682 81.8747 315.361 81.7881 315.049 81.6667C314.876 81.5801 314.694 81.4761 314.503 81.3547C314.33 81.2334 314.157 81.1034 313.983 80.9647C313.81 80.8261 313.654 80.8347 313.515 80.9907C313.377 81.1294 313.273 81.4154 313.203 81.8487H312.605C312.64 81.2941 312.666 80.6181 312.683 79.8207C312.701 79.0234 312.709 77.9661 312.709 76.6487H313.307C313.429 77.6194 313.602 78.4687 313.827 79.1967C314.053 79.9247 314.408 80.4967 314.893 80.9127C315.379 81.3114 316.055 81.5107 316.921 81.5107C317.268 81.5107 317.615 81.4327 317.961 81.2767C318.325 81.1207 318.629 80.8607 318.871 80.4967C319.114 80.1327 319.235 79.6474 319.235 79.0407C319.235 78.2781 318.958 77.6541 318.403 77.1687C317.849 76.6834 317.147 76.1721 316.297 75.6347C315.673 75.2361 315.084 74.8374 314.529 74.4387C313.992 74.0401 313.55 73.5894 313.203 73.0867C312.874 72.5841 312.709 71.9774 312.709 71.2667C312.709 70.4867 312.883 69.8541 313.229 69.3687C313.593 68.8661 314.07 68.5021 314.659 68.2767C315.249 68.0341 315.881 67.9127 316.557 67.9127ZM327.666 67.9907V83.9547C327.666 84.7001 327.883 85.1941 328.316 85.4367C328.767 85.6967 329.382 85.8267 330.162 85.8267V86.3727C329.781 86.3554 329.252 86.3294 328.576 86.2947C327.9 86.2774 327.181 86.2687 326.418 86.2687C325.881 86.2687 325.344 86.2774 324.806 86.2947C324.286 86.3294 323.888 86.3554 323.61 86.3727V85.8267C324.234 85.8267 324.676 85.7141 324.936 85.4887C325.196 85.2634 325.326 84.8387 325.326 84.2147V71.1107C325.326 70.3307 325.188 69.7587 324.91 69.3947C324.633 69.0134 324.113 68.8227 323.35 68.8227V68.2767C323.905 68.3287 324.442 68.3547 324.962 68.3547C325.465 68.3547 325.942 68.3287 326.392 68.2767C326.86 68.2074 327.285 68.1121 327.666 67.9907ZM331.826 67.9127C332.745 67.9127 333.568 68.1641 334.296 68.6667C335.024 69.1521 335.596 69.8714 336.012 70.8247C336.446 71.7781 336.662 72.9567 336.662 74.3607C336.662 75.2967 336.55 76.2241 336.324 77.1427C336.099 78.0441 335.744 78.8674 335.258 79.6127C334.79 80.3407 334.175 80.9301 333.412 81.3807C332.667 81.8141 331.766 82.0307 330.708 82.0307C329.894 82.0307 329.183 81.8401 328.576 81.4587C327.987 81.0774 327.588 80.6181 327.38 80.0807L327.64 79.7167C327.883 80.2021 328.23 80.6094 328.68 80.9387C329.148 81.2681 329.729 81.4327 330.422 81.4327C331.393 81.4327 332.147 81.1294 332.684 80.5227C333.222 79.9161 333.594 79.1101 333.802 78.1047C334.028 77.0821 334.14 75.9554 334.14 74.7247C334.14 73.3381 334.028 72.2027 333.802 71.3187C333.577 70.4347 333.239 69.7761 332.788 69.3427C332.338 68.9094 331.783 68.6927 331.124 68.6927C330.275 68.6927 329.504 69.0481 328.81 69.7587C328.117 70.4521 327.675 71.5094 327.484 72.9307L327.172 72.5667C327.363 71.0934 327.883 69.9494 328.732 69.1347C329.599 68.3201 330.63 67.9127 331.826 67.9127ZM345.01 67.9127C346.119 67.9127 347.116 68.1554 348 68.6407C348.884 69.1261 349.586 69.8887 350.106 70.9287C350.643 71.9687 350.912 73.3207 350.912 74.9847C350.912 76.6487 350.643 78.0007 350.106 79.0407C349.586 80.0634 348.884 80.8174 348 81.3027C347.116 81.7881 346.119 82.0307 345.01 82.0307C343.918 82.0307 342.921 81.7881 342.02 81.3027C341.136 80.8174 340.425 80.0634 339.888 79.0407C339.368 78.0007 339.108 76.6487 339.108 74.9847C339.108 73.3207 339.368 71.9687 339.888 70.9287C340.425 69.8887 341.136 69.1261 342.02 68.6407C342.921 68.1554 343.918 67.9127 345.01 67.9127ZM345.01 68.4327C344.022 68.4327 343.207 68.9441 342.566 69.9667C341.942 70.9894 341.63 72.6621 341.63 74.9847C341.63 77.3074 341.942 78.9801 342.566 80.0027C343.207 81.0081 344.022 81.5107 345.01 81.5107C345.998 81.5107 346.804 81.0081 347.428 80.0027C348.069 78.9801 348.39 77.3074 348.39 74.9847C348.39 72.6621 348.069 70.9894 347.428 69.9667C346.804 68.9441 345.998 68.4327 345.01 68.4327ZM357.538 67.9127C358.231 67.9127 358.821 68.0254 359.306 68.2507C359.791 68.4761 360.147 68.6841 360.372 68.8747C360.944 69.3427 361.291 69.0307 361.412 67.9387H362.01C361.975 68.4241 361.949 69.0047 361.932 69.6807C361.915 70.3394 361.906 71.2321 361.906 72.3587H361.308C361.204 71.7174 361.022 71.0934 360.762 70.4867C360.519 69.8801 360.155 69.3861 359.67 69.0047C359.185 68.6061 358.552 68.4067 357.772 68.4067C357.165 68.4067 356.654 68.5801 356.238 68.9267C355.839 69.2561 355.64 69.7501 355.64 70.4087C355.64 70.9287 355.796 71.3794 356.108 71.7607C356.42 72.1247 356.827 72.4714 357.33 72.8007C357.833 73.1127 358.379 73.4594 358.968 73.8407C359.627 74.2567 360.225 74.6814 360.762 75.1147C361.299 75.5481 361.724 76.0247 362.036 76.5447C362.365 77.0647 362.53 77.6801 362.53 78.3907C362.53 79.1881 362.322 79.8554 361.906 80.3927C361.49 80.9301 360.944 81.3374 360.268 81.6147C359.609 81.8921 358.881 82.0307 358.084 82.0307C357.703 82.0307 357.339 81.9961 356.992 81.9267C356.663 81.8747 356.342 81.7881 356.03 81.6667C355.857 81.5801 355.675 81.4761 355.484 81.3547C355.311 81.2334 355.137 81.1034 354.964 80.9647C354.791 80.8261 354.635 80.8347 354.496 80.9907C354.357 81.1294 354.253 81.4154 354.184 81.8487H353.586C353.621 81.2941 353.647 80.6181 353.664 79.8207C353.681 79.0234 353.69 77.9661 353.69 76.6487H354.288C354.409 77.6194 354.583 78.4687 354.808 79.1967C355.033 79.9247 355.389 80.4967 355.874 80.9127C356.359 81.3114 357.035 81.5107 357.902 81.5107C358.249 81.5107 358.595 81.4327 358.942 81.2767C359.306 81.1207 359.609 80.8607 359.852 80.4967C360.095 80.1327 360.216 79.6474 360.216 79.0407C360.216 78.2781 359.939 77.6541 359.384 77.1687C358.829 76.6834 358.127 76.1721 357.278 75.6347C356.654 75.2361 356.065 74.8374 355.51 74.4387C354.973 74.0401 354.531 73.5894 354.184 73.0867C353.855 72.5841 353.69 71.9774 353.69 71.2667C353.69 70.4867 353.863 69.8541 354.21 69.3687C354.574 68.8661 355.051 68.5021 355.64 68.2767C356.229 68.0341 356.862 67.9127 357.538 67.9127ZM368.205 81.8487C367.494 81.8487 366.879 81.7187 366.359 81.4587C365.839 81.1814 365.44 80.8001 365.163 80.3147C364.903 79.8294 364.773 79.2661 364.773 78.6247C364.773 77.8621 364.946 77.2381 365.293 76.7527C365.657 76.2674 366.116 75.8774 366.671 75.5827C367.225 75.2881 367.806 75.0454 368.413 74.8547C369.037 74.6467 369.626 74.4561 370.181 74.2827C370.735 74.0921 371.186 73.8754 371.533 73.6327C371.897 73.3901 372.079 73.0694 372.079 72.6707V71.0587C372.079 70.3307 371.966 69.7761 371.741 69.3947C371.533 69.0134 371.247 68.7621 370.883 68.6407C370.519 68.5021 370.111 68.4327 369.661 68.4327C369.227 68.4327 368.759 68.4934 368.257 68.6147C367.771 68.7361 367.381 68.9874 367.087 69.3687C367.416 69.4381 367.702 69.6114 367.945 69.8887C368.187 70.1661 368.309 70.5214 368.309 70.9547C368.309 71.3881 368.17 71.7347 367.893 71.9947C367.615 72.2374 367.26 72.3587 366.827 72.3587C366.324 72.3587 365.951 72.2027 365.709 71.8907C365.483 71.5614 365.371 71.1974 365.371 70.7987C365.371 70.3481 365.483 69.9841 365.709 69.7067C365.934 69.4294 366.22 69.1694 366.567 68.9267C366.965 68.6494 367.477 68.4154 368.101 68.2247C368.742 68.0167 369.461 67.9127 370.259 67.9127C370.969 67.9127 371.576 67.9994 372.079 68.1727C372.581 68.3287 372.997 68.5627 373.327 68.8747C373.777 69.2907 374.072 69.8021 374.211 70.4087C374.349 70.9981 374.419 71.7087 374.419 72.5407V79.7687C374.419 80.2021 374.479 80.5141 374.601 80.7047C374.739 80.8954 374.947 80.9907 375.225 80.9907C375.415 80.9907 375.597 80.9474 375.771 80.8607C375.944 80.7741 376.152 80.6354 376.395 80.4447L376.681 80.8867C376.317 81.1641 375.97 81.3981 375.641 81.5887C375.311 81.7621 374.869 81.8487 374.315 81.8487C373.812 81.8487 373.396 81.7621 373.067 81.5887C372.737 81.4154 372.486 81.1641 372.313 80.8347C372.157 80.4881 372.079 80.0547 372.079 79.5347C371.611 80.3147 371.047 80.8954 370.389 81.2767C369.747 81.6581 369.019 81.8487 368.205 81.8487ZM369.141 80.8087C369.713 80.8087 370.241 80.6441 370.727 80.3147C371.229 79.9854 371.68 79.4914 372.079 78.8327V73.7367C371.871 74.0314 371.567 74.2827 371.169 74.4907C370.77 74.6814 370.337 74.8807 369.869 75.0887C369.401 75.2794 368.95 75.5134 368.517 75.7907C368.101 76.0507 367.754 76.3974 367.477 76.8307C367.199 77.2641 367.061 77.8274 367.061 78.5207C367.061 79.2141 367.243 79.7687 367.607 80.1847C367.988 80.6007 368.499 80.8087 369.141 80.8087ZM385.184 67.9127C386.605 67.9127 387.784 68.5021 388.72 69.6807C389.656 70.8421 390.124 72.6101 390.124 74.9847C390.124 76.5447 389.855 77.8534 389.318 78.9107C388.798 79.9507 388.096 80.7307 387.212 81.2507C386.328 81.7707 385.366 82.0307 384.326 82.0307C383.459 82.0307 382.619 81.7881 381.804 81.3027C381.007 80.8001 380.409 80.0634 380.01 79.0927L380.53 79.3787C380.963 80.0721 381.501 80.5921 382.142 80.9387C382.783 81.2681 383.442 81.4327 384.118 81.4327C385.279 81.4327 386.146 80.9127 386.718 79.8727C387.307 78.8154 387.602 77.1861 387.602 74.9847C387.602 73.5807 387.489 72.4107 387.264 71.4747C387.039 70.5387 386.692 69.8454 386.224 69.3947C385.756 68.9267 385.158 68.6927 384.43 68.6927C383.633 68.6927 382.887 69.0567 382.194 69.7847C381.518 70.4954 381.102 71.5441 380.946 72.9307L380.634 72.5667C380.825 71.0934 381.336 69.9494 382.168 69.1347C383.017 68.3201 384.023 67.9127 385.184 67.9127ZM381.128 61.3087V80.3147C380.903 80.5054 380.669 80.7047 380.426 80.9127C380.201 81.1034 379.975 81.2941 379.75 81.4847C379.525 81.6754 379.291 81.8747 379.048 82.0827L378.606 81.9007C378.675 81.6581 378.719 81.4154 378.736 81.1727C378.771 80.9127 378.788 80.6527 378.788 80.3927V64.4287C378.788 63.6487 378.649 63.0767 378.372 62.7127C378.095 62.3314 377.575 62.1407 376.812 62.1407V61.5947C377.367 61.6467 377.904 61.6727 378.424 61.6727C378.927 61.6727 379.403 61.6467 379.854 61.5947C380.322 61.5254 380.747 61.4301 381.128 61.3087ZM395.992 61.2827V79.2487C395.992 79.9767 396.14 80.4707 396.434 80.7307C396.746 80.9907 397.258 81.1207 397.968 81.1207V81.6667C397.674 81.6494 397.223 81.6321 396.616 81.6147C396.027 81.5801 395.429 81.5627 394.822 81.5627C394.233 81.5627 393.635 81.5801 393.028 81.6147C392.422 81.6321 391.971 81.6494 391.676 81.6667V81.1207C392.387 81.1207 392.89 80.9907 393.184 80.7307C393.496 80.4707 393.652 79.9767 393.652 79.2487V64.4027C393.652 63.6227 393.514 63.0507 393.236 62.6867C392.959 62.3054 392.439 62.1147 391.676 62.1147V61.5687C392.231 61.6207 392.768 61.6467 393.288 61.6467C393.791 61.6467 394.268 61.6207 394.718 61.5687C395.186 61.4994 395.611 61.4041 395.992 61.2827ZM405.362 67.9127C406.887 67.9127 408.075 68.3807 408.924 69.3167C409.791 70.2354 410.224 71.6741 410.224 73.6327H401.046L401.02 73.1387H407.728C407.763 72.2894 407.693 71.5094 407.52 70.7987C407.347 70.0707 407.069 69.4901 406.688 69.0567C406.324 68.6234 405.847 68.4067 405.258 68.4067C404.461 68.4067 403.75 68.8054 403.126 69.6027C402.519 70.4001 402.155 71.6654 402.034 73.3987L402.112 73.5027C402.077 73.7627 402.051 74.0487 402.034 74.3607C402.017 74.6727 402.008 74.9847 402.008 75.2967C402.008 76.4754 402.199 77.4894 402.58 78.3387C402.961 79.1881 403.455 79.8381 404.062 80.2887C404.686 80.7221 405.327 80.9387 405.986 80.9387C406.506 80.9387 407 80.8607 407.468 80.7047C407.936 80.5314 408.369 80.2541 408.768 79.8727C409.167 79.4914 409.513 78.9801 409.808 78.3387L410.328 78.5467C410.137 79.1187 409.825 79.6734 409.392 80.2107C408.959 80.7481 408.413 81.1901 407.754 81.5367C407.095 81.8661 406.333 82.0307 405.466 82.0307C404.218 82.0307 403.143 81.7447 402.242 81.1727C401.358 80.6007 400.673 79.8121 400.188 78.8067C399.72 77.7841 399.486 76.6141 399.486 75.2967C399.486 73.7714 399.729 72.4627 400.214 71.3707C400.699 70.2614 401.384 69.4121 402.268 68.8227C403.152 68.2161 404.183 67.9127 405.362 67.9127ZM424.989 67.9127C426.514 67.9127 427.702 68.3807 428.551 69.3167C429.418 70.2354 429.851 71.6741 429.851 73.6327H420.673L420.647 73.1387H427.355C427.39 72.2894 427.32 71.5094 427.147 70.7987C426.974 70.0707 426.696 69.4901 426.315 69.0567C425.951 68.6234 425.474 68.4067 424.885 68.4067C424.088 68.4067 423.377 68.8054 422.753 69.6027C422.146 70.4001 421.782 71.6654 421.661 73.3987L421.739 73.5027C421.704 73.7627 421.678 74.0487 421.661 74.3607C421.644 74.6727 421.635 74.9847 421.635 75.2967C421.635 76.4754 421.826 77.4894 422.207 78.3387C422.588 79.1881 423.082 79.8381 423.689 80.2887C424.313 80.7221 424.954 80.9387 425.613 80.9387C426.133 80.9387 426.627 80.8607 427.095 80.7047C427.563 80.5314 427.996 80.2541 428.395 79.8727C428.794 79.4914 429.14 78.9801 429.435 78.3387L429.955 78.5467C429.764 79.1187 429.452 79.6734 429.019 80.2107C428.586 80.7481 428.04 81.1901 427.381 81.5367C426.722 81.8661 425.96 82.0307 425.093 82.0307C423.845 82.0307 422.77 81.7447 421.869 81.1727C420.985 80.6007 420.3 79.8121 419.815 78.8067C419.347 77.7841 419.113 76.6141 419.113 75.2967C419.113 73.7714 419.356 72.4627 419.841 71.3707C420.326 70.2614 421.011 69.4121 421.895 68.8227C422.779 68.2161 423.81 67.9127 424.989 67.9127ZM435.957 61.2827V79.2487C435.957 79.9767 436.105 80.4707 436.399 80.7307C436.711 80.9907 437.223 81.1207 437.933 81.1207V81.6667C437.639 81.6494 437.188 81.6321 436.581 81.6147C435.992 81.5801 435.394 81.5627 434.787 81.5627C434.198 81.5627 433.6 81.5801 432.993 81.6147C432.387 81.6321 431.936 81.6494 431.641 81.6667V81.1207C432.352 81.1207 432.855 80.9907 433.149 80.7307C433.461 80.4707 433.617 79.9767 433.617 79.2487V64.4027C433.617 63.6227 433.479 63.0507 433.201 62.6867C432.924 62.3054 432.404 62.1147 431.641 62.1147V61.5687C432.196 61.6207 432.733 61.6467 433.253 61.6467C433.756 61.6467 434.233 61.6207 434.683 61.5687C435.151 61.4994 435.576 61.4041 435.957 61.2827ZM445.327 67.9127C446.852 67.9127 448.04 68.3807 448.889 69.3167C449.756 70.2354 450.189 71.6741 450.189 73.6327H441.011L440.985 73.1387H447.693C447.728 72.2894 447.658 71.5094 447.485 70.7987C447.312 70.0707 447.034 69.4901 446.653 69.0567C446.289 68.6234 445.812 68.4067 445.223 68.4067C444.426 68.4067 443.715 68.8054 443.091 69.6027C442.484 70.4001 442.12 71.6654 441.999 73.3987L442.077 73.5027C442.042 73.7627 442.016 74.0487 441.999 74.3607C441.982 74.6727 441.973 74.9847 441.973 75.2967C441.973 76.4754 442.164 77.4894 442.545 78.3387C442.926 79.1881 443.42 79.8381 444.027 80.2887C444.651 80.7221 445.292 80.9387 445.951 80.9387C446.471 80.9387 446.965 80.8607 447.433 80.7047C447.901 80.5314 448.334 80.2541 448.733 79.8727C449.132 79.4914 449.478 78.9801 449.773 78.3387L450.293 78.5467C450.102 79.1187 449.79 79.6734 449.357 80.2107C448.924 80.7481 448.378 81.1901 447.719 81.5367C447.06 81.8661 446.298 82.0307 445.431 82.0307C444.183 82.0307 443.108 81.7447 442.207 81.1727C441.323 80.6007 440.638 79.8121 440.153 78.8067C439.685 77.7841 439.451 76.6141 439.451 75.2967C439.451 73.7714 439.694 72.4627 440.179 71.3707C440.664 70.2614 441.349 69.4121 442.233 68.8227C443.117 68.2161 444.148 67.9127 445.327 67.9127ZM460.741 67.9127C461.348 67.9127 461.877 67.9994 462.327 68.1727C462.778 68.3461 463.151 68.5887 463.445 68.9007C463.775 69.2474 464 69.6981 464.121 70.2527C464.243 70.8074 464.303 71.4921 464.303 72.3067V79.2487C464.303 79.9767 464.451 80.4707 464.745 80.7307C465.057 80.9907 465.569 81.1207 466.279 81.1207V81.6667C465.985 81.6494 465.534 81.6321 464.927 81.6147C464.321 81.5801 463.731 81.5627 463.159 81.5627C462.587 81.5627 462.024 81.5801 461.469 81.6147C460.932 81.6321 460.525 81.6494 460.247 81.6667V81.1207C460.871 81.1207 461.313 80.9907 461.573 80.7307C461.833 80.4707 461.963 79.9767 461.963 79.2487V71.7347C461.963 71.1974 461.929 70.7034 461.859 70.2527C461.79 69.8021 461.617 69.4381 461.339 69.1607C461.062 68.8834 460.611 68.7447 459.987 68.7447C459.311 68.7447 458.705 68.9527 458.167 69.3687C457.647 69.7847 457.231 70.3567 456.919 71.0847C456.625 71.7954 456.477 72.5927 456.477 73.4767V79.2487C456.477 79.9767 456.607 80.4707 456.867 80.7307C457.127 80.9907 457.569 81.1207 458.193 81.1207V81.6667C457.916 81.6494 457.5 81.6321 456.945 81.6147C456.408 81.5801 455.853 81.5627 455.281 81.5627C454.709 81.5627 454.12 81.5801 453.513 81.6147C452.907 81.6321 452.456 81.6494 452.161 81.6667V81.1207C452.872 81.1207 453.375 80.9907 453.669 80.7307C453.981 80.4707 454.137 79.9767 454.137 79.2487V71.1107C454.137 70.3307 453.999 69.7587 453.721 69.3947C453.444 69.0134 452.924 68.8227 452.161 68.8227V68.2767C452.716 68.3287 453.253 68.3547 453.773 68.3547C454.276 68.3547 454.753 68.3287 455.203 68.2767C455.671 68.2074 456.096 68.1121 456.477 67.9907V71.0587C456.928 69.9321 457.543 69.1261 458.323 68.6407C459.103 68.1554 459.909 67.9127 460.741 67.9127ZM468.567 67.9127C469.174 67.9127 469.703 67.9994 470.153 68.1727C470.604 68.3461 470.977 68.5887 471.271 68.9007C471.601 69.2474 471.826 69.6981 471.947 70.2527C472.069 70.8074 472.129 71.4921 472.129 72.3067V79.2487C472.129 79.9767 472.277 80.4707 472.571 80.7307C472.883 80.9907 473.395 81.1207 474.105 81.1207V81.6667C473.811 81.6494 473.36 81.6321 472.753 81.6147C472.147 81.5801 471.557 81.5627 470.985 81.5627C470.413 81.5627 469.85 81.5801 469.295 81.6147C468.758 81.6321 468.351 81.6494 468.073 81.6667V81.1207C468.697 81.1207 469.139 80.9907 469.399 80.7307C469.659 80.4707 469.789 79.9767 469.789 79.2487V71.7347C469.789 71.1974 469.755 70.7034 469.685 70.2527C469.616 69.8021 469.443 69.4381 469.165 69.1607C468.888 68.8834 468.437 68.7447 467.813 68.7447C467.137 68.7447 466.531 68.9527 465.993 69.3687C465.473 69.7847 465.057 70.3481 464.745 71.0587C464.451 71.7694 464.303 72.5667 464.303 73.4507L464.225 71.0327C464.693 69.8367 465.326 69.0221 466.123 68.5887C466.921 68.1381 467.735 67.9127 468.567 67.9127ZM481.559 67.9127C483.085 67.9127 484.272 68.3807 485.121 69.3167C485.988 70.2354 486.421 71.6741 486.421 73.6327H477.243L477.217 73.1387H483.925C483.96 72.2894 483.891 71.5094 483.717 70.7987C483.544 70.0707 483.267 69.4901 482.885 69.0567C482.521 68.6234 482.045 68.4067 481.455 68.4067C480.658 68.4067 479.947 68.8054 479.323 69.6027C478.717 70.4001 478.353 71.6654 478.231 73.3987L478.309 73.5027C478.275 73.7627 478.249 74.0487 478.231 74.3607C478.214 74.6727 478.205 74.9847 478.205 75.2967C478.205 76.4754 478.396 77.4894 478.777 78.3387C479.159 79.1881 479.653 79.8381 480.259 80.2887C480.883 80.7221 481.525 80.9387 482.183 80.9387C482.703 80.9387 483.197 80.8607 483.665 80.7047C484.133 80.5314 484.567 80.2541 484.965 79.8727C485.364 79.4914 485.711 78.9801 486.005 78.3387L486.525 78.5467C486.335 79.1187 486.023 79.6734 485.589 80.2107C485.156 80.7481 484.61 81.1901 483.951 81.5367C483.293 81.8661 482.53 82.0307 481.663 82.0307C480.415 82.0307 479.341 81.7447 478.439 81.1727C477.555 80.6007 476.871 79.8121 476.385 78.8067C475.917 77.7841 475.683 76.6141 475.683 75.2967C475.683 73.7714 475.926 72.4627 476.411 71.3707C476.897 70.2614 477.581 69.4121 478.465 68.8227C479.349 68.2161 480.381 67.9127 481.559 67.9127ZM497.13 67.9127C497.788 67.9127 498.334 67.9994 498.768 68.1727C499.218 68.3461 499.591 68.5887 499.886 68.9007C500.215 69.2474 500.449 69.6807 500.588 70.2007C500.726 70.7207 500.796 71.4227 500.796 72.3067V79.2487C500.796 79.9767 500.943 80.4707 501.238 80.7307C501.55 80.9907 502.061 81.1207 502.772 81.1207V81.6667C502.477 81.6494 502.026 81.6321 501.42 81.6147C500.813 81.5801 500.224 81.5627 499.652 81.5627C499.08 81.5627 498.516 81.5801 497.962 81.6147C497.424 81.6321 497.017 81.6494 496.74 81.6667V81.1207C497.364 81.1207 497.806 80.9907 498.066 80.7307C498.326 80.4707 498.456 79.9767 498.456 79.2487V71.7347C498.456 71.1974 498.412 70.7034 498.326 70.2527C498.239 69.8021 498.04 69.4381 497.728 69.1607C497.433 68.8834 496.974 68.7447 496.35 68.7447C495.622 68.7447 494.98 68.9527 494.426 69.3687C493.888 69.7847 493.464 70.3567 493.152 71.0847C492.857 71.7954 492.71 72.5927 492.71 73.4767V79.2487C492.71 79.9767 492.84 80.4707 493.1 80.7307C493.36 80.9907 493.802 81.1207 494.426 81.1207V81.6667C494.148 81.6494 493.732 81.6321 493.178 81.6147C492.64 81.5801 492.086 81.5627 491.514 81.5627C490.942 81.5627 490.352 81.5801 489.746 81.6147C489.139 81.6321 488.688 81.6494 488.394 81.6667V81.1207C489.104 81.1207 489.607 80.9907 489.902 80.7307C490.214 80.4707 490.37 79.9767 490.37 79.2487V71.1107C490.37 70.3307 490.231 69.7587 489.954 69.3947C489.676 69.0134 489.156 68.8227 488.394 68.8227V68.2767C488.948 68.3287 489.486 68.3547 490.006 68.3547C490.508 68.3547 490.985 68.3287 491.436 68.2767C491.904 68.2074 492.328 68.1121 492.71 67.9907V71.0587C493.16 69.8801 493.784 69.0654 494.582 68.6147C495.396 68.1467 496.246 67.9127 497.13 67.9127ZM508.093 63.9607V68.3027H511.941V68.8227H508.093V78.8847C508.093 79.6994 508.241 80.2714 508.535 80.6007C508.83 80.9301 509.237 81.0947 509.757 81.0947C510.277 81.0947 510.728 80.8867 511.109 80.4707C511.491 80.0374 511.82 79.3181 512.097 78.3127L512.617 78.4427C512.444 79.4481 512.097 80.2974 511.577 80.9907C511.075 81.6841 510.295 82.0307 509.237 82.0307C508.648 82.0307 508.163 81.9527 507.781 81.7967C507.4 81.6581 507.062 81.4501 506.767 81.1727C506.386 80.7741 506.117 80.2974 505.961 79.7427C505.823 79.1881 505.753 78.4514 505.753 77.5327V68.8227H503.257V68.3027H505.753V64.3247C506.187 64.3074 506.603 64.2727 507.001 64.2207C507.4 64.1687 507.764 64.0821 508.093 63.9607ZM517.753 67.9127C518.446 67.9127 519.035 68.0254 519.521 68.2507C520.006 68.4761 520.361 68.6841 520.587 68.8747C521.159 69.3427 521.505 69.0307 521.627 67.9387H522.225C522.19 68.4241 522.164 69.0047 522.147 69.6807C522.129 70.3394 522.121 71.2321 522.121 72.3587H521.523C521.419 71.7174 521.237 71.0934 520.977 70.4867C520.734 69.8801 520.37 69.3861 519.885 69.0047C519.399 68.6061 518.767 68.4067 517.987 68.4067C517.38 68.4067 516.869 68.5801 516.453 68.9267C516.054 69.2561 515.855 69.7501 515.855 70.4087C515.855 70.9287 516.011 71.3794 516.323 71.7607C516.635 72.1247 517.042 72.4714 517.545 72.8007C518.047 73.1127 518.593 73.4594 519.183 73.8407C519.841 74.2567 520.439 74.6814 520.977 75.1147C521.514 75.5481 521.939 76.0247 522.251 76.5447C522.58 77.0647 522.745 77.6801 522.745 78.3907C522.745 79.1881 522.537 79.8554 522.121 80.3927C521.705 80.9301 521.159 81.3374 520.483 81.6147C519.824 81.8921 519.096 82.0307 518.299 82.0307C517.917 82.0307 517.553 81.9961 517.207 81.9267C516.877 81.8747 516.557 81.7881 516.245 81.6667C516.071 81.5801 515.889 81.4761 515.699 81.3547C515.525 81.2334 515.352 81.1034 515.179 80.9647C515.005 80.8261 514.849 80.8347 514.711 80.9907C514.572 81.1294 514.468 81.4154 514.399 81.8487H513.801C513.835 81.2941 513.861 80.6181 513.879 79.8207C513.896 79.0234 513.905 77.9661 513.905 76.6487H514.503C514.624 77.6194 514.797 78.4687 515.023 79.1967C515.248 79.9247 515.603 80.4967 516.089 80.9127C516.574 81.3114 517.25 81.5107 518.117 81.5107C518.463 81.5107 518.81 81.4327 519.157 81.2767C519.521 81.1207 519.824 80.8607 520.067 80.4967C520.309 80.1327 520.431 79.6474 520.431 79.0407C520.431 78.2781 520.153 77.6541 519.599 77.1687C519.044 76.6834 518.342 76.1721 517.493 75.6347C516.869 75.2361 516.279 74.8374 515.725 74.4387C515.187 74.0401 514.745 73.5894 514.399 73.0867C514.069 72.5841 513.905 71.9774 513.905 71.2667C513.905 70.4867 514.078 69.8541 514.425 69.3687C514.789 68.8661 515.265 68.5021 515.855 68.2767C516.444 68.0341 517.077 67.9127 517.753 67.9127ZM534.166 61.7767C534.617 61.7767 535.007 61.9414 535.336 62.2707C535.666 62.6001 535.83 62.9901 535.83 63.4407C535.83 63.8914 535.666 64.2814 535.336 64.6107C535.007 64.9401 534.617 65.1047 534.166 65.1047C533.716 65.1047 533.326 64.9401 532.996 64.6107C532.667 64.2814 532.502 63.8914 532.502 63.4407C532.502 62.9901 532.667 62.6001 532.996 62.2707C533.326 61.9414 533.716 61.7767 534.166 61.7767ZM535.518 67.9907V79.2487C535.518 79.9767 535.666 80.4707 535.96 80.7307C536.272 80.9907 536.784 81.1207 537.494 81.1207V81.6667C537.2 81.6494 536.749 81.6321 536.142 81.6147C535.553 81.5801 534.955 81.5627 534.348 81.5627C533.759 81.5627 533.161 81.5801 532.554 81.6147C531.948 81.6321 531.497 81.6494 531.202 81.6667V81.1207C531.913 81.1207 532.416 80.9907 532.71 80.7307C533.022 80.4707 533.178 79.9767 533.178 79.2487V71.1107C533.178 70.3307 533.04 69.7587 532.762 69.3947C532.485 69.0134 531.965 68.8227 531.202 68.8227V68.2767C531.757 68.3287 532.294 68.3547 532.814 68.3547C533.317 68.3547 533.794 68.3287 534.244 68.2767C534.712 68.2074 535.137 68.1121 535.518 67.9907ZM547.555 67.9127C548.214 67.9127 548.76 67.9994 549.193 68.1727C549.644 68.3461 550.017 68.5887 550.311 68.9007C550.641 69.2474 550.875 69.6807 551.013 70.2007C551.152 70.7207 551.221 71.4227 551.221 72.3067V79.2487C551.221 79.9767 551.369 80.4707 551.663 80.7307C551.975 80.9907 552.487 81.1207 553.197 81.1207V81.6667C552.903 81.6494 552.452 81.6321 551.845 81.6147C551.239 81.5801 550.649 81.5627 550.077 81.5627C549.505 81.5627 548.942 81.5801 548.387 81.6147C547.85 81.6321 547.443 81.6494 547.165 81.6667V81.1207C547.789 81.1207 548.231 80.9907 548.491 80.7307C548.751 80.4707 548.881 79.9767 548.881 79.2487V71.7347C548.881 71.1974 548.838 70.7034 548.751 70.2527C548.665 69.8021 548.465 69.4381 548.153 69.1607C547.859 68.8834 547.399 68.7447 546.775 68.7447C546.047 68.7447 545.406 68.9527 544.851 69.3687C544.314 69.7847 543.889 70.3567 543.577 71.0847C543.283 71.7954 543.135 72.5927 543.135 73.4767V79.2487C543.135 79.9767 543.265 80.4707 543.525 80.7307C543.785 80.9907 544.227 81.1207 544.851 81.1207V81.6667C544.574 81.6494 544.158 81.6321 543.603 81.6147C543.066 81.5801 542.511 81.5627 541.939 81.5627C541.367 81.5627 540.778 81.5801 540.171 81.6147C539.565 81.6321 539.114 81.6494 538.819 81.6667V81.1207C539.53 81.1207 540.033 80.9907 540.327 80.7307C540.639 80.4707 540.795 79.9767 540.795 79.2487V71.1107C540.795 70.3307 540.657 69.7587 540.379 69.3947C540.102 69.0134 539.582 68.8227 538.819 68.8227V68.2767C539.374 68.3287 539.911 68.3547 540.431 68.3547C540.934 68.3547 541.411 68.3287 541.861 68.2767C542.329 68.2074 542.754 68.1121 543.135 67.9907V71.0587C543.586 69.8801 544.21 69.0654 545.007 68.6147C545.822 68.1467 546.671 67.9127 547.555 67.9127ZM564.942 67.9907V83.9547C564.942 84.7001 565.158 85.1941 565.592 85.4367C566.042 85.6967 566.658 85.8267 567.438 85.8267V86.3727C567.056 86.3554 566.528 86.3294 565.852 86.2947C565.176 86.2774 564.456 86.2687 563.694 86.2687C563.156 86.2687 562.619 86.2774 562.082 86.2947C561.562 86.3294 561.163 86.3554 560.886 86.3727V85.8267C561.51 85.8267 561.952 85.7141 562.212 85.4887C562.472 85.2634 562.602 84.8387 562.602 84.2147V71.1107C562.602 70.3307 562.463 69.7587 562.186 69.3947C561.908 69.0134 561.388 68.8227 560.626 68.8227V68.2767C561.18 68.3287 561.718 68.3547 562.238 68.3547C562.74 68.3547 563.217 68.3287 563.668 68.2767C564.136 68.2074 564.56 68.1121 564.942 67.9907ZM569.102 67.9127C570.02 67.9127 570.844 68.1641 571.572 68.6667C572.3 69.1521 572.872 69.8714 573.288 70.8247C573.721 71.7781 573.938 72.9567 573.938 74.3607C573.938 75.2967 573.825 76.2241 573.6 77.1427C573.374 78.0441 573.019 78.8674 572.534 79.6127C572.066 80.3407 571.45 80.9301 570.688 81.3807C569.942 81.8141 569.041 82.0307 567.984 82.0307C567.169 82.0307 566.458 81.8401 565.852 81.4587C565.262 81.0774 564.864 80.6181 564.656 80.0807L564.916 79.7167C565.158 80.2021 565.505 80.6094 565.956 80.9387C566.424 81.2681 567.004 81.4327 567.698 81.4327C568.668 81.4327 569.422 81.1294 569.96 80.5227C570.497 79.9161 570.87 79.1101 571.078 78.1047C571.303 77.0821 571.416 75.9554 571.416 74.7247C571.416 73.3381 571.303 72.2027 571.078 71.3187C570.852 70.4347 570.514 69.7761 570.064 69.3427C569.613 68.9094 569.058 68.6927 568.4 68.6927C567.55 68.6927 566.779 69.0481 566.086 69.7587C565.392 70.4521 564.95 71.5094 564.76 72.9307L564.448 72.5667C564.638 71.0934 565.158 69.9494 566.008 69.1347C566.874 68.3201 567.906 67.9127 569.102 67.9127ZM580.049 61.2827V79.2487C580.049 79.9767 580.196 80.4707 580.491 80.7307C580.803 80.9907 581.314 81.1207 582.025 81.1207V81.6667C581.73 81.6494 581.28 81.6321 580.673 81.6147C580.084 81.5801 579.486 81.5627 578.879 81.5627C578.29 81.5627 577.692 81.5801 577.085 81.6147C576.478 81.6321 576.028 81.6494 575.733 81.6667V81.1207C576.444 81.1207 576.946 80.9907 577.241 80.7307C577.553 80.4707 577.709 79.9767 577.709 79.2487V64.4027C577.709 63.6227 577.57 63.0507 577.293 62.6867C577.016 62.3054 576.496 62.1147 575.733 62.1147V61.5687C576.288 61.6207 576.825 61.6467 577.345 61.6467C577.848 61.6467 578.324 61.6207 578.775 61.5687C579.243 61.4994 579.668 61.4041 580.049 61.2827ZM587.047 81.8487C586.336 81.8487 585.721 81.7187 585.201 81.4587C584.681 81.1814 584.282 80.8001 584.005 80.3147C583.745 79.8294 583.615 79.2661 583.615 78.6247C583.615 77.8621 583.788 77.2381 584.135 76.7527C584.499 76.2674 584.958 75.8774 585.513 75.5827C586.067 75.2881 586.648 75.0454 587.255 74.8547C587.879 74.6467 588.468 74.4561 589.023 74.2827C589.577 74.0921 590.028 73.8754 590.375 73.6327C590.739 73.3901 590.921 73.0694 590.921 72.6707V71.0587C590.921 70.3307 590.808 69.7761 590.583 69.3947C590.375 69.0134 590.089 68.7621 589.725 68.6407C589.361 68.5021 588.953 68.4327 588.503 68.4327C588.069 68.4327 587.601 68.4934 587.099 68.6147C586.613 68.7361 586.223 68.9874 585.929 69.3687C586.258 69.4381 586.544 69.6114 586.787 69.8887C587.029 70.1661 587.151 70.5214 587.151 70.9547C587.151 71.3881 587.012 71.7347 586.735 71.9947C586.457 72.2374 586.102 72.3587 585.669 72.3587C585.166 72.3587 584.793 72.2027 584.551 71.8907C584.325 71.5614 584.213 71.1974 584.213 70.7987C584.213 70.3481 584.325 69.9841 584.551 69.7067C584.776 69.4294 585.062 69.1694 585.409 68.9267C585.807 68.6494 586.319 68.4154 586.943 68.2247C587.584 68.0167 588.303 67.9127 589.101 67.9127C589.811 67.9127 590.418 67.9994 590.921 68.1727C591.423 68.3287 591.839 68.5627 592.169 68.8747C592.619 69.2907 592.914 69.8021 593.053 70.4087C593.191 70.9981 593.261 71.7087 593.261 72.5407V79.7687C593.261 80.2021 593.321 80.5141 593.443 80.7047C593.581 80.8954 593.789 80.9907 594.067 80.9907C594.257 80.9907 594.439 80.9474 594.613 80.8607C594.786 80.7741 594.994 80.6354 595.237 80.4447L595.523 80.8867C595.159 81.1641 594.812 81.3981 594.483 81.5887C594.153 81.7621 593.711 81.8487 593.157 81.8487C592.654 81.8487 592.238 81.7621 591.909 81.5887C591.579 81.4154 591.328 81.1641 591.155 80.8347C590.999 80.4881 590.921 80.0547 590.921 79.5347C590.453 80.3147 589.889 80.8954 589.231 81.2767C588.589 81.6581 587.861 81.8487 587.047 81.8487ZM587.983 80.8087C588.555 80.8087 589.083 80.6441 589.569 80.3147C590.071 79.9854 590.522 79.4914 590.921 78.8327V73.7367C590.713 74.0314 590.409 74.2827 590.011 74.4907C589.612 74.6814 589.179 74.8807 588.711 75.0887C588.243 75.2794 587.792 75.5134 587.359 75.7907C586.943 76.0507 586.596 76.3974 586.319 76.8307C586.041 77.2641 585.903 77.8274 585.903 78.5207C585.903 79.2141 586.085 79.7687 586.449 80.1847C586.83 80.6007 587.341 80.8087 587.983 80.8087ZM605.04 67.9127C605.698 67.9127 606.244 67.9994 606.678 68.1727C607.128 68.3461 607.501 68.5887 607.796 68.9007C608.125 69.2474 608.359 69.6807 608.498 70.2007C608.636 70.7207 608.706 71.4227 608.706 72.3067V79.2487C608.706 79.9767 608.853 80.4707 609.148 80.7307C609.46 80.9907 609.971 81.1207 610.682 81.1207V81.6667C610.387 81.6494 609.936 81.6321 609.33 81.6147C608.723 81.5801 608.134 81.5627 607.562 81.5627C606.99 81.5627 606.426 81.5801 605.872 81.6147C605.334 81.6321 604.927 81.6494 604.65 81.6667V81.1207C605.274 81.1207 605.716 80.9907 605.976 80.7307C606.236 80.4707 606.366 79.9767 606.366 79.2487V71.7347C606.366 71.1974 606.322 70.7034 606.236 70.2527C606.149 69.8021 605.95 69.4381 605.638 69.1607C605.343 68.8834 604.884 68.7447 604.26 68.7447C603.532 68.7447 602.89 68.9527 602.336 69.3687C601.798 69.7847 601.374 70.3567 601.062 71.0847C600.767 71.7954 600.62 72.5927 600.62 73.4767V79.2487C600.62 79.9767 600.75 80.4707 601.01 80.7307C601.27 80.9907 601.712 81.1207 602.336 81.1207V81.6667C602.058 81.6494 601.642 81.6321 601.088 81.6147C600.55 81.5801 599.996 81.5627 599.424 81.5627C598.852 81.5627 598.262 81.5801 597.656 81.6147C597.049 81.6321 596.598 81.6494 596.304 81.6667V81.1207C597.014 81.1207 597.517 80.9907 597.812 80.7307C598.124 80.4707 598.28 79.9767 598.28 79.2487V71.1107C598.28 70.3307 598.141 69.7587 597.864 69.3947C597.586 69.0134 597.066 68.8227 596.304 68.8227V68.2767C596.858 68.3287 597.396 68.3547 597.916 68.3547C598.418 68.3547 598.895 68.3287 599.346 68.2767C599.814 68.2074 600.238 68.1121 600.62 67.9907V71.0587C601.07 69.8801 601.694 69.0654 602.492 68.6147C603.306 68.1467 604.156 67.9127 605.04 67.9127ZM616.003 63.9607V68.3027H619.851V68.8227H616.003V78.8847C616.003 79.6994 616.151 80.2714 616.445 80.6007C616.74 80.9301 617.147 81.0947 617.667 81.0947C618.187 81.0947 618.638 80.8867 619.019 80.4707C619.401 80.0374 619.73 79.3181 620.007 78.3127L620.527 78.4427C620.354 79.4481 620.007 80.2974 619.487 80.9907C618.985 81.6841 618.205 82.0307 617.147 82.0307C616.558 82.0307 616.073 81.9527 615.691 81.7967C615.31 81.6581 614.972 81.4501 614.677 81.1727C614.296 80.7741 614.027 80.2974 613.871 79.7427C613.733 79.1881 613.663 78.4514 613.663 77.5327V68.8227H611.167V68.3027H613.663V64.3247C614.097 64.3074 614.513 64.2727 614.911 64.2207C615.31 64.1687 615.674 64.0821 616.003 63.9607ZM625.663 67.9127C626.356 67.9127 626.946 68.0254 627.431 68.2507C627.916 68.4761 628.272 68.6841 628.497 68.8747C629.069 69.3427 629.416 69.0307 629.537 67.9387H630.135C630.1 68.4241 630.074 69.0047 630.057 69.6807C630.04 70.3394 630.031 71.2321 630.031 72.3587H629.433C629.329 71.7174 629.147 71.0934 628.887 70.4867C628.644 69.8801 628.28 69.3861 627.795 69.0047C627.31 68.6061 626.677 68.4067 625.897 68.4067C625.29 68.4067 624.779 68.5801 624.363 68.9267C623.964 69.2561 623.765 69.7501 623.765 70.4087C623.765 70.9287 623.921 71.3794 624.233 71.7607C624.545 72.1247 624.952 72.4714 625.455 72.8007C625.958 73.1127 626.504 73.4594 627.093 73.8407C627.752 74.2567 628.35 74.6814 628.887 75.1147C629.424 75.5481 629.849 76.0247 630.161 76.5447C630.49 77.0647 630.655 77.6801 630.655 78.3907C630.655 79.1881 630.447 79.8554 630.031 80.3927C629.615 80.9301 629.069 81.3374 628.393 81.6147C627.734 81.8921 627.006 82.0307 626.209 82.0307C625.828 82.0307 625.464 81.9961 625.117 81.9267C624.788 81.8747 624.467 81.7881 624.155 81.6667C623.982 81.5801 623.8 81.4761 623.609 81.3547C623.436 81.2334 623.262 81.1034 623.089 80.9647C622.916 80.8261 622.76 80.8347 622.621 80.9907C622.482 81.1294 622.378 81.4154 622.309 81.8487H621.711C621.746 81.2941 621.772 80.6181 621.789 79.8207C621.806 79.0234 621.815 77.9661 621.815 76.6487H622.413C622.534 77.6194 622.708 78.4687 622.933 79.1967C623.158 79.9247 623.514 80.4967 623.999 80.9127C624.484 81.3114 625.16 81.5107 626.027 81.5107C626.374 81.5107 626.72 81.4327 627.067 81.2767C627.431 81.1207 627.734 80.8607 627.977 80.4967C628.22 80.1327 628.341 79.6474 628.341 79.0407C628.341 78.2781 628.064 77.6541 627.509 77.1687C626.954 76.6834 626.252 76.1721 625.403 75.6347C624.779 75.2361 624.19 74.8374 623.635 74.4387C623.098 74.0401 622.656 73.5894 622.309 73.0867C621.98 72.5841 621.815 71.9774 621.815 71.2667C621.815 70.4867 621.988 69.8541 622.335 69.3687C622.699 68.8661 623.176 68.5021 623.765 68.2767C624.354 68.0341 624.987 67.9127 625.663 67.9127Z" fill="#3B2369"/>
</svg>
