<svg width="10" height="10" viewBox="0 0 10 10" fill="none" xmlns="http://www.w3.org/2000/svg">
<g clip-path="url(#clip0_481_358)">
<path d="M4.34383 0.271875C4.70633 -0.090625 5.29383 -0.090625 5.65633 0.271875L9.72821 4.34438C10.0907 4.70688 10.0907 5.29375 9.72821 5.65562L5.65633 9.72812C5.29383 10.0906 4.70696 10.0906 4.34509 9.72812L0.27196 5.65625C0.18575 5.57022 0.117354 5.46802 0.0706874 5.35552C0.0240208 5.24302 0 5.12242 0 5.00063C0 4.87883 0.0240208 4.75823 0.0706874 4.64573C0.117354 4.53323 0.18575 4.43104 0.27196 4.345L4.34383 0.271875ZM5.21883 0.709375C5.16082 0.651363 5.08213 0.618772 5.00008 0.618772C4.91804 0.618772 4.83935 0.651363 4.78133 0.709375L0.708835 4.78125C0.650823 4.83927 0.618233 4.91795 0.618233 5C0.618233 5.08205 0.650823 5.16073 0.708835 5.21875L4.78133 9.29125C4.83935 9.34926 4.91804 9.38185 5.00008 9.38185C5.08213 9.38185 5.16082 9.34926 5.21883 9.29125L9.29133 5.21875C9.34935 5.16073 9.38194 5.08205 9.38194 5C9.38194 4.91795 9.34935 4.83927 9.29133 4.78125L5.21883 0.70875V0.709375Z" fill="#00875F"/>
<path d="M3.28437 3.61625C3.28352 3.63643 3.2868 3.65658 3.29402 3.67545C3.30124 3.69432 3.31224 3.71151 3.32635 3.72597C3.34045 3.74043 3.35737 3.75185 3.37606 3.75953C3.39474 3.76721 3.4148 3.77098 3.435 3.77062H3.95062C4.03687 3.77062 4.10562 3.7 4.11687 3.61437C4.17312 3.20438 4.45437 2.90563 4.95562 2.90563C5.38437 2.90563 5.77687 3.12 5.77687 3.63562C5.77687 4.0325 5.54312 4.215 5.17375 4.4925C4.75312 4.79813 4.42 5.155 4.44375 5.73438L4.44562 5.87C4.44628 5.91101 4.46303 5.95011 4.49226 5.97887C4.52149 6.00764 4.56086 6.02376 4.60187 6.02375H5.10875C5.15019 6.02375 5.18993 6.00729 5.21923 5.97799C5.24854 5.94868 5.265 5.90894 5.265 5.8675V5.80188C5.265 5.35313 5.43562 5.2225 5.89625 4.87313C6.27687 4.58375 6.67375 4.2625 6.67375 3.58813C6.67375 2.64375 5.87625 2.1875 5.00312 2.1875C4.21125 2.1875 3.34375 2.55625 3.28437 3.61625ZM4.2575 7.21812C4.2575 7.55125 4.52312 7.7975 4.88875 7.7975C5.26937 7.7975 5.53125 7.55125 5.53125 7.21812C5.53125 6.87313 5.26875 6.63063 4.88812 6.63063C4.52312 6.63063 4.2575 6.87313 4.2575 7.21812Z" fill="#00875F"/>
</g>
<defs>
<clipPath id="clip0_481_358">
<rect width="10" height="10" fill="white"/>
</clipPath>
</defs>
</svg>
