<svg width="76" height="78" viewBox="0 0 76 78" fill="none" xmlns="http://www.w3.org/2000/svg">
<g filter="url(#filter0_d_479_175)">
<path d="M51.4743 18.083C51.2216 15.5353 51.2718 13.1801 51.8758 10.9538C52.1799 9.83953 52.6238 8.75377 53.2503 7.68066C53.8794 6.60502 54.6937 5.54189 55.7493 4.48636L57.4828 2.75273L54.7313 0L52.9965 1.73236C51.3717 3.357 50.1761 5.06799 49.343 6.84267C48.0873 9.5092 47.657 12.312 47.6882 15.1173C47.7145 17.9252 48.181 20.7481 48.7178 23.5835C49.0679 25.4308 49.3705 27.2081 49.5394 28.9053C49.7933 31.453 49.7421 33.8095 49.1367 36.0345C48.834 37.1476 48.3899 38.2344 47.7622 39.3088C47.133 40.3831 46.3188 41.445 45.2632 42.5007V42.5019H45.2645L44.5027 43.2636C44.2989 43.4662 44.0974 43.6601 43.8911 43.8465L31.4263 31.3819C30.8109 32.0597 30.2917 32.7527 29.849 33.4793L41.8212 45.4499C41.2922 45.7876 40.7617 46.0801 40.2278 46.3303C39.6361 46.6093 39.0396 46.8381 38.4317 47.0208L28.3957 36.9851C28.1555 37.992 28.0267 39.0713 28.003 40.2694L35.3447 47.6099C34.707 47.6661 34.0566 47.6861 33.3924 47.6824C31.9052 47.6675 30.3544 47.5097 28.7359 47.2635C28.8034 47.6336 28.8685 47.9888 28.9348 48.3353C29.0961 49.1745 29.2561 50.0563 29.4038 50.9681C29.9578 51.0458 30.5094 51.1107 31.0609 51.1657C33.8739 51.4447 36.6918 51.4108 39.4384 50.6654C40.8118 50.294 42.1589 49.7423 43.4659 48.9769C44.7716 48.2127 46.0398 47.2334 47.2556 46.0177L48.016 45.2548C49.6408 43.6326 50.8352 41.9205 51.6719 40.1445C52.9265 37.4778 53.3554 34.6776 53.3267 31.871C53.2979 29.0631 52.8325 26.2389 52.2973 23.4048C51.9446 21.5561 51.6431 19.7802 51.4743 18.083Z" fill="#3B2369"/>
<path d="M71.2474 16.5187L69.515 18.2509C69.3099 18.4548 69.1085 18.6487 68.9034 18.8338L56.4373 6.36792C55.8231 7.04714 55.3041 7.74126 54.8612 8.46534L66.8321 20.4373C66.303 20.7762 65.7751 21.0676 65.2399 21.3178C64.6482 21.5966 64.0504 21.8254 63.4439 22.0081L53.408 11.9737C53.1678 12.9791 53.039 14.0586 53.0165 15.2567L60.357 22.5972C59.7191 22.6547 59.0688 22.6735 58.4045 22.6697C56.9175 22.6559 55.3665 22.4972 53.748 22.2495C53.8155 22.6198 53.8792 22.9776 53.948 23.3239C54.1069 24.163 54.2671 25.0435 54.4159 25.9554C54.9699 26.0329 55.5202 26.098 56.0718 26.1532C58.886 26.4319 61.7052 26.3994 64.4494 25.6528C65.8226 25.2814 67.171 24.731 68.478 23.9645C69.7824 23.2016 71.0508 22.2209 72.2689 21.0039L74 19.2704L71.2474 16.5187Z" fill="#23693B"/>
<path d="M21.1388 63.5351L9.16908 51.5658C9.69573 51.2243 10.226 50.9317 10.76 50.6828C11.3529 50.4038 11.9494 50.1737 12.5561 49.9923L22.592 60.0282C22.8322 59.0226 22.961 57.9419 22.9835 56.7437L15.6456 49.4058C16.2834 49.3495 16.9326 49.3258 17.5966 49.3307C19.0825 49.3445 20.6348 49.5058 22.2495 49.7523C22.1845 49.3809 22.1195 49.0219 22.0531 48.6766C21.8931 47.8387 21.7342 46.9557 21.5854 46.0439C21.0325 45.9713 20.4823 45.9051 19.9306 45.8499C17.1151 45.5673 14.2948 45.5998 11.5493 46.3465C10.1812 46.7218 8.82904 47.2721 7.52204 48.0362C6.21758 48.7991 4.94925 49.7784 3.73226 50.9967L2 52.7289L4.75293 55.483L6.48519 53.7495C6.6891 53.5456 6.89301 53.3519 7.09819 53.1667L19.5643 65.6314C20.177 64.9536 20.6985 64.2594 21.1388 63.5351Z" fill="#3B2369"/>
<path d="M26.462 43.0959C26.2105 40.5483 26.2593 38.1919 26.8635 35.9682C27.1674 34.8513 27.6102 33.767 28.2392 32.6926C28.867 31.6182 29.6825 30.554 30.7382 29.4983L31.4998 28.7378L31.4986 28.7354C31.7012 28.5315 31.9051 28.3388 32.1114 28.1549L44.5751 40.6183C45.1893 39.9404 45.7108 39.245 46.1499 38.5222L34.1802 26.5529C34.708 26.2115 35.2395 25.9187 35.7724 25.6698C36.3653 25.3922 36.9618 25.1607 37.5685 24.9793L47.6044 35.0139C47.8459 34.0083 47.9734 32.9301 47.9959 31.732L40.6578 24.3928C41.2944 24.3365 41.9448 24.3127 42.6089 24.3191C44.0936 24.3328 45.647 24.4941 47.2617 24.7381C47.1967 24.3679 47.1318 24.0101 47.0654 23.6637C46.9053 22.8245 46.7452 21.9439 46.5976 21.0322C46.046 20.9571 45.4946 20.891 44.9429 20.8359C42.1262 20.5557 39.3071 20.5883 36.5616 21.3349C35.1933 21.7088 33.8413 22.2592 32.5343 23.0233C31.2298 23.7875 29.9615 24.7655 28.7445 25.9838L28.7458 25.985L27.9841 26.7467C26.3607 28.37 25.165 30.081 24.3306 31.8571C23.0749 34.5237 22.6446 37.3252 22.6758 40.1293C22.7023 42.9384 23.1686 45.7625 23.704 48.5967C24.0554 50.4441 24.358 52.2212 24.5269 53.9172C24.7795 56.4675 24.7296 58.8213 24.1242 61.0475C23.8215 62.1607 23.3774 63.2474 22.7508 64.322C22.1216 65.3963 21.3049 66.4569 20.2506 67.5139L18.5183 69.2473L21.2701 71.9999L23.0049 70.2677C24.6283 68.6443 25.8241 66.9321 26.6595 65.1573C27.9141 62.4907 28.3443 59.6905 28.3143 56.8839C28.2855 54.0747 27.819 51.2531 27.2837 48.419C26.9322 46.5703 26.6307 44.7943 26.462 43.0959Z" fill="#23693B"/>
</g>
<defs>
<filter id="filter0_d_479_175" x="0" y="0" width="76" height="78" filterUnits="userSpaceOnUse" color-interpolation-filters="sRGB">
<feFlood flood-opacity="0" result="BackgroundImageFix"/>
<feColorMatrix in="SourceAlpha" type="matrix" values="0 0 0 0 0 0 0 0 0 0 0 0 0 0 0 0 0 0 127 0" result="hardAlpha"/>
<feOffset dy="4"/>
<feGaussianBlur stdDeviation="1"/>
<feComposite in2="hardAlpha" operator="out"/>
<feColorMatrix type="matrix" values="0 0 0 0 0 0 0 0 0 0 0 0 0 0 0 0 0 0 0.25 0"/>
<feBlend mode="normal" in2="BackgroundImageFix" result="effect1_dropShadow_479_175"/>
<feBlend mode="normal" in="SourceGraphic" in2="effect1_dropShadow_479_175" result="shape"/>
</filter>
</defs>
</svg>
