<svg width="597" height="95" viewBox="0 0 597 95" fill="none" xmlns="http://www.w3.org/2000/svg">
<path d="M85.5 52C85.5 75.4721 66.4721 94.5 43 94.5C19.5279 94.5 0.5 75.4721 0.5 52C0.5 28.5279 19.5279 9.5 43 9.5C66.4721 9.5 85.5 28.5279 85.5 52Z" fill="white" stroke="#00875F"/>
<path d="M6.37504 52.3119C5.88391 53.0291 6.0549 54.0261 6.75696 54.5387L41.1315 79.6374C41.8335 80.15 42.8008 79.9841 43.2919 79.2669V79.2669C43.783 78.5496 43.6121 77.5526 42.91 77.04L8.5355 51.9413C7.83344 51.4287 6.86617 51.5946 6.37504 52.3119V52.3119Z" fill="#00875F"/>
<rect width="21.7644" height="3.14797" rx="1.57399" transform="matrix(0.807628 0.589693 0.56498 -0.825105 24.7013 30.0669)" fill="#00875F"/>
<rect width="34.8414" height="3.14797" rx="1.57399" transform="matrix(0.807628 0.589693 0.56498 -0.825105 14.7152 41.9373)" fill="#00875F"/>
<rect width="21.6099" height="3.14797" rx="1.57399" transform="matrix(0.807628 -0.589693 0.56498 0.825105 41.28 37.8684)" fill="#00875F"/>
<path d="M42.1693 58.6737C41.6782 57.9564 41.8492 56.9594 42.5512 56.4468L67.8642 37.9645C68.5662 37.4519 69.5335 37.6178 70.0246 38.335V38.335C70.5158 39.0523 70.3448 40.0493 69.6427 40.5619L44.3298 59.0442C43.6277 59.5569 42.6604 59.391 42.1693 58.6737V58.6737Z" fill="#00875F"/>
<path d="M41.28 17.8868C41.28 16.9368 42.0501 16.1667 43 16.1667V16.1667C43.95 16.1667 44.72 16.9368 44.72 17.8867V91.4167H41.28V17.8868Z" fill="#00875F"/>
<path d="M42.935 77.1005C42.4439 76.3832 42.6148 75.3862 43.3169 74.8736L76.9303 50.3307C77.6323 49.818 78.5996 49.9839 79.0907 50.7012V50.7012C79.5819 51.4184 79.4109 52.4154 78.7088 52.9281L45.0955 77.471C44.3934 77.9836 43.4261 77.8177 42.935 77.1005V77.1005Z" fill="#00875F"/>
<path d="M109.83 26.054L120.078 52.472C120.498 53.536 120.974 54.25 121.506 54.614C122.038 54.95 122.528 55.132 122.976 55.16V56C122.416 55.944 121.73 55.916 120.918 55.916C120.106 55.888 119.294 55.874 118.482 55.874C117.39 55.874 116.368 55.888 115.416 55.916C114.464 55.916 113.694 55.944 113.106 56V55.16C114.534 55.104 115.444 54.866 115.836 54.446C116.228 53.998 116.144 53.06 115.584 51.632L107.772 30.758L108.444 30.212L101.136 49.196C100.688 50.316 100.422 51.268 100.338 52.052C100.254 52.808 100.324 53.41 100.548 53.858C100.8 54.306 101.206 54.628 101.766 54.824C102.354 55.02 103.082 55.132 103.95 55.16V56C103.166 55.944 102.34 55.916 101.472 55.916C100.632 55.888 99.848 55.874 99.12 55.874C98.42 55.874 97.818 55.888 97.314 55.916C96.838 55.916 96.39 55.944 95.97 56V55.16C96.53 55.02 97.104 54.698 97.692 54.194C98.28 53.662 98.812 52.766 99.288 51.506L109.158 26.054C109.27 26.054 109.382 26.054 109.494 26.054C109.606 26.054 109.718 26.054 109.83 26.054ZM114.954 43.904V44.744H102.438L102.858 43.904H114.954ZM138.049 33.782C139.113 33.782 139.995 33.922 140.695 34.202C141.423 34.482 142.025 34.874 142.501 35.378C143.033 35.938 143.411 36.638 143.635 37.478C143.859 38.318 143.971 39.452 143.971 40.88V52.094C143.971 53.27 144.209 54.068 144.685 54.488C145.189 54.908 146.015 55.118 147.163 55.118V56C146.687 55.972 145.959 55.944 144.979 55.916C143.999 55.86 143.047 55.832 142.123 55.832C141.199 55.832 140.289 55.86 139.393 55.916C138.525 55.944 137.867 55.972 137.419 56V55.118C138.427 55.118 139.141 54.908 139.561 54.488C139.981 54.068 140.191 53.27 140.191 52.094V39.956C140.191 39.088 140.121 38.29 139.981 37.562C139.841 36.834 139.519 36.246 139.015 35.798C138.539 35.35 137.797 35.126 136.789 35.126C135.613 35.126 134.577 35.462 133.681 36.134C132.813 36.806 132.127 37.73 131.623 38.906C131.147 40.054 130.909 41.342 130.909 42.77V52.094C130.909 53.27 131.119 54.068 131.539 54.488C131.959 54.908 132.673 55.118 133.681 55.118V56C133.233 55.972 132.561 55.944 131.665 55.916C130.797 55.86 129.901 55.832 128.977 55.832C128.053 55.832 127.101 55.86 126.121 55.916C125.141 55.944 124.413 55.972 123.937 56V55.118C125.085 55.118 125.897 54.908 126.373 54.488C126.877 54.068 127.129 53.27 127.129 52.094V38.948C127.129 37.688 126.905 36.764 126.457 36.176C126.009 35.56 125.169 35.252 123.937 35.252V34.37C124.833 34.454 125.701 34.496 126.541 34.496C127.353 34.496 128.123 34.454 128.851 34.37C129.607 34.258 130.293 34.104 130.909 33.908V38.864C131.637 36.96 132.645 35.644 133.933 34.916C135.249 34.16 136.621 33.782 138.049 33.782ZM163.11 33.782C164.174 33.782 165.056 33.922 165.756 34.202C166.484 34.482 167.086 34.874 167.562 35.378C168.094 35.938 168.472 36.638 168.696 37.478C168.92 38.318 169.032 39.452 169.032 40.88V52.094C169.032 53.27 169.27 54.068 169.746 54.488C170.25 54.908 171.076 55.118 172.224 55.118V56C171.748 55.972 171.02 55.944 170.04 55.916C169.06 55.86 168.108 55.832 167.184 55.832C166.26 55.832 165.35 55.86 164.454 55.916C163.586 55.944 162.928 55.972 162.48 56V55.118C163.488 55.118 164.202 54.908 164.622 54.488C165.042 54.068 165.252 53.27 165.252 52.094V39.956C165.252 39.088 165.182 38.29 165.042 37.562C164.902 36.834 164.58 36.246 164.076 35.798C163.6 35.35 162.858 35.126 161.85 35.126C160.674 35.126 159.638 35.462 158.742 36.134C157.874 36.806 157.188 37.73 156.684 38.906C156.208 40.054 155.97 41.342 155.97 42.77V52.094C155.97 53.27 156.18 54.068 156.6 54.488C157.02 54.908 157.734 55.118 158.742 55.118V56C158.294 55.972 157.622 55.944 156.726 55.916C155.858 55.86 154.962 55.832 154.038 55.832C153.114 55.832 152.162 55.86 151.182 55.916C150.202 55.944 149.474 55.972 148.998 56V55.118C150.146 55.118 150.958 54.908 151.434 54.488C151.938 54.068 152.19 53.27 152.19 52.094V38.948C152.19 37.688 151.966 36.764 151.518 36.176C151.07 35.56 150.23 35.252 148.998 35.252V34.37C149.894 34.454 150.762 34.496 151.602 34.496C152.414 34.496 153.184 34.454 153.912 34.37C154.668 34.258 155.354 34.104 155.97 33.908V38.864C156.698 36.96 157.706 35.644 158.994 34.916C160.31 34.16 161.682 33.782 163.11 33.782ZM184.348 33.782C186.14 33.782 187.75 34.174 189.178 34.958C190.606 35.742 191.74 36.974 192.58 38.654C193.448 40.334 193.882 42.518 193.882 45.206C193.882 47.894 193.448 50.078 192.58 51.758C191.74 53.41 190.606 54.628 189.178 55.412C187.75 56.196 186.14 56.588 184.348 56.588C182.584 56.588 180.974 56.196 179.518 55.412C178.09 54.628 176.942 53.41 176.074 51.758C175.234 50.078 174.814 47.894 174.814 45.206C174.814 42.518 175.234 40.334 176.074 38.654C176.942 36.974 178.09 35.742 179.518 34.958C180.974 34.174 182.584 33.782 184.348 33.782ZM184.348 34.622C182.752 34.622 181.436 35.448 180.4 37.1C179.392 38.752 178.888 41.454 178.888 45.206C178.888 48.958 179.392 51.66 180.4 53.312C181.436 54.936 182.752 55.748 184.348 55.748C185.944 55.748 187.246 54.936 188.254 53.312C189.29 51.66 189.808 48.958 189.808 45.206C189.808 41.454 189.29 38.752 188.254 37.1C187.246 35.448 185.944 34.622 184.348 34.622ZM218.909 26.264C218.797 27.328 218.713 28.364 218.657 29.372C218.629 30.352 218.615 31.108 218.615 31.64C218.615 32.312 218.629 32.942 218.657 33.53C218.685 34.118 218.713 34.636 218.741 35.084H217.775C217.579 33.124 217.313 31.584 216.977 30.464C216.641 29.316 216.053 28.49 215.213 27.986C214.373 27.482 213.071 27.23 211.307 27.23H209.039V51.128C209.039 52.248 209.137 53.088 209.333 53.648C209.557 54.208 209.977 54.586 210.593 54.782C211.209 54.978 212.105 55.104 213.281 55.16V56C212.553 55.944 211.629 55.916 210.509 55.916C209.389 55.888 208.255 55.874 207.107 55.874C205.847 55.874 204.657 55.888 203.537 55.916C202.445 55.916 201.563 55.944 200.891 56V55.16C202.067 55.104 202.963 54.978 203.579 54.782C204.195 54.586 204.601 54.208 204.797 53.648C205.021 53.088 205.133 52.248 205.133 51.128V27.23H202.865C201.129 27.23 199.827 27.482 198.959 27.986C198.119 28.49 197.531 29.316 197.195 30.464C196.859 31.584 196.593 33.124 196.397 35.084H195.431C195.487 34.636 195.515 34.118 195.515 33.53C195.543 32.942 195.557 32.312 195.557 31.64C195.557 31.108 195.529 30.352 195.473 29.372C195.445 28.364 195.375 27.328 195.263 26.264C196.439 26.292 197.713 26.32 199.085 26.348C200.485 26.376 201.885 26.39 203.285 26.39C204.685 26.39 205.959 26.39 207.107 26.39C208.255 26.39 209.515 26.39 210.887 26.39C212.287 26.39 213.687 26.376 215.087 26.348C216.487 26.32 217.761 26.292 218.909 26.264ZM242.853 26.264C242.741 27.244 242.657 28.196 242.601 29.12C242.573 30.044 242.559 30.744 242.559 31.22C242.559 31.724 242.573 32.214 242.601 32.69C242.629 33.138 242.657 33.516 242.685 33.824H241.719C241.551 32.172 241.313 30.87 241.005 29.918C240.697 28.938 240.165 28.252 239.409 27.86C238.681 27.44 237.575 27.23 236.091 27.23H232.605C231.653 27.23 230.925 27.314 230.421 27.482C229.945 27.622 229.623 27.944 229.455 28.448C229.287 28.924 229.203 29.68 229.203 30.716V51.548C229.203 52.556 229.287 53.312 229.455 53.816C229.623 54.32 229.945 54.656 230.421 54.824C230.925 54.964 231.653 55.034 232.605 55.034H235.671C237.435 55.034 238.765 54.796 239.661 54.32C240.585 53.844 241.243 53.074 241.635 52.01C242.055 50.918 242.363 49.448 242.559 47.6H243.525C243.441 48.356 243.399 49.364 243.399 50.624C243.399 51.156 243.413 51.926 243.441 52.934C243.497 53.914 243.581 54.936 243.693 56C242.265 55.944 240.655 55.916 238.863 55.916C237.071 55.888 235.475 55.874 234.075 55.874C233.459 55.874 232.661 55.874 231.681 55.874C230.729 55.874 229.693 55.888 228.573 55.916C227.453 55.916 226.319 55.93 225.171 55.958C224.023 55.958 222.931 55.972 221.895 56V55.16C222.847 55.104 223.561 54.992 224.037 54.824C224.541 54.656 224.877 54.32 225.045 53.816C225.213 53.312 225.297 52.556 225.297 51.548V30.716C225.297 29.68 225.213 28.924 225.045 28.448C224.877 27.944 224.541 27.608 224.037 27.44C223.561 27.244 222.847 27.132 221.895 27.104V26.264C222.931 26.292 224.023 26.32 225.171 26.348C226.319 26.348 227.453 26.362 228.573 26.39C229.693 26.39 230.729 26.39 231.681 26.39C232.661 26.39 233.459 26.39 234.075 26.39C235.363 26.39 236.819 26.39 238.443 26.39C240.095 26.362 241.565 26.32 242.853 26.264ZM235.629 40.628C235.629 40.628 235.629 40.768 235.629 41.048C235.629 41.328 235.629 41.468 235.629 41.468H227.943C227.943 41.468 227.943 41.328 227.943 41.048C227.943 40.768 227.943 40.628 227.943 40.628H235.629ZM236.847 35.084C236.735 36.68 236.679 37.898 236.679 38.738C236.707 39.578 236.721 40.348 236.721 41.048C236.721 41.748 236.735 42.518 236.763 43.358C236.791 44.198 236.861 45.416 236.973 47.012H236.007C235.895 46.116 235.755 45.248 235.587 44.408C235.447 43.54 235.111 42.84 234.579 42.308C234.075 41.748 233.207 41.468 231.975 41.468V40.628C232.899 40.628 233.599 40.446 234.075 40.082C234.579 39.69 234.943 39.2 235.167 38.612C235.391 38.024 235.545 37.422 235.629 36.806C235.713 36.162 235.797 35.588 235.881 35.084H236.847ZM247.489 26.264C248.077 26.292 248.847 26.32 249.799 26.348C250.751 26.376 251.689 26.39 252.613 26.39C253.929 26.39 255.189 26.376 256.393 26.348C257.597 26.32 258.451 26.306 258.955 26.306C262.343 26.306 264.877 27.076 266.557 28.616C268.237 30.156 269.077 32.144 269.077 34.58C269.077 35.588 268.909 36.652 268.573 37.772C268.237 38.864 267.649 39.886 266.809 40.838C265.997 41.762 264.877 42.518 263.449 43.106C262.021 43.694 260.215 43.988 258.031 43.988H253.999V43.148H257.611C259.599 43.148 261.111 42.77 262.147 42.014C263.211 41.258 263.925 40.264 264.289 39.032C264.681 37.8 264.877 36.47 264.877 35.042C264.877 32.382 264.345 30.394 263.281 29.078C262.245 27.762 260.453 27.104 257.905 27.104C256.617 27.104 255.777 27.342 255.385 27.818C254.993 28.294 254.797 29.26 254.797 30.716V51.548C254.797 52.556 254.895 53.312 255.091 53.816C255.315 54.32 255.735 54.656 256.351 54.824C256.967 54.992 257.863 55.104 259.039 55.16V56C258.311 55.944 257.387 55.916 256.267 55.916C255.147 55.888 254.013 55.874 252.865 55.874C251.773 55.874 250.751 55.888 249.799 55.916C248.847 55.916 248.077 55.944 247.489 56V55.16C248.441 55.104 249.155 54.992 249.631 54.824C250.135 54.656 250.471 54.32 250.639 53.816C250.807 53.312 250.891 52.556 250.891 51.548V30.716C250.891 29.68 250.807 28.924 250.639 28.448C250.471 27.944 250.135 27.608 249.631 27.44C249.155 27.244 248.441 27.132 247.489 27.104V26.264Z" fill="#00875F"/>
<path d="M104.464 69.1287L110.808 85.4827C111.068 86.1414 111.362 86.5834 111.692 86.8087C112.021 87.0167 112.324 87.1294 112.602 87.1467V87.6667C112.255 87.6321 111.83 87.6147 111.328 87.6147C110.825 87.5974 110.322 87.5887 109.82 87.5887C109.144 87.5887 108.511 87.5974 107.922 87.6147C107.332 87.6147 106.856 87.6321 106.492 87.6667V87.1467C107.376 87.1121 107.939 86.9647 108.182 86.7047C108.424 86.4274 108.372 85.8467 108.026 84.9627L103.19 72.0407L103.606 71.7027L99.0816 83.4547C98.8042 84.1481 98.6396 84.7374 98.5876 85.2227C98.5356 85.6907 98.5789 86.0634 98.7176 86.3407C98.8736 86.6181 99.1249 86.8174 99.4716 86.9387C99.8356 87.0601 100.286 87.1294 100.824 87.1467V87.6667C100.338 87.6321 99.8269 87.6147 99.2896 87.6147C98.7696 87.5974 98.2842 87.5887 97.8336 87.5887C97.4002 87.5887 97.0276 87.5974 96.7156 87.6147C96.4209 87.6147 96.1436 87.6321 95.8836 87.6667V87.1467C96.2302 87.0601 96.5856 86.8607 96.9496 86.5487C97.3136 86.2194 97.6429 85.6647 97.9376 84.8847L104.048 69.1287C104.117 69.1287 104.186 69.1287 104.256 69.1287C104.325 69.1287 104.394 69.1287 104.464 69.1287ZM107.636 80.1787V80.6987H99.8876L100.148 80.1787H107.636ZM121.933 73.9127C122.591 73.9127 123.137 73.9994 123.571 74.1727C124.021 74.3461 124.394 74.5887 124.689 74.9007C125.018 75.2474 125.252 75.6807 125.391 76.2007C125.529 76.7207 125.599 77.4227 125.599 78.3067V85.2487C125.599 85.9767 125.746 86.4707 126.041 86.7307C126.353 86.9907 126.864 87.1207 127.575 87.1207V87.6667C127.28 87.6494 126.829 87.6321 126.223 87.6147C125.616 87.5801 125.027 87.5627 124.455 87.5627C123.883 87.5627 123.319 87.5801 122.765 87.6147C122.227 87.6321 121.82 87.6494 121.543 87.6667V87.1207C122.167 87.1207 122.609 86.9907 122.869 86.7307C123.129 86.4707 123.259 85.9767 123.259 85.2487V77.7347C123.259 77.1974 123.215 76.7034 123.129 76.2527C123.042 75.8021 122.843 75.4381 122.531 75.1607C122.236 74.8834 121.777 74.7447 121.153 74.7447C120.425 74.7447 119.783 74.9527 119.229 75.3687C118.691 75.7847 118.267 76.3567 117.955 77.0847C117.66 77.7954 117.513 78.5927 117.513 79.4767V85.2487C117.513 85.9767 117.643 86.4707 117.903 86.7307C118.163 86.9907 118.605 87.1207 119.229 87.1207V87.6667C118.951 87.6494 118.535 87.6321 117.981 87.6147C117.443 87.5801 116.889 87.5627 116.317 87.5627C115.745 87.5627 115.155 87.5801 114.549 87.6147C113.942 87.6321 113.491 87.6494 113.197 87.6667V87.1207C113.907 87.1207 114.41 86.9907 114.705 86.7307C115.017 86.4707 115.173 85.9767 115.173 85.2487V77.1107C115.173 76.3307 115.034 75.7587 114.757 75.3947C114.479 75.0134 113.959 74.8227 113.197 74.8227V74.2767C113.751 74.3287 114.289 74.3547 114.809 74.3547C115.311 74.3547 115.788 74.3287 116.239 74.2767C116.707 74.2074 117.131 74.1121 117.513 73.9907V77.0587C117.963 75.8801 118.587 75.0654 119.385 74.6147C120.199 74.1467 121.049 73.9127 121.933 73.9127ZM137.446 73.9127C138.105 73.9127 138.651 73.9994 139.084 74.1727C139.535 74.3461 139.908 74.5887 140.202 74.9007C140.532 75.2474 140.766 75.6807 140.904 76.2007C141.043 76.7207 141.112 77.4227 141.112 78.3067V85.2487C141.112 85.9767 141.26 86.4707 141.554 86.7307C141.866 86.9907 142.378 87.1207 143.088 87.1207V87.6667C142.794 87.6494 142.343 87.6321 141.736 87.6147C141.13 87.5801 140.54 87.5627 139.968 87.5627C139.396 87.5627 138.833 87.5801 138.278 87.6147C137.741 87.6321 137.334 87.6494 137.056 87.6667V87.1207C137.68 87.1207 138.122 86.9907 138.382 86.7307C138.642 86.4707 138.772 85.9767 138.772 85.2487V77.7347C138.772 77.1974 138.729 76.7034 138.642 76.2527C138.556 75.8021 138.356 75.4381 138.044 75.1607C137.75 74.8834 137.29 74.7447 136.666 74.7447C135.938 74.7447 135.297 74.9527 134.742 75.3687C134.205 75.7847 133.78 76.3567 133.468 77.0847C133.174 77.7954 133.026 78.5927 133.026 79.4767V85.2487C133.026 85.9767 133.156 86.4707 133.416 86.7307C133.676 86.9907 134.118 87.1207 134.742 87.1207V87.6667C134.465 87.6494 134.049 87.6321 133.494 87.6147C132.957 87.5801 132.402 87.5627 131.83 87.5627C131.258 87.5627 130.669 87.5801 130.062 87.6147C129.456 87.6321 129.005 87.6494 128.71 87.6667V87.1207C129.421 87.1207 129.924 86.9907 130.218 86.7307C130.53 86.4707 130.686 85.9767 130.686 85.2487V77.1107C130.686 76.3307 130.548 75.7587 130.27 75.3947C129.993 75.0134 129.473 74.8227 128.71 74.8227V74.2767C129.265 74.3287 129.802 74.3547 130.322 74.3547C130.825 74.3547 131.302 74.3287 131.752 74.2767C132.22 74.2074 132.645 74.1121 133.026 73.9907V77.0587C133.477 75.8801 134.101 75.0654 134.898 74.6147C135.713 74.1467 136.562 73.9127 137.446 73.9127ZM150.594 73.9127C151.703 73.9127 152.7 74.1554 153.584 74.6407C154.468 75.1261 155.17 75.8887 155.69 76.9287C156.227 77.9687 156.496 79.3207 156.496 80.9847C156.496 82.6487 156.227 84.0007 155.69 85.0407C155.17 86.0634 154.468 86.8174 153.584 87.3027C152.7 87.7881 151.703 88.0307 150.594 88.0307C149.502 88.0307 148.505 87.7881 147.604 87.3027C146.72 86.8174 146.009 86.0634 145.472 85.0407C144.952 84.0007 144.692 82.6487 144.692 80.9847C144.692 79.3207 144.952 77.9687 145.472 76.9287C146.009 75.8887 146.72 75.1261 147.604 74.6407C148.505 74.1554 149.502 73.9127 150.594 73.9127ZM150.594 74.4327C149.606 74.4327 148.791 74.9441 148.15 75.9667C147.526 76.9894 147.214 78.6621 147.214 80.9847C147.214 83.3074 147.526 84.9801 148.15 86.0027C148.791 87.0081 149.606 87.5107 150.594 87.5107C151.582 87.5107 152.388 87.0081 153.012 86.0027C153.653 84.9801 153.974 83.3074 153.974 80.9847C153.974 78.6621 153.653 76.9894 153.012 75.9667C152.388 74.9441 151.582 74.4327 150.594 74.4327ZM162.654 69.9607V74.3027H166.502V74.8227H162.654V84.8847C162.654 85.6994 162.801 86.2714 163.096 86.6007C163.391 86.9301 163.798 87.0947 164.318 87.0947C164.838 87.0947 165.289 86.8867 165.67 86.4707C166.051 86.0374 166.381 85.3181 166.658 84.3127L167.178 84.4427C167.005 85.4481 166.658 86.2974 166.138 86.9907C165.635 87.6841 164.855 88.0307 163.798 88.0307C163.209 88.0307 162.723 87.9527 162.342 87.7967C161.961 87.6581 161.623 87.4501 161.328 87.1727C160.947 86.7741 160.678 86.2974 160.522 85.7427C160.383 85.1881 160.314 84.4514 160.314 83.5327V74.8227H157.818V74.3027H160.314V70.3247C160.747 70.3074 161.163 70.2727 161.562 70.2207C161.961 70.1687 162.325 70.0821 162.654 69.9607ZM171.351 87.8487C170.641 87.8487 170.025 87.7187 169.505 87.4587C168.985 87.1814 168.587 86.8001 168.309 86.3147C168.049 85.8294 167.919 85.2661 167.919 84.6247C167.919 83.8621 168.093 83.2381 168.439 82.7527C168.803 82.2674 169.263 81.8774 169.817 81.5827C170.372 81.2881 170.953 81.0454 171.559 80.8547C172.183 80.6467 172.773 80.4561 173.327 80.2827C173.882 80.0921 174.333 79.8754 174.679 79.6327C175.043 79.3901 175.225 79.0694 175.225 78.6707V77.0587C175.225 76.3307 175.113 75.7761 174.887 75.3947C174.679 75.0134 174.393 74.7621 174.029 74.6407C173.665 74.5021 173.258 74.4327 172.807 74.4327C172.374 74.4327 171.906 74.4934 171.403 74.6147C170.918 74.7361 170.528 74.9874 170.233 75.3687C170.563 75.4381 170.849 75.6114 171.091 75.8887C171.334 76.1661 171.455 76.5214 171.455 76.9547C171.455 77.3881 171.317 77.7347 171.039 77.9947C170.762 78.2374 170.407 78.3587 169.973 78.3587C169.471 78.3587 169.098 78.2027 168.855 77.8907C168.63 77.5614 168.517 77.1974 168.517 76.7987C168.517 76.3481 168.63 75.9841 168.855 75.7067C169.081 75.4294 169.367 75.1694 169.713 74.9267C170.112 74.6494 170.623 74.4154 171.247 74.2247C171.889 74.0167 172.608 73.9127 173.405 73.9127C174.116 73.9127 174.723 73.9994 175.225 74.1727C175.728 74.3287 176.144 74.5627 176.473 74.8747C176.924 75.2907 177.219 75.8021 177.357 76.4087C177.496 76.9981 177.565 77.7087 177.565 78.5407V85.7687C177.565 86.2021 177.626 86.5141 177.747 86.7047C177.886 86.8954 178.094 86.9907 178.371 86.9907C178.562 86.9907 178.744 86.9474 178.917 86.8607C179.091 86.7741 179.299 86.6354 179.541 86.4447L179.827 86.8867C179.463 87.1641 179.117 87.3981 178.787 87.5887C178.458 87.7621 178.016 87.8487 177.461 87.8487C176.959 87.8487 176.543 87.7621 176.213 87.5887C175.884 87.4154 175.633 87.1641 175.459 86.8347C175.303 86.4881 175.225 86.0547 175.225 85.5347C174.757 86.3147 174.194 86.8954 173.535 87.2767C172.894 87.6581 172.166 87.8487 171.351 87.8487ZM172.287 86.8087C172.859 86.8087 173.388 86.6441 173.873 86.3147C174.376 85.9854 174.827 85.4914 175.225 84.8327V79.7367C175.017 80.0314 174.714 80.2827 174.315 80.4907C173.917 80.6814 173.483 80.8807 173.015 81.0887C172.547 81.2794 172.097 81.5134 171.663 81.7907C171.247 82.0507 170.901 82.3974 170.623 82.8307C170.346 83.2641 170.207 83.8274 170.207 84.5207C170.207 85.2141 170.389 85.7687 170.753 86.1847C171.135 86.6007 171.646 86.8087 172.287 86.8087ZM184.795 69.9607V74.3027H188.643V74.8227H184.795V84.8847C184.795 85.6994 184.942 86.2714 185.237 86.6007C185.531 86.9301 185.939 87.0947 186.459 87.0947C186.979 87.0947 187.429 86.8867 187.811 86.4707C188.192 86.0374 188.521 85.3181 188.799 84.3127L189.319 84.4427C189.145 85.4481 188.799 86.2974 188.279 86.9907C187.776 87.6841 186.996 88.0307 185.939 88.0307C185.349 88.0307 184.864 87.9527 184.483 87.7967C184.101 87.6581 183.763 87.4501 183.469 87.1727C183.087 86.7741 182.819 86.2974 182.663 85.7427C182.524 85.1881 182.455 84.4514 182.455 83.5327V74.8227H179.959V74.3027H182.455V70.3247C182.888 70.3074 183.304 70.2727 183.703 70.2207C184.101 70.1687 184.465 70.0821 184.795 69.9607ZM192.764 67.7767C193.215 67.7767 193.605 67.9414 193.934 68.2707C194.263 68.6001 194.428 68.9901 194.428 69.4407C194.428 69.8914 194.263 70.2814 193.934 70.6107C193.605 70.9401 193.215 71.1047 192.764 71.1047C192.313 71.1047 191.923 70.9401 191.594 70.6107C191.265 70.2814 191.1 69.8914 191.1 69.4407C191.1 68.9901 191.265 68.6001 191.594 68.2707C191.923 67.9414 192.313 67.7767 192.764 67.7767ZM194.116 73.9907V85.2487C194.116 85.9767 194.263 86.4707 194.558 86.7307C194.87 86.9907 195.381 87.1207 196.092 87.1207V87.6667C195.797 87.6494 195.347 87.6321 194.74 87.6147C194.151 87.5801 193.553 87.5627 192.946 87.5627C192.357 87.5627 191.759 87.5801 191.152 87.6147C190.545 87.6321 190.095 87.6494 189.8 87.6667V87.1207C190.511 87.1207 191.013 86.9907 191.308 86.7307C191.62 86.4707 191.776 85.9767 191.776 85.2487V77.1107C191.776 76.3307 191.637 75.7587 191.36 75.3947C191.083 75.0134 190.563 74.8227 189.8 74.8227V74.2767C190.355 74.3287 190.892 74.3547 191.412 74.3547C191.915 74.3547 192.391 74.3287 192.842 74.2767C193.31 74.2074 193.735 74.1121 194.116 73.9907ZM203.787 73.9127C204.897 73.9127 205.893 74.1554 206.777 74.6407C207.661 75.1261 208.363 75.8887 208.883 76.9287C209.421 77.9687 209.689 79.3207 209.689 80.9847C209.689 82.6487 209.421 84.0007 208.883 85.0407C208.363 86.0634 207.661 86.8174 206.777 87.3027C205.893 87.7881 204.897 88.0307 203.787 88.0307C202.695 88.0307 201.699 87.7881 200.797 87.3027C199.913 86.8174 199.203 86.0634 198.665 85.0407C198.145 84.0007 197.885 82.6487 197.885 80.9847C197.885 79.3207 198.145 77.9687 198.665 76.9287C199.203 75.8887 199.913 75.1261 200.797 74.6407C201.699 74.1554 202.695 73.9127 203.787 73.9127ZM203.787 74.4327C202.799 74.4327 201.985 74.9441 201.343 75.9667C200.719 76.9894 200.407 78.6621 200.407 80.9847C200.407 83.3074 200.719 84.9801 201.343 86.0027C201.985 87.0081 202.799 87.5107 203.787 87.5107C204.775 87.5107 205.581 87.0081 206.205 86.0027C206.847 84.9801 207.167 83.3074 207.167 80.9847C207.167 78.6621 206.847 76.9894 206.205 75.9667C205.581 74.9441 204.775 74.4327 203.787 74.4327ZM220.397 73.9127C221.056 73.9127 221.602 73.9994 222.035 74.1727C222.486 74.3461 222.859 74.5887 223.153 74.9007C223.483 75.2474 223.717 75.6807 223.855 76.2007C223.994 76.7207 224.063 77.4227 224.063 78.3067V85.2487C224.063 85.9767 224.211 86.4707 224.505 86.7307C224.817 86.9907 225.329 87.1207 226.039 87.1207V87.6667C225.745 87.6494 225.294 87.6321 224.687 87.6147C224.081 87.5801 223.491 87.5627 222.919 87.5627C222.347 87.5627 221.784 87.5801 221.229 87.6147C220.692 87.6321 220.285 87.6494 220.007 87.6667V87.1207C220.631 87.1207 221.073 86.9907 221.333 86.7307C221.593 86.4707 221.723 85.9767 221.723 85.2487V77.7347C221.723 77.1974 221.68 76.7034 221.593 76.2527C221.507 75.8021 221.307 75.4381 220.995 75.1607C220.701 74.8834 220.241 74.7447 219.617 74.7447C218.889 74.7447 218.248 74.9527 217.693 75.3687C217.156 75.7847 216.731 76.3567 216.419 77.0847C216.125 77.7954 215.977 78.5927 215.977 79.4767V85.2487C215.977 85.9767 216.107 86.4707 216.367 86.7307C216.627 86.9907 217.069 87.1207 217.693 87.1207V87.6667C217.416 87.6494 217 87.6321 216.445 87.6147C215.908 87.5801 215.353 87.5627 214.781 87.5627C214.209 87.5627 213.62 87.5801 213.013 87.6147C212.407 87.6321 211.956 87.6494 211.661 87.6667V87.1207C212.372 87.1207 212.875 86.9907 213.169 86.7307C213.481 86.4707 213.637 85.9767 213.637 85.2487V77.1107C213.637 76.3307 213.499 75.7587 213.221 75.3947C212.944 75.0134 212.424 74.8227 211.661 74.8227V74.2767C212.216 74.3287 212.753 74.3547 213.273 74.3547C213.776 74.3547 214.253 74.3287 214.703 74.2767C215.171 74.2074 215.596 74.1121 215.977 73.9907V77.0587C216.428 75.8801 217.052 75.0654 217.849 74.6147C218.664 74.1467 219.513 73.9127 220.397 73.9127ZM247.653 69.2587C247.584 69.9174 247.532 70.5587 247.497 71.1827C247.48 71.7894 247.471 72.2574 247.471 72.5867C247.471 73.0027 247.48 73.3927 247.497 73.7567C247.514 74.1207 247.532 74.4414 247.549 74.7187H246.951C246.83 73.5054 246.665 72.5521 246.457 71.8587C246.249 71.1481 245.885 70.6367 245.365 70.3247C244.845 70.0127 244.039 69.8567 242.947 69.8567H241.543V84.6507C241.543 85.3441 241.604 85.8641 241.725 86.2107C241.864 86.5574 242.124 86.7914 242.505 86.9127C242.886 87.0341 243.441 87.1121 244.169 87.1467V87.6667C243.718 87.6321 243.146 87.6147 242.453 87.6147C241.76 87.5974 241.058 87.5887 240.347 87.5887C239.567 87.5887 238.83 87.5974 238.137 87.6147C237.461 87.6147 236.915 87.6321 236.499 87.6667V87.1467C237.227 87.1121 237.782 87.0341 238.163 86.9127C238.544 86.7914 238.796 86.5574 238.917 86.2107C239.056 85.8641 239.125 85.3441 239.125 84.6507V69.8567H237.721C236.646 69.8567 235.84 70.0127 235.303 70.3247C234.783 70.6367 234.419 71.1481 234.211 71.8587C234.003 72.5521 233.838 73.5054 233.717 74.7187H233.119C233.154 74.4414 233.171 74.1207 233.171 73.7567C233.188 73.3927 233.197 73.0027 233.197 72.5867C233.197 72.2574 233.18 71.7894 233.145 71.1827C233.128 70.5587 233.084 69.9174 233.015 69.2587C233.743 69.2761 234.532 69.2934 235.381 69.3107C236.248 69.3281 237.114 69.3367 237.981 69.3367C238.848 69.3367 239.636 69.3367 240.347 69.3367C241.058 69.3367 241.838 69.3367 242.687 69.3367C243.554 69.3367 244.42 69.3281 245.287 69.3107C246.154 69.2934 246.942 69.2761 247.653 69.2587ZM257.249 73.9127C257.717 73.9127 258.125 74.0081 258.471 74.1987C258.835 74.3894 259.113 74.6407 259.303 74.9527C259.511 75.2474 259.615 75.5854 259.615 75.9667C259.615 76.4001 259.477 76.7814 259.199 77.1107C258.939 77.4401 258.584 77.6047 258.133 77.6047C257.769 77.6047 257.449 77.4921 257.171 77.2667C256.894 77.0241 256.755 76.6861 256.755 76.2527C256.755 75.9234 256.842 75.6461 257.015 75.4207C257.206 75.1781 257.414 74.9874 257.639 74.8487C257.518 74.6754 257.336 74.5887 257.093 74.5887C256.556 74.5887 256.062 74.7534 255.611 75.0827C255.161 75.3947 254.779 75.8021 254.467 76.3047C254.155 76.8074 253.913 77.3447 253.739 77.9167C253.566 78.4714 253.479 78.9914 253.479 79.4767V84.9887C253.479 85.8381 253.722 86.4101 254.207 86.7047C254.71 86.9821 255.386 87.1207 256.235 87.1207V87.6667C255.837 87.6494 255.273 87.6321 254.545 87.6147C253.817 87.5801 253.046 87.5627 252.231 87.5627C251.642 87.5627 251.053 87.5801 250.463 87.6147C249.891 87.6321 249.458 87.6494 249.163 87.6667V87.1207C249.874 87.1207 250.377 86.9907 250.671 86.7307C250.983 86.4707 251.139 85.9767 251.139 85.2487V77.1107C251.139 76.3307 251.001 75.7587 250.723 75.3947C250.446 75.0134 249.926 74.8227 249.163 74.8227V74.2767C249.718 74.3287 250.255 74.3547 250.775 74.3547C251.278 74.3547 251.755 74.3287 252.205 74.2767C252.673 74.2074 253.098 74.1121 253.479 73.9907V77.2407C253.67 76.7381 253.939 76.2354 254.285 75.7327C254.649 75.2127 255.083 74.7794 255.585 74.4327C256.088 74.0861 256.643 73.9127 257.249 73.9127ZM264.433 87.8487C263.723 87.8487 263.107 87.7187 262.587 87.4587C262.067 87.1814 261.669 86.8001 261.391 86.3147C261.131 85.8294 261.001 85.2661 261.001 84.6247C261.001 83.8621 261.175 83.2381 261.521 82.7527C261.885 82.2674 262.345 81.8774 262.899 81.5827C263.454 81.2881 264.035 81.0454 264.641 80.8547C265.265 80.6467 265.855 80.4561 266.409 80.2827C266.964 80.0921 267.415 79.8754 267.761 79.6327C268.125 79.3901 268.307 79.0694 268.307 78.6707V77.0587C268.307 76.3307 268.195 75.7761 267.969 75.3947C267.761 75.0134 267.475 74.7621 267.111 74.6407C266.747 74.5021 266.34 74.4327 265.889 74.4327C265.456 74.4327 264.988 74.4934 264.485 74.6147C264 74.7361 263.61 74.9874 263.315 75.3687C263.645 75.4381 263.931 75.6114 264.173 75.8887C264.416 76.1661 264.537 76.5214 264.537 76.9547C264.537 77.3881 264.399 77.7347 264.121 77.9947C263.844 78.2374 263.489 78.3587 263.055 78.3587C262.553 78.3587 262.18 78.2027 261.937 77.8907C261.712 77.5614 261.599 77.1974 261.599 76.7987C261.599 76.3481 261.712 75.9841 261.937 75.7067C262.163 75.4294 262.449 75.1694 262.795 74.9267C263.194 74.6494 263.705 74.4154 264.329 74.2247C264.971 74.0167 265.69 73.9127 266.487 73.9127C267.198 73.9127 267.805 73.9994 268.307 74.1727C268.81 74.3287 269.226 74.5627 269.555 74.8747C270.006 75.2907 270.301 75.8021 270.439 76.4087C270.578 76.9981 270.647 77.7087 270.647 78.5407V85.7687C270.647 86.2021 270.708 86.5141 270.829 86.7047C270.968 86.8954 271.176 86.9907 271.453 86.9907C271.644 86.9907 271.826 86.9474 271.999 86.8607C272.173 86.7741 272.381 86.6354 272.623 86.4447L272.909 86.8867C272.545 87.1641 272.199 87.3981 271.869 87.5887C271.54 87.7621 271.098 87.8487 270.543 87.8487C270.041 87.8487 269.625 87.7621 269.295 87.5887C268.966 87.4154 268.715 87.1641 268.541 86.8347C268.385 86.4881 268.307 86.0547 268.307 85.5347C267.839 86.3147 267.276 86.8954 266.617 87.2767C265.976 87.6581 265.248 87.8487 264.433 87.8487ZM265.369 86.8087C265.941 86.8087 266.47 86.6441 266.955 86.3147C267.458 85.9854 267.909 85.4914 268.307 84.8327V79.7367C268.099 80.0314 267.796 80.2827 267.397 80.4907C266.999 80.6814 266.565 80.8807 266.097 81.0887C265.629 81.2794 265.179 81.5134 264.745 81.7907C264.329 82.0507 263.983 82.3974 263.705 82.8307C263.428 83.2641 263.289 83.8274 263.289 84.5207C263.289 85.2141 263.471 85.7687 263.835 86.1847C264.217 86.6007 264.728 86.8087 265.369 86.8087ZM282.427 73.9127C283.085 73.9127 283.631 73.9994 284.065 74.1727C284.515 74.3461 284.888 74.5887 285.183 74.9007C285.512 75.2474 285.746 75.6807 285.885 76.2007C286.023 76.7207 286.093 77.4227 286.093 78.3067V85.2487C286.093 85.9767 286.24 86.4707 286.535 86.7307C286.847 86.9907 287.358 87.1207 288.069 87.1207V87.6667C287.774 87.6494 287.323 87.6321 286.717 87.6147C286.11 87.5801 285.521 87.5627 284.949 87.5627C284.377 87.5627 283.813 87.5801 283.259 87.6147C282.721 87.6321 282.314 87.6494 282.037 87.6667V87.1207C282.661 87.1207 283.103 86.9907 283.363 86.7307C283.623 86.4707 283.753 85.9767 283.753 85.2487V77.7347C283.753 77.1974 283.709 76.7034 283.623 76.2527C283.536 75.8021 283.337 75.4381 283.025 75.1607C282.73 74.8834 282.271 74.7447 281.647 74.7447C280.919 74.7447 280.277 74.9527 279.723 75.3687C279.185 75.7847 278.761 76.3567 278.449 77.0847C278.154 77.7954 278.007 78.5927 278.007 79.4767V85.2487C278.007 85.9767 278.137 86.4707 278.397 86.7307C278.657 86.9907 279.099 87.1207 279.723 87.1207V87.6667C279.445 87.6494 279.029 87.6321 278.475 87.6147C277.937 87.5801 277.383 87.5627 276.811 87.5627C276.239 87.5627 275.649 87.5801 275.043 87.6147C274.436 87.6321 273.985 87.6494 273.691 87.6667V87.1207C274.401 87.1207 274.904 86.9907 275.199 86.7307C275.511 86.4707 275.667 85.9767 275.667 85.2487V77.1107C275.667 76.3307 275.528 75.7587 275.251 75.3947C274.973 75.0134 274.453 74.8227 273.691 74.8227V74.2767C274.245 74.3287 274.783 74.3547 275.303 74.3547C275.805 74.3547 276.282 74.3287 276.733 74.2767C277.201 74.2074 277.625 74.1121 278.007 73.9907V77.0587C278.457 75.8801 279.081 75.0654 279.879 74.6147C280.693 74.1467 281.543 73.9127 282.427 73.9127ZM293.858 73.9127C294.552 73.9127 295.141 74.0254 295.626 74.2507C296.112 74.4761 296.467 74.6841 296.692 74.8747C297.264 75.3427 297.611 75.0307 297.732 73.9387H298.33C298.296 74.4241 298.27 75.0047 298.252 75.6807C298.235 76.3394 298.226 77.2321 298.226 78.3587H297.628C297.524 77.7174 297.342 77.0934 297.082 76.4867C296.84 75.8801 296.476 75.3861 295.99 75.0047C295.505 74.6061 294.872 74.4067 294.092 74.4067C293.486 74.4067 292.974 74.5801 292.558 74.9267C292.16 75.2561 291.96 75.7501 291.96 76.4087C291.96 76.9287 292.116 77.3794 292.428 77.7607C292.74 78.1247 293.148 78.4714 293.65 78.8007C294.153 79.1127 294.699 79.4594 295.288 79.8407C295.947 80.2567 296.545 80.6814 297.082 81.1147C297.62 81.5481 298.044 82.0247 298.356 82.5447C298.686 83.0647 298.85 83.6801 298.85 84.3907C298.85 85.1881 298.642 85.8554 298.226 86.3927C297.81 86.9301 297.264 87.3374 296.588 87.6147C295.93 87.8921 295.202 88.0307 294.404 88.0307C294.023 88.0307 293.659 87.9961 293.312 87.9267C292.983 87.8747 292.662 87.7881 292.35 87.6667C292.177 87.5801 291.995 87.4761 291.804 87.3547C291.631 87.2334 291.458 87.1034 291.284 86.9647C291.111 86.8261 290.955 86.8347 290.816 86.9907C290.678 87.1294 290.574 87.4154 290.504 87.8487H289.906C289.941 87.2941 289.967 86.6181 289.984 85.8207C290.002 85.0234 290.01 83.9661 290.01 82.6487H290.608C290.73 83.6194 290.903 84.4687 291.128 85.1967C291.354 85.9247 291.709 86.4967 292.194 86.9127C292.68 87.3114 293.356 87.5107 294.222 87.5107C294.569 87.5107 294.916 87.4327 295.262 87.2767C295.626 87.1207 295.93 86.8607 296.172 86.4967C296.415 86.1327 296.536 85.6474 296.536 85.0407C296.536 84.2781 296.259 83.6541 295.704 83.1687C295.15 82.6834 294.448 82.1721 293.598 81.6347C292.974 81.2361 292.385 80.8374 291.83 80.4387C291.293 80.0401 290.851 79.5894 290.504 79.0867C290.175 78.5841 290.01 77.9774 290.01 77.2667C290.01 76.4867 290.184 75.8541 290.53 75.3687C290.894 74.8661 291.371 74.5021 291.96 74.2767C292.55 74.0341 293.182 73.9127 293.858 73.9127ZM304.967 73.9907V89.9547C304.967 90.7001 305.184 91.1941 305.617 91.4367C306.068 91.6967 306.683 91.8267 307.463 91.8267V92.3727C307.082 92.3554 306.553 92.3294 305.877 92.2947C305.201 92.2774 304.482 92.2687 303.719 92.2687C303.182 92.2687 302.645 92.2774 302.107 92.2947C301.587 92.3294 301.189 92.3554 300.911 92.3727V91.8267C301.535 91.8267 301.977 91.7141 302.237 91.4887C302.497 91.2634 302.627 90.8387 302.627 90.2147V77.1107C302.627 76.3307 302.489 75.7587 302.211 75.3947C301.934 75.0134 301.414 74.8227 300.651 74.8227V74.2767C301.206 74.3287 301.743 74.3547 302.263 74.3547C302.766 74.3547 303.243 74.3287 303.693 74.2767C304.161 74.2074 304.586 74.1121 304.967 73.9907ZM309.127 73.9127C310.046 73.9127 310.869 74.1641 311.597 74.6667C312.325 75.1521 312.897 75.8714 313.313 76.8247C313.747 77.7781 313.963 78.9567 313.963 80.3607C313.963 81.2967 313.851 82.2241 313.625 83.1427C313.4 84.0441 313.045 84.8674 312.559 85.6127C312.091 86.3407 311.476 86.9301 310.713 87.3807C309.968 87.8141 309.067 88.0307 308.009 88.0307C307.195 88.0307 306.484 87.8401 305.877 87.4587C305.288 87.0774 304.889 86.6181 304.681 86.0807L304.941 85.7167C305.184 86.2021 305.531 86.6094 305.981 86.9387C306.449 87.2681 307.03 87.4327 307.723 87.4327C308.694 87.4327 309.448 87.1294 309.985 86.5227C310.523 85.9161 310.895 85.1101 311.103 84.1047C311.329 83.0821 311.441 81.9554 311.441 80.7247C311.441 79.3381 311.329 78.2027 311.103 77.3187C310.878 76.4347 310.54 75.7761 310.089 75.3427C309.639 74.9094 309.084 74.6927 308.425 74.6927C307.576 74.6927 306.805 75.0481 306.111 75.7587C305.418 76.4521 304.976 77.5094 304.785 78.9307L304.473 78.5667C304.664 77.0934 305.184 75.9494 306.033 75.1347C306.9 74.3201 307.931 73.9127 309.127 73.9127ZM322.311 73.9127C323.42 73.9127 324.417 74.1554 325.301 74.6407C326.185 75.1261 326.887 75.8887 327.407 76.9287C327.944 77.9687 328.213 79.3207 328.213 80.9847C328.213 82.6487 327.944 84.0007 327.407 85.0407C326.887 86.0634 326.185 86.8174 325.301 87.3027C324.417 87.7881 323.42 88.0307 322.311 88.0307C321.219 88.0307 320.222 87.7881 319.321 87.3027C318.437 86.8174 317.726 86.0634 317.189 85.0407C316.669 84.0007 316.409 82.6487 316.409 80.9847C316.409 79.3207 316.669 77.9687 317.189 76.9287C317.726 75.8887 318.437 75.1261 319.321 74.6407C320.222 74.1554 321.219 73.9127 322.311 73.9127ZM322.311 74.4327C321.323 74.4327 320.508 74.9441 319.867 75.9667C319.243 76.9894 318.931 78.6621 318.931 80.9847C318.931 83.3074 319.243 84.9801 319.867 86.0027C320.508 87.0081 321.323 87.5107 322.311 87.5107C323.299 87.5107 324.105 87.0081 324.729 86.0027C325.37 84.9801 325.691 83.3074 325.691 80.9847C325.691 78.6621 325.37 76.9894 324.729 75.9667C324.105 74.9441 323.299 74.4327 322.311 74.4327ZM334.839 73.9127C335.532 73.9127 336.121 74.0254 336.607 74.2507C337.092 74.4761 337.447 74.6841 337.673 74.8747C338.245 75.3427 338.591 75.0307 338.713 73.9387H339.311C339.276 74.4241 339.25 75.0047 339.233 75.6807C339.215 76.3394 339.207 77.2321 339.207 78.3587H338.609C338.505 77.7174 338.323 77.0934 338.063 76.4867C337.82 75.8801 337.456 75.3861 336.971 75.0047C336.485 74.6061 335.853 74.4067 335.073 74.4067C334.466 74.4067 333.955 74.5801 333.539 74.9267C333.14 75.2561 332.941 75.7501 332.941 76.4087C332.941 76.9287 333.097 77.3794 333.409 77.7607C333.721 78.1247 334.128 78.4714 334.631 78.8007C335.133 79.1127 335.679 79.4594 336.269 79.8407C336.927 80.2567 337.525 80.6814 338.063 81.1147C338.6 81.5481 339.025 82.0247 339.337 82.5447C339.666 83.0647 339.831 83.6801 339.831 84.3907C339.831 85.1881 339.623 85.8554 339.207 86.3927C338.791 86.9301 338.245 87.3374 337.569 87.6147C336.91 87.8921 336.182 88.0307 335.385 88.0307C335.003 88.0307 334.639 87.9961 334.293 87.9267C333.963 87.8747 333.643 87.7881 333.331 87.6667C333.157 87.5801 332.975 87.4761 332.785 87.3547C332.611 87.2334 332.438 87.1034 332.265 86.9647C332.091 86.8261 331.935 86.8347 331.797 86.9907C331.658 87.1294 331.554 87.4154 331.485 87.8487H330.887C330.921 87.2941 330.947 86.6181 330.965 85.8207C330.982 85.0234 330.991 83.9661 330.991 82.6487H331.589C331.71 83.6194 331.883 84.4687 332.109 85.1967C332.334 85.9247 332.689 86.4967 333.175 86.9127C333.66 87.3114 334.336 87.5107 335.203 87.5107C335.549 87.5107 335.896 87.4327 336.243 87.2767C336.607 87.1207 336.91 86.8607 337.153 86.4967C337.395 86.1327 337.517 85.6474 337.517 85.0407C337.517 84.2781 337.239 83.6541 336.685 83.1687C336.13 82.6834 335.428 82.1721 334.579 81.6347C333.955 81.2361 333.365 80.8374 332.811 80.4387C332.273 80.0401 331.831 79.5894 331.485 79.0867C331.155 78.5841 330.991 77.9774 330.991 77.2667C330.991 76.4867 331.164 75.8541 331.511 75.3687C331.875 74.8661 332.351 74.5021 332.941 74.2767C333.53 74.0341 334.163 73.9127 334.839 73.9127ZM345.506 87.8487C344.795 87.8487 344.18 87.7187 343.66 87.4587C343.14 87.1814 342.741 86.8001 342.464 86.3147C342.204 85.8294 342.074 85.2661 342.074 84.6247C342.074 83.8621 342.247 83.2381 342.594 82.7527C342.958 82.2674 343.417 81.8774 343.972 81.5827C344.526 81.2881 345.107 81.0454 345.714 80.8547C346.338 80.6467 346.927 80.4561 347.482 80.2827C348.036 80.0921 348.487 79.8754 348.834 79.6327C349.198 79.3901 349.38 79.0694 349.38 78.6707V77.0587C349.38 76.3307 349.267 75.7761 349.042 75.3947C348.834 75.0134 348.548 74.7621 348.184 74.6407C347.82 74.5021 347.412 74.4327 346.962 74.4327C346.528 74.4327 346.06 74.4934 345.558 74.6147C345.072 74.7361 344.682 74.9874 344.388 75.3687C344.717 75.4381 345.003 75.6114 345.246 75.8887C345.488 76.1661 345.61 76.5214 345.61 76.9547C345.61 77.3881 345.471 77.7347 345.194 77.9947C344.916 78.2374 344.561 78.3587 344.128 78.3587C343.625 78.3587 343.252 78.2027 343.01 77.8907C342.784 77.5614 342.672 77.1974 342.672 76.7987C342.672 76.3481 342.784 75.9841 343.01 75.7067C343.235 75.4294 343.521 75.1694 343.868 74.9267C344.266 74.6494 344.778 74.4154 345.402 74.2247C346.043 74.0167 346.762 73.9127 347.56 73.9127C348.27 73.9127 348.877 73.9994 349.38 74.1727C349.882 74.3287 350.298 74.5627 350.628 74.8747C351.078 75.2907 351.373 75.8021 351.512 76.4087C351.65 76.9981 351.72 77.7087 351.72 78.5407V85.7687C351.72 86.2021 351.78 86.5141 351.902 86.7047C352.04 86.8954 352.248 86.9907 352.526 86.9907C352.716 86.9907 352.898 86.9474 353.072 86.8607C353.245 86.7741 353.453 86.6354 353.696 86.4447L353.982 86.8867C353.618 87.1641 353.271 87.3981 352.942 87.5887C352.612 87.7621 352.17 87.8487 351.616 87.8487C351.113 87.8487 350.697 87.7621 350.368 87.5887C350.038 87.4154 349.787 87.1641 349.614 86.8347C349.458 86.4881 349.38 86.0547 349.38 85.5347C348.912 86.3147 348.348 86.8954 347.69 87.2767C347.048 87.6581 346.32 87.8487 345.506 87.8487ZM346.442 86.8087C347.014 86.8087 347.542 86.6441 348.028 86.3147C348.53 85.9854 348.981 85.4914 349.38 84.8327V79.7367C349.172 80.0314 348.868 80.2827 348.47 80.4907C348.071 80.6814 347.638 80.8807 347.17 81.0887C346.702 81.2794 346.251 81.5134 345.818 81.7907C345.402 82.0507 345.055 82.3974 344.778 82.8307C344.5 83.2641 344.362 83.8274 344.362 84.5207C344.362 85.2141 344.544 85.7687 344.908 86.1847C345.289 86.6007 345.8 86.8087 346.442 86.8087ZM362.485 73.9127C363.906 73.9127 365.085 74.5021 366.021 75.6807C366.957 76.8421 367.425 78.6101 367.425 80.9847C367.425 82.5447 367.156 83.8534 366.619 84.9107C366.099 85.9507 365.397 86.7307 364.513 87.2507C363.629 87.7707 362.667 88.0307 361.627 88.0307C360.76 88.0307 359.92 87.7881 359.105 87.3027C358.308 86.8001 357.71 86.0634 357.311 85.0927L357.831 85.3787C358.264 86.0721 358.802 86.5921 359.443 86.9387C360.084 87.2681 360.743 87.4327 361.419 87.4327C362.58 87.4327 363.447 86.9127 364.019 85.8727C364.608 84.8154 364.903 83.1861 364.903 80.9847C364.903 79.5807 364.79 78.4107 364.565 77.4747C364.34 76.5387 363.993 75.8454 363.525 75.3947C363.057 74.9267 362.459 74.6927 361.731 74.6927C360.934 74.6927 360.188 75.0567 359.495 75.7847C358.819 76.4954 358.403 77.5441 358.247 78.9307L357.935 78.5667C358.126 77.0934 358.637 75.9494 359.469 75.1347C360.318 74.3201 361.324 73.9127 362.485 73.9127ZM358.429 67.3087V86.3147C358.204 86.5054 357.97 86.7047 357.727 86.9127C357.502 87.1034 357.276 87.2941 357.051 87.4847C356.826 87.6754 356.592 87.8747 356.349 88.0827L355.907 87.9007C355.976 87.6581 356.02 87.4154 356.037 87.1727C356.072 86.9127 356.089 86.6527 356.089 86.3927V70.4287C356.089 69.6487 355.95 69.0767 355.673 68.7127C355.396 68.3314 354.876 68.1407 354.113 68.1407V67.5947C354.668 67.6467 355.205 67.6727 355.725 67.6727C356.228 67.6727 356.704 67.6467 357.155 67.5947C357.623 67.5254 358.048 67.4301 358.429 67.3087ZM373.293 67.2827V85.2487C373.293 85.9767 373.441 86.4707 373.735 86.7307C374.047 86.9907 374.559 87.1207 375.269 87.1207V87.6667C374.975 87.6494 374.524 87.6321 373.917 87.6147C373.328 87.5801 372.73 87.5627 372.123 87.5627C371.534 87.5627 370.936 87.5801 370.329 87.6147C369.723 87.6321 369.272 87.6494 368.977 87.6667V87.1207C369.688 87.1207 370.191 86.9907 370.485 86.7307C370.797 86.4707 370.953 85.9767 370.953 85.2487V70.4027C370.953 69.6227 370.815 69.0507 370.537 68.6867C370.26 68.3054 369.74 68.1147 368.977 68.1147V67.5687C369.532 67.6207 370.069 67.6467 370.589 67.6467C371.092 67.6467 371.569 67.6207 372.019 67.5687C372.487 67.4994 372.912 67.4041 373.293 67.2827ZM382.663 73.9127C384.188 73.9127 385.376 74.3807 386.225 75.3167C387.092 76.2354 387.525 77.6741 387.525 79.6327H378.347L378.321 79.1387H385.029C385.064 78.2894 384.994 77.5094 384.821 76.7987C384.648 76.0707 384.37 75.4901 383.989 75.0567C383.625 74.6234 383.148 74.4067 382.559 74.4067C381.762 74.4067 381.051 74.8054 380.427 75.6027C379.82 76.4001 379.456 77.6654 379.335 79.3987L379.413 79.5027C379.378 79.7627 379.352 80.0487 379.335 80.3607C379.318 80.6727 379.309 80.9847 379.309 81.2967C379.309 82.4754 379.5 83.4894 379.881 84.3387C380.262 85.1881 380.756 85.8381 381.363 86.2887C381.987 86.7221 382.628 86.9387 383.287 86.9387C383.807 86.9387 384.301 86.8607 384.769 86.7047C385.237 86.5314 385.67 86.2541 386.069 85.8727C386.468 85.4914 386.814 84.9801 387.109 84.3387L387.629 84.5467C387.438 85.1187 387.126 85.6734 386.693 86.2107C386.26 86.7481 385.714 87.1901 385.055 87.5367C384.396 87.8661 383.634 88.0307 382.767 88.0307C381.519 88.0307 380.444 87.7447 379.543 87.1727C378.659 86.6007 377.974 85.8121 377.489 84.8067C377.021 83.7841 376.787 82.6141 376.787 81.2967C376.787 79.7714 377.03 78.4627 377.515 77.3707C378 76.2614 378.685 75.4121 379.569 74.8227C380.453 74.2161 381.484 73.9127 382.663 73.9127ZM402.29 73.9127C403.815 73.9127 405.003 74.3807 405.852 75.3167C406.719 76.2354 407.152 77.6741 407.152 79.6327H397.974L397.948 79.1387H404.656C404.691 78.2894 404.621 77.5094 404.448 76.7987C404.275 76.0707 403.997 75.4901 403.616 75.0567C403.252 74.6234 402.775 74.4067 402.186 74.4067C401.389 74.4067 400.678 74.8054 400.054 75.6027C399.447 76.4001 399.083 77.6654 398.962 79.3987L399.04 79.5027C399.005 79.7627 398.979 80.0487 398.962 80.3607C398.945 80.6727 398.936 80.9847 398.936 81.2967C398.936 82.4754 399.127 83.4894 399.508 84.3387C399.889 85.1881 400.383 85.8381 400.99 86.2887C401.614 86.7221 402.255 86.9387 402.914 86.9387C403.434 86.9387 403.928 86.8607 404.396 86.7047C404.864 86.5314 405.297 86.2541 405.696 85.8727C406.095 85.4914 406.441 84.9801 406.736 84.3387L407.256 84.5467C407.065 85.1187 406.753 85.6734 406.32 86.2107C405.887 86.7481 405.341 87.1901 404.682 87.5367C404.023 87.8661 403.261 88.0307 402.394 88.0307C401.146 88.0307 400.071 87.7447 399.17 87.1727C398.286 86.6007 397.601 85.8121 397.116 84.8067C396.648 83.7841 396.414 82.6141 396.414 81.2967C396.414 79.7714 396.657 78.4627 397.142 77.3707C397.627 76.2614 398.312 75.4121 399.196 74.8227C400.08 74.2161 401.111 73.9127 402.29 73.9127ZM413.258 67.2827V85.2487C413.258 85.9767 413.406 86.4707 413.7 86.7307C414.012 86.9907 414.524 87.1207 415.234 87.1207V87.6667C414.94 87.6494 414.489 87.6321 413.882 87.6147C413.293 87.5801 412.695 87.5627 412.088 87.5627C411.499 87.5627 410.901 87.5801 410.294 87.6147C409.688 87.6321 409.237 87.6494 408.942 87.6667V87.1207C409.653 87.1207 410.156 86.9907 410.45 86.7307C410.762 86.4707 410.918 85.9767 410.918 85.2487V70.4027C410.918 69.6227 410.78 69.0507 410.502 68.6867C410.225 68.3054 409.705 68.1147 408.942 68.1147V67.5687C409.497 67.6207 410.034 67.6467 410.554 67.6467C411.057 67.6467 411.534 67.6207 411.984 67.5687C412.452 67.4994 412.877 67.4041 413.258 67.2827ZM422.628 73.9127C424.153 73.9127 425.34 74.3807 426.19 75.3167C427.056 76.2354 427.49 77.6741 427.49 79.6327H418.312L418.286 79.1387H424.994C425.028 78.2894 424.959 77.5094 424.786 76.7987C424.612 76.0707 424.335 75.4901 423.954 75.0567C423.59 74.6234 423.113 74.4067 422.524 74.4067C421.726 74.4067 421.016 74.8054 420.392 75.6027C419.785 76.4001 419.421 77.6654 419.3 79.3987L419.378 79.5027C419.343 79.7627 419.317 80.0487 419.3 80.3607C419.282 80.6727 419.274 80.9847 419.274 81.2967C419.274 82.4754 419.464 83.4894 419.846 84.3387C420.227 85.1881 420.721 85.8381 421.328 86.2887C421.952 86.7221 422.593 86.9387 423.252 86.9387C423.772 86.9387 424.266 86.8607 424.734 86.7047C425.202 86.5314 425.635 86.2541 426.034 85.8727C426.432 85.4914 426.779 84.9801 427.074 84.3387L427.594 84.5467C427.403 85.1187 427.091 85.6734 426.658 86.2107C426.224 86.7481 425.678 87.1901 425.02 87.5367C424.361 87.8661 423.598 88.0307 422.732 88.0307C421.484 88.0307 420.409 87.7447 419.508 87.1727C418.624 86.6007 417.939 85.8121 417.454 84.8067C416.986 83.7841 416.752 82.6141 416.752 81.2967C416.752 79.7714 416.994 78.4627 417.48 77.3707C417.965 76.2614 418.65 75.4121 419.534 74.8227C420.418 74.2161 421.449 73.9127 422.628 73.9127ZM438.042 73.9127C438.649 73.9127 439.177 73.9994 439.628 74.1727C440.079 74.3461 440.451 74.5887 440.746 74.9007C441.075 75.2474 441.301 75.6981 441.422 76.2527C441.543 76.8074 441.604 77.4921 441.604 78.3067V85.2487C441.604 85.9767 441.751 86.4707 442.046 86.7307C442.358 86.9907 442.869 87.1207 443.58 87.1207V87.6667C443.285 87.6494 442.835 87.6321 442.228 87.6147C441.621 87.5801 441.032 87.5627 440.46 87.5627C439.888 87.5627 439.325 87.5801 438.77 87.6147C438.233 87.6321 437.825 87.6494 437.548 87.6667V87.1207C438.172 87.1207 438.614 86.9907 438.874 86.7307C439.134 86.4707 439.264 85.9767 439.264 85.2487V77.7347C439.264 77.1974 439.229 76.7034 439.16 76.2527C439.091 75.8021 438.917 75.4381 438.64 75.1607C438.363 74.8834 437.912 74.7447 437.288 74.7447C436.612 74.7447 436.005 74.9527 435.468 75.3687C434.948 75.7847 434.532 76.3567 434.22 77.0847C433.925 77.7954 433.778 78.5927 433.778 79.4767V85.2487C433.778 85.9767 433.908 86.4707 434.168 86.7307C434.428 86.9907 434.87 87.1207 435.494 87.1207V87.6667C435.217 87.6494 434.801 87.6321 434.246 87.6147C433.709 87.5801 433.154 87.5627 432.582 87.5627C432.01 87.5627 431.421 87.5801 430.814 87.6147C430.207 87.6321 429.757 87.6494 429.462 87.6667V87.1207C430.173 87.1207 430.675 86.9907 430.97 86.7307C431.282 86.4707 431.438 85.9767 431.438 85.2487V77.1107C431.438 76.3307 431.299 75.7587 431.022 75.3947C430.745 75.0134 430.225 74.8227 429.462 74.8227V74.2767C430.017 74.3287 430.554 74.3547 431.074 74.3547C431.577 74.3547 432.053 74.3287 432.504 74.2767C432.972 74.2074 433.397 74.1121 433.778 73.9907V77.0587C434.229 75.9321 434.844 75.1261 435.624 74.6407C436.404 74.1554 437.21 73.9127 438.042 73.9127ZM445.868 73.9127C446.475 73.9127 447.003 73.9994 447.454 74.1727C447.905 74.3461 448.277 74.5887 448.572 74.9007C448.901 75.2474 449.127 75.6981 449.248 76.2527C449.369 76.8074 449.43 77.4921 449.43 78.3067V85.2487C449.43 85.9767 449.577 86.4707 449.872 86.7307C450.184 86.9907 450.695 87.1207 451.406 87.1207V87.6667C451.111 87.6494 450.661 87.6321 450.054 87.6147C449.447 87.5801 448.858 87.5627 448.286 87.5627C447.714 87.5627 447.151 87.5801 446.596 87.6147C446.059 87.6321 445.651 87.6494 445.374 87.6667V87.1207C445.998 87.1207 446.44 86.9907 446.7 86.7307C446.96 86.4707 447.09 85.9767 447.09 85.2487V77.7347C447.09 77.1974 447.055 76.7034 446.986 76.2527C446.917 75.8021 446.743 75.4381 446.466 75.1607C446.189 74.8834 445.738 74.7447 445.114 74.7447C444.438 74.7447 443.831 74.9527 443.294 75.3687C442.774 75.7847 442.358 76.3481 442.046 77.0587C441.751 77.7694 441.604 78.5667 441.604 79.4507L441.526 77.0327C441.994 75.8367 442.627 75.0221 443.424 74.5887C444.221 74.1381 445.036 73.9127 445.868 73.9127ZM458.86 73.9127C460.386 73.9127 461.573 74.3807 462.422 75.3167C463.289 76.2354 463.722 77.6741 463.722 79.6327H454.544L454.518 79.1387H461.226C461.261 78.2894 461.192 77.5094 461.018 76.7987C460.845 76.0707 460.568 75.4901 460.186 75.0567C459.822 74.6234 459.346 74.4067 458.756 74.4067C457.959 74.4067 457.248 74.8054 456.624 75.6027C456.018 76.4001 455.654 77.6654 455.532 79.3987L455.61 79.5027C455.576 79.7627 455.55 80.0487 455.532 80.3607C455.515 80.6727 455.506 80.9847 455.506 81.2967C455.506 82.4754 455.697 83.4894 456.078 84.3387C456.46 85.1881 456.954 85.8381 457.56 86.2887C458.184 86.7221 458.826 86.9387 459.484 86.9387C460.004 86.9387 460.498 86.8607 460.966 86.7047C461.434 86.5314 461.868 86.2541 462.266 85.8727C462.665 85.4914 463.012 84.9801 463.306 84.3387L463.826 84.5467C463.636 85.1187 463.324 85.6734 462.89 86.2107C462.457 86.7481 461.911 87.1901 461.252 87.5367C460.594 87.8661 459.831 88.0307 458.964 88.0307C457.716 88.0307 456.642 87.7447 455.74 87.1727C454.856 86.6007 454.172 85.8121 453.686 84.8067C453.218 83.7841 452.984 82.6141 452.984 81.2967C452.984 79.7714 453.227 78.4627 453.712 77.3707C454.198 76.2614 454.882 75.4121 455.766 74.8227C456.65 74.2161 457.682 73.9127 458.86 73.9127ZM474.431 73.9127C475.089 73.9127 475.635 73.9994 476.069 74.1727C476.519 74.3461 476.892 74.5887 477.187 74.9007C477.516 75.2474 477.75 75.6807 477.889 76.2007C478.027 76.7207 478.097 77.4227 478.097 78.3067V85.2487C478.097 85.9767 478.244 86.4707 478.539 86.7307C478.851 86.9907 479.362 87.1207 480.073 87.1207V87.6667C479.778 87.6494 479.327 87.6321 478.721 87.6147C478.114 87.5801 477.525 87.5627 476.953 87.5627C476.381 87.5627 475.817 87.5801 475.263 87.6147C474.725 87.6321 474.318 87.6494 474.041 87.6667V87.1207C474.665 87.1207 475.107 86.9907 475.367 86.7307C475.627 86.4707 475.757 85.9767 475.757 85.2487V77.7347C475.757 77.1974 475.713 76.7034 475.627 76.2527C475.54 75.8021 475.341 75.4381 475.029 75.1607C474.734 74.8834 474.275 74.7447 473.651 74.7447C472.923 74.7447 472.281 74.9527 471.727 75.3687C471.189 75.7847 470.765 76.3567 470.453 77.0847C470.158 77.7954 470.011 78.5927 470.011 79.4767V85.2487C470.011 85.9767 470.141 86.4707 470.401 86.7307C470.661 86.9907 471.103 87.1207 471.727 87.1207V87.6667C471.449 87.6494 471.033 87.6321 470.479 87.6147C469.941 87.5801 469.387 87.5627 468.815 87.5627C468.243 87.5627 467.653 87.5801 467.047 87.6147C466.44 87.6321 465.989 87.6494 465.695 87.6667V87.1207C466.405 87.1207 466.908 86.9907 467.203 86.7307C467.515 86.4707 467.671 85.9767 467.671 85.2487V77.1107C467.671 76.3307 467.532 75.7587 467.255 75.3947C466.977 75.0134 466.457 74.8227 465.695 74.8227V74.2767C466.249 74.3287 466.787 74.3547 467.307 74.3547C467.809 74.3547 468.286 74.3287 468.737 74.2767C469.205 74.2074 469.629 74.1121 470.011 73.9907V77.0587C470.461 75.8801 471.085 75.0654 471.883 74.6147C472.697 74.1467 473.547 73.9127 474.431 73.9127ZM485.394 69.9607V74.3027H489.242V74.8227H485.394V84.8847C485.394 85.6994 485.542 86.2714 485.836 86.6007C486.131 86.9301 486.538 87.0947 487.058 87.0947C487.578 87.0947 488.029 86.8867 488.41 86.4707C488.792 86.0374 489.121 85.3181 489.398 84.3127L489.918 84.4427C489.745 85.4481 489.398 86.2974 488.878 86.9907C488.376 87.6841 487.596 88.0307 486.538 88.0307C485.949 88.0307 485.464 87.9527 485.082 87.7967C484.701 87.6581 484.363 87.4501 484.068 87.1727C483.687 86.7741 483.418 86.2974 483.262 85.7427C483.124 85.1881 483.054 84.4514 483.054 83.5327V74.8227H480.558V74.3027H483.054V70.3247C483.488 70.3074 483.904 70.2727 484.302 70.2207C484.701 70.1687 485.065 70.0821 485.394 69.9607ZM502.865 67.3347C503.35 67.3347 503.775 67.4041 504.139 67.5427C504.52 67.6641 504.849 67.8287 505.127 68.0367C505.387 68.2447 505.586 68.4874 505.725 68.7647C505.863 69.0421 505.933 69.3367 505.933 69.6487C505.933 70.0474 505.803 70.3767 505.543 70.6367C505.283 70.8967 504.953 71.0267 504.555 71.0267C504.173 71.0267 503.835 70.9054 503.541 70.6627C503.263 70.4027 503.125 70.0561 503.125 69.6227C503.125 69.2587 503.22 68.9641 503.411 68.7387C503.619 68.5134 503.887 68.3661 504.217 68.2967C504.165 68.1407 504.026 68.0107 503.801 67.9067C503.593 67.7854 503.307 67.7247 502.943 67.7247C502.544 67.7247 502.197 67.8114 501.903 67.9847C501.625 68.1581 501.409 68.3921 501.253 68.6867C501.045 69.0507 500.915 69.5967 500.863 70.3247C500.811 71.0354 500.785 72.1361 500.785 73.6267V74.3027H503.567V74.8227H500.785V84.9887C500.785 85.8381 501.027 86.4101 501.513 86.7047C502.015 86.9821 502.691 87.1207 503.541 87.1207V87.6667C503.142 87.6494 502.579 87.6321 501.851 87.6147C501.123 87.5801 500.351 87.5627 499.537 87.5627C498.947 87.5627 498.358 87.5801 497.769 87.6147C497.197 87.6321 496.763 87.6494 496.469 87.6667V87.1207C497.179 87.1207 497.682 86.9907 497.977 86.7307C498.289 86.4707 498.445 85.9767 498.445 85.2487V74.8227H496.365V74.3027H498.445C498.445 73.2801 498.488 72.4221 498.575 71.7287C498.661 71.0354 498.8 70.4461 498.991 69.9607C499.181 69.4581 499.441 69.0161 499.771 68.6347C500.117 68.2361 500.559 67.9241 501.097 67.6987C501.634 67.4561 502.223 67.3347 502.865 67.3347ZM511.014 73.9127C512.123 73.9127 513.12 74.1554 514.004 74.6407C514.888 75.1261 515.59 75.8887 516.11 76.9287C516.647 77.9687 516.916 79.3207 516.916 80.9847C516.916 82.6487 516.647 84.0007 516.11 85.0407C515.59 86.0634 514.888 86.8174 514.004 87.3027C513.12 87.7881 512.123 88.0307 511.014 88.0307C509.922 88.0307 508.925 87.7881 508.024 87.3027C507.14 86.8174 506.429 86.0634 505.892 85.0407C505.372 84.0007 505.112 82.6487 505.112 80.9847C505.112 79.3207 505.372 77.9687 505.892 76.9287C506.429 75.8887 507.14 75.1261 508.024 74.6407C508.925 74.1554 509.922 73.9127 511.014 73.9127ZM511.014 74.4327C510.026 74.4327 509.211 74.9441 508.57 75.9667C507.946 76.9894 507.634 78.6621 507.634 80.9847C507.634 83.3074 507.946 84.9801 508.57 86.0027C509.211 87.0081 510.026 87.5107 511.014 87.5107C512.002 87.5107 512.808 87.0081 513.432 86.0027C514.073 84.9801 514.394 83.3074 514.394 80.9847C514.394 78.6621 514.073 76.9894 513.432 75.9667C512.808 74.9441 512.002 74.4327 511.014 74.4327ZM526.974 73.9127C527.442 73.9127 527.849 74.0081 528.196 74.1987C528.56 74.3894 528.837 74.6407 529.028 74.9527C529.236 75.2474 529.34 75.5854 529.34 75.9667C529.34 76.4001 529.201 76.7814 528.924 77.1107C528.664 77.4401 528.309 77.6047 527.858 77.6047C527.494 77.6047 527.173 77.4921 526.896 77.2667C526.619 77.0241 526.48 76.6861 526.48 76.2527C526.48 75.9234 526.567 75.6461 526.74 75.4207C526.931 75.1781 527.139 74.9874 527.364 74.8487C527.243 74.6754 527.061 74.5887 526.818 74.5887C526.281 74.5887 525.787 74.7534 525.336 75.0827C524.885 75.3947 524.504 75.8021 524.192 76.3047C523.88 76.8074 523.637 77.3447 523.464 77.9167C523.291 78.4714 523.204 78.9914 523.204 79.4767V84.9887C523.204 85.8381 523.447 86.4101 523.932 86.7047C524.435 86.9821 525.111 87.1207 525.96 87.1207V87.6667C525.561 87.6494 524.998 87.6321 524.27 87.6147C523.542 87.5801 522.771 87.5627 521.956 87.5627C521.367 87.5627 520.777 87.5801 520.188 87.6147C519.616 87.6321 519.183 87.6494 518.888 87.6667V87.1207C519.599 87.1207 520.101 86.9907 520.396 86.7307C520.708 86.4707 520.864 85.9767 520.864 85.2487V77.1107C520.864 76.3307 520.725 75.7587 520.448 75.3947C520.171 75.0134 519.651 74.8227 518.888 74.8227V74.2767C519.443 74.3287 519.98 74.3547 520.5 74.3547C521.003 74.3547 521.479 74.3287 521.93 74.2767C522.398 74.2074 522.823 74.1121 523.204 73.9907V77.2407C523.395 76.7381 523.663 76.2354 524.01 75.7327C524.374 75.2127 524.807 74.7794 525.31 74.4327C525.813 74.0861 526.367 73.9127 526.974 73.9127ZM540.516 73.9907V89.9547C540.516 90.7001 540.733 91.1941 541.166 91.4367C541.617 91.6967 542.232 91.8267 543.012 91.8267V92.3727C542.631 92.3554 542.102 92.3294 541.426 92.2947C540.75 92.2774 540.031 92.2687 539.268 92.2687C538.731 92.2687 538.193 92.2774 537.656 92.2947C537.136 92.3294 536.737 92.3554 536.46 92.3727V91.8267C537.084 91.8267 537.526 91.7141 537.786 91.4887C538.046 91.2634 538.176 90.8387 538.176 90.2147V77.1107C538.176 76.3307 538.037 75.7587 537.76 75.3947C537.483 75.0134 536.963 74.8227 536.2 74.8227V74.2767C536.755 74.3287 537.292 74.3547 537.812 74.3547C538.315 74.3547 538.791 74.3287 539.242 74.2767C539.71 74.2074 540.135 74.1121 540.516 73.9907ZM544.676 73.9127C545.595 73.9127 546.418 74.1641 547.146 74.6667C547.874 75.1521 548.446 75.8714 548.862 76.8247C549.295 77.7781 549.512 78.9567 549.512 80.3607C549.512 81.2967 549.399 82.2241 549.174 83.1427C548.949 84.0441 548.593 84.8674 548.108 85.6127C547.64 86.3407 547.025 86.9301 546.262 87.3807C545.517 87.8141 544.615 88.0307 543.558 88.0307C542.743 88.0307 542.033 87.8401 541.426 87.4587C540.837 87.0774 540.438 86.6181 540.23 86.0807L540.49 85.7167C540.733 86.2021 541.079 86.6094 541.53 86.9387C541.998 87.2681 542.579 87.4327 543.272 87.4327C544.243 87.4327 544.997 87.1294 545.534 86.5227C546.071 85.9161 546.444 85.1101 546.652 84.1047C546.877 83.0821 546.99 81.9554 546.99 80.7247C546.99 79.3381 546.877 78.2027 546.652 77.3187C546.427 76.4347 546.089 75.7761 545.638 75.3427C545.187 74.9094 544.633 74.6927 543.974 74.6927C543.125 74.6927 542.353 75.0481 541.66 75.7587C540.967 76.4521 540.525 77.5094 540.334 78.9307L540.022 78.5667C540.213 77.0934 540.733 75.9494 541.582 75.1347C542.449 74.3201 543.48 73.9127 544.676 73.9127ZM555.623 67.2827V85.2487C555.623 85.9767 555.771 86.4707 556.065 86.7307C556.377 86.9907 556.889 87.1207 557.599 87.1207V87.6667C557.305 87.6494 556.854 87.6321 556.247 87.6147C555.658 87.5801 555.06 87.5627 554.453 87.5627C553.864 87.5627 553.266 87.5801 552.659 87.6147C552.053 87.6321 551.602 87.6494 551.307 87.6667V87.1207C552.018 87.1207 552.521 86.9907 552.815 86.7307C553.127 86.4707 553.283 85.9767 553.283 85.2487V70.4027C553.283 69.6227 553.145 69.0507 552.867 68.6867C552.59 68.3054 552.07 68.1147 551.307 68.1147V67.5687C551.862 67.6207 552.399 67.6467 552.919 67.6467C553.422 67.6467 553.899 67.6207 554.349 67.5687C554.817 67.4994 555.242 67.4041 555.623 67.2827ZM562.621 87.8487C561.91 87.8487 561.295 87.7187 560.775 87.4587C560.255 87.1814 559.856 86.8001 559.579 86.3147C559.319 85.8294 559.189 85.2661 559.189 84.6247C559.189 83.8621 559.362 83.2381 559.709 82.7527C560.073 82.2674 560.532 81.8774 561.087 81.5827C561.642 81.2881 562.222 81.0454 562.829 80.8547C563.453 80.6467 564.042 80.4561 564.597 80.2827C565.152 80.0921 565.602 79.8754 565.949 79.6327C566.313 79.3901 566.495 79.0694 566.495 78.6707V77.0587C566.495 76.3307 566.382 75.7761 566.157 75.3947C565.949 75.0134 565.663 74.7621 565.299 74.6407C564.935 74.5021 564.528 74.4327 564.077 74.4327C563.644 74.4327 563.176 74.4934 562.673 74.6147C562.188 74.7361 561.798 74.9874 561.503 75.3687C561.832 75.4381 562.118 75.6114 562.361 75.8887C562.604 76.1661 562.725 76.5214 562.725 76.9547C562.725 77.3881 562.586 77.7347 562.309 77.9947C562.032 78.2374 561.676 78.3587 561.243 78.3587C560.74 78.3587 560.368 78.2027 560.125 77.8907C559.9 77.5614 559.787 77.1974 559.787 76.7987C559.787 76.3481 559.9 75.9841 560.125 75.7067C560.35 75.4294 560.636 75.1694 560.983 74.9267C561.382 74.6494 561.893 74.4154 562.517 74.2247C563.158 74.0167 563.878 73.9127 564.675 73.9127C565.386 73.9127 565.992 73.9994 566.495 74.1727C566.998 74.3287 567.414 74.5627 567.743 74.8747C568.194 75.2907 568.488 75.8021 568.627 76.4087C568.766 76.9981 568.835 77.7087 568.835 78.5407V85.7687C568.835 86.2021 568.896 86.5141 569.017 86.7047C569.156 86.8954 569.364 86.9907 569.641 86.9907C569.832 86.9907 570.014 86.9474 570.187 86.8607C570.36 86.7741 570.568 86.6354 570.811 86.4447L571.097 86.8867C570.733 87.1641 570.386 87.3981 570.057 87.5887C569.728 87.7621 569.286 87.8487 568.731 87.8487C568.228 87.8487 567.812 87.7621 567.483 87.5887C567.154 87.4154 566.902 87.1641 566.729 86.8347C566.573 86.4881 566.495 86.0547 566.495 85.5347C566.027 86.3147 565.464 86.8954 564.805 87.2767C564.164 87.6581 563.436 87.8487 562.621 87.8487ZM563.557 86.8087C564.129 86.8087 564.658 86.6441 565.143 86.3147C565.646 85.9854 566.096 85.4914 566.495 84.8327V79.7367C566.287 80.0314 565.984 80.2827 565.585 80.4907C565.186 80.6814 564.753 80.8807 564.285 81.0887C563.817 81.2794 563.366 81.5134 562.933 81.7907C562.517 82.0507 562.17 82.3974 561.893 82.8307C561.616 83.2641 561.477 83.8274 561.477 84.5207C561.477 85.2141 561.659 85.7687 562.023 86.1847C562.404 86.6007 562.916 86.8087 563.557 86.8087ZM580.614 73.9127C581.273 73.9127 581.819 73.9994 582.252 74.1727C582.703 74.3461 583.075 74.5887 583.37 74.9007C583.699 75.2474 583.933 75.6807 584.072 76.2007C584.211 76.7207 584.28 77.4227 584.28 78.3067V85.2487C584.28 85.9767 584.427 86.4707 584.722 86.7307C585.034 86.9907 585.545 87.1207 586.256 87.1207V87.6667C585.961 87.6494 585.511 87.6321 584.904 87.6147C584.297 87.5801 583.708 87.5627 583.136 87.5627C582.564 87.5627 582.001 87.5801 581.446 87.6147C580.909 87.6321 580.501 87.6494 580.224 87.6667V87.1207C580.848 87.1207 581.29 86.9907 581.55 86.7307C581.81 86.4707 581.94 85.9767 581.94 85.2487V77.7347C581.94 77.1974 581.897 76.7034 581.81 76.2527C581.723 75.8021 581.524 75.4381 581.212 75.1607C580.917 74.8834 580.458 74.7447 579.834 74.7447C579.106 74.7447 578.465 74.9527 577.91 75.3687C577.373 75.7847 576.948 76.3567 576.636 77.0847C576.341 77.7954 576.194 78.5927 576.194 79.4767V85.2487C576.194 85.9767 576.324 86.4707 576.584 86.7307C576.844 86.9907 577.286 87.1207 577.91 87.1207V87.6667C577.633 87.6494 577.217 87.6321 576.662 87.6147C576.125 87.5801 575.57 87.5627 574.998 87.5627C574.426 87.5627 573.837 87.5801 573.23 87.6147C572.623 87.6321 572.173 87.6494 571.878 87.6667V87.1207C572.589 87.1207 573.091 86.9907 573.386 86.7307C573.698 86.4707 573.854 85.9767 573.854 85.2487V77.1107C573.854 76.3307 573.715 75.7587 573.438 75.3947C573.161 75.0134 572.641 74.8227 571.878 74.8227V74.2767C572.433 74.3287 572.97 74.3547 573.49 74.3547C573.993 74.3547 574.469 74.3287 574.92 74.2767C575.388 74.2074 575.813 74.1121 576.194 73.9907V77.0587C576.645 75.8801 577.269 75.0654 578.066 74.6147C578.881 74.1467 579.73 73.9127 580.614 73.9127ZM591.578 69.9607V74.3027H595.426V74.8227H591.578V84.8847C591.578 85.6994 591.725 86.2714 592.02 86.6007C592.314 86.9301 592.722 87.0947 593.242 87.0947C593.762 87.0947 594.212 86.8867 594.594 86.4707C594.975 86.0374 595.304 85.3181 595.582 84.3127L596.102 84.4427C595.928 85.4481 595.582 86.2974 595.062 86.9907C594.559 87.6841 593.779 88.0307 592.722 88.0307C592.132 88.0307 591.647 87.9527 591.266 87.7967C590.884 87.6581 590.546 87.4501 590.252 87.1727C589.87 86.7741 589.602 86.2974 589.446 85.7427C589.307 85.1881 589.238 84.4514 589.238 83.5327V74.8227H586.742V74.3027H589.238V70.3247C589.671 70.3074 590.087 70.2727 590.486 70.2207C590.884 70.1687 591.248 70.0821 591.578 69.9607Z" fill="#3B2369"/>
</svg>
