<svg width="32" height="32" viewBox="0 0 32 32" fill="none" xmlns="http://www.w3.org/2000/svg">
<g clip-path="url(#clip0_485_1073)">
<path d="M13.9999 16.0001C14.9285 15.9999 15.8478 16.1846 16.7043 16.5432C17.5609 16.9019 18.3375 17.4273 18.9889 18.089C19.6404 18.7508 20.1537 19.5355 20.499 20.3975C20.8442 21.2595 21.0145 22.1816 20.9999 23.1101C20.9975 23.2638 21.0307 23.416 21.0967 23.5548C21.1627 23.6937 21.2599 23.8154 21.3806 23.9106C21.5014 24.0058 21.6424 24.0719 21.7928 24.1037C21.9432 24.1355 22.099 24.1322 22.2479 24.0941C22.6914 23.9804 23.1549 23.9696 23.6032 24.0624C24.0515 24.1552 24.4727 24.3492 24.8346 24.6295C25.1965 24.9098 25.4896 25.2691 25.6916 25.6799C25.8935 26.0907 25.999 26.5423 25.9999 27.0001C25.9999 27.7957 25.6838 28.5588 25.1212 29.1214C24.5586 29.684 23.7955 30.0001 22.9999 30.0001H5.9999C5.4681 29.9971 4.94224 29.888 4.45308 29.6794C3.96392 29.4707 3.52128 29.1666 3.15104 28.7849C2.78081 28.4031 2.49042 27.9513 2.29685 27.456C2.10329 26.9607 2.01044 26.4317 2.02374 25.9001C2.03704 25.3685 2.15621 24.8448 2.3743 24.3598C2.59238 23.8748 2.905 23.4381 3.29385 23.0753C3.68271 22.7125 4.14 22.4309 4.63898 22.247C5.13797 22.0631 5.66862 21.9805 6.1999 22.0041C6.43034 22.0159 6.6578 21.9477 6.8437 21.811C7.0296 21.6743 7.16252 21.4776 7.2199 21.2541C7.60783 19.7507 8.4843 18.4188 9.71155 17.4678C10.9388 16.5168 12.4473 16.0005 13.9999 16.0001ZM22.9459 22.0001C22.7209 19.9723 21.8136 18.0812 20.3728 16.6368C18.932 15.1923 17.0432 14.2803 15.0161 14.0501C12.9889 13.82 10.9437 14.2854 9.2158 15.3701C7.48788 16.4548 6.17975 18.0944 5.5059 20.0201C3.96178 20.1464 2.5264 20.8652 1.50022 22.0259C0.47405 23.1866 -0.0633704 24.6993 0.000460689 26.2473C0.0642918 27.7952 0.724425 29.2585 1.84268 30.3308C2.96093 31.4031 4.45061 32.0012 5.9999 32.0001H22.9999C24.326 32.0001 25.5977 31.4733 26.5354 30.5356C27.4731 29.5979 27.9999 28.3261 27.9999 27.0001C27.9999 25.674 27.4731 24.4022 26.5354 23.4645C25.5977 22.5268 24.326 22.0001 22.9999 22.0001H22.9459Z" fill="#00B37E"/>
<path d="M21.0001 3C21.0001 2.73478 20.8948 2.48043 20.7072 2.29289C20.5197 2.10536 20.2653 2 20.0001 2C19.7349 2 19.4805 2.10536 19.293 2.29289C19.1055 2.48043 19.0001 2.73478 19.0001 3V5C19.0001 5.26522 19.1055 5.51957 19.293 5.70711C19.4805 5.89464 19.7349 6 20.0001 6C20.2653 6 20.5197 5.89464 20.7072 5.70711C20.8948 5.51957 21.0001 5.26522 21.0001 5V3ZM28.4861 6.928C28.5816 6.83575 28.6578 6.72541 28.7102 6.6034C28.7626 6.4814 28.7902 6.35018 28.7914 6.2174C28.7925 6.08462 28.7672 5.95294 28.7169 5.83005C28.6667 5.70715 28.5924 5.5955 28.4985 5.50161C28.4046 5.40771 28.293 5.33346 28.1701 5.28318C28.0472 5.2329 27.9155 5.2076 27.7827 5.20875C27.6499 5.2099 27.5187 5.23749 27.3967 5.2899C27.2747 5.34231 27.1644 5.41849 27.0721 5.514L25.6561 6.928C25.4683 7.11577 25.3628 7.37045 25.3628 7.636C25.3628 7.90155 25.4683 8.15623 25.6561 8.344C25.8439 8.53177 26.0986 8.63726 26.3641 8.63726C26.6297 8.63726 26.8843 8.53177 27.0721 8.344L28.4861 6.928ZM12.9281 5.514C12.7395 5.33184 12.4869 5.23105 12.2247 5.23333C11.9625 5.2356 11.7117 5.34077 11.5263 5.52618C11.3409 5.71159 11.2357 5.9624 11.2334 6.2246C11.2312 6.4868 11.332 6.7394 11.5141 6.928L12.9281 8.344C13.0211 8.43698 13.1315 8.51073 13.2529 8.56105C13.3744 8.61136 13.5046 8.63726 13.6361 8.63726C13.7676 8.63726 13.8978 8.61136 14.0193 8.56105C14.1408 8.51073 14.2511 8.43698 14.3441 8.344C14.4371 8.25102 14.5108 8.14065 14.5612 8.01917C14.6115 7.89769 14.6374 7.76749 14.6374 7.636C14.6374 7.50451 14.6115 7.37431 14.5612 7.25283C14.5108 7.13135 14.4371 7.02098 14.3441 6.928L12.9281 5.514ZM16.3961 12.262C16.6447 11.7469 17.0008 11.2911 17.4405 10.9253C17.8803 10.5595 18.3933 10.2923 18.9451 10.1416C19.4968 9.99098 20.0745 9.96042 20.6391 10.052C21.2036 10.1436 21.742 10.3552 22.2179 10.6725C22.6937 10.9898 23.096 11.4055 23.3975 11.8915C23.6991 12.3776 23.8929 12.9226 23.9659 13.4899C24.0389 14.0572 23.9894 14.6335 23.8207 15.18C23.652 15.7265 23.3681 16.2305 22.9881 16.658C23.3861 17.22 23.7321 17.822 24.0201 18.454C24.6979 17.8416 25.2269 17.0825 25.5668 16.2346C25.9067 15.3868 26.0485 14.4725 25.9815 13.5615C25.9144 12.6505 25.6402 11.7668 25.1798 10.9778C24.7193 10.1889 24.0848 9.51548 23.3247 9.00896C22.5645 8.50244 21.6987 8.17617 20.7933 8.05504C19.8879 7.93391 18.9668 8.02111 18.1002 8.30999C17.2336 8.59887 16.4444 9.08181 15.7928 9.72198C15.1412 10.3622 14.6443 11.1427 14.3401 12.004C15.0441 12.026 15.7321 12.114 16.3961 12.262ZM25.3641 20.41C26.5641 20.84 27.6141 21.59 28.4081 22.554C28.517 22.4658 28.6061 22.3558 28.6697 22.2309C28.7334 22.1061 28.77 21.9693 28.7774 21.8294C28.7847 21.6894 28.7626 21.5495 28.7124 21.4187C28.6623 21.2879 28.5851 21.1691 28.4861 21.07L27.0721 19.656C26.9296 19.5126 26.7469 19.4158 26.5482 19.3783C26.3494 19.3409 26.144 19.3645 25.9591 19.4462C25.7741 19.5278 25.6182 19.6637 25.512 19.8357C25.4058 20.0078 25.3542 20.208 25.3641 20.41ZM29.0001 13C28.7349 13 28.4805 13.1054 28.293 13.2929C28.1055 13.4804 28.0001 13.7348 28.0001 14C28.0001 14.2652 28.1055 14.5196 28.293 14.7071C28.4805 14.8946 28.7349 15 29.0001 15H31.0001C31.2653 15 31.5197 14.8946 31.7072 14.7071C31.8948 14.5196 32.0001 14.2652 32.0001 14C32.0001 13.7348 31.8948 13.4804 31.7072 13.2929C31.5197 13.1054 31.2653 13 31.0001 13H29.0001Z" fill="#FBA94C"/>
</g>
<defs>
<clipPath id="clip0_485_1073">
<rect width="32" height="32" fill="white"/>
</clipPath>
</defs>
</svg>
