<svg width="24" height="24" viewBox="0 0 24 24" fill="none" xmlns="http://www.w3.org/2000/svg">
<path d="M16.5 1.71429C16.5 1.25963 16.658 0.823593 16.9393 0.502103C17.2206 0.180612 17.6022 0 18 0H21C21.3978 0 21.7794 0.180612 22.0607 0.502103C22.342 0.823593 22.5 1.25963 22.5 1.71429V22.2857H23.25C23.4489 22.2857 23.6397 22.376 23.7803 22.5368C23.921 22.6975 24 22.9155 24 23.1429C24 23.3702 23.921 23.5882 23.7803 23.7489C23.6397 23.9097 23.4489 24 23.25 24H0.75C0.551088 24 0.360322 23.9097 0.21967 23.7489C0.0790176 23.5882 0 23.3702 0 23.1429C0 22.9155 0.0790176 22.6975 0.21967 22.5368C0.360322 22.376 0.551088 22.2857 0.75 22.2857H1.5V17.1429C1.5 16.6882 1.65804 16.2522 1.93934 15.9307C2.22064 15.6092 2.60218 15.4286 3 15.4286H6C6.39782 15.4286 6.77936 15.6092 7.06066 15.9307C7.34196 16.2522 7.5 16.6882 7.5 17.1429V22.2857H9V10.2857C9 9.83106 9.15804 9.39502 9.43934 9.07353C9.72064 8.75204 10.1022 8.57143 10.5 8.57143H13.5C13.8978 8.57143 14.2794 8.75204 14.5607 9.07353C14.842 9.39502 15 9.83106 15 10.2857V22.2857H16.5V1.71429ZM18 22.2857H21V1.71429H18V22.2857ZM13.5 22.2857V10.2857H10.5V22.2857H13.5ZM6 22.2857V17.1429H3V22.2857H6Z" fill="#F5F5F5"/>
</svg>
