<svg width="80" height="80" viewBox="0 0 80 80" fill="none" xmlns="http://www.w3.org/2000/svg">
<g filter="url(#filter0_d_485_869)">
<path d="M53.4743 18.083C53.2216 15.5353 53.2718 13.1801 53.8758 10.9538C54.1798 9.83953 54.6238 8.75377 55.2503 7.68066C55.8793 6.60502 56.6937 5.54189 57.7493 4.48636L59.4828 2.75273L56.7313 0L54.9965 1.73236C53.3717 3.357 52.176 5.06799 51.3429 6.84267C50.0873 9.5092 49.657 12.312 49.6882 15.1173C49.7145 17.9252 50.1809 20.7481 50.7177 23.5835C51.0679 25.4308 51.3705 27.2081 51.5394 28.9053C51.7932 31.453 51.7421 33.8095 51.1366 36.0345C50.834 37.1476 50.3899 38.2344 49.7621 39.3088C49.133 40.3831 48.3187 41.445 47.2632 42.5007V42.5019H47.2645L46.5027 43.2636C46.2989 43.4662 46.0974 43.6601 45.8911 43.8465L33.4262 31.3819C32.8108 32.0597 32.2917 32.7527 31.849 33.4793L43.8212 45.4499C43.2921 45.7876 42.7617 46.0801 42.2277 46.3303C41.6361 46.6093 41.0396 46.8381 40.4316 47.0208L30.3957 36.9851C30.1555 37.992 30.0267 39.0713 30.0029 40.2694L37.3447 47.6099C36.7069 47.6661 36.0565 47.6861 35.3924 47.6824C33.9052 47.6675 32.3544 47.5097 30.7359 47.2635C30.8034 47.6336 30.8685 47.9888 30.9347 48.3353C31.096 49.1745 31.2561 50.0563 31.4037 50.9681C31.9578 51.0458 32.5093 51.1107 33.0609 51.1657C35.8739 51.4447 38.6918 51.4108 41.4384 50.6654C42.8118 50.294 44.1588 49.7423 45.4658 48.9769C46.7716 48.2127 48.0397 47.2334 49.2556 46.0177L50.016 45.2548C51.6408 43.6326 52.8352 41.9205 53.6719 40.1445C54.9264 37.4778 55.3553 34.6776 55.3267 31.871C55.2978 29.0631 54.8325 26.2389 54.2973 23.4048C53.9446 21.5561 53.6431 19.7802 53.4743 18.083Z" fill="#8D6FC5"/>
<path d="M73.2475 16.5187L71.5151 18.2509C71.31 18.4548 71.1087 18.6487 70.9035 18.8338L58.4374 6.36792C57.8233 7.04714 57.3042 7.74126 56.8614 8.46534L68.8322 20.4373C68.3031 20.7762 67.7752 21.0676 67.24 21.3178C66.6484 21.5966 66.0506 21.8254 65.444 22.0081L55.4081 11.9737C55.1679 12.9791 55.0391 14.0586 55.0166 15.2567L62.3571 22.5972C61.7192 22.6547 61.0689 22.6735 60.4046 22.6697C58.9176 22.6559 57.3666 22.4972 55.7481 22.2495C55.8156 22.6198 55.8794 22.9776 55.9481 23.3239C56.107 24.163 56.2672 25.0435 56.416 25.9554C56.9701 26.0329 57.5203 26.098 58.0719 26.1532C60.8861 26.4319 63.7053 26.3994 66.4495 25.6528C67.8227 25.2814 69.1711 24.731 70.4781 23.9645C71.7826 23.2016 73.0509 22.2209 74.269 21.0039L76.0001 19.2704L73.2475 16.5187Z" fill="#00B37E"/>
<path d="M23.1388 63.5351L11.1691 51.5658C11.6957 51.2243 12.226 50.9317 12.76 50.6828C13.3529 50.4038 13.9494 50.1737 14.5561 49.9923L24.592 60.0282C24.8322 59.0226 24.961 57.9419 24.9835 56.7437L17.6456 49.4058C18.2834 49.3495 18.9326 49.3258 19.5966 49.3307C21.0825 49.3445 22.6348 49.5058 24.2495 49.7523C24.1845 49.3809 24.1195 49.0219 24.0531 48.6766C23.8931 47.8387 23.7342 46.9557 23.5854 46.0439C23.0325 45.9713 22.4823 45.9051 21.9306 45.8499C19.1151 45.5673 16.2948 45.5998 13.5493 46.3465C12.1812 46.7218 10.829 47.2721 9.52204 48.0362C8.21758 48.7991 6.94925 49.7784 5.73226 50.9967L4 52.7289L6.75293 55.483L8.48519 53.7495C8.6891 53.5456 8.89301 53.3519 9.09819 53.1667L21.5643 65.6314C22.177 64.9536 22.6985 64.2594 23.1388 63.5351Z" fill="#8D6FC5"/>
<path d="M28.462 43.0959C28.2105 40.5483 28.2593 38.1919 28.8635 35.9682C29.1674 34.8513 29.6102 33.767 30.2392 32.6926C30.867 31.6182 31.6825 30.554 32.7382 29.4983L33.4998 28.7378L33.4986 28.7354C33.7012 28.5315 33.9051 28.3388 34.1114 28.1549L46.5751 40.6183C47.1893 39.9404 47.7108 39.245 48.1499 38.5222L36.1802 26.5529C36.708 26.2115 37.2395 25.9187 37.7724 25.6698C38.3653 25.3922 38.9618 25.1607 39.5685 24.9793L49.6044 35.0139C49.8459 34.0083 49.9734 32.9301 49.9959 31.732L42.6578 24.3928C43.2944 24.3365 43.9448 24.3127 44.6089 24.3191C46.0936 24.3328 47.647 24.4941 49.2617 24.7381C49.1967 24.3679 49.1318 24.0101 49.0654 23.6637C48.9053 22.8245 48.7452 21.9439 48.5976 21.0322C48.046 20.9571 47.4946 20.891 46.9429 20.8359C44.1262 20.5557 41.3071 20.5883 38.5616 21.3349C37.1933 21.7088 35.8413 22.2592 34.5343 23.0233C33.2298 23.7875 31.9615 24.7655 30.7445 25.9838L30.7458 25.985L29.9841 26.7467C28.3607 28.37 27.165 30.081 26.3306 31.8571C25.0749 34.5237 24.6446 37.3252 24.6758 40.1293C24.7023 42.9384 25.1686 45.7625 25.704 48.5967C26.0554 50.4441 26.358 52.2212 26.5269 53.9172C26.7795 56.4675 26.7296 58.8213 26.1242 61.0475C25.8215 62.1607 25.3774 63.2474 24.7508 64.322C24.1216 65.3963 23.3049 66.4569 22.2506 67.5139L20.5183 69.2473L23.2701 71.9999L25.0049 70.2677C26.6283 68.6443 27.8241 66.9321 28.6595 65.1573C29.9141 62.4907 30.3443 59.6905 30.3143 56.8839C30.2855 54.0747 29.819 51.2531 29.2837 48.419C28.9322 46.5703 28.6307 44.7943 28.462 43.0959Z" fill="#00B37E"/>
</g>
<defs>
<filter id="filter0_d_485_869" x="0" y="0" width="80.0002" height="80" filterUnits="userSpaceOnUse" color-interpolation-filters="sRGB">
<feFlood flood-opacity="0" result="BackgroundImageFix"/>
<feColorMatrix in="SourceAlpha" type="matrix" values="0 0 0 0 0 0 0 0 0 0 0 0 0 0 0 0 0 0 127 0" result="hardAlpha"/>
<feOffset dy="4"/>
<feGaussianBlur stdDeviation="2"/>
<feComposite in2="hardAlpha" operator="out"/>
<feColorMatrix type="matrix" values="0 0 0 0 0 0 0 0 0 0 0 0 0 0 0 0 0 0 0.25 0"/>
<feBlend mode="normal" in2="BackgroundImageFix" result="effect1_dropShadow_485_869"/>
<feBlend mode="normal" in="SourceGraphic" in2="effect1_dropShadow_485_869" result="shape"/>
</filter>
</defs>
</svg>
