<svg width="10" height="10" viewBox="0 0 10 10" fill="none" xmlns="http://www.w3.org/2000/svg">
<g clip-path="url(#clip0_485_845)">
<path d="M4.34383 0.271875C4.70633 -0.090625 5.29383 -0.090625 5.65633 0.271875L9.72821 4.34438C10.0907 4.70688 10.0907 5.29375 9.72821 5.65562L5.65633 9.72812C5.29383 10.0906 4.70696 10.0906 4.34509 9.72812L0.27196 5.65625C0.18575 5.57022 0.117354 5.46802 0.0706874 5.35552C0.0240208 5.24302 0 5.12242 0 5.00063C0 4.87883 0.0240208 4.75823 0.0706874 4.64573C0.117354 4.53323 0.18575 4.43104 0.27196 4.345L4.34383 0.271875ZM5.21883 0.709375C5.16082 0.651363 5.08213 0.618772 5.00008 0.618772C4.91804 0.618772 4.83935 0.651363 4.78133 0.709375L0.708835 4.78125C0.650823 4.83927 0.618233 4.91795 0.618233 5C0.618233 5.08205 0.650823 5.16073 0.708835 5.21875L4.78133 9.29125C4.83935 9.34926 4.91804 9.38185 5.00008 9.38185C5.08213 9.38185 5.16082 9.34926 5.21883 9.29125L9.29133 5.21875C9.34935 5.16073 9.38194 5.08205 9.38194 5C9.38194 4.91795 9.34935 4.83927 9.29133 4.78125L5.21883 0.70875V0.709375Z" fill="#00B37E"/>
<path d="M3.28431 3.61625C3.28346 3.63643 3.28674 3.65658 3.29396 3.67545C3.30118 3.69432 3.31218 3.71151 3.32628 3.72597C3.34039 3.74043 3.35731 3.75185 3.37599 3.75953C3.39468 3.76721 3.41474 3.77098 3.43494 3.77062H3.95056C4.03681 3.77062 4.10556 3.7 4.11681 3.61437C4.17306 3.20438 4.45431 2.90563 4.95556 2.90563C5.38431 2.90563 5.77681 3.12 5.77681 3.63562C5.77681 4.0325 5.54306 4.215 5.17369 4.4925C4.75306 4.79813 4.41994 5.155 4.44369 5.73438L4.44556 5.87C4.44622 5.91101 4.46297 5.95011 4.4922 5.97887C4.52143 6.00764 4.5608 6.02376 4.60181 6.02375H5.10869C5.15013 6.02375 5.18987 6.00729 5.21917 5.97799C5.24848 5.94868 5.26494 5.90894 5.26494 5.8675V5.80188C5.26494 5.35313 5.43556 5.2225 5.89619 4.87313C6.27681 4.58375 6.67369 4.2625 6.67369 3.58813C6.67369 2.64375 5.87619 2.1875 5.00306 2.1875C4.21119 2.1875 3.34369 2.55625 3.28431 3.61625ZM4.25744 7.21812C4.25744 7.55125 4.52306 7.7975 4.88869 7.7975C5.26931 7.7975 5.53119 7.55125 5.53119 7.21812C5.53119 6.87313 5.26869 6.63063 4.88806 6.63063C4.52306 6.63063 4.25744 6.87313 4.25744 7.21812Z" fill="#00B37E"/>
</g>
<defs>
<clipPath id="clip0_485_845">
<rect width="10" height="10" fill="white"/>
</clipPath>
</defs>
</svg>
