<svg width="32" height="32" viewBox="0 0 32 32" fill="none" xmlns="http://www.w3.org/2000/svg">
<g filter="url(#filter0_d_481_512)">
<path fill-rule="evenodd" clip-rule="evenodd" d="M4 22.6667C4 22.313 4.11493 21.9739 4.31952 21.7239C4.52411 21.4738 4.80158 21.3333 5.09091 21.3333H26.9091C27.1984 21.3333 27.4759 21.4738 27.6805 21.7239C27.8851 21.9739 28 22.313 28 22.6667C28 23.0203 27.8851 23.3594 27.6805 23.6095C27.4759 23.8595 27.1984 24 26.9091 24H5.09091C4.80158 24 4.52411 23.8595 4.31952 23.6095C4.11493 23.3594 4 23.0203 4 22.6667ZM4 12C4 11.6464 4.11493 11.3072 4.31952 11.0572C4.52411 10.8071 4.80158 10.6667 5.09091 10.6667H26.9091C27.1984 10.6667 27.4759 10.8071 27.6805 11.0572C27.8851 11.3072 28 11.6464 28 12C28 12.3536 27.8851 12.6928 27.6805 12.9428C27.4759 13.1929 27.1984 13.3333 26.9091 13.3333H5.09091C4.80158 13.3333 4.52411 13.1929 4.31952 12.9428C4.11493 12.6928 4 12.3536 4 12ZM4 1.33333C4 0.979711 4.11493 0.640573 4.31952 0.390525C4.52411 0.140476 4.80158 0 5.09091 0H26.9091C27.1984 0 27.4759 0.140476 27.6805 0.390525C27.8851 0.640573 28 0.979711 28 1.33333C28 1.68696 27.8851 2.02609 27.6805 2.27614C27.4759 2.52619 27.1984 2.66667 26.9091 2.66667H5.09091C4.80158 2.66667 4.52411 2.52619 4.31952 2.27614C4.11493 2.02609 4 1.68696 4 1.33333Z" fill="#F5F5F5"/>
</g>
<defs>
<filter id="filter0_d_481_512" x="0" y="0" width="32" height="32" filterUnits="userSpaceOnUse" color-interpolation-filters="sRGB">
<feFlood flood-opacity="0" result="BackgroundImageFix"/>
<feColorMatrix in="SourceAlpha" type="matrix" values="0 0 0 0 0 0 0 0 0 0 0 0 0 0 0 0 0 0 127 0" result="hardAlpha"/>
<feOffset dy="4"/>
<feGaussianBlur stdDeviation="2"/>
<feComposite in2="hardAlpha" operator="out"/>
<feColorMatrix type="matrix" values="0 0 0 0 0 0 0 0 0 0 0 0 0 0 0 0 0 0 0.25 0"/>
<feBlend mode="normal" in2="BackgroundImageFix" result="effect1_dropShadow_481_512"/>
<feBlend mode="normal" in="SourceGraphic" in2="effect1_dropShadow_481_512" result="shape"/>
</filter>
</defs>
</svg>
