<svg width="24" height="24" viewBox="0 0 24 24" fill="none" xmlns="http://www.w3.org/2000/svg">
<path d="M12.279 1.56188C12.0999 1.48977 11.9001 1.48977 11.721 1.56188L2.769 5.15966L6.375 6.60812L15.606 2.8988L12.279 1.56188ZM17.625 3.71121L8.394 7.42053L12 8.86898L21.231 5.15966L17.625 3.71121ZM22.5 6.27351L12.75 10.1923V22.1327L22.5 18.2139V6.27351ZM11.25 22.1342V10.1908L1.5 6.27351V18.2154L11.25 22.1342ZM11.1645 0.161652C11.7008 -0.0538841 12.2992 -0.0538841 12.8355 0.161652L23.529 4.4603C23.668 4.51629 23.7872 4.61283 23.8711 4.73747C23.9551 4.86211 24 5.00916 24 5.15966V18.2154C23.9998 18.5166 23.9098 18.8108 23.7417 19.0601C23.5735 19.3094 23.3348 19.5024 23.0565 19.6141L12.279 23.9459C12.0999 24.018 11.9001 24.018 11.721 23.9459L0.945 19.6141C0.666377 19.5026 0.427414 19.3097 0.258963 19.0604C0.0905126 18.8111 0.000309494 18.5167 0 18.2154L0 5.15966C3.48599e-05 5.00916 0.0449156 4.86211 0.128861 4.73747C0.212805 4.61283 0.331969 4.51629 0.471 4.4603L11.1645 0.161652Z" fill="#F5F5F5"/>
</svg>
