<svg width="27" height="27" viewBox="0 0 27 27" fill="none" xmlns="http://www.w3.org/2000/svg">
<path d="M2.01318 7.8042L13.4926 14.1932L24.8941 7.84167" stroke="white" stroke-linecap="round" stroke-linejoin="round"/>
<path d="M13.4927 25.5215V14.1812" stroke="white" stroke-linecap="round" stroke-linejoin="round"/>
<path d="M1 9.96786C1 8.24243 2.28704 6.14194 3.8601 5.30423L10.8024 1.59077C12.2844 0.803076 14.7155 0.803076 16.1976 1.59077L23.1399 5.30423C24.7129 6.14194 26 8.24243 26 9.96786V17.0322C26 18.7576 24.7129 20.8581 23.1399 21.6958L16.1976 25.4092C14.7155 26.1969 12.2844 26.1969 10.8024 25.4092L3.8601 21.6958C2.28704 20.8581 1 18.7576 1 17.0322V16.0069" stroke="white" stroke-linecap="round" stroke-linejoin="round"/>
<path d="M19.9928 15.0567V10.4807L12.1014 6.09205L10.7364 5.34182L7.65527 3.62891" stroke="white" stroke-linecap="round" stroke-linejoin="round"/>
</svg>
