<svg width="72" height="72" viewBox="0 0 72 72" fill="none" xmlns="http://www.w3.org/2000/svg">
<path d="M49.4743 18.083C49.2216 15.5353 49.2718 13.1801 49.8758 10.9538C50.1799 9.83953 50.6238 8.75377 51.2503 7.68066C51.8794 6.60502 52.6937 5.54189 53.7493 4.48636L55.4828 2.75273L52.7313 0L50.9965 1.73236C49.3717 3.357 48.1761 5.06799 47.343 6.84267C46.0873 9.5092 45.657 12.312 45.6882 15.1173C45.7145 17.9252 46.181 20.7481 46.7178 23.5835C47.0679 25.4308 47.3705 27.2081 47.5394 28.9053C47.7933 31.453 47.7421 33.8095 47.1367 36.0345C46.834 37.1476 46.3899 38.2344 45.7622 39.3088C45.133 40.3831 44.3188 41.445 43.2632 42.5007V42.5019H43.2645L42.5027 43.2636C42.2989 43.4662 42.0974 43.6601 41.8911 43.8465L29.4263 31.3819C28.8109 32.0597 28.2917 32.7527 27.849 33.4793L39.8212 45.4499C39.2922 45.7876 38.7617 46.0801 38.2278 46.3303C37.6361 46.6093 37.0396 46.8381 36.4317 47.0208L26.3957 36.9851C26.1555 37.992 26.0267 39.0713 26.003 40.2694L33.3447 47.6099C32.707 47.6661 32.0566 47.6861 31.3924 47.6824C29.9052 47.6675 28.3544 47.5097 26.7359 47.2635C26.8034 47.6336 26.8685 47.9888 26.9348 48.3353C27.0961 49.1745 27.2561 50.0563 27.4038 50.9681C27.9578 51.0458 28.5094 51.1107 29.0609 51.1657C31.8739 51.4447 34.6918 51.4108 37.4384 50.6654C38.8118 50.294 40.1589 49.7423 41.4659 48.9769C42.7716 48.2127 44.0398 47.2334 45.2556 46.0177L46.016 45.2548C47.6408 43.6326 48.8352 41.9205 49.6719 40.1445C50.9265 37.4778 51.3554 34.6776 51.3267 31.871C51.2979 29.0631 50.8325 26.2389 50.2973 23.4048C49.9446 21.5561 49.6431 19.7802 49.4743 18.083Z" fill="#3B2369"/>
<path d="M69.2474 16.5187L67.515 18.2509C67.3099 18.4548 67.1085 18.6487 66.9034 18.8338L54.4373 6.36792C53.8231 7.04714 53.3041 7.74126 52.8612 8.46534L64.8321 20.4373C64.303 20.7762 63.7751 21.0676 63.2399 21.3178C62.6482 21.5966 62.0504 21.8254 61.4439 22.0081L51.408 11.9737C51.1678 12.9791 51.039 14.0586 51.0165 15.2567L58.357 22.5972C57.7191 22.6547 57.0688 22.6735 56.4045 22.6697C54.9175 22.6559 53.3665 22.4972 51.748 22.2495C51.8155 22.6198 51.8792 22.9776 51.948 23.3239C52.1069 24.163 52.2671 25.0435 52.4159 25.9554C52.9699 26.0329 53.5202 26.098 54.0718 26.1532C56.886 26.4319 59.7052 26.3994 62.4494 25.6528C63.8226 25.2814 65.171 24.731 66.478 23.9645C67.7824 23.2016 69.0508 22.2209 70.2689 21.0039L72 19.2704L69.2474 16.5187Z" fill="#23693B"/>
<path d="M19.1388 63.5351L7.16908 51.5658C7.69573 51.2243 8.22604 50.9317 8.76 50.6828C9.35289 50.4038 9.94943 50.1737 10.5561 49.9923L20.592 60.0282C20.8322 59.0226 20.961 57.9419 20.9835 56.7437L13.6456 49.4058C14.2834 49.3495 14.9326 49.3258 15.5966 49.3307C17.0825 49.3445 18.6348 49.5058 20.2495 49.7523C20.1845 49.3809 20.1195 49.0219 20.0531 48.6766C19.8931 47.8387 19.7342 46.9557 19.5854 46.0439C19.0325 45.9713 18.4823 45.9051 17.9306 45.8499C15.1151 45.5673 12.2948 45.5998 9.54935 46.3465C8.18118 46.7218 6.82904 47.2721 5.52204 48.0362C4.21758 48.7991 2.94925 49.7784 1.73226 50.9967L0 52.7289L2.75293 55.483L4.48519 53.7495C4.6891 53.5456 4.89301 53.3519 5.09819 53.1667L17.5643 65.6314C18.177 64.9536 18.6985 64.2594 19.1388 63.5351Z" fill="#3B2369"/>
<path d="M24.462 43.0959C24.2105 40.5483 24.2593 38.1919 24.8635 35.9682C25.1674 34.8513 25.6102 33.767 26.2392 32.6926C26.867 31.6182 27.6825 30.554 28.7382 29.4983L29.4998 28.7378L29.4986 28.7354C29.7012 28.5315 29.9051 28.3388 30.1114 28.1549L42.5751 40.6183C43.1893 39.9404 43.7108 39.245 44.1499 38.5222L32.1802 26.5529C32.708 26.2115 33.2395 25.9187 33.7724 25.6698C34.3653 25.3922 34.9618 25.1607 35.5685 24.9793L45.6044 35.0139C45.8459 34.0083 45.9734 32.9301 45.9959 31.732L38.6578 24.3928C39.2944 24.3365 39.9448 24.3127 40.6089 24.3191C42.0936 24.3328 43.647 24.4941 45.2617 24.7381C45.1967 24.3679 45.1318 24.0101 45.0654 23.6637C44.9053 22.8245 44.7452 21.9439 44.5976 21.0322C44.046 20.9571 43.4946 20.891 42.9429 20.8359C40.1262 20.5557 37.3071 20.5883 34.5616 21.3349C33.1933 21.7088 31.8413 22.2592 30.5343 23.0233C29.2298 23.7875 27.9615 24.7655 26.7445 25.9838L26.7458 25.985L25.9841 26.7467C24.3607 28.37 23.165 30.081 22.3306 31.8571C21.0749 34.5237 20.6446 37.3252 20.6758 40.1293C20.7023 42.9384 21.1686 45.7625 21.704 48.5967C22.0554 50.4441 22.358 52.2212 22.5269 53.9172C22.7795 56.4675 22.7296 58.8213 22.1242 61.0475C21.8215 62.1607 21.3774 63.2474 20.7508 64.322C20.1216 65.3963 19.3049 66.4569 18.2506 67.5139L16.5183 69.2473L19.2701 71.9999L21.0049 70.2677C22.6283 68.6443 23.8241 66.9321 24.6595 65.1573C25.9141 62.4907 26.3443 59.6905 26.3143 56.8839C26.2855 54.0747 25.819 51.2531 25.2837 48.419C24.9322 46.5703 24.6307 44.7943 24.462 43.0959Z" fill="#23693B"/>
</svg>
