<svg width="13" height="17" viewBox="0 0 13 17" fill="none" xmlns="http://www.w3.org/2000/svg">
<path d="M3.79167 7.4375C3.64801 7.4375 3.51023 7.49347 3.40865 7.5931C3.30707 7.69273 3.25 7.82785 3.25 7.96875C3.25 8.10965 3.30707 8.24477 3.40865 8.3444C3.51023 8.44403 3.64801 8.5 3.79167 8.5H9.20833C9.35199 8.5 9.48977 8.44403 9.59135 8.3444C9.69293 8.24477 9.75 8.10965 9.75 7.96875C9.75 7.82785 9.69293 7.69273 9.59135 7.5931C9.48977 7.49347 9.35199 7.4375 9.20833 7.4375H3.79167ZM3.25 10.0938C3.25 9.95285 3.30707 9.81773 3.40865 9.7181C3.51023 9.61847 3.64801 9.5625 3.79167 9.5625H9.20833C9.35199 9.5625 9.48977 9.61847 9.59135 9.7181C9.69293 9.81773 9.75 9.95285 9.75 10.0938C9.75 10.2346 9.69293 10.3698 9.59135 10.4694C9.48977 10.569 9.35199 10.625 9.20833 10.625H3.79167C3.64801 10.625 3.51023 10.569 3.40865 10.4694C3.30707 10.3698 3.25 10.2346 3.25 10.0938ZM3.25 12.2188C3.25 12.0779 3.30707 11.9427 3.40865 11.8431C3.51023 11.7435 3.64801 11.6875 3.79167 11.6875H5.95833C6.10199 11.6875 6.23977 11.7435 6.34135 11.8431C6.44293 11.9427 6.5 12.0779 6.5 12.2188C6.5 12.3596 6.44293 12.4948 6.34135 12.5944C6.23977 12.694 6.10199 12.75 5.95833 12.75H3.79167C3.64801 12.75 3.51023 12.694 3.40865 12.5944C3.30707 12.4948 3.25 12.3596 3.25 12.2188Z" fill="#2D8B6F"/>
<path d="M8.125 0H2.16667C1.59203 0 1.04093 0.223883 0.634602 0.622398C0.228273 1.02091 0 1.56141 0 2.125V14.875C0 15.4386 0.228273 15.9791 0.634602 16.3776C1.04093 16.7761 1.59203 17 2.16667 17H10.8333C11.408 17 11.9591 16.7761 12.3654 16.3776C12.7717 15.9791 13 15.4386 13 14.875V4.78125L8.125 0ZM8.125 1.0625V3.1875C8.125 3.61019 8.2962 4.01557 8.60095 4.31445C8.9057 4.61334 9.31902 4.78125 9.75 4.78125H11.9167V14.875C11.9167 15.1568 11.8025 15.427 11.5994 15.6263C11.3962 15.8256 11.1207 15.9375 10.8333 15.9375H2.16667C1.87935 15.9375 1.6038 15.8256 1.40063 15.6263C1.19747 15.427 1.08333 15.1568 1.08333 14.875V2.125C1.08333 1.84321 1.19747 1.57296 1.40063 1.3737C1.6038 1.17444 1.87935 1.0625 2.16667 1.0625H8.125Z" fill="#2D8B6F"/>
</svg>
