<svg width="38" height="49" viewBox="0 0 38 49" fill="none" xmlns="http://www.w3.org/2000/svg">
<path d="M38 13.7812V42.875C38 44.4995 37.3327 46.0574 36.145 47.206C34.9573 48.3547 33.3464 49 31.6667 49H6.33333C4.65363 49 3.04272 48.3547 1.85499 47.206C0.66726 46.0574 0 44.4995 0 42.875V6.125C0 4.50055 0.66726 2.94263 1.85499 1.79397C3.04272 0.645311 4.65363 0 6.33333 0L23.75 0L38 13.7812ZM28.5 13.7812C27.2402 13.7812 26.032 13.2973 25.1412 12.4358C24.2504 11.5743 23.75 10.4058 23.75 9.1875V3.0625H6.33333C5.49348 3.0625 4.68803 3.38516 4.09416 3.95949C3.5003 4.53382 3.16667 5.31277 3.16667 6.125V42.875C3.16667 43.6872 3.5003 44.4662 4.09416 45.0405C4.68803 45.6148 5.49348 45.9375 6.33333 45.9375H31.6667C32.5065 45.9375 33.312 45.6148 33.9058 45.0405C34.4997 44.4662 34.8333 43.6872 34.8333 42.875V13.7812H28.5Z" fill="#23693B"/>
<path d="M7.91675 38.2812C7.91675 37.8751 8.08356 37.4857 8.3805 37.1985C8.67743 36.9113 9.08016 36.75 9.50008 36.75H19.0001C19.42 36.75 19.8227 36.9113 20.1197 37.1985C20.4166 37.4857 20.5834 37.8751 20.5834 38.2812C20.5834 38.6874 20.4166 39.0768 20.1197 39.364C19.8227 39.6512 19.42 39.8125 19.0001 39.8125H9.50008C9.08016 39.8125 8.67743 39.6512 8.3805 39.364C8.08356 39.0768 7.91675 38.6874 7.91675 38.2812ZM7.91675 32.1562C7.91675 31.7501 8.08356 31.3607 8.3805 31.0735C8.67743 30.7863 9.08016 30.625 9.50008 30.625H28.5001C28.92 30.625 29.3227 30.7863 29.6197 31.0735C29.9166 31.3607 30.0834 31.7501 30.0834 32.1562C30.0834 32.5624 29.9166 32.9518 29.6197 33.239C29.3227 33.5262 28.92 33.6875 28.5001 33.6875H9.50008C9.08016 33.6875 8.67743 33.5262 8.3805 33.239C8.08356 32.9518 7.91675 32.5624 7.91675 32.1562ZM13.1069 20.8005L17.3186 23.5139L23.1896 17.8329C23.3071 17.7189 23.4588 17.6437 23.6231 17.6178C23.7874 17.592 23.9559 17.6169 24.1047 17.689L30.0834 20.6719V26.0312C30.0834 26.4374 29.9166 26.8268 29.6197 27.114C29.3227 27.4012 28.92 27.5625 28.5001 27.5625H9.50008C9.08016 27.5625 8.67743 27.4012 8.3805 27.114C8.08356 26.8268 7.91675 26.4374 7.91675 26.0312V24.5C7.91675 24.5 12.7934 20.5984 13.1069 20.8005ZM13.4584 18.375C14.0883 18.375 14.6924 18.133 15.1378 17.7023C15.5832 17.2715 15.8334 16.6873 15.8334 16.0781C15.8334 15.469 15.5832 14.8847 15.1378 14.454C14.6924 14.0232 14.0883 13.7813 13.4584 13.7812C12.8285 13.7813 12.2244 14.0232 11.779 14.454C11.3336 14.8847 11.0834 15.469 11.0834 16.0781C11.0834 16.6873 11.3336 17.2715 11.779 17.7023C12.2244 18.133 12.8285 18.375 13.4584 18.375Z" fill="#3B2369"/>
</svg>
