<svg width="38" height="49" viewBox="0 0 38 49" fill="none" xmlns="http://www.w3.org/2000/svg">
<path d="M38 13.7812V42.875C38 44.4995 37.3327 46.0574 36.145 47.206C34.9573 48.3547 33.3464 49 31.6667 49H6.33333C4.65363 49 3.04272 48.3547 1.85499 47.206C0.66726 46.0574 0 44.4995 0 42.875V6.125C0 4.50055 0.66726 2.94263 1.85499 1.79397C3.04272 0.645311 4.65363 0 6.33333 0L23.75 0L38 13.7812ZM28.5 13.7812C27.2402 13.7812 26.032 13.2973 25.1412 12.4358C24.2504 11.5743 23.75 10.4058 23.75 9.1875V3.0625H6.33333C5.49348 3.0625 4.68803 3.38516 4.09416 3.95949C3.5003 4.53382 3.16667 5.31277 3.16667 6.125V42.875C3.16667 43.6872 3.5003 44.4662 4.09416 45.0405C4.68803 45.6148 5.49348 45.9375 6.33333 45.9375H31.6667C32.5065 45.9375 33.312 45.6148 33.9058 45.0405C34.4997 44.4662 34.8333 43.6872 34.8333 42.875V13.7812H28.5Z" fill="#00B37E"/>
<path d="M7.9165 38.2812C7.9165 37.8751 8.08332 37.4857 8.38025 37.1985C8.67718 36.9113 9.07991 36.75 9.49984 36.75H18.9998C19.4198 36.75 19.8225 36.9113 20.1194 37.1985C20.4164 37.4857 20.5832 37.8751 20.5832 38.2812C20.5832 38.6874 20.4164 39.0768 20.1194 39.364C19.8225 39.6512 19.4198 39.8125 18.9998 39.8125H9.49984C9.07991 39.8125 8.67718 39.6512 8.38025 39.364C8.08332 39.0768 7.9165 38.6874 7.9165 38.2812ZM7.9165 32.1562C7.9165 31.7501 8.08332 31.3607 8.38025 31.0735C8.67718 30.7863 9.07991 30.625 9.49984 30.625H28.4998C28.9198 30.625 29.3225 30.7863 29.6194 31.0735C29.9164 31.3607 30.0832 31.7501 30.0832 32.1562C30.0832 32.5624 29.9164 32.9518 29.6194 33.239C29.3225 33.5262 28.9198 33.6875 28.4998 33.6875H9.49984C9.07991 33.6875 8.67718 33.5262 8.38025 33.239C8.08332 32.9518 7.9165 32.5624 7.9165 32.1562ZM13.1067 20.8005L17.3183 23.5139L23.1893 17.8329C23.3069 17.7189 23.4586 17.6437 23.6229 17.6178C23.7871 17.592 23.9557 17.6169 24.1045 17.689L30.0832 20.6719V26.0312C30.0832 26.4374 29.9164 26.8268 29.6194 27.114C29.3225 27.4012 28.9198 27.5625 28.4998 27.5625H9.49984C9.07991 27.5625 8.67718 27.4012 8.38025 27.114C8.08332 26.8268 7.9165 26.4374 7.9165 26.0312V24.5C7.9165 24.5 12.7932 20.5984 13.1067 20.8005ZM13.4582 18.375C14.0881 18.375 14.6922 18.133 15.1375 17.7023C15.5829 17.2715 15.8332 16.6873 15.8332 16.0781C15.8332 15.469 15.5829 14.8847 15.1375 14.454C14.6922 14.0232 14.0881 13.7813 13.4582 13.7812C12.8283 13.7813 12.2242 14.0232 11.7788 14.454C11.3334 14.8847 11.0832 15.469 11.0832 16.0781C11.0832 16.6873 11.3334 17.2715 11.7788 17.7023C12.2242 18.133 12.8283 18.375 13.4582 18.375Z" fill="#8D6FC5"/>
</svg>
