<svg width="12" height="12" viewBox="0 0 12 12" fill="none" xmlns="http://www.w3.org/2000/svg">
<path d="M7.42326 12C7.23907 12 7.06605 11.8753 7.01581 11.6826C6.95442 11.4558 7.08837 11.2234 7.31721 11.1611C9.58326 10.5546 11.1628 8.46859 11.1628 6.08786C11.1628 3.19698 8.84651 0.844591 6 0.844591C3.58326 0.844591 1.99814 2.2787 1.25581 3.14596H2.89674C3.12558 3.14596 3.31535 3.33869 3.31535 3.57109C3.31535 3.8035 3.13116 4.00189 2.89674 4.00189H0.424186C0.396279 4.00189 0.346047 3.99622 0.306977 3.98488C0.256744 3.96788 0.212093 3.94521 0.173023 3.91686C0.122791 3.88285 0.0837209 3.83751 0.055814 3.78649C0.027907 3.73547 0.0055814 3.67312 0 3.61077C0 3.59376 0 3.58243 0 3.56542V0.99197C0 0.759565 0.189767 0.56684 0.418605 0.56684C0.647442 0.56684 0.837209 0.759565 0.837209 0.99197V2.34672C1.74698 1.35475 3.46047 0 6 0C9.30977 0 12 2.73217 12 6.09353C12 8.85971 10.1637 11.2858 7.5293 11.9887C7.49581 11.9943 7.45674 12 7.42326 12Z" fill="#DC0505"/>
<path d="M5.60372 12C5.59256 12 5.58139 11.9954 5.57581 11.9954C4.97302 11.9628 4.3814 11.851 3.82326 11.6695C3.6614 11.6183 3.54977 11.4833 3.55535 11.3389C3.55535 11.297 3.56651 11.2551 3.58326 11.2179C3.66698 11.041 3.91814 10.9525 4.12465 11.0177C4.61023 11.176 5.11814 11.2691 5.63163 11.3017C5.8493 11.311 6.02233 11.4693 6.02233 11.6555L6.01674 11.6741C6.00558 11.8557 5.82139 12 5.60372 12ZM2.52837 10.9991C2.43349 10.9991 2.34419 10.9712 2.26605 10.9246C1.79721 10.608 1.38419 10.2402 1.0493 9.83056C0.99907 9.77004 0.971163 9.70487 0.971163 9.63503C0.971163 9.51865 1.03814 9.41157 1.15535 9.34639C1.33953 9.23932 1.60744 9.28122 1.73581 9.43019V9.43485C1.7414 9.4395 1.74698 9.44881 1.75256 9.45347C2.04279 9.80263 2.39442 10.1145 2.7907 10.3753C2.88558 10.4404 2.94698 10.5382 2.94698 10.6453C2.94698 10.7244 2.91907 10.8036 2.85767 10.8687C2.77395 10.9525 2.65674 10.9991 2.52837 10.9991ZM0.664186 8.72721C0.48 8.72721 0.31814 8.62945 0.267907 8.48513C0.0893023 8.00561 0 7.50747 0 7.00468V7.00002C0.00558139 6.80915 0.189767 6.65552 0.418605 6.65552C0.647442 6.65552 0.837209 6.8138 0.837209 7.00468C0.837209 7.4423 0.915349 7.8706 1.06605 8.27563C1.07721 8.31287 1.08279 8.34546 1.08279 8.38271C1.08279 8.53168 0.965581 8.66669 0.786977 8.71325C0.747907 8.72256 0.708837 8.72721 0.664186 8.72721Z" fill="#DC0505"/>
</svg>
