<svg width="8" height="8" viewBox="0 0 8 8" fill="none" xmlns="http://www.w3.org/2000/svg">
<path d="M3.98334 5.99999C4.1 5.99999 4.19862 5.95971 4.27917 5.87916C4.35973 5.7986 4.4 5.69999 4.4 5.58332C4.4 5.46666 4.35973 5.36805 4.27917 5.28749C4.19862 5.20693 4.1 5.16666 3.98334 5.16666C3.86667 5.16666 3.76806 5.20693 3.68751 5.28749C3.60695 5.36805 3.56667 5.46666 3.56667 5.58332C3.56667 5.69999 3.60695 5.7986 3.68751 5.87916C3.76806 5.95971 3.86667 5.99999 3.98334 5.99999ZM3.68334 4.71666H4.3C4.3 4.53332 4.32084 4.38888 4.3625 4.28332C4.40417 4.17777 4.52223 4.03332 4.71667 3.84999C4.86112 3.70555 4.975 3.56805 5.05834 3.43749C5.14167 3.30693 5.18334 3.14999 5.18334 2.96666C5.18334 2.65555 5.06945 2.41666 4.84167 2.24999C4.61389 2.08332 4.34445 1.99999 4.03334 1.99999C3.71667 1.99999 3.45973 2.08332 3.2625 2.24999C3.06528 2.41666 2.92778 2.61666 2.85 2.84999L3.4 3.06666C3.42778 2.96666 3.49028 2.85832 3.5875 2.74166C3.68473 2.62499 3.83334 2.56666 4.03334 2.56666C4.21112 2.56666 4.34445 2.61527 4.43334 2.71249C4.52223 2.80971 4.56667 2.91666 4.56667 3.03332C4.56667 3.14443 4.53334 3.2486 4.46667 3.34582C4.40001 3.44305 4.31667 3.53332 4.21667 3.61666C3.97223 3.83332 3.82223 3.99721 3.76667 4.10832C3.71112 4.21943 3.68334 4.42221 3.68334 4.71666ZM4 7.33332C3.53889 7.33332 3.10556 7.24582 2.7 7.07082C2.29445 6.89582 1.94167 6.65832 1.64167 6.35832C1.34167 6.05832 1.10417 5.70555 0.929172 5.29999C0.754172 4.89443 0.666672 4.4611 0.666672 3.99999C0.666672 3.53888 0.754172 3.10555 0.929172 2.69999C1.10417 2.29443 1.34167 1.94166 1.64167 1.64166C1.94167 1.34166 2.29445 1.10416 2.7 0.929156C3.10556 0.754156 3.53889 0.666656 4 0.666656C4.46112 0.666656 4.89445 0.754156 5.3 0.929156C5.70556 1.10416 6.05834 1.34166 6.35834 1.64166C6.65834 1.94166 6.89584 2.29443 7.07084 2.69999C7.24584 3.10555 7.33334 3.53888 7.33334 3.99999C7.33334 4.4611 7.24584 4.89443 7.07084 5.29999C6.89584 5.70555 6.65834 6.05832 6.35834 6.35832C6.05834 6.65832 5.70556 6.89582 5.3 7.07082C4.89445 7.24582 4.46112 7.33332 4 7.33332ZM4 6.66666C4.74445 6.66666 5.375 6.40832 5.89167 5.89166C6.40834 5.37499 6.66667 4.74443 6.66667 3.99999C6.66667 3.25555 6.40834 2.62499 5.89167 2.10832C5.375 1.59166 4.74445 1.33332 4 1.33332C3.25556 1.33332 2.62501 1.59166 2.10834 2.10832C1.59167 2.62499 1.33334 3.25555 1.33334 3.99999C1.33334 4.74443 1.59167 5.37499 2.10834 5.89166C2.62501 6.40832 3.25556 6.66666 4 6.66666Z" fill="#777777"/>
</svg>
