<svg width="13" height="13" viewBox="0 0 13 13" fill="none" xmlns="http://www.w3.org/2000/svg">
<path d="M9.38749 5.49904V6.94554C9.38749 7.03904 9.38199 7.12704 9.37099 7.21504C9.28849 8.18854 8.71099 8.67254 7.65499 8.67254H7.51199C7.42399 8.67254 7.33599 8.71654 7.28099 8.78804L6.84649 9.36554C6.65399 9.62404 6.34599 9.62404 6.15349 9.36554L5.71899 8.78804C5.66949 8.72754 5.56499 8.67254 5.48799 8.67254H5.34498C4.18998 8.67254 3.61249 8.38654 3.61249 6.94004V5.49354C3.61249 4.43756 4.10198 3.86005 5.06998 3.77755C5.15798 3.76655 5.24599 3.76105 5.33949 3.76105H7.64949C8.80999 3.77205 9.38749 4.34955 9.38749 5.49904Z" stroke="white" stroke-width="1.12551" stroke-miterlimit="10" stroke-linecap="round" stroke-linejoin="round"/>
<path d="M2.1 3.2C1.4125 4.1185 1 5.2625 1 6.5C1 9.536 3.464 12 6.5 12C9.536 12 12 9.536 12 6.5C12 3.464 9.536 1 6.5 1C5.7135 1 4.96 1.16501 4.2835 1.46751" stroke="white" stroke-width="1.12551" stroke-linecap="round" stroke-linejoin="round"/>
</svg>
