<svg width="22" height="22" viewBox="0 0 22 22" fill="none" xmlns="http://www.w3.org/2000/svg">
<path d="M20.8421 9.009H17.4958C14.7516 9.009 12.5168 6.886 12.5168 4.279V1.1C12.5168 0.495 11.9958 0 11.3589 0H6.44947C2.88316 0 0 2.2 0 6.127V15.873C0 19.8 2.88316 22 6.44947 22H15.5505C19.1168 22 22 19.8 22 15.873V10.109C22 9.504 21.4789 9.009 20.8421 9.009ZM11.3242 15.158L9.00842 17.358C8.92737 17.435 8.82316 17.501 8.71895 17.534C8.61474 17.578 8.51053 17.6 8.39474 17.6C8.27895 17.6 8.17474 17.578 8.07053 17.534C7.9779 17.501 7.88526 17.435 7.81579 17.369C7.80421 17.358 7.79263 17.358 7.79263 17.347L5.47684 15.147C5.14105 14.828 5.14105 14.3 5.47684 13.981C5.81263 13.662 6.36842 13.662 6.70421 13.981L7.52632 14.784V10.175C7.52632 9.724 7.92 9.35 8.39474 9.35C8.86947 9.35 9.26316 9.724 9.26316 10.175V14.784L10.0968 13.992C10.4326 13.673 10.9884 13.673 11.3242 13.992C11.66 14.311 11.66 14.839 11.3242 15.158Z" fill="#B9B9B9"/>
<path d="M17.2871 7.49143C18.3871 7.50243 19.9155 7.50243 21.2239 7.50243C21.8839 7.50243 22.2313 6.76543 21.7681 6.32543C20.1008 4.73043 17.1134 1.85943 15.3997 0.231432C14.925 -0.219568 14.1029 0.0884319 14.1029 0.715432V4.55443C14.1029 6.16043 15.5387 7.49143 17.2871 7.49143Z" fill="#B9B9B9"/>
</svg>
