<svg width="22" height="22" viewBox="0 0 22 22" fill="none" xmlns="http://www.w3.org/2000/svg">
<path opacity="0.4" d="M10.4484 20.8969C16.2189 20.8969 20.8969 16.2189 20.8969 10.4484C20.8969 4.67792 16.2189 0 10.4484 0C4.67792 0 0 4.67792 0 10.4484C0 16.2189 4.67792 20.8969 10.4484 20.8969Z" fill="#B9B9B9"/>
<path d="M21.2275 21.9966C21.0295 21.9966 20.8315 21.9197 20.6885 21.7767L18.6429 19.731C18.3459 19.434 18.3459 18.9501 18.6429 18.6422C18.9398 18.3452 19.4237 18.3452 19.7317 18.6422L21.7774 20.6878C22.0743 20.9848 22.0743 21.4687 21.7774 21.7767C21.6234 21.9197 21.4254 21.9966 21.2275 21.9966Z" fill="#B9B9B9"/>
<path d="M13.4172 9.84339H11.4925V7.91863C11.4925 7.46769 11.1185 7.09375 10.6676 7.09375C10.2167 7.09375 9.84274 7.46769 9.84274 7.91863V9.84339H7.91805C7.46711 9.84339 7.09317 10.2173 7.09317 10.6683C7.09317 11.1192 7.46711 11.4931 7.91805 11.4931H9.84274V13.4179C9.84274 13.8688 10.2167 14.2427 10.6676 14.2427C11.1185 14.2427 11.4925 13.8688 11.4925 13.4179V11.4931H13.4172C13.8681 11.4931 14.2421 11.1192 14.2421 10.6683C14.2421 10.2173 13.8681 9.84339 13.4172 9.84339Z" fill="#B9B9B9"/>
</svg>
