<svg width="292" height="63" viewBox="0 0 292 63" fill="none" xmlns="http://www.w3.org/2000/svg">
<rect width="292" height="58" rx="2" fill="#3A6332"/>
<g filter="url(#filter0_d_116_58)">
<path d="M55 29C55 42.2548 43.8071 53 30 53C16.1929 53 5 42.2548 5 29C5 15.7452 16.1929 5 30 5C43.8071 5 55 15.7452 55 29Z" fill="white"/>
</g>
<g filter="url(#filter1_d_116_58)">
<path d="M8.7064 29.174C8.42086 29.5743 8.51581 30.1277 8.91846 30.4099L28.9236 44.4325C29.3263 44.7147 29.8842 44.619 30.1697 44.2187V44.2187C30.4552 43.8183 30.3603 43.265 29.9576 42.9828L9.9525 28.9602C9.54984 28.6779 8.99194 28.7737 8.7064 29.174V29.174Z" fill="#3A6332"/>
</g>
<g filter="url(#filter2_d_116_58)">
<rect width="12.48" height="1.7807" rx="0.890352" transform="matrix(0.818867 0.573983 0.580689 -0.814125 19.3612 16.7582)" fill="#3A6332"/>
</g>
<g filter="url(#filter3_d_116_58)">
<rect width="19.9786" height="1.7807" rx="0.890352" transform="matrix(0.818867 0.573983 0.580689 -0.814125 13.5554 23.3837)" fill="#3A6332"/>
</g>
<g filter="url(#filter4_d_116_58)">
<rect width="12.3914" height="1.7807" rx="0.890352" transform="matrix(0.818867 -0.573983 0.580689 0.814125 29 21.1125)" fill="#3A6332"/>
</g>
<g filter="url(#filter5_d_116_58)">
<path d="M29.517 32.7249C29.2315 32.3245 29.3264 31.7712 29.7291 31.489L44.4659 21.1592C44.8685 20.877 45.4264 20.9727 45.712 21.373V21.373C45.9975 21.7734 45.9026 22.3267 45.4999 22.6089L30.7631 32.9387C30.3605 33.2209 29.8026 33.1252 29.517 32.7249V32.7249Z" fill="#3A6332"/>
</g>
<g filter="url(#filter6_d_116_58)">
<rect x="29" y="9" width="2" height="42" rx="1" fill="#3A6332"/>
</g>
<g filter="url(#filter7_d_116_58)">
<path d="M29.9622 43.0096C29.6767 42.6093 29.7716 42.056 30.1743 41.7737L49.7369 28.0614C50.1395 27.7791 50.6974 27.8748 50.983 28.2752V28.2752C51.2685 28.6755 51.1736 29.2288 50.7709 29.5111L31.2083 43.2235C30.8056 43.5057 30.2477 43.41 29.9622 43.0096V43.0096Z" fill="#3A6332"/>
</g>
<g filter="url(#filter8_d_116_58)">
<path d="M81.944 10.344C81.8587 11.1547 81.7947 11.944 81.752 12.712C81.7307 13.4587 81.72 14.0347 81.72 14.44C81.72 14.952 81.7307 15.432 81.752 15.88C81.7733 16.328 81.7947 16.7227 81.816 17.064H81.08C80.9307 15.5707 80.728 14.3973 80.472 13.544C80.216 12.6693 79.768 12.04 79.128 11.656C78.488 11.272 77.496 11.08 76.152 11.08H74.424V29.288C74.424 30.1413 74.4987 30.7813 74.648 31.208C74.8187 31.6347 75.1387 31.9227 75.608 32.072C76.0773 32.2213 76.76 32.3173 77.656 32.36V33C77.1013 32.9573 76.3973 32.936 75.544 32.936C74.6907 32.9147 73.8267 32.904 72.952 32.904C71.992 32.904 71.0853 32.9147 70.232 32.936C69.4 32.936 68.728 32.9573 68.216 33V32.36C69.112 32.3173 69.7947 32.2213 70.264 32.072C70.7333 31.9227 71.0427 31.6347 71.192 31.208C71.3627 30.7813 71.448 30.1413 71.448 29.288V11.08H69.72C68.3973 11.08 67.4053 11.272 66.744 11.656C66.104 12.04 65.656 12.6693 65.4 13.544C65.144 14.3973 64.9413 15.5707 64.792 17.064H64.056C64.0987 16.7227 64.12 16.328 64.12 15.88C64.1413 15.432 64.152 14.952 64.152 14.44C64.152 14.0347 64.1307 13.4587 64.088 12.712C64.0667 11.944 64.0133 11.1547 63.928 10.344C64.824 10.3653 65.7947 10.3867 66.84 10.408C67.9067 10.4293 68.9733 10.44 70.04 10.44C71.1067 10.44 72.0773 10.44 72.952 10.44C73.8267 10.44 74.7867 10.44 75.832 10.44C76.8987 10.44 77.9653 10.4293 79.032 10.408C80.0987 10.3867 81.0693 10.3653 81.944 10.344ZM100.187 10.344C100.102 11.0907 100.038 11.816 99.995 12.52C99.9737 13.224 99.963 13.7573 99.963 14.12C99.963 14.504 99.9737 14.8773 99.995 15.24C100.016 15.5813 100.038 15.8693 100.059 16.104H99.323C99.195 14.8453 99.0137 13.8533 98.779 13.128C98.5443 12.3813 98.139 11.8587 97.563 11.56C97.0083 11.24 96.1657 11.08 95.035 11.08H92.379C91.6537 11.08 91.099 11.144 90.715 11.272C90.3523 11.3787 90.107 11.624 89.979 12.008C89.851 12.3707 89.787 12.9467 89.787 13.736V29.608C89.787 30.376 89.851 30.952 89.979 31.336C90.107 31.72 90.3523 31.976 90.715 32.104C91.099 32.2107 91.6537 32.264 92.379 32.264H94.715C96.059 32.264 97.0723 32.0827 97.755 31.72C98.459 31.3573 98.9603 30.7707 99.259 29.96C99.579 29.128 99.8137 28.008 99.963 26.6H100.699C100.635 27.176 100.603 27.944 100.603 28.904C100.603 29.3093 100.614 29.896 100.635 30.664C100.678 31.4107 100.742 32.1893 100.827 33C99.739 32.9573 98.5123 32.936 97.147 32.936C95.7817 32.9147 94.5657 32.904 93.499 32.904C93.0297 32.904 92.4217 32.904 91.675 32.904C90.9497 32.904 90.1603 32.9147 89.307 32.936C88.4537 32.936 87.5897 32.9467 86.715 32.968C85.8403 32.968 85.0083 32.9787 84.219 33V32.36C84.9443 32.3173 85.4883 32.232 85.851 32.104C86.235 31.976 86.491 31.72 86.619 31.336C86.747 30.952 86.811 30.376 86.811 29.608V13.736C86.811 12.9467 86.747 12.3707 86.619 12.008C86.491 11.624 86.235 11.368 85.851 11.24C85.4883 11.0907 84.9443 11.0053 84.219 10.984V10.344C85.0083 10.3653 85.8403 10.3867 86.715 10.408C87.5897 10.408 88.4537 10.4187 89.307 10.44C90.1603 10.44 90.9497 10.44 91.675 10.44C92.4217 10.44 93.0297 10.44 93.499 10.44C94.4803 10.44 95.5897 10.44 96.827 10.44C98.0857 10.4187 99.2057 10.3867 100.187 10.344ZM94.683 21.288C94.683 21.288 94.683 21.3947 94.683 21.608C94.683 21.8213 94.683 21.928 94.683 21.928H88.827C88.827 21.928 88.827 21.8213 88.827 21.608C88.827 21.3947 88.827 21.288 88.827 21.288H94.683ZM95.611 17.064C95.5257 18.28 95.483 19.208 95.483 19.848C95.5043 20.488 95.515 21.0747 95.515 21.608C95.515 22.1413 95.5257 22.728 95.547 23.368C95.5683 24.008 95.6217 24.936 95.707 26.152H94.971C94.8857 25.4693 94.779 24.808 94.651 24.168C94.5443 23.5067 94.2883 22.9733 93.883 22.568C93.499 22.1413 92.8377 21.928 91.899 21.928V21.288C92.603 21.288 93.1363 21.1493 93.499 20.872C93.883 20.5733 94.1603 20.2 94.331 19.752C94.5017 19.304 94.619 18.8453 94.683 18.376C94.747 17.8853 94.811 17.448 94.875 17.064H95.611ZM103.719 10.344C104.167 10.3653 104.754 10.3867 105.479 10.408C106.204 10.4293 106.919 10.44 107.623 10.44C108.626 10.44 109.586 10.4293 110.503 10.408C111.42 10.3867 112.071 10.376 112.455 10.376C115.036 10.376 116.967 10.9627 118.247 12.136C119.527 13.3093 120.167 14.824 120.167 16.68C120.167 17.448 120.039 18.2587 119.783 19.112C119.527 19.944 119.079 20.7227 118.439 21.448C117.82 22.152 116.967 22.728 115.879 23.176C114.791 23.624 113.415 23.848 111.751 23.848H108.679V23.208H111.431C112.946 23.208 114.098 22.92 114.887 22.344C115.698 21.768 116.242 21.0107 116.519 20.072C116.818 19.1333 116.967 18.12 116.967 17.032C116.967 15.0053 116.562 13.4907 115.751 12.488C114.962 11.4853 113.596 10.984 111.655 10.984C110.674 10.984 110.034 11.1653 109.735 11.528C109.436 11.8907 109.287 12.6267 109.287 13.736V29.608C109.287 30.376 109.362 30.952 109.511 31.336C109.682 31.72 110.002 31.976 110.471 32.104C110.94 32.232 111.623 32.3173 112.519 32.36V33C111.964 32.9573 111.26 32.936 110.407 32.936C109.554 32.9147 108.69 32.904 107.815 32.904C106.983 32.904 106.204 32.9147 105.479 32.936C104.754 32.936 104.167 32.9573 103.719 33V32.36C104.444 32.3173 104.988 32.232 105.351 32.104C105.735 31.976 105.991 31.72 106.119 31.336C106.247 30.952 106.311 30.376 106.311 29.608V13.736C106.311 12.9467 106.247 12.3707 106.119 12.008C105.991 11.624 105.735 11.368 105.351 11.24C104.988 11.0907 104.444 11.0053 103.719 10.984V10.344Z" fill="white"/>
</g>
<g filter="url(#filter9_d_116_58)">
<path d="M72.472 40.672C72.4293 41.0773 72.3973 41.472 72.376 41.856C72.3653 42.2293 72.36 42.5173 72.36 42.72C72.36 42.976 72.3653 43.216 72.376 43.44C72.3867 43.664 72.3973 43.8613 72.408 44.032H72.04C71.9653 43.2853 71.864 42.6987 71.736 42.272C71.608 41.8347 71.384 41.52 71.064 41.328C70.744 41.136 70.248 41.04 69.576 41.04H68.712V50.144C68.712 50.5707 68.7493 50.8907 68.824 51.104C68.9093 51.3173 69.0693 51.4613 69.304 51.536C69.5387 51.6107 69.88 51.6587 70.328 51.68V52C70.0507 51.9787 69.6987 51.968 69.272 51.968C68.8453 51.9573 68.4133 51.952 67.976 51.952C67.496 51.952 67.0427 51.9573 66.616 51.968C66.2 51.968 65.864 51.9787 65.608 52V51.68C66.056 51.6587 66.3973 51.6107 66.632 51.536C66.8667 51.4613 67.0213 51.3173 67.096 51.104C67.1813 50.8907 67.224 50.5707 67.224 50.144V41.04H66.36C65.6987 41.04 65.2027 41.136 64.872 41.328C64.552 41.52 64.328 41.8347 64.2 42.272C64.072 42.6987 63.9707 43.2853 63.896 44.032H63.528C63.5493 43.8613 63.56 43.664 63.56 43.44C63.5707 43.216 63.576 42.976 63.576 42.72C63.576 42.5173 63.5653 42.2293 63.544 41.856C63.5333 41.472 63.5067 41.0773 63.464 40.672C63.912 40.6827 64.3973 40.6933 64.92 40.704C65.4533 40.7147 65.9867 40.72 66.52 40.72C67.0533 40.72 67.5387 40.72 67.976 40.72C68.4133 40.72 68.8933 40.72 69.416 40.72C69.9493 40.72 70.4827 40.7147 71.016 40.704C71.5493 40.6933 72.0347 40.6827 72.472 40.672ZM78.3775 43.536C78.6655 43.536 78.9162 43.5947 79.1295 43.712C79.3535 43.8293 79.5242 43.984 79.6415 44.176C79.7695 44.3573 79.8335 44.5653 79.8335 44.8C79.8335 45.0667 79.7482 45.3013 79.5775 45.504C79.4175 45.7067 79.1988 45.808 78.9215 45.808C78.6975 45.808 78.5002 45.7387 78.3295 45.6C78.1588 45.4507 78.0735 45.2427 78.0735 44.976C78.0735 44.7733 78.1268 44.6027 78.2335 44.464C78.3508 44.3147 78.4788 44.1973 78.6175 44.112C78.5428 44.0053 78.4308 43.952 78.2815 43.952C77.9508 43.952 77.6468 44.0533 77.3695 44.256C77.0922 44.448 76.8575 44.6987 76.6655 45.008C76.4735 45.3173 76.3242 45.648 76.2175 46C76.1108 46.3413 76.0575 46.6613 76.0575 46.96V50.352C76.0575 50.8747 76.2068 51.2267 76.5055 51.408C76.8148 51.5787 77.2308 51.664 77.7535 51.664V52C77.5082 51.9893 77.1615 51.9787 76.7135 51.968C76.2655 51.9467 75.7908 51.936 75.2895 51.936C74.9268 51.936 74.5642 51.9467 74.2015 51.968C73.8495 51.9787 73.5828 51.9893 73.4015 52V51.664C73.8388 51.664 74.1482 51.584 74.3295 51.424C74.5215 51.264 74.6175 50.96 74.6175 50.512V45.504C74.6175 45.024 74.5322 44.672 74.3615 44.448C74.1908 44.2133 73.8708 44.096 73.4015 44.096V43.76C73.7428 43.792 74.0735 43.808 74.3935 43.808C74.7028 43.808 74.9962 43.792 75.2735 43.76C75.5615 43.7173 75.8228 43.6587 76.0575 43.584V45.584C76.1748 45.2747 76.3402 44.9653 76.5535 44.656C76.7775 44.336 77.0442 44.0693 77.3535 43.856C77.6628 43.6427 78.0042 43.536 78.3775 43.536ZM82.7985 52.112C82.3612 52.112 81.9825 52.032 81.6625 51.872C81.3425 51.7013 81.0972 51.4667 80.9265 51.168C80.7665 50.8693 80.6865 50.5227 80.6865 50.128C80.6865 49.6587 80.7932 49.2747 81.0065 48.976C81.2305 48.6773 81.5132 48.4373 81.8545 48.256C82.1958 48.0747 82.5532 47.9253 82.9265 47.808C83.3105 47.68 83.6732 47.5627 84.0145 47.456C84.3558 47.3387 84.6332 47.2053 84.8465 47.056C85.0705 46.9067 85.1825 46.7093 85.1825 46.464V45.472C85.1825 45.024 85.1132 44.6827 84.9745 44.448C84.8465 44.2133 84.6705 44.0587 84.4465 43.984C84.2225 43.8987 83.9718 43.856 83.6945 43.856C83.4278 43.856 83.1398 43.8933 82.8305 43.968C82.5318 44.0427 82.2918 44.1973 82.1105 44.432C82.3132 44.4747 82.4892 44.5813 82.6385 44.752C82.7878 44.9227 82.8625 45.1413 82.8625 45.408C82.8625 45.6747 82.7772 45.888 82.6065 46.048C82.4358 46.1973 82.2172 46.272 81.9505 46.272C81.6412 46.272 81.4118 46.176 81.2625 45.984C81.1238 45.7813 81.0545 45.5573 81.0545 45.312C81.0545 45.0347 81.1238 44.8107 81.2625 44.64C81.4012 44.4693 81.5772 44.3093 81.7905 44.16C82.0358 43.9893 82.3505 43.8453 82.7345 43.728C83.1292 43.6 83.5718 43.536 84.0625 43.536C84.4998 43.536 84.8732 43.5893 85.1825 43.696C85.4918 43.792 85.7478 43.936 85.9505 44.128C86.2278 44.384 86.4092 44.6987 86.4945 45.072C86.5798 45.4347 86.6225 45.872 86.6225 46.384V50.832C86.6225 51.0987 86.6598 51.2907 86.7345 51.408C86.8198 51.5253 86.9478 51.584 87.1185 51.584C87.2358 51.584 87.3478 51.5573 87.4545 51.504C87.5612 51.4507 87.6892 51.3653 87.8385 51.248L88.0145 51.52C87.7905 51.6907 87.5772 51.8347 87.3745 51.952C87.1718 52.0587 86.8998 52.112 86.5585 52.112C86.2492 52.112 85.9932 52.0587 85.7905 51.952C85.5878 51.8453 85.4332 51.6907 85.3265 51.488C85.2305 51.2747 85.1825 51.008 85.1825 50.688C84.8945 51.168 84.5478 51.5253 84.1425 51.76C83.7478 51.9947 83.2998 52.112 82.7985 52.112ZM83.3745 51.472C83.7265 51.472 84.0518 51.3707 84.3505 51.168C84.6598 50.9653 84.9372 50.6613 85.1825 50.256V47.12C85.0545 47.3013 84.8678 47.456 84.6225 47.584C84.3772 47.7013 84.1105 47.824 83.8225 47.952C83.5345 48.0693 83.2572 48.2133 82.9905 48.384C82.7345 48.544 82.5212 48.7573 82.3505 49.024C82.1798 49.2907 82.0945 49.6373 82.0945 50.064C82.0945 50.4907 82.2065 50.832 82.4305 51.088C82.6652 51.344 82.9798 51.472 83.3745 51.472ZM93.8713 43.536C94.2766 43.536 94.6126 43.5893 94.8793 43.696C95.1566 43.8027 95.3859 43.952 95.5673 44.144C95.7699 44.3573 95.9139 44.624 95.9993 44.944C96.0846 45.264 96.1273 45.696 96.1273 46.24V50.512C96.1273 50.96 96.2179 51.264 96.3993 51.424C96.5913 51.584 96.9059 51.664 97.3433 51.664V52C97.1619 51.9893 96.8846 51.9787 96.5113 51.968C96.1379 51.9467 95.7753 51.936 95.4233 51.936C95.0713 51.936 94.7246 51.9467 94.3833 51.968C94.0526 51.9787 93.8019 51.9893 93.6313 52V51.664C94.0153 51.664 94.2873 51.584 94.4473 51.424C94.6073 51.264 94.6873 50.96 94.6873 50.512V45.888C94.6873 45.5573 94.6606 45.2533 94.6073 44.976C94.5539 44.6987 94.4313 44.4747 94.2393 44.304C94.0579 44.1333 93.7753 44.048 93.3913 44.048C92.9433 44.048 92.5486 44.176 92.2073 44.432C91.8766 44.688 91.6153 45.04 91.4233 45.488C91.2419 45.9253 91.1513 46.416 91.1513 46.96V50.512C91.1513 50.96 91.2313 51.264 91.3913 51.424C91.5513 51.584 91.8233 51.664 92.2073 51.664V52C92.0366 51.9893 91.7806 51.9787 91.4393 51.968C91.1086 51.9467 90.7673 51.936 90.4153 51.936C90.0633 51.936 89.7006 51.9467 89.3273 51.968C88.9539 51.9787 88.6766 51.9893 88.4953 52V51.664C88.9326 51.664 89.2419 51.584 89.4233 51.424C89.6153 51.264 89.7113 50.96 89.7113 50.512V45.504C89.7113 45.024 89.6259 44.672 89.4553 44.448C89.2846 44.2133 88.9646 44.096 88.4953 44.096V43.76C88.8366 43.792 89.1673 43.808 89.4873 43.808C89.7966 43.808 90.0899 43.792 90.3673 43.76C90.6553 43.7173 90.9166 43.6587 91.1513 43.584V45.472C91.4286 44.7467 91.8126 44.2453 92.3033 43.968C92.8046 43.68 93.3273 43.536 93.8713 43.536ZM100.906 43.536C101.333 43.536 101.695 43.6053 101.994 43.744C102.293 43.8827 102.511 44.0107 102.65 44.128C103.002 44.416 103.215 44.224 103.29 43.552H103.658C103.637 43.8507 103.621 44.208 103.61 44.624C103.599 45.0293 103.594 45.5787 103.594 46.272H103.226C103.162 45.8773 103.05 45.4933 102.89 45.12C102.741 44.7467 102.517 44.4427 102.218 44.208C101.919 43.9627 101.53 43.84 101.05 43.84C100.677 43.84 100.362 43.9467 100.106 44.16C99.8608 44.3627 99.7381 44.6667 99.7381 45.072C99.7381 45.392 99.8341 45.6693 100.026 45.904C100.218 46.128 100.469 46.3413 100.778 46.544C101.087 46.736 101.423 46.9493 101.786 47.184C102.191 47.44 102.559 47.7013 102.89 47.968C103.221 48.2347 103.482 48.528 103.674 48.848C103.877 49.168 103.978 49.5467 103.978 49.984C103.978 50.4747 103.85 50.8853 103.594 51.216C103.338 51.5467 103.002 51.7973 102.586 51.968C102.181 52.1387 101.733 52.224 101.242 52.224C101.007 52.224 100.783 52.2027 100.57 52.16C100.367 52.128 100.17 52.0747 99.9781 52C99.8715 51.9467 99.7595 51.8827 99.6421 51.808C99.5355 51.7333 99.4288 51.6533 99.3221 51.568C99.2155 51.4827 99.1195 51.488 99.0341 51.584C98.9488 51.6693 98.8848 51.8453 98.8421 52.112H98.4741C98.4955 51.7707 98.5115 51.3547 98.5221 50.864C98.5328 50.3733 98.5381 49.7227 98.5381 48.912H98.9061C98.9808 49.5093 99.0875 50.032 99.2261 50.48C99.3648 50.928 99.5835 51.28 99.8821 51.536C100.181 51.7813 100.597 51.904 101.13 51.904C101.343 51.904 101.557 51.856 101.77 51.76C101.994 51.664 102.181 51.504 102.33 51.28C102.479 51.056 102.554 50.7573 102.554 50.384C102.554 49.9147 102.383 49.5307 102.042 49.232C101.701 48.9333 101.269 48.6187 100.746 48.288C100.362 48.0427 99.9995 47.7973 99.6581 47.552C99.3275 47.3067 99.0555 47.0293 98.8421 46.72C98.6395 46.4107 98.5381 46.0373 98.5381 45.6C98.5381 45.12 98.6448 44.7307 98.8581 44.432C99.0821 44.1227 99.3755 43.8987 99.7381 43.76C100.101 43.6107 100.49 43.536 100.906 43.536ZM107.742 43.584V53.408C107.742 53.8667 107.876 54.1707 108.142 54.32C108.42 54.48 108.798 54.56 109.278 54.56V54.896C109.044 54.8853 108.718 54.8693 108.302 54.848C107.886 54.8373 107.444 54.832 106.974 54.832C106.644 54.832 106.313 54.8373 105.982 54.848C105.662 54.8693 105.417 54.8853 105.246 54.896V54.56C105.63 54.56 105.902 54.4907 106.062 54.352C106.222 54.2133 106.302 53.952 106.302 53.568V45.504C106.302 45.024 106.217 44.672 106.046 44.448C105.876 44.2133 105.556 44.096 105.086 44.096V43.76C105.428 43.792 105.758 43.808 106.078 43.808C106.388 43.808 106.681 43.792 106.958 43.76C107.246 43.7173 107.508 43.6587 107.742 43.584ZM110.302 43.536C110.868 43.536 111.374 43.6907 111.822 44C112.27 44.2987 112.622 44.7413 112.878 45.328C113.145 45.9147 113.278 46.64 113.278 47.504C113.278 48.08 113.209 48.6507 113.07 49.216C112.932 49.7707 112.713 50.2773 112.414 50.736C112.126 51.184 111.748 51.5467 111.278 51.824C110.82 52.0907 110.265 52.224 109.614 52.224C109.113 52.224 108.676 52.1067 108.302 51.872C107.94 51.6373 107.694 51.3547 107.566 51.024L107.726 50.8C107.876 51.0987 108.089 51.3493 108.366 51.552C108.654 51.7547 109.012 51.856 109.438 51.856C110.036 51.856 110.5 51.6693 110.83 51.296C111.161 50.9227 111.39 50.4267 111.518 49.808C111.657 49.1787 111.726 48.4853 111.726 47.728C111.726 46.8747 111.657 46.176 111.518 45.632C111.38 45.088 111.172 44.6827 110.894 44.416C110.617 44.1493 110.276 44.016 109.87 44.016C109.348 44.016 108.873 44.2347 108.446 44.672C108.02 45.0987 107.748 45.7493 107.63 46.624L107.438 46.4C107.556 45.4933 107.876 44.7893 108.398 44.288C108.932 43.7867 109.566 43.536 110.302 43.536ZM118.415 43.536C119.098 43.536 119.711 43.6853 120.255 43.984C120.799 44.2827 121.231 44.752 121.551 45.392C121.882 46.032 122.047 46.864 122.047 47.888C122.047 48.912 121.882 49.744 121.551 50.384C121.231 51.0133 120.799 51.4773 120.255 51.776C119.711 52.0747 119.098 52.224 118.415 52.224C117.743 52.224 117.13 52.0747 116.575 51.776C116.031 51.4773 115.594 51.0133 115.263 50.384C114.943 49.744 114.783 48.912 114.783 47.888C114.783 46.864 114.943 46.032 115.263 45.392C115.594 44.752 116.031 44.2827 116.575 43.984C117.13 43.6853 117.743 43.536 118.415 43.536ZM118.415 43.856C117.807 43.856 117.306 44.1707 116.911 44.8C116.527 45.4293 116.335 46.4587 116.335 47.888C116.335 49.3173 116.527 50.3467 116.911 50.976C117.306 51.5947 117.807 51.904 118.415 51.904C119.023 51.904 119.519 51.5947 119.903 50.976C120.298 50.3467 120.495 49.3173 120.495 47.888C120.495 46.4587 120.298 45.4293 119.903 44.8C119.519 44.1707 119.023 43.856 118.415 43.856ZM126.125 43.536C126.552 43.536 126.914 43.6053 127.213 43.744C127.512 43.8827 127.73 44.0107 127.869 44.128C128.221 44.416 128.434 44.224 128.509 43.552H128.877C128.856 43.8507 128.84 44.208 128.829 44.624C128.818 45.0293 128.813 45.5787 128.813 46.272H128.445C128.381 45.8773 128.269 45.4933 128.109 45.12C127.96 44.7467 127.736 44.4427 127.437 44.208C127.138 43.9627 126.749 43.84 126.269 43.84C125.896 43.84 125.581 43.9467 125.325 44.16C125.08 44.3627 124.957 44.6667 124.957 45.072C124.957 45.392 125.053 45.6693 125.245 45.904C125.437 46.128 125.688 46.3413 125.997 46.544C126.306 46.736 126.642 46.9493 127.005 47.184C127.41 47.44 127.778 47.7013 128.109 47.968C128.44 48.2347 128.701 48.528 128.893 48.848C129.096 49.168 129.197 49.5467 129.197 49.984C129.197 50.4747 129.069 50.8853 128.813 51.216C128.557 51.5467 128.221 51.7973 127.805 51.968C127.4 52.1387 126.952 52.224 126.461 52.224C126.226 52.224 126.002 52.2027 125.789 52.16C125.586 52.128 125.389 52.0747 125.197 52C125.09 51.9467 124.978 51.8827 124.861 51.808C124.754 51.7333 124.648 51.6533 124.541 51.568C124.434 51.4827 124.338 51.488 124.253 51.584C124.168 51.6693 124.104 51.8453 124.061 52.112H123.693C123.714 51.7707 123.73 51.3547 123.741 50.864C123.752 50.3733 123.757 49.7227 123.757 48.912H124.125C124.2 49.5093 124.306 50.032 124.445 50.48C124.584 50.928 124.802 51.28 125.101 51.536C125.4 51.7813 125.816 51.904 126.349 51.904C126.562 51.904 126.776 51.856 126.989 51.76C127.213 51.664 127.4 51.504 127.549 51.28C127.698 51.056 127.773 50.7573 127.773 50.384C127.773 49.9147 127.602 49.5307 127.261 49.232C126.92 48.9333 126.488 48.6187 125.965 48.288C125.581 48.0427 125.218 47.7973 124.877 47.552C124.546 47.3067 124.274 47.0293 124.061 46.72C123.858 46.4107 123.757 46.0373 123.757 45.6C123.757 45.12 123.864 44.7307 124.077 44.432C124.301 44.1227 124.594 43.8987 124.957 43.76C125.32 43.6107 125.709 43.536 126.125 43.536ZM132.689 52.112C132.252 52.112 131.873 52.032 131.553 51.872C131.233 51.7013 130.988 51.4667 130.817 51.168C130.657 50.8693 130.577 50.5227 130.577 50.128C130.577 49.6587 130.684 49.2747 130.897 48.976C131.121 48.6773 131.404 48.4373 131.745 48.256C132.086 48.0747 132.444 47.9253 132.817 47.808C133.201 47.68 133.564 47.5627 133.905 47.456C134.246 47.3387 134.524 47.2053 134.737 47.056C134.961 46.9067 135.073 46.7093 135.073 46.464V45.472C135.073 45.024 135.004 44.6827 134.865 44.448C134.737 44.2133 134.561 44.0587 134.337 43.984C134.113 43.8987 133.862 43.856 133.585 43.856C133.318 43.856 133.03 43.8933 132.721 43.968C132.422 44.0427 132.182 44.1973 132.001 44.432C132.204 44.4747 132.38 44.5813 132.529 44.752C132.678 44.9227 132.753 45.1413 132.753 45.408C132.753 45.6747 132.668 45.888 132.497 46.048C132.326 46.1973 132.108 46.272 131.841 46.272C131.532 46.272 131.302 46.176 131.153 45.984C131.014 45.7813 130.945 45.5573 130.945 45.312C130.945 45.0347 131.014 44.8107 131.153 44.64C131.292 44.4693 131.468 44.3093 131.681 44.16C131.926 43.9893 132.241 43.8453 132.625 43.728C133.02 43.6 133.462 43.536 133.953 43.536C134.39 43.536 134.764 43.5893 135.073 43.696C135.382 43.792 135.638 43.936 135.841 44.128C136.118 44.384 136.3 44.6987 136.385 45.072C136.47 45.4347 136.513 45.872 136.513 46.384V50.832C136.513 51.0987 136.55 51.2907 136.625 51.408C136.71 51.5253 136.838 51.584 137.009 51.584C137.126 51.584 137.238 51.5573 137.345 51.504C137.452 51.4507 137.58 51.3653 137.729 51.248L137.905 51.52C137.681 51.6907 137.468 51.8347 137.265 51.952C137.062 52.0587 136.79 52.112 136.449 52.112C136.14 52.112 135.884 52.0587 135.681 51.952C135.478 51.8453 135.324 51.6907 135.217 51.488C135.121 51.2747 135.073 51.008 135.073 50.688C134.785 51.168 134.438 51.5253 134.033 51.76C133.638 51.9947 133.19 52.112 132.689 52.112ZM133.265 51.472C133.617 51.472 133.942 51.3707 134.241 51.168C134.55 50.9653 134.828 50.6613 135.073 50.256V47.12C134.945 47.3013 134.758 47.456 134.513 47.584C134.268 47.7013 134.001 47.824 133.713 47.952C133.425 48.0693 133.148 48.2133 132.881 48.384C132.625 48.544 132.412 48.7573 132.241 49.024C132.07 49.2907 131.985 49.6373 131.985 50.064C131.985 50.4907 132.097 50.832 132.321 51.088C132.556 51.344 132.87 51.472 133.265 51.472ZM143.138 43.536C144.013 43.536 144.738 43.8987 145.314 44.624C145.89 45.3387 146.178 46.4267 146.178 47.888C146.178 48.848 146.013 49.6533 145.682 50.304C145.362 50.944 144.93 51.424 144.386 51.744C143.842 52.064 143.25 52.224 142.61 52.224C142.077 52.224 141.559 52.0747 141.058 51.776C140.567 51.4667 140.199 51.0133 139.954 50.416L140.274 50.592C140.541 51.0187 140.871 51.3387 141.266 51.552C141.661 51.7547 142.066 51.856 142.482 51.856C143.197 51.856 143.73 51.536 144.082 50.896C144.445 50.2453 144.626 49.2427 144.626 47.888C144.626 47.024 144.557 46.304 144.418 45.728C144.279 45.152 144.066 44.7253 143.778 44.448C143.49 44.16 143.122 44.016 142.674 44.016C142.183 44.016 141.725 44.24 141.298 44.688C140.882 45.1253 140.626 45.7707 140.53 46.624L140.338 46.4C140.455 45.4933 140.77 44.7893 141.282 44.288C141.805 43.7867 142.423 43.536 143.138 43.536ZM140.642 39.472V51.168C140.503 51.2853 140.359 51.408 140.21 51.536C140.071 51.6533 139.933 51.7707 139.794 51.888C139.655 52.0053 139.511 52.128 139.362 52.256L139.09 52.144C139.133 51.9947 139.159 51.8453 139.17 51.696C139.191 51.536 139.202 51.376 139.202 51.216V41.392C139.202 40.912 139.117 40.56 138.946 40.336C138.775 40.1013 138.455 39.984 137.986 39.984V39.648C138.327 39.68 138.658 39.696 138.978 39.696C139.287 39.696 139.581 39.68 139.858 39.648C140.146 39.6053 140.407 39.5467 140.642 39.472ZM149.789 39.456V50.512C149.789 50.96 149.88 51.264 150.061 51.424C150.253 51.584 150.568 51.664 151.005 51.664V52C150.824 51.9893 150.547 51.9787 150.173 51.968C149.811 51.9467 149.443 51.936 149.069 51.936C148.707 51.936 148.339 51.9467 147.965 51.968C147.592 51.9787 147.315 51.9893 147.133 52V51.664C147.571 51.664 147.88 51.584 148.061 51.424C148.253 51.264 148.349 50.96 148.349 50.512V41.376C148.349 40.896 148.264 40.544 148.093 40.32C147.923 40.0853 147.603 39.968 147.133 39.968V39.632C147.475 39.664 147.805 39.68 148.125 39.68C148.435 39.68 148.728 39.664 149.005 39.632C149.293 39.5893 149.555 39.5307 149.789 39.456ZM155.555 43.536C156.494 43.536 157.224 43.824 157.747 44.4C158.28 44.9653 158.547 45.8507 158.547 47.056H152.899L152.883 46.752H157.011C157.032 46.2293 156.99 45.7493 156.883 45.312C156.776 44.864 156.606 44.5067 156.371 44.24C156.147 43.9733 155.854 43.84 155.491 43.84C155 43.84 154.563 44.0853 154.179 44.576C153.806 45.0667 153.582 45.8453 153.507 46.912L153.555 46.976C153.534 47.136 153.518 47.312 153.507 47.504C153.496 47.696 153.491 47.888 153.491 48.08C153.491 48.8053 153.608 49.4293 153.843 49.952C154.078 50.4747 154.382 50.8747 154.755 51.152C155.139 51.4187 155.534 51.552 155.939 51.552C156.259 51.552 156.563 51.504 156.851 51.408C157.139 51.3013 157.406 51.1307 157.651 50.896C157.896 50.6613 158.11 50.3467 158.291 49.952L158.611 50.08C158.494 50.432 158.302 50.7733 158.035 51.104C157.768 51.4347 157.432 51.7067 157.027 51.92C156.622 52.1227 156.152 52.224 155.619 52.224C154.851 52.224 154.19 52.048 153.635 51.696C153.091 51.344 152.67 50.8587 152.371 50.24C152.083 49.6107 151.939 48.8907 151.939 48.08C151.939 47.1413 152.088 46.336 152.387 45.664C152.686 44.9813 153.107 44.4587 153.651 44.096C154.195 43.7227 154.83 43.536 155.555 43.536ZM167.633 43.536C168.572 43.536 169.303 43.824 169.825 44.4C170.359 44.9653 170.625 45.8507 170.625 47.056H164.977L164.961 46.752H169.089C169.111 46.2293 169.068 45.7493 168.961 45.312C168.855 44.864 168.684 44.5067 168.449 44.24C168.225 43.9733 167.932 43.84 167.569 43.84C167.079 43.84 166.641 44.0853 166.257 44.576C165.884 45.0667 165.66 45.8453 165.585 46.912L165.633 46.976C165.612 47.136 165.596 47.312 165.585 47.504C165.575 47.696 165.569 47.888 165.569 48.08C165.569 48.8053 165.687 49.4293 165.921 49.952C166.156 50.4747 166.46 50.8747 166.833 51.152C167.217 51.4187 167.612 51.552 168.017 51.552C168.337 51.552 168.641 51.504 168.929 51.408C169.217 51.3013 169.484 51.1307 169.729 50.896C169.975 50.6613 170.188 50.3467 170.369 49.952L170.689 50.08C170.572 50.432 170.38 50.7733 170.113 51.104C169.847 51.4347 169.511 51.7067 169.105 51.92C168.7 52.1227 168.231 52.224 167.697 52.224C166.929 52.224 166.268 52.048 165.713 51.696C165.169 51.344 164.748 50.8587 164.449 50.24C164.161 49.6107 164.017 48.8907 164.017 48.08C164.017 47.1413 164.167 46.336 164.465 45.664C164.764 44.9813 165.185 44.4587 165.729 44.096C166.273 43.7227 166.908 43.536 167.633 43.536ZM174.383 39.456V50.512C174.383 50.96 174.474 51.264 174.655 51.424C174.847 51.584 175.162 51.664 175.599 51.664V52C175.418 51.9893 175.14 51.9787 174.767 51.968C174.404 51.9467 174.036 51.936 173.663 51.936C173.3 51.936 172.932 51.9467 172.559 51.968C172.186 51.9787 171.908 51.9893 171.727 52V51.664C172.164 51.664 172.474 51.584 172.655 51.424C172.847 51.264 172.943 50.96 172.943 50.512V41.376C172.943 40.896 172.858 40.544 172.687 40.32C172.516 40.0853 172.196 39.968 171.727 39.968V39.632C172.068 39.664 172.399 39.68 172.719 39.68C173.028 39.68 173.322 39.664 173.599 39.632C173.887 39.5893 174.148 39.5307 174.383 39.456ZM180.149 43.536C181.088 43.536 181.818 43.824 182.341 44.4C182.874 44.9653 183.141 45.8507 183.141 47.056H177.493L177.477 46.752H181.605C181.626 46.2293 181.584 45.7493 181.477 45.312C181.37 44.864 181.2 44.5067 180.965 44.24C180.741 43.9733 180.448 43.84 180.085 43.84C179.594 43.84 179.157 44.0853 178.773 44.576C178.4 45.0667 178.176 45.8453 178.101 46.912L178.149 46.976C178.128 47.136 178.112 47.312 178.101 47.504C178.09 47.696 178.085 47.888 178.085 48.08C178.085 48.8053 178.202 49.4293 178.437 49.952C178.672 50.4747 178.976 50.8747 179.349 51.152C179.733 51.4187 180.128 51.552 180.533 51.552C180.853 51.552 181.157 51.504 181.445 51.408C181.733 51.3013 182 51.1307 182.245 50.896C182.49 50.6613 182.704 50.3467 182.885 49.952L183.205 50.08C183.088 50.432 182.896 50.7733 182.629 51.104C182.362 51.4347 182.026 51.7067 181.621 51.92C181.216 52.1227 180.746 52.224 180.213 52.224C179.445 52.224 178.784 52.048 178.229 51.696C177.685 51.344 177.264 50.8587 176.965 50.24C176.677 49.6107 176.533 48.8907 176.533 48.08C176.533 47.1413 176.682 46.336 176.981 45.664C177.28 44.9813 177.701 44.4587 178.245 44.096C178.789 43.7227 179.424 43.536 180.149 43.536ZM189.635 43.536C190.008 43.536 190.333 43.5893 190.611 43.696C190.888 43.8027 191.117 43.952 191.299 44.144C191.501 44.3573 191.64 44.6347 191.715 44.976C191.789 45.3173 191.827 45.7387 191.827 46.24V50.512C191.827 50.96 191.917 51.264 192.099 51.424C192.291 51.584 192.605 51.664 193.043 51.664V52C192.861 51.9893 192.584 51.9787 192.211 51.968C191.837 51.9467 191.475 51.936 191.123 51.936C190.771 51.936 190.424 51.9467 190.083 51.968C189.752 51.9787 189.501 51.9893 189.331 52V51.664C189.715 51.664 189.987 51.584 190.147 51.424C190.307 51.264 190.387 50.96 190.387 50.512V45.888C190.387 45.5573 190.365 45.2533 190.323 44.976C190.28 44.6987 190.173 44.4747 190.003 44.304C189.832 44.1333 189.555 44.048 189.171 44.048C188.755 44.048 188.381 44.176 188.051 44.432C187.731 44.688 187.475 45.04 187.283 45.488C187.101 45.9253 187.011 46.416 187.011 46.96V50.512C187.011 50.96 187.091 51.264 187.251 51.424C187.411 51.584 187.683 51.664 188.067 51.664V52C187.896 51.9893 187.64 51.9787 187.299 51.968C186.968 51.9467 186.627 51.936 186.275 51.936C185.923 51.936 185.56 51.9467 185.187 51.968C184.813 51.9787 184.536 51.9893 184.355 52V51.664C184.792 51.664 185.101 51.584 185.283 51.424C185.475 51.264 185.571 50.96 185.571 50.512V45.504C185.571 45.024 185.485 44.672 185.315 44.448C185.144 44.2133 184.824 44.096 184.355 44.096V43.76C184.696 43.792 185.027 43.808 185.347 43.808C185.656 43.808 185.949 43.792 186.227 43.76C186.515 43.7173 186.776 43.6587 187.011 43.584V45.472C187.288 44.7787 187.667 44.2827 188.147 43.984C188.627 43.6853 189.123 43.536 189.635 43.536ZM194.451 43.536C194.824 43.536 195.149 43.5893 195.427 43.696C195.704 43.8027 195.933 43.952 196.115 44.144C196.317 44.3573 196.456 44.6347 196.531 44.976C196.605 45.3173 196.643 45.7387 196.643 46.24V50.512C196.643 50.96 196.733 51.264 196.915 51.424C197.107 51.584 197.421 51.664 197.859 51.664V52C197.677 51.9893 197.4 51.9787 197.027 51.968C196.653 51.9467 196.291 51.936 195.939 51.936C195.587 51.936 195.24 51.9467 194.899 51.968C194.568 51.9787 194.317 51.9893 194.147 52V51.664C194.531 51.664 194.803 51.584 194.963 51.424C195.123 51.264 195.203 50.96 195.203 50.512V45.888C195.203 45.5573 195.181 45.2533 195.139 44.976C195.096 44.6987 194.989 44.4747 194.819 44.304C194.648 44.1333 194.371 44.048 193.987 44.048C193.571 44.048 193.197 44.176 192.867 44.432C192.547 44.688 192.291 45.0347 192.099 45.472C191.917 45.9093 191.827 46.4 191.827 46.944L191.779 45.456C192.067 44.72 192.456 44.2187 192.947 43.952C193.437 43.6747 193.939 43.536 194.451 43.536ZM202.446 43.536C203.384 43.536 204.115 43.824 204.638 44.4C205.171 44.9653 205.438 45.8507 205.438 47.056H199.79L199.774 46.752H203.902C203.923 46.2293 203.88 45.7493 203.774 45.312C203.667 44.864 203.496 44.5067 203.262 44.24C203.038 43.9733 202.744 43.84 202.382 43.84C201.891 43.84 201.454 44.0853 201.07 44.576C200.696 45.0667 200.472 45.8453 200.398 46.912L200.446 46.976C200.424 47.136 200.408 47.312 200.398 47.504C200.387 47.696 200.382 47.888 200.382 48.08C200.382 48.8053 200.499 49.4293 200.734 49.952C200.968 50.4747 201.272 50.8747 201.646 51.152C202.03 51.4187 202.424 51.552 202.83 51.552C203.15 51.552 203.454 51.504 203.742 51.408C204.03 51.3013 204.296 51.1307 204.542 50.896C204.787 50.6613 205 50.3467 205.182 49.952L205.502 50.08C205.384 50.432 205.192 50.7733 204.926 51.104C204.659 51.4347 204.323 51.7067 203.918 51.92C203.512 52.1227 203.043 52.224 202.51 52.224C201.742 52.224 201.08 52.048 200.526 51.696C199.982 51.344 199.56 50.8587 199.262 50.24C198.974 49.6107 198.83 48.8907 198.83 48.08C198.83 47.1413 198.979 46.336 199.278 45.664C199.576 44.9813 199.998 44.4587 200.542 44.096C201.086 43.7227 201.72 43.536 202.446 43.536ZM212.028 43.536C212.433 43.536 212.769 43.5893 213.036 43.696C213.313 43.8027 213.542 43.952 213.724 44.144C213.926 44.3573 214.07 44.624 214.156 44.944C214.241 45.264 214.284 45.696 214.284 46.24V50.512C214.284 50.96 214.374 51.264 214.556 51.424C214.748 51.584 215.062 51.664 215.5 51.664V52C215.318 51.9893 215.041 51.9787 214.668 51.968C214.294 51.9467 213.932 51.936 213.58 51.936C213.228 51.936 212.881 51.9467 212.54 51.968C212.209 51.9787 211.958 51.9893 211.788 52V51.664C212.172 51.664 212.444 51.584 212.604 51.424C212.764 51.264 212.844 50.96 212.844 50.512V45.888C212.844 45.5573 212.817 45.2533 212.764 44.976C212.71 44.6987 212.588 44.4747 212.396 44.304C212.214 44.1333 211.932 44.048 211.548 44.048C211.1 44.048 210.705 44.176 210.364 44.432C210.033 44.688 209.772 45.04 209.58 45.488C209.398 45.9253 209.308 46.416 209.308 46.96V50.512C209.308 50.96 209.388 51.264 209.548 51.424C209.708 51.584 209.98 51.664 210.364 51.664V52C210.193 51.9893 209.937 51.9787 209.596 51.968C209.265 51.9467 208.924 51.936 208.572 51.936C208.22 51.936 207.857 51.9467 207.484 51.968C207.11 51.9787 206.833 51.9893 206.652 52V51.664C207.089 51.664 207.398 51.584 207.58 51.424C207.772 51.264 207.868 50.96 207.868 50.512V45.504C207.868 45.024 207.782 44.672 207.612 44.448C207.441 44.2133 207.121 44.096 206.652 44.096V43.76C206.993 43.792 207.324 43.808 207.644 43.808C207.953 43.808 208.246 43.792 208.524 43.76C208.812 43.7173 209.073 43.6587 209.308 43.584V45.472C209.585 44.7467 209.969 44.2453 210.46 43.968C210.961 43.68 211.484 43.536 212.028 43.536ZM218.774 41.104V43.776H221.142V44.096H218.774V50.288C218.774 50.7893 218.865 51.1413 219.046 51.344C219.228 51.5467 219.478 51.648 219.798 51.648C220.118 51.648 220.396 51.52 220.63 51.264C220.865 50.9973 221.068 50.5547 221.238 49.936L221.558 50.016C221.452 50.6347 221.238 51.1573 220.918 51.584C220.609 52.0107 220.129 52.224 219.478 52.224C219.116 52.224 218.817 52.176 218.582 52.08C218.348 51.9947 218.14 51.8667 217.958 51.696C217.724 51.4507 217.558 51.1573 217.462 50.816C217.377 50.4747 217.334 50.0213 217.334 49.456V44.096H215.798V43.776H217.334V41.328C217.601 41.3173 217.857 41.296 218.102 41.264C218.348 41.232 218.572 41.1787 218.774 41.104ZM229.525 39.488C229.824 39.488 230.085 39.5307 230.309 39.616C230.544 39.6907 230.747 39.792 230.917 39.92C231.077 40.048 231.2 40.1973 231.285 40.368C231.371 40.5387 231.413 40.72 231.413 40.912C231.413 41.1573 231.333 41.36 231.173 41.52C231.013 41.68 230.811 41.76 230.565 41.76C230.331 41.76 230.123 41.6853 229.941 41.536C229.771 41.376 229.685 41.1627 229.685 40.896C229.685 40.672 229.744 40.4907 229.861 40.352C229.989 40.2133 230.155 40.1227 230.357 40.08C230.325 39.984 230.24 39.904 230.101 39.84C229.973 39.7653 229.797 39.728 229.573 39.728C229.328 39.728 229.115 39.7813 228.933 39.888C228.763 39.9947 228.629 40.1387 228.533 40.32C228.405 40.544 228.325 40.88 228.293 41.328C228.261 41.7653 228.245 42.4427 228.245 43.36V43.776H229.957V44.096H228.245V50.352C228.245 50.8747 228.395 51.2267 228.693 51.408C229.003 51.5787 229.419 51.664 229.941 51.664V52C229.696 51.9893 229.349 51.9787 228.901 51.968C228.453 51.9467 227.979 51.936 227.477 51.936C227.115 51.936 226.752 51.9467 226.389 51.968C226.037 51.9787 225.771 51.9893 225.589 52V51.664C226.027 51.664 226.336 51.584 226.517 51.424C226.709 51.264 226.805 50.96 226.805 50.512V44.096H225.525V43.776H226.805C226.805 43.1467 226.832 42.6187 226.885 42.192C226.939 41.7653 227.024 41.4027 227.141 41.104C227.259 40.7947 227.419 40.5227 227.621 40.288C227.835 40.0427 228.107 39.8507 228.437 39.712C228.768 39.5627 229.131 39.488 229.525 39.488ZM234.54 43.536C235.223 43.536 235.836 43.6853 236.38 43.984C236.924 44.2827 237.356 44.752 237.676 45.392C238.007 46.032 238.172 46.864 238.172 47.888C238.172 48.912 238.007 49.744 237.676 50.384C237.356 51.0133 236.924 51.4773 236.38 51.776C235.836 52.0747 235.223 52.224 234.54 52.224C233.868 52.224 233.255 52.0747 232.7 51.776C232.156 51.4773 231.719 51.0133 231.388 50.384C231.068 49.744 230.908 48.912 230.908 47.888C230.908 46.864 231.068 46.032 231.388 45.392C231.719 44.752 232.156 44.2827 232.7 43.984C233.255 43.6853 233.868 43.536 234.54 43.536ZM234.54 43.856C233.932 43.856 233.431 44.1707 233.036 44.8C232.652 45.4293 232.46 46.4587 232.46 47.888C232.46 49.3173 232.652 50.3467 233.036 50.976C233.431 51.5947 233.932 51.904 234.54 51.904C235.148 51.904 235.644 51.5947 236.028 50.976C236.423 50.3467 236.62 49.3173 236.62 47.888C236.62 46.4587 236.423 45.4293 236.028 44.8C235.644 44.1707 235.148 43.856 234.54 43.856ZM244.362 43.536C244.65 43.536 244.901 43.5947 245.114 43.712C245.338 43.8293 245.509 43.984 245.626 44.176C245.754 44.3573 245.818 44.5653 245.818 44.8C245.818 45.0667 245.733 45.3013 245.562 45.504C245.402 45.7067 245.183 45.808 244.906 45.808C244.682 45.808 244.485 45.7387 244.314 45.6C244.143 45.4507 244.058 45.2427 244.058 44.976C244.058 44.7733 244.111 44.6027 244.218 44.464C244.335 44.3147 244.463 44.1973 244.602 44.112C244.527 44.0053 244.415 43.952 244.266 43.952C243.935 43.952 243.631 44.0533 243.354 44.256C243.077 44.448 242.842 44.6987 242.65 45.008C242.458 45.3173 242.309 45.648 242.202 46C242.095 46.3413 242.042 46.6613 242.042 46.96V50.352C242.042 50.8747 242.191 51.2267 242.49 51.408C242.799 51.5787 243.215 51.664 243.738 51.664V52C243.493 51.9893 243.146 51.9787 242.698 51.968C242.25 51.9467 241.775 51.936 241.274 51.936C240.911 51.936 240.549 51.9467 240.186 51.968C239.834 51.9787 239.567 51.9893 239.386 52V51.664C239.823 51.664 240.133 51.584 240.314 51.424C240.506 51.264 240.602 50.96 240.602 50.512V45.504C240.602 45.024 240.517 44.672 240.346 44.448C240.175 44.2133 239.855 44.096 239.386 44.096V43.76C239.727 43.792 240.058 43.808 240.378 43.808C240.687 43.808 240.981 43.792 241.258 43.76C241.546 43.7173 241.807 43.6587 242.042 43.584V45.584C242.159 45.2747 242.325 44.9653 242.538 44.656C242.762 44.336 243.029 44.0693 243.338 43.856C243.647 43.6427 243.989 43.536 244.362 43.536ZM252.696 43.584V53.408C252.696 53.8667 252.829 54.1707 253.096 54.32C253.373 54.48 253.752 54.56 254.232 54.56V54.896C253.997 54.8853 253.672 54.8693 253.256 54.848C252.84 54.8373 252.397 54.832 251.928 54.832C251.597 54.832 251.266 54.8373 250.936 54.848C250.616 54.8693 250.37 54.8853 250.2 54.896V54.56C250.584 54.56 250.856 54.4907 251.016 54.352C251.176 54.2133 251.256 53.952 251.256 53.568V45.504C251.256 45.024 251.17 44.672 251 44.448C250.829 44.2133 250.509 44.096 250.04 44.096V43.76C250.381 43.792 250.712 43.808 251.032 43.808C251.341 43.808 251.634 43.792 251.912 43.76C252.2 43.7173 252.461 43.6587 252.696 43.584ZM255.256 43.536C255.821 43.536 256.328 43.6907 256.776 44C257.224 44.2987 257.576 44.7413 257.832 45.328C258.098 45.9147 258.232 46.64 258.232 47.504C258.232 48.08 258.162 48.6507 258.024 49.216C257.885 49.7707 257.666 50.2773 257.368 50.736C257.08 51.184 256.701 51.5467 256.232 51.824C255.773 52.0907 255.218 52.224 254.568 52.224C254.066 52.224 253.629 52.1067 253.256 51.872C252.893 51.6373 252.648 51.3547 252.52 51.024L252.68 50.8C252.829 51.0987 253.042 51.3493 253.32 51.552C253.608 51.7547 253.965 51.856 254.391 51.856C254.989 51.856 255.453 51.6693 255.784 51.296C256.114 50.9227 256.344 50.4267 256.472 49.808C256.61 49.1787 256.68 48.4853 256.68 47.728C256.68 46.8747 256.61 46.176 256.472 45.632C256.333 45.088 256.125 44.6827 255.848 44.416C255.57 44.1493 255.229 44.016 254.824 44.016C254.301 44.016 253.826 44.2347 253.4 44.672C252.973 45.0987 252.701 45.7493 252.584 46.624L252.392 46.4C252.509 45.4933 252.829 44.7893 253.352 44.288C253.885 43.7867 254.52 43.536 255.256 43.536ZM261.992 39.456V50.512C261.992 50.96 262.083 51.264 262.264 51.424C262.456 51.584 262.771 51.664 263.208 51.664V52C263.027 51.9893 262.75 51.9787 262.376 51.968C262.014 51.9467 261.646 51.936 261.272 51.936C260.91 51.936 260.542 51.9467 260.168 51.968C259.795 51.9787 259.518 51.9893 259.336 52V51.664C259.774 51.664 260.083 51.584 260.264 51.424C260.456 51.264 260.552 50.96 260.552 50.512V41.376C260.552 40.896 260.467 40.544 260.296 40.32C260.126 40.0853 259.806 39.968 259.336 39.968V39.632C259.678 39.664 260.008 39.68 260.328 39.68C260.638 39.68 260.931 39.664 261.208 39.632C261.496 39.5893 261.758 39.5307 261.992 39.456ZM266.299 52.112C265.861 52.112 265.483 52.032 265.163 51.872C264.843 51.7013 264.597 51.4667 264.427 51.168C264.267 50.8693 264.187 50.5227 264.187 50.128C264.187 49.6587 264.293 49.2747 264.507 48.976C264.731 48.6773 265.013 48.4373 265.355 48.256C265.696 48.0747 266.053 47.9253 266.427 47.808C266.811 47.68 267.173 47.5627 267.515 47.456C267.856 47.3387 268.133 47.2053 268.347 47.056C268.571 46.9067 268.683 46.7093 268.683 46.464V45.472C268.683 45.024 268.613 44.6827 268.475 44.448C268.347 44.2133 268.171 44.0587 267.947 43.984C267.723 43.8987 267.472 43.856 267.195 43.856C266.928 43.856 266.64 43.8933 266.331 43.968C266.032 44.0427 265.792 44.1973 265.611 44.432C265.813 44.4747 265.989 44.5813 266.139 44.752C266.288 44.9227 266.363 45.1413 266.363 45.408C266.363 45.6747 266.277 45.888 266.107 46.048C265.936 46.1973 265.717 46.272 265.451 46.272C265.141 46.272 264.912 46.176 264.763 45.984C264.624 45.7813 264.555 45.5573 264.555 45.312C264.555 45.0347 264.624 44.8107 264.763 44.64C264.901 44.4693 265.077 44.3093 265.291 44.16C265.536 43.9893 265.851 43.8453 266.235 43.728C266.629 43.6 267.072 43.536 267.562 43.536C268 43.536 268.373 43.5893 268.683 43.696C268.992 43.792 269.248 43.936 269.451 44.128C269.728 44.384 269.909 44.6987 269.995 45.072C270.08 45.4347 270.123 45.872 270.123 46.384V50.832C270.123 51.0987 270.16 51.2907 270.235 51.408C270.32 51.5253 270.448 51.584 270.619 51.584C270.736 51.584 270.848 51.5573 270.955 51.504C271.061 51.4507 271.189 51.3653 271.339 51.248L271.515 51.52C271.291 51.6907 271.077 51.8347 270.875 51.952C270.672 52.0587 270.4 52.112 270.059 52.112C269.749 52.112 269.493 52.0587 269.291 51.952C269.088 51.8453 268.933 51.6907 268.827 51.488C268.731 51.2747 268.683 51.008 268.683 50.688C268.395 51.168 268.048 51.5253 267.643 51.76C267.248 51.9947 266.8 52.112 266.299 52.112ZM266.875 51.472C267.227 51.472 267.552 51.3707 267.851 51.168C268.16 50.9653 268.437 50.6613 268.683 50.256V47.12C268.555 47.3013 268.368 47.456 268.123 47.584C267.877 47.7013 267.611 47.824 267.323 47.952C267.035 48.0693 266.757 48.2133 266.491 48.384C266.235 48.544 266.021 48.7573 265.851 49.024C265.68 49.2907 265.595 49.6373 265.595 50.064C265.595 50.4907 265.707 50.832 265.931 51.088C266.165 51.344 266.48 51.472 266.875 51.472ZM277.371 43.536C277.777 43.536 278.113 43.5893 278.379 43.696C278.657 43.8027 278.886 43.952 279.067 44.144C279.27 44.3573 279.414 44.624 279.499 44.944C279.585 45.264 279.627 45.696 279.627 46.24V50.512C279.627 50.96 279.718 51.264 279.899 51.424C280.091 51.584 280.406 51.664 280.843 51.664V52C280.662 51.9893 280.385 51.9787 280.011 51.968C279.638 51.9467 279.275 51.936 278.923 51.936C278.571 51.936 278.225 51.9467 277.883 51.968C277.553 51.9787 277.302 51.9893 277.131 52V51.664C277.515 51.664 277.787 51.584 277.947 51.424C278.107 51.264 278.187 50.96 278.187 50.512V45.888C278.187 45.5573 278.161 45.2533 278.107 44.976C278.054 44.6987 277.931 44.4747 277.739 44.304C277.558 44.1333 277.275 44.048 276.891 44.048C276.443 44.048 276.049 44.176 275.707 44.432C275.377 44.688 275.115 45.04 274.923 45.488C274.742 45.9253 274.651 46.416 274.651 46.96V50.512C274.651 50.96 274.731 51.264 274.891 51.424C275.051 51.584 275.323 51.664 275.707 51.664V52C275.537 51.9893 275.281 51.9787 274.939 51.968C274.609 51.9467 274.267 51.936 273.915 51.936C273.563 51.936 273.201 51.9467 272.827 51.968C272.454 51.9787 272.177 51.9893 271.995 52V51.664C272.433 51.664 272.742 51.584 272.923 51.424C273.115 51.264 273.211 50.96 273.211 50.512V45.504C273.211 45.024 273.126 44.672 272.955 44.448C272.785 44.2133 272.465 44.096 271.995 44.096V43.76C272.337 43.792 272.667 43.808 272.987 43.808C273.297 43.808 273.59 43.792 273.867 43.76C274.155 43.7173 274.417 43.6587 274.651 43.584V45.472C274.929 44.7467 275.313 44.2453 275.803 43.968C276.305 43.68 276.827 43.536 277.371 43.536ZM284.118 41.104V43.776H286.486V44.096H284.118V50.288C284.118 50.7893 284.209 51.1413 284.39 51.344C284.571 51.5467 284.822 51.648 285.142 51.648C285.462 51.648 285.739 51.52 285.974 51.264C286.209 50.9973 286.411 50.5547 286.582 49.936L286.902 50.016C286.795 50.6347 286.582 51.1573 286.262 51.584C285.953 52.0107 285.473 52.224 284.822 52.224C284.459 52.224 284.161 52.176 283.926 52.08C283.691 51.9947 283.483 51.8667 283.302 51.696C283.067 51.4507 282.902 51.1573 282.806 50.816C282.721 50.4747 282.678 50.0213 282.678 49.456V44.096H281.142V43.776H282.678V41.328C282.945 41.3173 283.201 41.296 283.446 41.264C283.691 41.232 283.915 41.1787 284.118 41.104Z" fill="white"/>
</g>
<defs>
<filter id="filter0_d_116_58" x="1" y="5" width="58" height="56" filterUnits="userSpaceOnUse" color-interpolation-filters="sRGB">
<feFlood flood-opacity="0" result="BackgroundImageFix"/>
<feColorMatrix in="SourceAlpha" type="matrix" values="0 0 0 0 0 0 0 0 0 0 0 0 0 0 0 0 0 0 127 0" result="hardAlpha"/>
<feOffset dy="4"/>
<feGaussianBlur stdDeviation="2"/>
<feComposite in2="hardAlpha" operator="out"/>
<feColorMatrix type="matrix" values="0 0 0 0 0 0 0 0 0 0 0 0 0 0 0 0 0 0 0.25 0"/>
<feBlend mode="normal" in2="BackgroundImageFix" result="effect1_dropShadow_116_58"/>
<feBlend mode="normal" in="SourceGraphic" in2="effect1_dropShadow_116_58" result="shape"/>
</filter>
<filter id="filter1_d_116_58" x="6.54161" y="28.7981" width="25.7929" height="19.7965" filterUnits="userSpaceOnUse" color-interpolation-filters="sRGB">
<feFlood flood-opacity="0" result="BackgroundImageFix"/>
<feColorMatrix in="SourceAlpha" type="matrix" values="0 0 0 0 0 0 0 0 0 0 0 0 0 0 0 0 0 0 127 0" result="hardAlpha"/>
<feOffset dy="2"/>
<feGaussianBlur stdDeviation="1"/>
<feComposite in2="hardAlpha" operator="out"/>
<feColorMatrix type="matrix" values="0 0 0 0 0.227451 0 0 0 0 0.388235 0 0 0 0 0.196078 0 0 0 0.25 0"/>
<feBlend mode="normal" in2="BackgroundImageFix" result="effect1_dropShadow_116_58"/>
<feBlend mode="normal" in="SourceGraphic" in2="effect1_dropShadow_116_58" result="shape"/>
</filter>
<filter id="filter2_d_116_58" x="17.7134" y="15.6575" width="14.5491" height="11.9152" filterUnits="userSpaceOnUse" color-interpolation-filters="sRGB">
<feFlood flood-opacity="0" result="BackgroundImageFix"/>
<feColorMatrix in="SourceAlpha" type="matrix" values="0 0 0 0 0 0 0 0 0 0 0 0 0 0 0 0 0 0 127 0" result="hardAlpha"/>
<feOffset dy="2"/>
<feGaussianBlur stdDeviation="1"/>
<feComposite in2="hardAlpha" operator="out"/>
<feColorMatrix type="matrix" values="0 0 0 0 0.227451 0 0 0 0 0.388235 0 0 0 0 0.196078 0 0 0 0.25 0"/>
<feBlend mode="normal" in2="BackgroundImageFix" result="effect1_dropShadow_116_58"/>
<feBlend mode="normal" in="SourceGraphic" in2="effect1_dropShadow_116_58" result="shape"/>
</filter>
<filter id="filter3_d_116_58" x="11.9076" y="22.2829" width="20.6894" height="16.2192" filterUnits="userSpaceOnUse" color-interpolation-filters="sRGB">
<feFlood flood-opacity="0" result="BackgroundImageFix"/>
<feColorMatrix in="SourceAlpha" type="matrix" values="0 0 0 0 0 0 0 0 0 0 0 0 0 0 0 0 0 0 127 0" result="hardAlpha"/>
<feOffset dy="2"/>
<feGaussianBlur stdDeviation="1"/>
<feComposite in2="hardAlpha" operator="out"/>
<feColorMatrix type="matrix" values="0 0 0 0 0.227451 0 0 0 0 0.388235 0 0 0 0 0.196078 0 0 0 0.25 0"/>
<feBlend mode="normal" in2="BackgroundImageFix" result="effect1_dropShadow_116_58"/>
<feBlend mode="normal" in="SourceGraphic" in2="effect1_dropShadow_116_58" result="shape"/>
</filter>
<filter id="filter4_d_116_58" x="27.3522" y="14.3489" width="14.4765" height="11.8643" filterUnits="userSpaceOnUse" color-interpolation-filters="sRGB">
<feFlood flood-opacity="0" result="BackgroundImageFix"/>
<feColorMatrix in="SourceAlpha" type="matrix" values="0 0 0 0 0 0 0 0 0 0 0 0 0 0 0 0 0 0 127 0" result="hardAlpha"/>
<feOffset dy="2"/>
<feGaussianBlur stdDeviation="1"/>
<feComposite in2="hardAlpha" operator="out"/>
<feColorMatrix type="matrix" values="0 0 0 0 0.227451 0 0 0 0 0.388235 0 0 0 0 0.196078 0 0 0 0.25 0"/>
<feBlend mode="normal" in2="BackgroundImageFix" result="effect1_dropShadow_116_58"/>
<feBlend mode="normal" in="SourceGraphic" in2="effect1_dropShadow_116_58" result="shape"/>
</filter>
<filter id="filter5_d_116_58" x="27.3522" y="20.9971" width="20.5245" height="16.1036" filterUnits="userSpaceOnUse" color-interpolation-filters="sRGB">
<feFlood flood-opacity="0" result="BackgroundImageFix"/>
<feColorMatrix in="SourceAlpha" type="matrix" values="0 0 0 0 0 0 0 0 0 0 0 0 0 0 0 0 0 0 127 0" result="hardAlpha"/>
<feOffset dy="2"/>
<feGaussianBlur stdDeviation="1"/>
<feComposite in2="hardAlpha" operator="out"/>
<feColorMatrix type="matrix" values="0 0 0 0 0.227451 0 0 0 0 0.388235 0 0 0 0 0.196078 0 0 0 0.25 0"/>
<feBlend mode="normal" in2="BackgroundImageFix" result="effect1_dropShadow_116_58"/>
<feBlend mode="normal" in="SourceGraphic" in2="effect1_dropShadow_116_58" result="shape"/>
</filter>
<filter id="filter6_d_116_58" x="27" y="9" width="6" height="46" filterUnits="userSpaceOnUse" color-interpolation-filters="sRGB">
<feFlood flood-opacity="0" result="BackgroundImageFix"/>
<feColorMatrix in="SourceAlpha" type="matrix" values="0 0 0 0 0 0 0 0 0 0 0 0 0 0 0 0 0 0 127 0" result="hardAlpha"/>
<feOffset dy="2"/>
<feGaussianBlur stdDeviation="1"/>
<feComposite in2="hardAlpha" operator="out"/>
<feColorMatrix type="matrix" values="0 0 0 0 0.227451 0 0 0 0 0.388235 0 0 0 0 0.196078 0 0 0 0.25 0"/>
<feBlend mode="normal" in2="BackgroundImageFix" result="effect1_dropShadow_116_58"/>
<feBlend mode="normal" in="SourceGraphic" in2="effect1_dropShadow_116_58" result="shape"/>
</filter>
<filter id="filter7_d_116_58" x="27.7974" y="27.8992" width="25.3504" height="19.4863" filterUnits="userSpaceOnUse" color-interpolation-filters="sRGB">
<feFlood flood-opacity="0" result="BackgroundImageFix"/>
<feColorMatrix in="SourceAlpha" type="matrix" values="0 0 0 0 0 0 0 0 0 0 0 0 0 0 0 0 0 0 127 0" result="hardAlpha"/>
<feOffset dy="2"/>
<feGaussianBlur stdDeviation="1"/>
<feComposite in2="hardAlpha" operator="out"/>
<feColorMatrix type="matrix" values="0 0 0 0 0.227451 0 0 0 0 0.388235 0 0 0 0 0.196078 0 0 0 0.25 0"/>
<feBlend mode="normal" in2="BackgroundImageFix" result="effect1_dropShadow_116_58"/>
<feBlend mode="normal" in="SourceGraphic" in2="effect1_dropShadow_116_58" result="shape"/>
</filter>
<filter id="filter8_d_116_58" x="59.928" y="10.344" width="64.239" height="30.656" filterUnits="userSpaceOnUse" color-interpolation-filters="sRGB">
<feFlood flood-opacity="0" result="BackgroundImageFix"/>
<feColorMatrix in="SourceAlpha" type="matrix" values="0 0 0 0 0 0 0 0 0 0 0 0 0 0 0 0 0 0 127 0" result="hardAlpha"/>
<feOffset dy="4"/>
<feGaussianBlur stdDeviation="2"/>
<feComposite in2="hardAlpha" operator="out"/>
<feColorMatrix type="matrix" values="0 0 0 0 0 0 0 0 0 0 0 0 0 0 0 0 0 0 0.25 0"/>
<feBlend mode="normal" in2="BackgroundImageFix" result="effect1_dropShadow_116_58"/>
<feBlend mode="normal" in="SourceGraphic" in2="effect1_dropShadow_116_58" result="shape"/>
</filter>
<filter id="filter9_d_116_58" x="59.464" y="39.456" width="231.438" height="23.44" filterUnits="userSpaceOnUse" color-interpolation-filters="sRGB">
<feFlood flood-opacity="0" result="BackgroundImageFix"/>
<feColorMatrix in="SourceAlpha" type="matrix" values="0 0 0 0 0 0 0 0 0 0 0 0 0 0 0 0 0 0 127 0" result="hardAlpha"/>
<feOffset dy="4"/>
<feGaussianBlur stdDeviation="2"/>
<feComposite in2="hardAlpha" operator="out"/>
<feColorMatrix type="matrix" values="0 0 0 0 0 0 0 0 0 0 0 0 0 0 0 0 0 0 0.25 0"/>
<feBlend mode="normal" in2="BackgroundImageFix" result="effect1_dropShadow_116_58"/>
<feBlend mode="normal" in="SourceGraphic" in2="effect1_dropShadow_116_58" result="shape"/>
</filter>
</defs>
</svg>
