<svg width="632" height="96" viewBox="0 0 632 96" fill="none" xmlns="http://www.w3.org/2000/svg">
<path d="M85.5 53C85.5 76.4721 66.4721 95.5 43 95.5C19.5279 95.5 0.5 76.4721 0.5 53C0.5 29.5279 19.5279 10.5 43 10.5C66.4721 10.5 85.5 29.5279 85.5 53Z" fill="white" stroke="#00875F"/>
<path d="M6.3751 53.3119C5.88397 54.0291 6.05496 55.0261 6.75702 55.5387L41.1315 80.6374C41.8336 81.15 42.8008 80.9841 43.292 80.2669C43.7831 79.5496 43.6121 78.5526 42.9101 78.04L8.53556 52.9413C7.8335 52.4287 6.86623 52.5946 6.3751 53.3119Z" fill="#00875F"/>
<rect width="21.7644" height="3.14797" rx="1.57399" transform="matrix(0.807628 0.589693 0.56498 -0.825105 24.7012 31.0669)" fill="#00875F"/>
<rect width="34.8414" height="3.14797" rx="1.57399" transform="matrix(0.807628 0.589693 0.56498 -0.825105 14.7153 42.9373)" fill="#00875F"/>
<rect width="21.6099" height="3.14797" rx="1.57399" transform="matrix(0.807628 -0.589693 0.56498 0.825105 41.28 38.8684)" fill="#00875F"/>
<path d="M42.1693 59.6737C41.6782 58.9564 41.8492 57.9594 42.5512 57.4468L67.8642 38.9645C68.5662 38.4519 69.5335 38.6178 70.0246 39.335C70.5158 40.0523 70.3448 41.0493 69.6427 41.5619L44.3298 60.0442C43.6277 60.5569 42.6604 60.391 42.1693 59.6737Z" fill="#00875F"/>
<path d="M41.28 18.8868C41.28 17.9368 42.0501 17.1667 43 17.1667C43.95 17.1667 44.72 17.9368 44.72 18.8867V92.4167H41.28V18.8868Z" fill="#00875F"/>
<path d="M42.9349 78.1005C42.4438 77.3832 42.6148 76.3862 43.3168 75.8736L76.9302 51.3307C77.6323 50.818 78.5995 50.9839 79.0907 51.7012C79.5818 52.4184 79.4108 53.4154 78.7087 53.9281L45.0954 78.471C44.3933 78.9836 43.4261 78.8177 42.9349 78.1005Z" fill="#00875F"/>
<path d="M110.051 23.054L120.299 49.472C120.719 50.536 121.195 51.25 121.727 51.614C122.259 51.95 122.749 52.132 123.197 52.16V53C122.637 52.944 121.951 52.916 121.139 52.916C120.327 52.888 119.515 52.874 118.703 52.874C117.611 52.874 116.589 52.888 115.637 52.916C114.685 52.916 113.915 52.944 113.327 53V52.16C114.755 52.104 115.665 51.866 116.057 51.446C116.449 50.998 116.365 50.06 115.805 48.632L107.993 27.758L108.665 27.212L101.357 46.196C100.909 47.316 100.643 48.268 100.559 49.052C100.475 49.808 100.545 50.41 100.769 50.858C101.021 51.306 101.427 51.628 101.987 51.824C102.575 52.02 103.303 52.132 104.171 52.16V53C103.387 52.944 102.561 52.916 101.693 52.916C100.853 52.888 100.069 52.874 99.3414 52.874C98.6414 52.874 98.0394 52.888 97.5354 52.916C97.0594 52.916 96.6114 52.944 96.1914 53V52.16C96.7514 52.02 97.3254 51.698 97.9134 51.194C98.5014 50.662 99.0334 49.766 99.5094 48.506L109.379 23.054C109.491 23.054 109.603 23.054 109.715 23.054C109.827 23.054 109.939 23.054 110.051 23.054ZM115.175 40.904V41.744H102.659L103.079 40.904H115.175ZM138.27 30.782C139.334 30.782 140.216 30.922 140.916 31.202C141.644 31.482 142.246 31.874 142.722 32.378C143.254 32.938 143.632 33.638 143.856 34.478C144.08 35.318 144.192 36.452 144.192 37.88V49.094C144.192 50.27 144.43 51.068 144.906 51.488C145.41 51.908 146.236 52.118 147.384 52.118V53C146.908 52.972 146.18 52.944 145.2 52.916C144.22 52.86 143.268 52.832 142.344 52.832C141.42 52.832 140.51 52.86 139.614 52.916C138.746 52.944 138.088 52.972 137.64 53V52.118C138.648 52.118 139.362 51.908 139.782 51.488C140.202 51.068 140.412 50.27 140.412 49.094V36.956C140.412 36.088 140.342 35.29 140.202 34.562C140.062 33.834 139.74 33.246 139.236 32.798C138.76 32.35 138.018 32.126 137.01 32.126C135.834 32.126 134.798 32.462 133.902 33.134C133.034 33.806 132.348 34.73 131.844 35.906C131.368 37.054 131.13 38.342 131.13 39.77V49.094C131.13 50.27 131.34 51.068 131.76 51.488C132.18 51.908 132.894 52.118 133.902 52.118V53C133.454 52.972 132.782 52.944 131.886 52.916C131.018 52.86 130.122 52.832 129.198 52.832C128.274 52.832 127.322 52.86 126.342 52.916C125.362 52.944 124.634 52.972 124.158 53V52.118C125.306 52.118 126.118 51.908 126.594 51.488C127.098 51.068 127.35 50.27 127.35 49.094V35.948C127.35 34.688 127.126 33.764 126.678 33.176C126.23 32.56 125.39 32.252 124.158 32.252V31.37C125.054 31.454 125.922 31.496 126.762 31.496C127.574 31.496 128.344 31.454 129.072 31.37C129.828 31.258 130.514 31.104 131.13 30.908V35.864C131.858 33.96 132.866 32.644 134.154 31.916C135.47 31.16 136.842 30.782 138.27 30.782ZM163.331 30.782C164.395 30.782 165.277 30.922 165.977 31.202C166.705 31.482 167.307 31.874 167.783 32.378C168.315 32.938 168.693 33.638 168.917 34.478C169.141 35.318 169.253 36.452 169.253 37.88V49.094C169.253 50.27 169.491 51.068 169.967 51.488C170.471 51.908 171.297 52.118 172.445 52.118V53C171.969 52.972 171.241 52.944 170.261 52.916C169.281 52.86 168.329 52.832 167.405 52.832C166.481 52.832 165.571 52.86 164.675 52.916C163.807 52.944 163.149 52.972 162.701 53V52.118C163.709 52.118 164.423 51.908 164.843 51.488C165.263 51.068 165.473 50.27 165.473 49.094V36.956C165.473 36.088 165.403 35.29 165.263 34.562C165.123 33.834 164.801 33.246 164.297 32.798C163.821 32.35 163.079 32.126 162.071 32.126C160.895 32.126 159.859 32.462 158.963 33.134C158.095 33.806 157.409 34.73 156.905 35.906C156.429 37.054 156.191 38.342 156.191 39.77V49.094C156.191 50.27 156.401 51.068 156.821 51.488C157.241 51.908 157.955 52.118 158.963 52.118V53C158.515 52.972 157.843 52.944 156.947 52.916C156.079 52.86 155.183 52.832 154.259 52.832C153.335 52.832 152.383 52.86 151.403 52.916C150.423 52.944 149.695 52.972 149.219 53V52.118C150.367 52.118 151.179 51.908 151.655 51.488C152.159 51.068 152.411 50.27 152.411 49.094V35.948C152.411 34.688 152.187 33.764 151.739 33.176C151.291 32.56 150.451 32.252 149.219 32.252V31.37C150.115 31.454 150.983 31.496 151.823 31.496C152.635 31.496 153.405 31.454 154.133 31.37C154.889 31.258 155.575 31.104 156.191 30.908V35.864C156.919 33.96 157.927 32.644 159.215 31.916C160.531 31.16 161.903 30.782 163.331 30.782ZM184.57 30.782C186.362 30.782 187.972 31.174 189.4 31.958C190.828 32.742 191.962 33.974 192.802 35.654C193.67 37.334 194.104 39.518 194.104 42.206C194.104 44.894 193.67 47.078 192.802 48.758C191.962 50.41 190.828 51.628 189.4 52.412C187.972 53.196 186.362 53.588 184.57 53.588C182.806 53.588 181.196 53.196 179.74 52.412C178.312 51.628 177.164 50.41 176.296 48.758C175.456 47.078 175.036 44.894 175.036 42.206C175.036 39.518 175.456 37.334 176.296 35.654C177.164 33.974 178.312 32.742 179.74 31.958C181.196 31.174 182.806 30.782 184.57 30.782ZM184.57 31.622C182.974 31.622 181.658 32.448 180.622 34.1C179.614 35.752 179.11 38.454 179.11 42.206C179.11 45.958 179.614 48.66 180.622 50.312C181.658 51.936 182.974 52.748 184.57 52.748C186.166 52.748 187.468 51.936 188.476 50.312C189.512 48.66 190.03 45.958 190.03 42.206C190.03 38.454 189.512 35.752 188.476 34.1C187.468 32.448 186.166 31.622 184.57 31.622ZM219.131 23.264C219.019 24.328 218.935 25.364 218.879 26.372C218.851 27.352 218.837 28.108 218.837 28.64C218.837 29.312 218.851 29.942 218.879 30.53C218.907 31.118 218.935 31.636 218.963 32.084H217.997C217.801 30.124 217.535 28.584 217.199 27.464C216.863 26.316 216.275 25.49 215.435 24.986C214.595 24.482 213.293 24.23 211.529 24.23H209.261V48.128C209.261 49.248 209.359 50.088 209.555 50.648C209.779 51.208 210.199 51.586 210.815 51.782C211.431 51.978 212.327 52.104 213.503 52.16V53C212.775 52.944 211.851 52.916 210.731 52.916C209.611 52.888 208.477 52.874 207.329 52.874C206.069 52.874 204.879 52.888 203.759 52.916C202.667 52.916 201.785 52.944 201.113 53V52.16C202.289 52.104 203.185 51.978 203.801 51.782C204.417 51.586 204.823 51.208 205.019 50.648C205.243 50.088 205.355 49.248 205.355 48.128V24.23H203.087C201.351 24.23 200.049 24.482 199.181 24.986C198.341 25.49 197.753 26.316 197.417 27.464C197.081 28.584 196.815 30.124 196.619 32.084H195.653C195.709 31.636 195.737 31.118 195.737 30.53C195.765 29.942 195.779 29.312 195.779 28.64C195.779 28.108 195.751 27.352 195.695 26.372C195.667 25.364 195.597 24.328 195.485 23.264C196.661 23.292 197.935 23.32 199.307 23.348C200.707 23.376 202.107 23.39 203.507 23.39C204.907 23.39 206.181 23.39 207.329 23.39C208.477 23.39 209.737 23.39 211.109 23.39C212.509 23.39 213.909 23.376 215.309 23.348C216.709 23.32 217.983 23.292 219.131 23.264ZM243.075 23.264C242.963 24.244 242.879 25.196 242.823 26.12C242.795 27.044 242.781 27.744 242.781 28.22C242.781 28.724 242.795 29.214 242.823 29.69C242.851 30.138 242.879 30.516 242.907 30.824H241.941C241.773 29.172 241.535 27.87 241.227 26.918C240.919 25.938 240.387 25.252 239.631 24.86C238.903 24.44 237.797 24.23 236.313 24.23H232.827C231.875 24.23 231.147 24.314 230.643 24.482C230.167 24.622 229.845 24.944 229.677 25.448C229.509 25.924 229.425 26.68 229.425 27.716V48.548C229.425 49.556 229.509 50.312 229.677 50.816C229.845 51.32 230.167 51.656 230.643 51.824C231.147 51.964 231.875 52.034 232.827 52.034H235.893C237.657 52.034 238.987 51.796 239.883 51.32C240.807 50.844 241.465 50.074 241.857 49.01C242.277 47.918 242.585 46.448 242.781 44.6H243.747C243.663 45.356 243.621 46.364 243.621 47.624C243.621 48.156 243.635 48.926 243.663 49.934C243.719 50.914 243.803 51.936 243.915 53C242.487 52.944 240.877 52.916 239.085 52.916C237.293 52.888 235.697 52.874 234.297 52.874C233.681 52.874 232.883 52.874 231.903 52.874C230.951 52.874 229.915 52.888 228.795 52.916C227.675 52.916 226.541 52.93 225.393 52.958C224.245 52.958 223.153 52.972 222.117 53V52.16C223.069 52.104 223.783 51.992 224.259 51.824C224.763 51.656 225.099 51.32 225.267 50.816C225.435 50.312 225.519 49.556 225.519 48.548V27.716C225.519 26.68 225.435 25.924 225.267 25.448C225.099 24.944 224.763 24.608 224.259 24.44C223.783 24.244 223.069 24.132 222.117 24.104V23.264C223.153 23.292 224.245 23.32 225.393 23.348C226.541 23.348 227.675 23.362 228.795 23.39C229.915 23.39 230.951 23.39 231.903 23.39C232.883 23.39 233.681 23.39 234.297 23.39C235.585 23.39 237.041 23.39 238.665 23.39C240.317 23.362 241.787 23.32 243.075 23.264ZM235.851 37.628C235.851 37.628 235.851 37.768 235.851 38.048C235.851 38.328 235.851 38.468 235.851 38.468H228.165C228.165 38.468 228.165 38.328 228.165 38.048C228.165 37.768 228.165 37.628 228.165 37.628H235.851ZM237.069 32.084C236.957 33.68 236.901 34.898 236.901 35.738C236.929 36.578 236.943 37.348 236.943 38.048C236.943 38.748 236.957 39.518 236.985 40.358C237.013 41.198 237.083 42.416 237.195 44.012H236.229C236.117 43.116 235.977 42.248 235.809 41.408C235.669 40.54 235.333 39.84 234.801 39.308C234.297 38.748 233.429 38.468 232.197 38.468V37.628C233.121 37.628 233.821 37.446 234.297 37.082C234.801 36.69 235.165 36.2 235.389 35.612C235.613 35.024 235.767 34.422 235.851 33.806C235.935 33.162 236.019 32.588 236.103 32.084H237.069ZM247.71 23.264C248.298 23.292 249.068 23.32 250.02 23.348C250.972 23.376 251.91 23.39 252.834 23.39C254.15 23.39 255.41 23.376 256.614 23.348C257.818 23.32 258.672 23.306 259.176 23.306C262.564 23.306 265.098 24.076 266.778 25.616C268.458 27.156 269.298 29.144 269.298 31.58C269.298 32.588 269.13 33.652 268.794 34.772C268.458 35.864 267.87 36.886 267.03 37.838C266.218 38.762 265.098 39.518 263.67 40.106C262.242 40.694 260.436 40.988 258.252 40.988H254.22V40.148H257.832C259.82 40.148 261.332 39.77 262.368 39.014C263.432 38.258 264.146 37.264 264.51 36.032C264.902 34.8 265.098 33.47 265.098 32.042C265.098 29.382 264.566 27.394 263.502 26.078C262.466 24.762 260.674 24.104 258.126 24.104C256.838 24.104 255.998 24.342 255.606 24.818C255.214 25.294 255.018 26.26 255.018 27.716V48.548C255.018 49.556 255.116 50.312 255.312 50.816C255.536 51.32 255.956 51.656 256.572 51.824C257.188 51.992 258.084 52.104 259.26 52.16V53C258.532 52.944 257.608 52.916 256.488 52.916C255.368 52.888 254.234 52.874 253.086 52.874C251.994 52.874 250.972 52.888 250.02 52.916C249.068 52.916 248.298 52.944 247.71 53V52.16C248.662 52.104 249.376 51.992 249.852 51.824C250.356 51.656 250.692 51.32 250.86 50.816C251.028 50.312 251.112 49.556 251.112 48.548V27.716C251.112 26.68 251.028 25.924 250.86 25.448C250.692 24.944 250.356 24.608 249.852 24.44C249.376 24.244 248.662 24.132 247.71 24.104V23.264Z" fill="#00875F"/>
<path d="M104.398 72.1287L110.742 88.4827C111.002 89.1414 111.297 89.5834 111.626 89.8087C111.955 90.0167 112.259 90.1294 112.536 90.1467V90.6667C112.189 90.6321 111.765 90.6147 111.262 90.6147C110.759 90.5974 110.257 90.5887 109.754 90.5887C109.078 90.5887 108.445 90.5974 107.856 90.6147C107.267 90.6147 106.79 90.6321 106.426 90.6667V90.1467C107.31 90.1121 107.873 89.9647 108.116 89.7047C108.359 89.4274 108.307 88.8467 107.96 87.9627L103.124 75.0407L103.54 74.7027L99.016 86.4547C98.7387 87.1481 98.574 87.7374 98.522 88.2227C98.47 88.6907 98.5133 89.0634 98.652 89.3407C98.808 89.6181 99.0593 89.8174 99.406 89.9387C99.77 90.0601 100.221 90.1294 100.758 90.1467V90.6667C100.273 90.6321 99.7613 90.6147 99.224 90.6147C98.704 90.5974 98.2187 90.5887 97.768 90.5887C97.3347 90.5887 96.962 90.5974 96.65 90.6147C96.3553 90.6147 96.078 90.6321 95.818 90.6667V90.1467C96.1647 90.0601 96.52 89.8607 96.884 89.5487C97.248 89.2194 97.5773 88.6647 97.872 87.8847L103.982 72.1287C104.051 72.1287 104.121 72.1287 104.19 72.1287C104.259 72.1287 104.329 72.1287 104.398 72.1287ZM107.57 83.1787V83.6987H99.822L100.082 83.1787H107.57ZM121.867 76.9127C122.526 76.9127 123.072 76.9994 123.505 77.1727C123.956 77.3461 124.328 77.5887 124.623 77.9007C124.952 78.2474 125.186 78.6807 125.325 79.2007C125.464 79.7207 125.533 80.4227 125.533 81.3067V88.2487C125.533 88.9767 125.68 89.4707 125.975 89.7307C126.287 89.9907 126.798 90.1207 127.509 90.1207V90.6667C127.214 90.6494 126.764 90.6321 126.157 90.6147C125.55 90.5801 124.961 90.5627 124.389 90.5627C123.817 90.5627 123.254 90.5801 122.699 90.6147C122.162 90.6321 121.754 90.6494 121.477 90.6667V90.1207C122.101 90.1207 122.543 89.9907 122.803 89.7307C123.063 89.4707 123.193 88.9767 123.193 88.2487V80.7347C123.193 80.1974 123.15 79.7034 123.063 79.2527C122.976 78.8021 122.777 78.4381 122.465 78.1607C122.17 77.8834 121.711 77.7447 121.087 77.7447C120.359 77.7447 119.718 77.9527 119.163 78.3687C118.626 78.7847 118.201 79.3567 117.889 80.0847C117.594 80.7954 117.447 81.5927 117.447 82.4767V88.2487C117.447 88.9767 117.577 89.4707 117.837 89.7307C118.097 89.9907 118.539 90.1207 119.163 90.1207V90.6667C118.886 90.6494 118.47 90.6321 117.915 90.6147C117.378 90.5801 116.823 90.5627 116.251 90.5627C115.679 90.5627 115.09 90.5801 114.483 90.6147C113.876 90.6321 113.426 90.6494 113.131 90.6667V90.1207C113.842 90.1207 114.344 89.9907 114.639 89.7307C114.951 89.4707 115.107 88.9767 115.107 88.2487V80.1107C115.107 79.3307 114.968 78.7587 114.691 78.3947C114.414 78.0134 113.894 77.8227 113.131 77.8227V77.2767C113.686 77.3287 114.223 77.3547 114.743 77.3547C115.246 77.3547 115.722 77.3287 116.173 77.2767C116.641 77.2074 117.066 77.1121 117.447 76.9907V80.0587C117.898 78.8801 118.522 78.0654 119.319 77.6147C120.134 77.1467 120.983 76.9127 121.867 76.9127ZM137.381 76.9127C138.039 76.9127 138.585 76.9994 139.019 77.1727C139.469 77.3461 139.842 77.5887 140.137 77.9007C140.466 78.2474 140.7 78.6807 140.839 79.2007C140.977 79.7207 141.047 80.4227 141.047 81.3067V88.2487C141.047 88.9767 141.194 89.4707 141.489 89.7307C141.801 89.9907 142.312 90.1207 143.023 90.1207V90.6667C142.728 90.6494 142.277 90.6321 141.671 90.6147C141.064 90.5801 140.475 90.5627 139.903 90.5627C139.331 90.5627 138.767 90.5801 138.213 90.6147C137.675 90.6321 137.268 90.6494 136.991 90.6667V90.1207C137.615 90.1207 138.057 89.9907 138.317 89.7307C138.577 89.4707 138.707 88.9767 138.707 88.2487V80.7347C138.707 80.1974 138.663 79.7034 138.577 79.2527C138.49 78.8021 138.291 78.4381 137.979 78.1607C137.684 77.8834 137.225 77.7447 136.601 77.7447C135.873 77.7447 135.231 77.9527 134.677 78.3687C134.139 78.7847 133.715 79.3567 133.403 80.0847C133.108 80.7954 132.961 81.5927 132.961 82.4767V88.2487C132.961 88.9767 133.091 89.4707 133.351 89.7307C133.611 89.9907 134.053 90.1207 134.677 90.1207V90.6667C134.399 90.6494 133.983 90.6321 133.429 90.6147C132.891 90.5801 132.337 90.5627 131.765 90.5627C131.193 90.5627 130.603 90.5801 129.997 90.6147C129.39 90.6321 128.939 90.6494 128.645 90.6667V90.1207C129.355 90.1207 129.858 89.9907 130.153 89.7307C130.465 89.4707 130.621 88.9767 130.621 88.2487V80.1107C130.621 79.3307 130.482 78.7587 130.205 78.3947C129.927 78.0134 129.407 77.8227 128.645 77.8227V77.2767C129.199 77.3287 129.737 77.3547 130.257 77.3547C130.759 77.3547 131.236 77.3287 131.687 77.2767C132.155 77.2074 132.579 77.1121 132.961 76.9907V80.0587C133.411 78.8801 134.035 78.0654 134.833 77.6147C135.647 77.1467 136.497 76.9127 137.381 76.9127ZM150.528 76.9127C151.638 76.9127 152.634 77.1554 153.518 77.6407C154.402 78.1261 155.104 78.8887 155.624 79.9287C156.162 80.9687 156.43 82.3207 156.43 83.9847C156.43 85.6487 156.162 87.0007 155.624 88.0407C155.104 89.0634 154.402 89.8174 153.518 90.3027C152.634 90.7881 151.638 91.0307 150.528 91.0307C149.436 91.0307 148.44 90.7881 147.538 90.3027C146.654 89.8174 145.944 89.0634 145.406 88.0407C144.886 87.0007 144.626 85.6487 144.626 83.9847C144.626 82.3207 144.886 80.9687 145.406 79.9287C145.944 78.8887 146.654 78.1261 147.538 77.6407C148.44 77.1554 149.436 76.9127 150.528 76.9127ZM150.528 77.4327C149.54 77.4327 148.726 77.9441 148.084 78.9667C147.46 79.9894 147.148 81.6621 147.148 83.9847C147.148 86.3074 147.46 87.9801 148.084 89.0027C148.726 90.0081 149.54 90.5107 150.528 90.5107C151.516 90.5107 152.322 90.0081 152.946 89.0027C153.588 87.9801 153.908 86.3074 153.908 83.9847C153.908 81.6621 153.588 79.9894 152.946 78.9667C152.322 77.9441 151.516 77.4327 150.528 77.4327ZM162.588 72.9607V77.3027H166.436V77.8227H162.588V87.8847C162.588 88.6994 162.736 89.2714 163.03 89.6007C163.325 89.9301 163.732 90.0947 164.252 90.0947C164.772 90.0947 165.223 89.8867 165.604 89.4707C165.986 89.0374 166.315 88.3181 166.592 87.3127L167.112 87.4427C166.939 88.4481 166.592 89.2974 166.072 89.9907C165.57 90.6841 164.79 91.0307 163.732 91.0307C163.143 91.0307 162.658 90.9527 162.276 90.7967C161.895 90.6581 161.557 90.4501 161.262 90.1727C160.881 89.7741 160.612 89.2974 160.456 88.7427C160.318 88.1881 160.248 87.4514 160.248 86.5327V77.8227H157.752V77.3027H160.248V73.3247C160.682 73.3074 161.098 73.2727 161.496 73.2207C161.895 73.1687 162.259 73.0821 162.588 72.9607ZM171.286 90.8487C170.575 90.8487 169.96 90.7187 169.44 90.4587C168.92 90.1814 168.521 89.8001 168.244 89.3147C167.984 88.8294 167.854 88.2661 167.854 87.6247C167.854 86.8621 168.027 86.2381 168.374 85.7527C168.738 85.2674 169.197 84.8774 169.752 84.5827C170.307 84.2881 170.887 84.0454 171.494 83.8547C172.118 83.6467 172.707 83.4561 173.262 83.2827C173.817 83.0921 174.267 82.8754 174.614 82.6327C174.978 82.3901 175.16 82.0694 175.16 81.6707V80.0587C175.16 79.3307 175.047 78.7761 174.822 78.3947C174.614 78.0134 174.328 77.7621 173.964 77.6407C173.6 77.5021 173.193 77.4327 172.742 77.4327C172.309 77.4327 171.841 77.4934 171.338 77.6147C170.853 77.7361 170.463 77.9874 170.168 78.3687C170.497 78.4381 170.783 78.6114 171.026 78.8887C171.269 79.1661 171.39 79.5214 171.39 79.9547C171.39 80.3881 171.251 80.7347 170.974 80.9947C170.697 81.2374 170.341 81.3587 169.908 81.3587C169.405 81.3587 169.033 81.2027 168.79 80.8907C168.565 80.5614 168.452 80.1974 168.452 79.7987C168.452 79.3481 168.565 78.9841 168.79 78.7067C169.015 78.4294 169.301 78.1694 169.648 77.9267C170.047 77.6494 170.558 77.4154 171.182 77.2247C171.823 77.0167 172.543 76.9127 173.34 76.9127C174.051 76.9127 174.657 76.9994 175.16 77.1727C175.663 77.3287 176.079 77.5627 176.408 77.8747C176.859 78.2907 177.153 78.8021 177.292 79.4087C177.431 79.9981 177.5 80.7087 177.5 81.5407V88.7687C177.5 89.2021 177.561 89.5141 177.682 89.7047C177.821 89.8954 178.029 89.9907 178.306 89.9907C178.497 89.9907 178.679 89.9474 178.852 89.8607C179.025 89.7741 179.233 89.6354 179.476 89.4447L179.762 89.8867C179.398 90.1641 179.051 90.3981 178.722 90.5887C178.393 90.7621 177.951 90.8487 177.396 90.8487C176.893 90.8487 176.477 90.7621 176.148 90.5887C175.819 90.4154 175.567 90.1641 175.394 89.8347C175.238 89.4881 175.16 89.0547 175.16 88.5347C174.692 89.3147 174.129 89.8954 173.47 90.2767C172.829 90.6581 172.101 90.8487 171.286 90.8487ZM172.222 89.8087C172.794 89.8087 173.323 89.6441 173.808 89.3147C174.311 88.9854 174.761 88.4914 175.16 87.8327V82.7367C174.952 83.0314 174.649 83.2827 174.25 83.4907C173.851 83.6814 173.418 83.8807 172.95 84.0887C172.482 84.2794 172.031 84.5134 171.598 84.7907C171.182 85.0507 170.835 85.3974 170.558 85.8307C170.281 86.2641 170.142 86.8274 170.142 87.5207C170.142 88.2141 170.324 88.7687 170.688 89.1847C171.069 89.6007 171.581 89.8087 172.222 89.8087ZM184.729 72.9607V77.3027H188.577V77.8227H184.729V87.8847C184.729 88.6994 184.876 89.2714 185.171 89.6007C185.466 89.9301 185.873 90.0947 186.393 90.0947C186.913 90.0947 187.364 89.8867 187.745 89.4707C188.126 89.0374 188.456 88.3181 188.733 87.3127L189.253 87.4427C189.08 88.4481 188.733 89.2974 188.213 89.9907C187.71 90.6841 186.93 91.0307 185.873 91.0307C185.284 91.0307 184.798 90.9527 184.417 90.7967C184.036 90.6581 183.698 90.4501 183.403 90.1727C183.022 89.7741 182.753 89.2974 182.597 88.7427C182.458 88.1881 182.389 87.4514 182.389 86.5327V77.8227H179.893V77.3027H182.389V73.3247C182.822 73.3074 183.238 73.2727 183.637 73.2207C184.036 73.1687 184.4 73.0821 184.729 72.9607ZM192.698 70.7767C193.149 70.7767 193.539 70.9414 193.868 71.2707C194.198 71.6001 194.362 71.9901 194.362 72.4407C194.362 72.8914 194.198 73.2814 193.868 73.6107C193.539 73.9401 193.149 74.1047 192.698 74.1047C192.248 74.1047 191.858 73.9401 191.528 73.6107C191.199 73.2814 191.034 72.8914 191.034 72.4407C191.034 71.9901 191.199 71.6001 191.528 71.2707C191.858 70.9414 192.248 70.7767 192.698 70.7767ZM194.05 76.9907V88.2487C194.05 88.9767 194.198 89.4707 194.492 89.7307C194.804 89.9907 195.316 90.1207 196.026 90.1207V90.6667C195.732 90.6494 195.281 90.6321 194.674 90.6147C194.085 90.5801 193.487 90.5627 192.88 90.5627C192.291 90.5627 191.693 90.5801 191.086 90.6147C190.48 90.6321 190.029 90.6494 189.734 90.6667V90.1207C190.445 90.1207 190.948 89.9907 191.242 89.7307C191.554 89.4707 191.71 88.9767 191.71 88.2487V80.1107C191.71 79.3307 191.572 78.7587 191.294 78.3947C191.017 78.0134 190.497 77.8227 189.734 77.8227V77.2767C190.289 77.3287 190.826 77.3547 191.346 77.3547C191.849 77.3547 192.326 77.3287 192.776 77.2767C193.244 77.2074 193.669 77.1121 194.05 76.9907ZM203.722 76.9127C204.831 76.9127 205.828 77.1554 206.712 77.6407C207.596 78.1261 208.298 78.8887 208.818 79.9287C209.355 80.9687 209.624 82.3207 209.624 83.9847C209.624 85.6487 209.355 87.0007 208.818 88.0407C208.298 89.0634 207.596 89.8174 206.712 90.3027C205.828 90.7881 204.831 91.0307 203.722 91.0307C202.63 91.0307 201.633 90.7881 200.732 90.3027C199.848 89.8174 199.137 89.0634 198.6 88.0407C198.08 87.0007 197.82 85.6487 197.82 83.9847C197.82 82.3207 198.08 80.9687 198.6 79.9287C199.137 78.8887 199.848 78.1261 200.732 77.6407C201.633 77.1554 202.63 76.9127 203.722 76.9127ZM203.722 77.4327C202.734 77.4327 201.919 77.9441 201.278 78.9667C200.654 79.9894 200.342 81.6621 200.342 83.9847C200.342 86.3074 200.654 87.9801 201.278 89.0027C201.919 90.0081 202.734 90.5107 203.722 90.5107C204.71 90.5107 205.516 90.0081 206.14 89.0027C206.781 87.9801 207.102 86.3074 207.102 83.9847C207.102 81.6621 206.781 79.9894 206.14 78.9667C205.516 77.9441 204.71 77.4327 203.722 77.4327ZM220.332 76.9127C220.99 76.9127 221.536 76.9994 221.97 77.1727C222.42 77.3461 222.793 77.5887 223.088 77.9007C223.417 78.2474 223.651 78.6807 223.79 79.2007C223.928 79.7207 223.998 80.4227 223.998 81.3067V88.2487C223.998 88.9767 224.145 89.4707 224.44 89.7307C224.752 89.9907 225.263 90.1207 225.974 90.1207V90.6667C225.679 90.6494 225.228 90.6321 224.622 90.6147C224.015 90.5801 223.426 90.5627 222.854 90.5627C222.282 90.5627 221.718 90.5801 221.164 90.6147C220.626 90.6321 220.219 90.6494 219.942 90.6667V90.1207C220.566 90.1207 221.008 89.9907 221.268 89.7307C221.528 89.4707 221.658 88.9767 221.658 88.2487V80.7347C221.658 80.1974 221.614 79.7034 221.528 79.2527C221.441 78.8021 221.242 78.4381 220.93 78.1607C220.635 77.8834 220.176 77.7447 219.552 77.7447C218.824 77.7447 218.182 77.9527 217.628 78.3687C217.09 78.7847 216.666 79.3567 216.354 80.0847C216.059 80.7954 215.912 81.5927 215.912 82.4767V88.2487C215.912 88.9767 216.042 89.4707 216.302 89.7307C216.562 89.9907 217.004 90.1207 217.628 90.1207V90.6667C217.35 90.6494 216.934 90.6321 216.38 90.6147C215.842 90.5801 215.288 90.5627 214.716 90.5627C214.144 90.5627 213.554 90.5801 212.948 90.6147C212.341 90.6321 211.89 90.6494 211.596 90.6667V90.1207C212.306 90.1207 212.809 89.9907 213.104 89.7307C213.416 89.4707 213.572 88.9767 213.572 88.2487V80.1107C213.572 79.3307 213.433 78.7587 213.156 78.3947C212.878 78.0134 212.358 77.8227 211.596 77.8227V77.2767C212.15 77.3287 212.688 77.3547 213.208 77.3547C213.71 77.3547 214.187 77.3287 214.638 77.2767C215.106 77.2074 215.53 77.1121 215.912 76.9907V80.0587C216.362 78.8801 216.986 78.0654 217.784 77.6147C218.598 77.1467 219.448 76.9127 220.332 76.9127ZM239.954 76.9127C241.063 76.9127 242.06 77.1554 242.944 77.6407C243.828 78.1261 244.53 78.8887 245.05 79.9287C245.587 80.9687 245.856 82.3207 245.856 83.9847C245.856 85.6487 245.587 87.0007 245.05 88.0407C244.53 89.0634 243.828 89.8174 242.944 90.3027C242.06 90.7881 241.063 91.0307 239.954 91.0307C238.862 91.0307 237.865 90.7881 236.964 90.3027C236.08 89.8174 235.369 89.0634 234.832 88.0407C234.312 87.0007 234.052 85.6487 234.052 83.9847C234.052 82.3207 234.312 80.9687 234.832 79.9287C235.369 78.8887 236.08 78.1261 236.964 77.6407C237.865 77.1554 238.862 76.9127 239.954 76.9127ZM239.954 77.4327C238.966 77.4327 238.151 77.9441 237.51 78.9667C236.886 79.9894 236.574 81.6621 236.574 83.9847C236.574 86.3074 236.886 87.9801 237.51 89.0027C238.151 90.0081 238.966 90.5107 239.954 90.5107C240.942 90.5107 241.748 90.0081 242.372 89.0027C243.013 87.9801 243.334 86.3074 243.334 83.9847C243.334 81.6621 243.013 79.9894 242.372 78.9667C241.748 77.9441 240.942 77.4327 239.954 77.4327ZM254.25 70.3347C254.736 70.3347 255.16 70.4041 255.524 70.5427C255.906 70.6641 256.235 70.8287 256.512 71.0367C256.772 71.2447 256.972 71.4874 257.11 71.7647C257.249 72.0421 257.318 72.3367 257.318 72.6487C257.318 73.0474 257.188 73.3767 256.928 73.6367C256.668 73.8967 256.339 74.0267 255.94 74.0267C255.559 74.0267 255.221 73.9054 254.926 73.6627C254.649 73.4027 254.51 73.0561 254.51 72.6227C254.51 72.2587 254.606 71.9641 254.796 71.7387C255.004 71.5134 255.273 71.3661 255.602 71.2967C255.55 71.1407 255.412 71.0107 255.186 70.9067C254.978 70.7854 254.692 70.7247 254.328 70.7247C253.93 70.7247 253.583 70.8114 253.288 70.9847C253.011 71.1581 252.794 71.3921 252.638 71.6867C252.43 72.0507 252.3 72.5967 252.248 73.3247C252.196 74.0354 252.17 75.1361 252.17 76.6267V77.3027H254.952V77.8227H252.17V87.9887C252.17 88.8381 252.413 89.4101 252.898 89.7047C253.401 89.9821 254.077 90.1207 254.926 90.1207V90.6667C254.528 90.6494 253.964 90.6321 253.236 90.6147C252.508 90.5801 251.737 90.5627 250.922 90.5627C250.333 90.5627 249.744 90.5801 249.154 90.6147C248.582 90.6321 248.149 90.6494 247.854 90.6667V90.1207C248.565 90.1207 249.068 89.9907 249.362 89.7307C249.674 89.4707 249.83 88.9767 249.83 88.2487V77.8227H247.75V77.3027H249.83C249.83 76.2801 249.874 75.4221 249.96 74.7287C250.047 74.0354 250.186 73.4461 250.376 72.9607C250.567 72.4581 250.827 72.0161 251.156 71.6347C251.503 71.2361 251.945 70.9241 252.482 70.6987C253.02 70.4561 253.609 70.3347 254.25 70.3347ZM266.792 72.9607V77.3027H270.64V77.8227H266.792V87.8847C266.792 88.6994 266.939 89.2714 267.234 89.6007C267.528 89.9301 267.936 90.0947 268.456 90.0947C268.976 90.0947 269.426 89.8867 269.808 89.4707C270.189 89.0374 270.518 88.3181 270.796 87.3127L271.316 87.4427C271.142 88.4481 270.796 89.2974 270.276 89.9907C269.773 90.6841 268.993 91.0307 267.936 91.0307C267.346 91.0307 266.861 90.9527 266.48 90.7967C266.098 90.6581 265.76 90.4501 265.466 90.1727C265.084 89.7741 264.816 89.2974 264.66 88.7427C264.521 88.1881 264.452 87.4514 264.452 86.5327V77.8227H261.956V77.3027H264.452V73.3247C264.885 73.3074 265.301 73.2727 265.7 73.2207C266.098 73.1687 266.462 73.0821 266.792 72.9607ZM279.883 76.9127C280.351 76.9127 280.758 77.0081 281.105 77.1987C281.469 77.3894 281.746 77.6407 281.937 77.9527C282.145 78.2474 282.249 78.5854 282.249 78.9667C282.249 79.4001 282.11 79.7814 281.833 80.1107C281.573 80.4401 281.218 80.6047 280.767 80.6047C280.403 80.6047 280.082 80.4921 279.805 80.2667C279.528 80.0241 279.389 79.6861 279.389 79.2527C279.389 78.9234 279.476 78.6461 279.649 78.4207C279.84 78.1781 280.048 77.9874 280.273 77.8487C280.152 77.6754 279.97 77.5887 279.727 77.5887C279.19 77.5887 278.696 77.7534 278.245 78.0827C277.794 78.3947 277.413 78.8021 277.101 79.3047C276.789 79.8074 276.546 80.3447 276.373 80.9167C276.2 81.4714 276.113 81.9914 276.113 82.4767V87.9887C276.113 88.8381 276.356 89.4101 276.841 89.7047C277.344 89.9821 278.02 90.1207 278.869 90.1207V90.6667C278.47 90.6494 277.907 90.6321 277.179 90.6147C276.451 90.5801 275.68 90.5627 274.865 90.5627C274.276 90.5627 273.686 90.5801 273.097 90.6147C272.525 90.6321 272.092 90.6494 271.797 90.6667V90.1207C272.508 90.1207 273.01 89.9907 273.305 89.7307C273.617 89.4707 273.773 88.9767 273.773 88.2487V80.1107C273.773 79.3307 273.634 78.7587 273.357 78.3947C273.08 78.0134 272.56 77.8227 271.797 77.8227V77.2767C272.352 77.3287 272.889 77.3547 273.409 77.3547C273.912 77.3547 274.388 77.3287 274.839 77.2767C275.307 77.2074 275.732 77.1121 276.113 76.9907V80.2407C276.304 79.7381 276.572 79.2354 276.919 78.7327C277.283 78.2127 277.716 77.7794 278.219 77.4327C278.722 77.0861 279.276 76.9127 279.883 76.9127ZM287.067 90.8487C286.356 90.8487 285.741 90.7187 285.221 90.4587C284.701 90.1814 284.302 89.8001 284.025 89.3147C283.765 88.8294 283.635 88.2661 283.635 87.6247C283.635 86.8621 283.808 86.2381 284.155 85.7527C284.519 85.2674 284.978 84.8774 285.533 84.5827C286.088 84.2881 286.668 84.0454 287.275 83.8547C287.899 83.6467 288.488 83.4561 289.043 83.2827C289.598 83.0921 290.048 82.8754 290.395 82.6327C290.759 82.3901 290.941 82.0694 290.941 81.6707V80.0587C290.941 79.3307 290.828 78.7761 290.603 78.3947C290.395 78.0134 290.109 77.7621 289.745 77.6407C289.381 77.5021 288.974 77.4327 288.523 77.4327C288.09 77.4327 287.622 77.4934 287.119 77.6147C286.634 77.7361 286.244 77.9874 285.949 78.3687C286.278 78.4381 286.564 78.6114 286.807 78.8887C287.05 79.1661 287.171 79.5214 287.171 79.9547C287.171 80.3881 287.032 80.7347 286.755 80.9947C286.478 81.2374 286.122 81.3587 285.689 81.3587C285.186 81.3587 284.814 81.2027 284.571 80.8907C284.346 80.5614 284.233 80.1974 284.233 79.7987C284.233 79.3481 284.346 78.9841 284.571 78.7067C284.796 78.4294 285.082 78.1694 285.429 77.9267C285.828 77.6494 286.339 77.4154 286.963 77.2247C287.604 77.0167 288.324 76.9127 289.121 76.9127C289.832 76.9127 290.438 76.9994 290.941 77.1727C291.444 77.3287 291.86 77.5627 292.189 77.8747C292.64 78.2907 292.934 78.8021 293.073 79.4087C293.212 79.9981 293.281 80.7087 293.281 81.5407V88.7687C293.281 89.2021 293.342 89.5141 293.463 89.7047C293.602 89.8954 293.81 89.9907 294.087 89.9907C294.278 89.9907 294.46 89.9474 294.633 89.8607C294.806 89.7741 295.014 89.6354 295.257 89.4447L295.543 89.8867C295.179 90.1641 294.832 90.3981 294.503 90.5887C294.174 90.7621 293.732 90.8487 293.177 90.8487C292.674 90.8487 292.258 90.7621 291.929 90.5887C291.6 90.4154 291.348 90.1641 291.175 89.8347C291.019 89.4881 290.941 89.0547 290.941 88.5347C290.473 89.3147 289.91 89.8954 289.251 90.2767C288.61 90.6581 287.882 90.8487 287.067 90.8487ZM288.003 89.8087C288.575 89.8087 289.104 89.6441 289.589 89.3147C290.092 88.9854 290.542 88.4914 290.941 87.8327V82.7367C290.733 83.0314 290.43 83.2827 290.031 83.4907C289.632 83.6814 289.199 83.8807 288.731 84.0887C288.263 84.2794 287.812 84.5134 287.379 84.7907C286.963 85.0507 286.616 85.3974 286.339 85.8307C286.062 86.2641 285.923 86.8274 285.923 87.5207C285.923 88.2141 286.105 88.7687 286.469 89.1847C286.85 89.6007 287.362 89.8087 288.003 89.8087ZM305.06 76.9127C305.719 76.9127 306.265 76.9994 306.698 77.1727C307.149 77.3461 307.522 77.5887 307.816 77.9007C308.146 78.2474 308.38 78.6807 308.518 79.2007C308.657 79.7207 308.726 80.4227 308.726 81.3067V88.2487C308.726 88.9767 308.874 89.4707 309.168 89.7307C309.48 89.9907 309.992 90.1207 310.702 90.1207V90.6667C310.408 90.6494 309.957 90.6321 309.35 90.6147C308.744 90.5801 308.154 90.5627 307.582 90.5627C307.01 90.5627 306.447 90.5801 305.892 90.6147C305.355 90.6321 304.948 90.6494 304.67 90.6667V90.1207C305.294 90.1207 305.736 89.9907 305.996 89.7307C306.256 89.4707 306.386 88.9767 306.386 88.2487V80.7347C306.386 80.1974 306.343 79.7034 306.256 79.2527C306.17 78.8021 305.97 78.4381 305.658 78.1607C305.364 77.8834 304.904 77.7447 304.28 77.7447C303.552 77.7447 302.911 77.9527 302.356 78.3687C301.819 78.7847 301.394 79.3567 301.082 80.0847C300.788 80.7954 300.64 81.5927 300.64 82.4767V88.2487C300.64 88.9767 300.77 89.4707 301.03 89.7307C301.29 89.9907 301.732 90.1207 302.356 90.1207V90.6667C302.079 90.6494 301.663 90.6321 301.108 90.6147C300.571 90.5801 300.016 90.5627 299.444 90.5627C298.872 90.5627 298.283 90.5801 297.676 90.6147C297.07 90.6321 296.619 90.6494 296.324 90.6667V90.1207C297.035 90.1207 297.538 89.9907 297.832 89.7307C298.144 89.4707 298.3 88.9767 298.3 88.2487V80.1107C298.3 79.3307 298.162 78.7587 297.884 78.3947C297.607 78.0134 297.087 77.8227 296.324 77.8227V77.2767C296.879 77.3287 297.416 77.3547 297.936 77.3547C298.439 77.3547 298.916 77.3287 299.366 77.2767C299.834 77.2074 300.259 77.1121 300.64 76.9907V80.0587C301.091 78.8801 301.715 78.0654 302.512 77.6147C303.327 77.1467 304.176 76.9127 305.06 76.9127ZM316.492 76.9127C317.185 76.9127 317.775 77.0254 318.26 77.2507C318.745 77.4761 319.101 77.6841 319.326 77.8747C319.898 78.3427 320.245 78.0307 320.366 76.9387H320.964C320.929 77.4241 320.903 78.0047 320.886 78.6807C320.869 79.3394 320.86 80.2321 320.86 81.3587H320.262C320.158 80.7174 319.976 80.0934 319.716 79.4867C319.473 78.8801 319.109 78.3861 318.624 78.0047C318.139 77.6061 317.506 77.4067 316.726 77.4067C316.119 77.4067 315.608 77.5801 315.192 77.9267C314.793 78.2561 314.594 78.7501 314.594 79.4087C314.594 79.9287 314.75 80.3794 315.062 80.7607C315.374 81.1247 315.781 81.4714 316.284 81.8007C316.787 82.1127 317.333 82.4594 317.922 82.8407C318.581 83.2567 319.179 83.6814 319.716 84.1147C320.253 84.5481 320.678 85.0247 320.99 85.5447C321.319 86.0647 321.484 86.6801 321.484 87.3907C321.484 88.1881 321.276 88.8554 320.86 89.3927C320.444 89.9301 319.898 90.3374 319.222 90.6147C318.563 90.8921 317.835 91.0307 317.038 91.0307C316.657 91.0307 316.293 90.9961 315.946 90.9267C315.617 90.8747 315.296 90.7881 314.984 90.6667C314.811 90.5801 314.629 90.4761 314.438 90.3547C314.265 90.2334 314.091 90.1034 313.918 89.9647C313.745 89.8261 313.589 89.8347 313.45 89.9907C313.311 90.1294 313.207 90.4154 313.138 90.8487H312.54C312.575 90.2941 312.601 89.6181 312.618 88.8207C312.635 88.0234 312.644 86.9661 312.644 85.6487H313.242C313.363 86.6194 313.537 87.4687 313.762 88.1967C313.987 88.9247 314.343 89.4967 314.828 89.9127C315.313 90.3114 315.989 90.5107 316.856 90.5107C317.203 90.5107 317.549 90.4327 317.896 90.2767C318.26 90.1207 318.563 89.8607 318.806 89.4967C319.049 89.1327 319.17 88.6474 319.17 88.0407C319.17 87.2781 318.893 86.6541 318.338 86.1687C317.783 85.6834 317.081 85.1721 316.232 84.6347C315.608 84.2361 315.019 83.8374 314.464 83.4387C313.927 83.0401 313.485 82.5894 313.138 82.0867C312.809 81.5841 312.644 80.9774 312.644 80.2667C312.644 79.4867 312.817 78.8541 313.164 78.3687C313.528 77.8661 314.005 77.5021 314.594 77.2767C315.183 77.0341 315.816 76.9127 316.492 76.9127ZM327.601 76.9907V92.9547C327.601 93.7001 327.818 94.1941 328.251 94.4367C328.702 94.6967 329.317 94.8267 330.097 94.8267V95.3727C329.716 95.3554 329.187 95.3294 328.511 95.2947C327.835 95.2774 327.116 95.2687 326.353 95.2687C325.816 95.2687 325.278 95.2774 324.741 95.2947C324.221 95.3294 323.822 95.3554 323.545 95.3727V94.8267C324.169 94.8267 324.611 94.7141 324.871 94.4887C325.131 94.2634 325.261 93.8387 325.261 93.2147V80.1107C325.261 79.3307 325.122 78.7587 324.845 78.3947C324.568 78.0134 324.048 77.8227 323.285 77.8227V77.2767C323.84 77.3287 324.377 77.3547 324.897 77.3547C325.4 77.3547 325.876 77.3287 326.327 77.2767C326.795 77.2074 327.22 77.1121 327.601 76.9907ZM331.761 76.9127C332.68 76.9127 333.503 77.1641 334.231 77.6667C334.959 78.1521 335.531 78.8714 335.947 79.8247C336.38 80.7781 336.597 81.9567 336.597 83.3607C336.597 84.2967 336.484 85.2241 336.259 86.1427C336.034 87.0441 335.678 87.8674 335.193 88.6127C334.725 89.3407 334.11 89.9301 333.347 90.3807C332.602 90.8141 331.7 91.0307 330.643 91.0307C329.828 91.0307 329.118 90.8401 328.511 90.4587C327.922 90.0774 327.523 89.6181 327.315 89.0807L327.575 88.7167C327.818 89.2021 328.164 89.6094 328.615 89.9387C329.083 90.2681 329.664 90.4327 330.357 90.4327C331.328 90.4327 332.082 90.1294 332.619 89.5227C333.156 88.9161 333.529 88.1101 333.737 87.1047C333.962 86.0821 334.075 84.9554 334.075 83.7247C334.075 82.3381 333.962 81.2027 333.737 80.3187C333.512 79.4347 333.174 78.7761 332.723 78.3427C332.272 77.9094 331.718 77.6927 331.059 77.6927C330.21 77.6927 329.438 78.0481 328.745 78.7587C328.052 79.4521 327.61 80.5094 327.419 81.9307L327.107 81.5667C327.298 80.0934 327.818 78.9494 328.667 78.1347C329.534 77.3201 330.565 76.9127 331.761 76.9127ZM344.944 76.9127C346.054 76.9127 347.05 77.1554 347.934 77.6407C348.818 78.1261 349.52 78.8887 350.04 79.9287C350.578 80.9687 350.846 82.3207 350.846 83.9847C350.846 85.6487 350.578 87.0007 350.04 88.0407C349.52 89.0634 348.818 89.8174 347.934 90.3027C347.05 90.7881 346.054 91.0307 344.944 91.0307C343.852 91.0307 342.856 90.7881 341.954 90.3027C341.07 89.8174 340.36 89.0634 339.822 88.0407C339.302 87.0007 339.042 85.6487 339.042 83.9847C339.042 82.3207 339.302 80.9687 339.822 79.9287C340.36 78.8887 341.07 78.1261 341.954 77.6407C342.856 77.1554 343.852 76.9127 344.944 76.9127ZM344.944 77.4327C343.956 77.4327 343.142 77.9441 342.5 78.9667C341.876 79.9894 341.564 81.6621 341.564 83.9847C341.564 86.3074 341.876 87.9801 342.5 89.0027C343.142 90.0081 343.956 90.5107 344.944 90.5107C345.932 90.5107 346.738 90.0081 347.362 89.0027C348.004 87.9801 348.324 86.3074 348.324 83.9847C348.324 81.6621 348.004 79.9894 347.362 78.9667C346.738 77.9441 345.932 77.4327 344.944 77.4327ZM357.472 76.9127C358.166 76.9127 358.755 77.0254 359.24 77.2507C359.726 77.4761 360.081 77.6841 360.306 77.8747C360.878 78.3427 361.225 78.0307 361.346 76.9387H361.944C361.91 77.4241 361.884 78.0047 361.866 78.6807C361.849 79.3394 361.84 80.2321 361.84 81.3587H361.242C361.138 80.7174 360.956 80.0934 360.696 79.4867C360.454 78.8801 360.09 78.3861 359.604 78.0047C359.119 77.6061 358.486 77.4067 357.706 77.4067C357.1 77.4067 356.588 77.5801 356.172 77.9267C355.774 78.2561 355.574 78.7501 355.574 79.4087C355.574 79.9287 355.73 80.3794 356.042 80.7607C356.354 81.1247 356.762 81.4714 357.264 81.8007C357.767 82.1127 358.313 82.4594 358.902 82.8407C359.561 83.2567 360.159 83.6814 360.696 84.1147C361.234 84.5481 361.658 85.0247 361.97 85.5447C362.3 86.0647 362.464 86.6801 362.464 87.3907C362.464 88.1881 362.256 88.8554 361.84 89.3927C361.424 89.9301 360.878 90.3374 360.202 90.6147C359.544 90.8921 358.816 91.0307 358.018 91.0307C357.637 91.0307 357.273 90.9961 356.926 90.9267C356.597 90.8747 356.276 90.7881 355.964 90.6667C355.791 90.5801 355.609 90.4761 355.418 90.3547C355.245 90.2334 355.072 90.1034 354.898 89.9647C354.725 89.8261 354.569 89.8347 354.43 89.9907C354.292 90.1294 354.188 90.4154 354.118 90.8487H353.52C353.555 90.2941 353.581 89.6181 353.598 88.8207C353.616 88.0234 353.624 86.9661 353.624 85.6487H354.222C354.344 86.6194 354.517 87.4687 354.742 88.1967C354.968 88.9247 355.323 89.4967 355.808 89.9127C356.294 90.3114 356.97 90.5107 357.836 90.5107C358.183 90.5107 358.53 90.4327 358.876 90.2767C359.24 90.1207 359.544 89.8607 359.786 89.4967C360.029 89.1327 360.15 88.6474 360.15 88.0407C360.15 87.2781 359.873 86.6541 359.318 86.1687C358.764 85.6834 358.062 85.1721 357.212 84.6347C356.588 84.2361 355.999 83.8374 355.444 83.4387C354.907 83.0401 354.465 82.5894 354.118 82.0867C353.789 81.5841 353.624 80.9774 353.624 80.2667C353.624 79.4867 353.798 78.8541 354.144 78.3687C354.508 77.8661 354.985 77.5021 355.574 77.2767C356.164 77.0341 356.796 76.9127 357.472 76.9127ZM368.139 90.8487C367.429 90.8487 366.813 90.7187 366.293 90.4587C365.773 90.1814 365.375 89.8001 365.097 89.3147C364.837 88.8294 364.707 88.2661 364.707 87.6247C364.707 86.8621 364.881 86.2381 365.227 85.7527C365.591 85.2674 366.051 84.8774 366.605 84.5827C367.16 84.2881 367.741 84.0454 368.347 83.8547C368.971 83.6467 369.561 83.4561 370.115 83.2827C370.67 83.0921 371.121 82.8754 371.467 82.6327C371.831 82.3901 372.013 82.0694 372.013 81.6707V80.0587C372.013 79.3307 371.901 78.7761 371.675 78.3947C371.467 78.0134 371.181 77.7621 370.817 77.6407C370.453 77.5021 370.046 77.4327 369.595 77.4327C369.162 77.4327 368.694 77.4934 368.191 77.6147C367.706 77.7361 367.316 77.9874 367.021 78.3687C367.351 78.4381 367.637 78.6114 367.879 78.8887C368.122 79.1661 368.243 79.5214 368.243 79.9547C368.243 80.3881 368.105 80.7347 367.827 80.9947C367.55 81.2374 367.195 81.3587 366.761 81.3587C366.259 81.3587 365.886 81.2027 365.643 80.8907C365.418 80.5614 365.305 80.1974 365.305 79.7987C365.305 79.3481 365.418 78.9841 365.643 78.7067C365.869 78.4294 366.155 78.1694 366.501 77.9267C366.9 77.6494 367.411 77.4154 368.035 77.2247C368.677 77.0167 369.396 76.9127 370.193 76.9127C370.904 76.9127 371.511 76.9994 372.013 77.1727C372.516 77.3287 372.932 77.5627 373.261 77.8747C373.712 78.2907 374.007 78.8021 374.145 79.4087C374.284 79.9981 374.353 80.7087 374.353 81.5407V88.7687C374.353 89.2021 374.414 89.5141 374.535 89.7047C374.674 89.8954 374.882 89.9907 375.159 89.9907C375.35 89.9907 375.532 89.9474 375.705 89.8607C375.879 89.7741 376.087 89.6354 376.329 89.4447L376.615 89.8867C376.251 90.1641 375.905 90.3981 375.575 90.5887C375.246 90.7621 374.804 90.8487 374.249 90.8487C373.747 90.8487 373.331 90.7621 373.001 90.5887C372.672 90.4154 372.421 90.1641 372.247 89.8347C372.091 89.4881 372.013 89.0547 372.013 88.5347C371.545 89.3147 370.982 89.8954 370.323 90.2767C369.682 90.6581 368.954 90.8487 368.139 90.8487ZM369.075 89.8087C369.647 89.8087 370.176 89.6441 370.661 89.3147C371.164 88.9854 371.615 88.4914 372.013 87.8327V82.7367C371.805 83.0314 371.502 83.2827 371.103 83.4907C370.705 83.6814 370.271 83.8807 369.803 84.0887C369.335 84.2794 368.885 84.5134 368.451 84.7907C368.035 85.0507 367.689 85.3974 367.411 85.8307C367.134 86.2641 366.995 86.8274 366.995 87.5207C366.995 88.2141 367.177 88.7687 367.541 89.1847C367.923 89.6007 368.434 89.8087 369.075 89.8087ZM385.119 76.9127C386.54 76.9127 387.719 77.5021 388.655 78.6807C389.591 79.8421 390.059 81.6101 390.059 83.9847C390.059 85.5447 389.79 86.8534 389.253 87.9107C388.733 88.9507 388.031 89.7307 387.147 90.2507C386.263 90.7707 385.301 91.0307 384.261 91.0307C383.394 91.0307 382.553 90.7881 381.739 90.3027C380.941 89.8001 380.343 89.0634 379.945 88.0927L380.465 88.3787C380.898 89.0721 381.435 89.5921 382.077 89.9387C382.718 90.2681 383.377 90.4327 384.053 90.4327C385.214 90.4327 386.081 89.9127 386.653 88.8727C387.242 87.8154 387.537 86.1861 387.537 83.9847C387.537 82.5807 387.424 81.4107 387.199 80.4747C386.973 79.5387 386.627 78.8454 386.159 78.3947C385.691 77.9267 385.093 77.6927 384.365 77.6927C383.567 77.6927 382.822 78.0567 382.129 78.7847C381.453 79.4954 381.037 80.5441 380.881 81.9307L380.569 81.5667C380.759 80.0934 381.271 78.9494 382.103 78.1347C382.952 77.3201 383.957 76.9127 385.119 76.9127ZM381.063 70.3087V89.3147C380.837 89.5054 380.603 89.7047 380.361 89.9127C380.135 90.1034 379.91 90.2941 379.685 90.4847C379.459 90.6754 379.225 90.8747 378.983 91.0827L378.541 90.9007C378.61 90.6581 378.653 90.4154 378.671 90.1727C378.705 89.9127 378.723 89.6527 378.723 89.3927V73.4287C378.723 72.6487 378.584 72.0767 378.307 71.7127C378.029 71.3314 377.509 71.1407 376.747 71.1407V70.5947C377.301 70.6467 377.839 70.6727 378.359 70.6727C378.861 70.6727 379.338 70.6467 379.789 70.5947C380.257 70.5254 380.681 70.4301 381.063 70.3087ZM395.927 70.2827V88.2487C395.927 88.9767 396.074 89.4707 396.369 89.7307C396.681 89.9907 397.192 90.1207 397.903 90.1207V90.6667C397.608 90.6494 397.158 90.6321 396.551 90.6147C395.962 90.5801 395.364 90.5627 394.757 90.5627C394.168 90.5627 393.57 90.5801 392.963 90.6147C392.356 90.6321 391.906 90.6494 391.611 90.6667V90.1207C392.322 90.1207 392.824 89.9907 393.119 89.7307C393.431 89.4707 393.587 88.9767 393.587 88.2487V73.4027C393.587 72.6227 393.448 72.0507 393.171 71.6867C392.894 71.3054 392.374 71.1147 391.611 71.1147V70.5687C392.166 70.6207 392.703 70.6467 393.223 70.6467C393.726 70.6467 394.202 70.6207 394.653 70.5687C395.121 70.4994 395.546 70.4041 395.927 70.2827ZM405.297 76.9127C406.822 76.9127 408.009 77.3807 408.859 78.3167C409.725 79.2354 410.159 80.6741 410.159 82.6327H400.981L400.955 82.1387H407.663C407.697 81.2894 407.628 80.5094 407.455 79.7987C407.281 79.0707 407.004 78.4901 406.623 78.0567C406.259 77.6234 405.782 77.4067 405.193 77.4067C404.395 77.4067 403.685 77.8054 403.061 78.6027C402.454 79.4001 402.09 80.6654 401.969 82.3987L402.047 82.5027C402.012 82.7627 401.986 83.0487 401.969 83.3607C401.951 83.6727 401.943 83.9847 401.943 84.2967C401.943 85.4754 402.133 86.4894 402.515 87.3387C402.896 88.1881 403.39 88.8381 403.997 89.2887C404.621 89.7221 405.262 89.9387 405.921 89.9387C406.441 89.9387 406.935 89.8607 407.403 89.7047C407.871 89.5314 408.304 89.2541 408.703 88.8727C409.101 88.4914 409.448 87.9801 409.743 87.3387L410.263 87.5467C410.072 88.1187 409.76 88.6734 409.327 89.2107C408.893 89.7481 408.347 90.1901 407.689 90.5367C407.03 90.8661 406.267 91.0307 405.401 91.0307C404.153 91.0307 403.078 90.7447 402.177 90.1727C401.293 89.6007 400.608 88.8121 400.123 87.8067C399.655 86.7841 399.421 85.6141 399.421 84.2967C399.421 82.7714 399.663 81.4627 400.149 80.3707C400.634 79.2614 401.319 78.4121 402.203 77.8227C403.087 77.2161 404.118 76.9127 405.297 76.9127ZM424.924 76.9127C426.449 76.9127 427.636 77.3807 428.486 78.3167C429.352 79.2354 429.786 80.6741 429.786 82.6327H420.608L420.582 82.1387H427.29C427.324 81.2894 427.255 80.5094 427.082 79.7987C426.908 79.0707 426.631 78.4901 426.25 78.0567C425.886 77.6234 425.409 77.4067 424.82 77.4067C424.022 77.4067 423.312 77.8054 422.688 78.6027C422.081 79.4001 421.717 80.6654 421.596 82.3987L421.674 82.5027C421.639 82.7627 421.613 83.0487 421.596 83.3607C421.578 83.6727 421.57 83.9847 421.57 84.2967C421.57 85.4754 421.76 86.4894 422.142 87.3387C422.523 88.1881 423.017 88.8381 423.624 89.2887C424.248 89.7221 424.889 89.9387 425.548 89.9387C426.068 89.9387 426.562 89.8607 427.03 89.7047C427.498 89.5314 427.931 89.2541 428.33 88.8727C428.728 88.4914 429.075 87.9801 429.37 87.3387L429.89 87.5467C429.699 88.1187 429.387 88.6734 428.954 89.2107C428.52 89.7481 427.974 90.1901 427.316 90.5367C426.657 90.8661 425.894 91.0307 425.028 91.0307C423.78 91.0307 422.705 90.7447 421.804 90.1727C420.92 89.6007 420.235 88.8121 419.75 87.8067C419.282 86.7841 419.048 85.6141 419.048 84.2967C419.048 82.7714 419.29 81.4627 419.776 80.3707C420.261 79.2614 420.946 78.4121 421.83 77.8227C422.714 77.2161 423.745 76.9127 424.924 76.9127ZM435.892 70.2827V88.2487C435.892 88.9767 436.039 89.4707 436.334 89.7307C436.646 89.9907 437.157 90.1207 437.868 90.1207V90.6667C437.573 90.6494 437.123 90.6321 436.516 90.6147C435.927 90.5801 435.329 90.5627 434.722 90.5627C434.133 90.5627 433.535 90.5801 432.928 90.6147C432.321 90.6321 431.871 90.6494 431.576 90.6667V90.1207C432.287 90.1207 432.789 89.9907 433.084 89.7307C433.396 89.4707 433.552 88.9767 433.552 88.2487V73.4027C433.552 72.6227 433.413 72.0507 433.136 71.6867C432.859 71.3054 432.339 71.1147 431.576 71.1147V70.5687C432.131 70.6207 432.668 70.6467 433.188 70.6467C433.691 70.6467 434.167 70.6207 434.618 70.5687C435.086 70.4994 435.511 70.4041 435.892 70.2827ZM445.261 76.9127C446.787 76.9127 447.974 77.3807 448.823 78.3167C449.69 79.2354 450.123 80.6741 450.123 82.6327H440.945L440.919 82.1387H447.627C447.662 81.2894 447.593 80.5094 447.419 79.7987C447.246 79.0707 446.969 78.4901 446.587 78.0567C446.223 77.6234 445.747 77.4067 445.157 77.4067C444.36 77.4067 443.649 77.8054 443.025 78.6027C442.419 79.4001 442.055 80.6654 441.933 82.3987L442.011 82.5027C441.977 82.7627 441.951 83.0487 441.933 83.3607C441.916 83.6727 441.907 83.9847 441.907 84.2967C441.907 85.4754 442.098 86.4894 442.479 87.3387C442.861 88.1881 443.355 88.8381 443.961 89.2887C444.585 89.7221 445.227 89.9387 445.885 89.9387C446.405 89.9387 446.899 89.8607 447.367 89.7047C447.835 89.5314 448.269 89.2541 448.667 88.8727C449.066 88.4914 449.413 87.9801 449.707 87.3387L450.227 87.5467C450.037 88.1187 449.725 88.6734 449.291 89.2107C448.858 89.7481 448.312 90.1901 447.653 90.5367C446.995 90.8661 446.232 91.0307 445.365 91.0307C444.117 91.0307 443.043 90.7447 442.141 90.1727C441.257 89.6007 440.573 88.8121 440.087 87.8067C439.619 86.7841 439.385 85.6141 439.385 84.2967C439.385 82.7714 439.628 81.4627 440.113 80.3707C440.599 79.2614 441.283 78.4121 442.167 77.8227C443.051 77.2161 444.083 76.9127 445.261 76.9127ZM460.676 76.9127C461.282 76.9127 461.811 76.9994 462.262 77.1727C462.712 77.3461 463.085 77.5887 463.38 77.9007C463.709 78.2474 463.934 78.6981 464.056 79.2527C464.177 79.8074 464.238 80.4921 464.238 81.3067V88.2487C464.238 88.9767 464.385 89.4707 464.68 89.7307C464.992 89.9907 465.503 90.1207 466.214 90.1207V90.6667C465.919 90.6494 465.468 90.6321 464.862 90.6147C464.255 90.5801 463.666 90.5627 463.094 90.5627C462.522 90.5627 461.958 90.5801 461.404 90.6147C460.866 90.6321 460.459 90.6494 460.182 90.6667V90.1207C460.806 90.1207 461.248 89.9907 461.508 89.7307C461.768 89.4707 461.898 88.9767 461.898 88.2487V80.7347C461.898 80.1974 461.863 79.7034 461.794 79.2527C461.724 78.8021 461.551 78.4381 461.274 78.1607C460.996 77.8834 460.546 77.7447 459.922 77.7447C459.246 77.7447 458.639 77.9527 458.102 78.3687C457.582 78.7847 457.166 79.3567 456.854 80.0847C456.559 80.7954 456.412 81.5927 456.412 82.4767V88.2487C456.412 88.9767 456.542 89.4707 456.802 89.7307C457.062 89.9907 457.504 90.1207 458.128 90.1207V90.6667C457.85 90.6494 457.434 90.6321 456.88 90.6147C456.342 90.5801 455.788 90.5627 455.216 90.5627C454.644 90.5627 454.054 90.5801 453.448 90.6147C452.841 90.6321 452.39 90.6494 452.096 90.6667V90.1207C452.806 90.1207 453.309 89.9907 453.604 89.7307C453.916 89.4707 454.072 88.9767 454.072 88.2487V80.1107C454.072 79.3307 453.933 78.7587 453.656 78.3947C453.378 78.0134 452.858 77.8227 452.096 77.8227V77.2767C452.65 77.3287 453.188 77.3547 453.708 77.3547C454.21 77.3547 454.687 77.3287 455.138 77.2767C455.606 77.2074 456.03 77.1121 456.412 76.9907V80.0587C456.862 78.9321 457.478 78.1261 458.258 77.6407C459.038 77.1554 459.844 76.9127 460.676 76.9127ZM468.502 76.9127C469.108 76.9127 469.637 76.9994 470.088 77.1727C470.538 77.3461 470.911 77.5887 471.206 77.9007C471.535 78.2474 471.76 78.6981 471.882 79.2527C472.003 79.8074 472.064 80.4921 472.064 81.3067V88.2487C472.064 88.9767 472.211 89.4707 472.506 89.7307C472.818 89.9907 473.329 90.1207 474.04 90.1207V90.6667C473.745 90.6494 473.294 90.6321 472.688 90.6147C472.081 90.5801 471.492 90.5627 470.92 90.5627C470.348 90.5627 469.784 90.5801 469.23 90.6147C468.692 90.6321 468.285 90.6494 468.008 90.6667V90.1207C468.632 90.1207 469.074 89.9907 469.334 89.7307C469.594 89.4707 469.724 88.9767 469.724 88.2487V80.7347C469.724 80.1974 469.689 79.7034 469.62 79.2527C469.55 78.8021 469.377 78.4381 469.1 78.1607C468.822 77.8834 468.372 77.7447 467.748 77.7447C467.072 77.7447 466.465 77.9527 465.928 78.3687C465.408 78.7847 464.992 79.3481 464.68 80.0587C464.385 80.7694 464.238 81.5667 464.238 82.4507L464.16 80.0327C464.628 78.8367 465.26 78.0221 466.058 77.5887C466.855 77.1381 467.67 76.9127 468.502 76.9127ZM481.494 76.9127C483.019 76.9127 484.207 77.3807 485.056 78.3167C485.923 79.2354 486.356 80.6741 486.356 82.6327H477.178L477.152 82.1387H483.86C483.895 81.2894 483.825 80.5094 483.652 79.7987C483.479 79.0707 483.201 78.4901 482.82 78.0567C482.456 77.6234 481.979 77.4067 481.39 77.4067C480.593 77.4067 479.882 77.8054 479.258 78.6027C478.651 79.4001 478.287 80.6654 478.166 82.3987L478.244 82.5027C478.209 82.7627 478.183 83.0487 478.166 83.3607C478.149 83.6727 478.14 83.9847 478.14 84.2967C478.14 85.4754 478.331 86.4894 478.712 87.3387C479.093 88.1881 479.587 88.8381 480.194 89.2887C480.818 89.7221 481.459 89.9387 482.118 89.9387C482.638 89.9387 483.132 89.8607 483.6 89.7047C484.068 89.5314 484.501 89.2541 484.9 88.8727C485.299 88.4914 485.645 87.9801 485.94 87.3387L486.46 87.5467C486.269 88.1187 485.957 88.6734 485.524 89.2107C485.091 89.7481 484.545 90.1901 483.886 90.5367C483.227 90.8661 482.465 91.0307 481.598 91.0307C480.35 91.0307 479.275 90.7447 478.374 90.1727C477.49 89.6007 476.805 88.8121 476.32 87.8067C475.852 86.7841 475.618 85.6141 475.618 84.2967C475.618 82.7714 475.861 81.4627 476.346 80.3707C476.831 79.2614 477.516 78.4121 478.4 77.8227C479.284 77.2161 480.315 76.9127 481.494 76.9127ZM497.064 76.9127C497.723 76.9127 498.269 76.9994 498.702 77.1727C499.153 77.3461 499.526 77.5887 499.82 77.9007C500.15 78.2474 500.384 78.6807 500.522 79.2007C500.661 79.7207 500.73 80.4227 500.73 81.3067V88.2487C500.73 88.9767 500.878 89.4707 501.172 89.7307C501.484 89.9907 501.996 90.1207 502.706 90.1207V90.6667C502.412 90.6494 501.961 90.6321 501.354 90.6147C500.748 90.5801 500.158 90.5627 499.586 90.5627C499.014 90.5627 498.451 90.5801 497.896 90.6147C497.359 90.6321 496.952 90.6494 496.674 90.6667V90.1207C497.298 90.1207 497.74 89.9907 498 89.7307C498.26 89.4707 498.39 88.9767 498.39 88.2487V80.7347C498.39 80.1974 498.347 79.7034 498.26 79.2527C498.174 78.8021 497.974 78.4381 497.662 78.1607C497.368 77.8834 496.908 77.7447 496.284 77.7447C495.556 77.7447 494.915 77.9527 494.36 78.3687C493.823 78.7847 493.398 79.3567 493.086 80.0847C492.792 80.7954 492.644 81.5927 492.644 82.4767V88.2487C492.644 88.9767 492.774 89.4707 493.034 89.7307C493.294 89.9907 493.736 90.1207 494.36 90.1207V90.6667C494.083 90.6494 493.667 90.6321 493.112 90.6147C492.575 90.5801 492.02 90.5627 491.448 90.5627C490.876 90.5627 490.287 90.5801 489.68 90.6147C489.074 90.6321 488.623 90.6494 488.328 90.6667V90.1207C489.039 90.1207 489.542 89.9907 489.836 89.7307C490.148 89.4707 490.304 88.9767 490.304 88.2487V80.1107C490.304 79.3307 490.166 78.7587 489.888 78.3947C489.611 78.0134 489.091 77.8227 488.328 77.8227V77.2767C488.883 77.3287 489.42 77.3547 489.94 77.3547C490.443 77.3547 490.92 77.3287 491.37 77.2767C491.838 77.2074 492.263 77.1121 492.644 76.9907V80.0587C493.095 78.8801 493.719 78.0654 494.516 77.6147C495.331 77.1467 496.18 76.9127 497.064 76.9127ZM508.028 72.9607V77.3027H511.876V77.8227H508.028V87.8847C508.028 88.6994 508.175 89.2714 508.47 89.6007C508.765 89.9301 509.172 90.0947 509.692 90.0947C510.212 90.0947 510.663 89.8867 511.044 89.4707C511.425 89.0374 511.755 88.3181 512.032 87.3127L512.552 87.4427C512.379 88.4481 512.032 89.2974 511.512 89.9907C511.009 90.6841 510.229 91.0307 509.172 91.0307C508.583 91.0307 508.097 90.9527 507.716 90.7967C507.335 90.6581 506.997 90.4501 506.702 90.1727C506.321 89.7741 506.052 89.2974 505.896 88.7427C505.757 88.1881 505.688 87.4514 505.688 86.5327V77.8227H503.192V77.3027H505.688V73.3247C506.121 73.3074 506.537 73.2727 506.936 73.2207C507.335 73.1687 507.699 73.0821 508.028 72.9607ZM517.687 76.9127C518.381 76.9127 518.97 77.0254 519.455 77.2507C519.941 77.4761 520.296 77.6841 520.521 77.8747C521.093 78.3427 521.44 78.0307 521.561 76.9387H522.159C522.125 77.4241 522.099 78.0047 522.081 78.6807C522.064 79.3394 522.055 80.2321 522.055 81.3587H521.457C521.353 80.7174 521.171 80.0934 520.911 79.4867C520.669 78.8801 520.305 78.3861 519.819 78.0047C519.334 77.6061 518.701 77.4067 517.921 77.4067C517.315 77.4067 516.803 77.5801 516.387 77.9267C515.989 78.2561 515.789 78.7501 515.789 79.4087C515.789 79.9287 515.945 80.3794 516.257 80.7607C516.569 81.1247 516.977 81.4714 517.479 81.8007C517.982 82.1127 518.528 82.4594 519.117 82.8407C519.776 83.2567 520.374 83.6814 520.911 84.1147C521.449 84.5481 521.873 85.0247 522.185 85.5447C522.515 86.0647 522.679 86.6801 522.679 87.3907C522.679 88.1881 522.471 88.8554 522.055 89.3927C521.639 89.9301 521.093 90.3374 520.417 90.6147C519.759 90.8921 519.031 91.0307 518.233 91.0307C517.852 91.0307 517.488 90.9961 517.141 90.9267C516.812 90.8747 516.491 90.7881 516.179 90.6667C516.006 90.5801 515.824 90.4761 515.633 90.3547C515.46 90.2334 515.287 90.1034 515.113 89.9647C514.94 89.8261 514.784 89.8347 514.645 89.9907C514.507 90.1294 514.403 90.4154 514.333 90.8487H513.735C513.77 90.2941 513.796 89.6181 513.813 88.8207C513.831 88.0234 513.839 86.9661 513.839 85.6487H514.437C514.559 86.6194 514.732 87.4687 514.957 88.1967C515.183 88.9247 515.538 89.4967 516.023 89.9127C516.509 90.3114 517.185 90.5107 518.051 90.5107C518.398 90.5107 518.745 90.4327 519.091 90.2767C519.455 90.1207 519.759 89.8607 520.001 89.4967C520.244 89.1327 520.365 88.6474 520.365 88.0407C520.365 87.2781 520.088 86.6541 519.533 86.1687C518.979 85.6834 518.277 85.1721 517.427 84.6347C516.803 84.2361 516.214 83.8374 515.659 83.4387C515.122 83.0401 514.68 82.5894 514.333 82.0867C514.004 81.5841 513.839 80.9774 513.839 80.2667C513.839 79.4867 514.013 78.8541 514.359 78.3687C514.723 77.8661 515.2 77.5021 515.789 77.2767C516.379 77.0341 517.011 76.9127 517.687 76.9127ZM534.101 70.7767C534.551 70.7767 534.941 70.9414 535.271 71.2707C535.6 71.6001 535.765 71.9901 535.765 72.4407C535.765 72.8914 535.6 73.2814 535.271 73.6107C534.941 73.9401 534.551 74.1047 534.101 74.1047C533.65 74.1047 533.26 73.9401 532.931 73.6107C532.601 73.2814 532.437 72.8914 532.437 72.4407C532.437 71.9901 532.601 71.6001 532.931 71.2707C533.26 70.9414 533.65 70.7767 534.101 70.7767ZM535.453 76.9907V88.2487C535.453 88.9767 535.6 89.4707 535.895 89.7307C536.207 89.9907 536.718 90.1207 537.429 90.1207V90.6667C537.134 90.6494 536.683 90.6321 536.077 90.6147C535.487 90.5801 534.889 90.5627 534.283 90.5627C533.693 90.5627 533.095 90.5801 532.489 90.6147C531.882 90.6321 531.431 90.6494 531.137 90.6667V90.1207C531.847 90.1207 532.35 89.9907 532.645 89.7307C532.957 89.4707 533.113 88.9767 533.113 88.2487V80.1107C533.113 79.3307 532.974 78.7587 532.697 78.3947C532.419 78.0134 531.899 77.8227 531.137 77.8227V77.2767C531.691 77.3287 532.229 77.3547 532.749 77.3547C533.251 77.3547 533.728 77.3287 534.179 77.2767C534.647 77.2074 535.071 77.1121 535.453 76.9907ZM547.49 76.9127C548.149 76.9127 548.695 76.9994 549.128 77.1727C549.579 77.3461 549.951 77.5887 550.246 77.9007C550.575 78.2474 550.809 78.6807 550.948 79.2007C551.087 79.7207 551.156 80.4227 551.156 81.3067V88.2487C551.156 88.9767 551.303 89.4707 551.598 89.7307C551.91 89.9907 552.421 90.1207 553.132 90.1207V90.6667C552.837 90.6494 552.387 90.6321 551.78 90.6147C551.173 90.5801 550.584 90.5627 550.012 90.5627C549.44 90.5627 548.877 90.5801 548.322 90.6147C547.785 90.6321 547.377 90.6494 547.1 90.6667V90.1207C547.724 90.1207 548.166 89.9907 548.426 89.7307C548.686 89.4707 548.816 88.9767 548.816 88.2487V80.7347C548.816 80.1974 548.773 79.7034 548.686 79.2527C548.599 78.8021 548.4 78.4381 548.088 78.1607C547.793 77.8834 547.334 77.7447 546.71 77.7447C545.982 77.7447 545.341 77.9527 544.786 78.3687C544.249 78.7847 543.824 79.3567 543.512 80.0847C543.217 80.7954 543.07 81.5927 543.07 82.4767V88.2487C543.07 88.9767 543.2 89.4707 543.46 89.7307C543.72 89.9907 544.162 90.1207 544.786 90.1207V90.6667C544.509 90.6494 544.093 90.6321 543.538 90.6147C543.001 90.5801 542.446 90.5627 541.874 90.5627C541.302 90.5627 540.713 90.5801 540.106 90.6147C539.499 90.6321 539.049 90.6494 538.754 90.6667V90.1207C539.465 90.1207 539.967 89.9907 540.262 89.7307C540.574 89.4707 540.73 88.9767 540.73 88.2487V80.1107C540.73 79.3307 540.591 78.7587 540.314 78.3947C540.037 78.0134 539.517 77.8227 538.754 77.8227V77.2767C539.309 77.3287 539.846 77.3547 540.366 77.3547C540.869 77.3547 541.345 77.3287 541.796 77.2767C542.264 77.2074 542.689 77.1121 543.07 76.9907V80.0587C543.521 78.8801 544.145 78.0654 544.942 77.6147C545.757 77.1467 546.606 76.9127 547.49 76.9127ZM564.876 76.9907V92.9547C564.876 93.7001 565.093 94.1941 565.526 94.4367C565.977 94.6967 566.592 94.8267 567.372 94.8267V95.3727C566.991 95.3554 566.462 95.3294 565.786 95.2947C565.11 95.2774 564.391 95.2687 563.628 95.2687C563.091 95.2687 562.554 95.2774 562.016 95.2947C561.496 95.3294 561.098 95.3554 560.82 95.3727V94.8267C561.444 94.8267 561.886 94.7141 562.146 94.4887C562.406 94.2634 562.536 93.8387 562.536 93.2147V80.1107C562.536 79.3307 562.398 78.7587 562.12 78.3947C561.843 78.0134 561.323 77.8227 560.56 77.8227V77.2767C561.115 77.3287 561.652 77.3547 562.172 77.3547C562.675 77.3547 563.152 77.3287 563.602 77.2767C564.07 77.2074 564.495 77.1121 564.876 76.9907ZM569.036 76.9127C569.955 76.9127 570.778 77.1641 571.506 77.6667C572.234 78.1521 572.806 78.8714 573.222 79.8247C573.656 80.7781 573.872 81.9567 573.872 83.3607C573.872 84.2967 573.76 85.2241 573.534 86.1427C573.309 87.0441 572.954 87.8674 572.468 88.6127C572 89.3407 571.385 89.9301 570.622 90.3807C569.877 90.8141 568.976 91.0307 567.918 91.0307C567.104 91.0307 566.393 90.8401 565.786 90.4587C565.197 90.0774 564.798 89.6181 564.59 89.0807L564.85 88.7167C565.093 89.2021 565.44 89.6094 565.89 89.9387C566.358 90.2681 566.939 90.4327 567.632 90.4327C568.603 90.4327 569.357 90.1294 569.894 89.5227C570.432 88.9161 570.804 88.1101 571.012 87.1047C571.238 86.0821 571.35 84.9554 571.35 83.7247C571.35 82.3381 571.238 81.2027 571.012 80.3187C570.787 79.4347 570.449 78.7761 569.998 78.3427C569.548 77.9094 568.993 77.6927 568.334 77.6927C567.485 77.6927 566.714 78.0481 566.02 78.7587C565.327 79.4521 564.885 80.5094 564.694 81.9307L564.382 81.5667C564.573 80.0934 565.093 78.9494 565.942 78.1347C566.809 77.3201 567.84 76.9127 569.036 76.9127ZM579.984 70.2827V88.2487C579.984 88.9767 580.131 89.4707 580.426 89.7307C580.738 89.9907 581.249 90.1207 581.96 90.1207V90.6667C581.665 90.6494 581.214 90.6321 580.608 90.6147C580.018 90.5801 579.42 90.5627 578.814 90.5627C578.224 90.5627 577.626 90.5801 577.02 90.6147C576.413 90.6321 575.962 90.6494 575.668 90.6667V90.1207C576.378 90.1207 576.881 89.9907 577.176 89.7307C577.488 89.4707 577.644 88.9767 577.644 88.2487V73.4027C577.644 72.6227 577.505 72.0507 577.228 71.6867C576.95 71.3054 576.43 71.1147 575.668 71.1147V70.5687C576.222 70.6207 576.76 70.6467 577.28 70.6467C577.782 70.6467 578.259 70.6207 578.71 70.5687C579.178 70.4994 579.602 70.4041 579.984 70.2827ZM586.981 90.8487C586.27 90.8487 585.655 90.7187 585.135 90.4587C584.615 90.1814 584.216 89.8001 583.939 89.3147C583.679 88.8294 583.549 88.2661 583.549 87.6247C583.549 86.8621 583.722 86.2381 584.069 85.7527C584.433 85.2674 584.892 84.8774 585.447 84.5827C586.002 84.2881 586.582 84.0454 587.189 83.8547C587.813 83.6467 588.402 83.4561 588.957 83.2827C589.512 83.0921 589.962 82.8754 590.309 82.6327C590.673 82.3901 590.855 82.0694 590.855 81.6707V80.0587C590.855 79.3307 590.742 78.7761 590.517 78.3947C590.309 78.0134 590.023 77.7621 589.659 77.6407C589.295 77.5021 588.888 77.4327 588.437 77.4327C588.004 77.4327 587.536 77.4934 587.033 77.6147C586.548 77.7361 586.158 77.9874 585.863 78.3687C586.192 78.4381 586.478 78.6114 586.721 78.8887C586.964 79.1661 587.085 79.5214 587.085 79.9547C587.085 80.3881 586.946 80.7347 586.669 80.9947C586.392 81.2374 586.036 81.3587 585.603 81.3587C585.1 81.3587 584.728 81.2027 584.485 80.8907C584.26 80.5614 584.147 80.1974 584.147 79.7987C584.147 79.3481 584.26 78.9841 584.485 78.7067C584.71 78.4294 584.996 78.1694 585.343 77.9267C585.742 77.6494 586.253 77.4154 586.877 77.2247C587.518 77.0167 588.238 76.9127 589.035 76.9127C589.746 76.9127 590.352 76.9994 590.855 77.1727C591.358 77.3287 591.774 77.5627 592.103 77.8747C592.554 78.2907 592.848 78.8021 592.987 79.4087C593.126 79.9981 593.195 80.7087 593.195 81.5407V88.7687C593.195 89.2021 593.256 89.5141 593.377 89.7047C593.516 89.8954 593.724 89.9907 594.001 89.9907C594.192 89.9907 594.374 89.9474 594.547 89.8607C594.72 89.7741 594.928 89.6354 595.171 89.4447L595.457 89.8867C595.093 90.1641 594.746 90.3981 594.417 90.5887C594.088 90.7621 593.646 90.8487 593.091 90.8487C592.588 90.8487 592.172 90.7621 591.843 90.5887C591.514 90.4154 591.262 90.1641 591.089 89.8347C590.933 89.4881 590.855 89.0547 590.855 88.5347C590.387 89.3147 589.824 89.8954 589.165 90.2767C588.524 90.6581 587.796 90.8487 586.981 90.8487ZM587.917 89.8087C588.489 89.8087 589.018 89.6441 589.503 89.3147C590.006 88.9854 590.456 88.4914 590.855 87.8327V82.7367C590.647 83.0314 590.344 83.2827 589.945 83.4907C589.546 83.6814 589.113 83.8807 588.645 84.0887C588.177 84.2794 587.726 84.5134 587.293 84.7907C586.877 85.0507 586.53 85.3974 586.253 85.8307C585.976 86.2641 585.837 86.8274 585.837 87.5207C585.837 88.2141 586.019 88.7687 586.383 89.1847C586.764 89.6007 587.276 89.8087 587.917 89.8087ZM604.974 76.9127C605.633 76.9127 606.179 76.9994 606.612 77.1727C607.063 77.3461 607.436 77.5887 607.73 77.9007C608.06 78.2474 608.294 78.6807 608.432 79.2007C608.571 79.7207 608.64 80.4227 608.64 81.3067V88.2487C608.64 88.9767 608.788 89.4707 609.082 89.7307C609.394 89.9907 609.906 90.1207 610.616 90.1207V90.6667C610.322 90.6494 609.871 90.6321 609.264 90.6147C608.658 90.5801 608.068 90.5627 607.496 90.5627C606.924 90.5627 606.361 90.5801 605.806 90.6147C605.269 90.6321 604.862 90.6494 604.584 90.6667V90.1207C605.208 90.1207 605.65 89.9907 605.91 89.7307C606.17 89.4707 606.3 88.9767 606.3 88.2487V80.7347C606.3 80.1974 606.257 79.7034 606.17 79.2527C606.084 78.8021 605.884 78.4381 605.572 78.1607C605.278 77.8834 604.818 77.7447 604.194 77.7447C603.466 77.7447 602.825 77.9527 602.27 78.3687C601.733 78.7847 601.308 79.3567 600.996 80.0847C600.702 80.7954 600.554 81.5927 600.554 82.4767V88.2487C600.554 88.9767 600.684 89.4707 600.944 89.7307C601.204 89.9907 601.646 90.1207 602.27 90.1207V90.6667C601.993 90.6494 601.577 90.6321 601.022 90.6147C600.485 90.5801 599.93 90.5627 599.358 90.5627C598.786 90.5627 598.197 90.5801 597.59 90.6147C596.984 90.6321 596.533 90.6494 596.238 90.6667V90.1207C596.949 90.1207 597.452 89.9907 597.746 89.7307C598.058 89.4707 598.214 88.9767 598.214 88.2487V80.1107C598.214 79.3307 598.076 78.7587 597.798 78.3947C597.521 78.0134 597.001 77.8227 596.238 77.8227V77.2767C596.793 77.3287 597.33 77.3547 597.85 77.3547C598.353 77.3547 598.83 77.3287 599.28 77.2767C599.748 77.2074 600.173 77.1121 600.554 76.9907V80.0587C601.005 78.8801 601.629 78.0654 602.426 77.6147C603.241 77.1467 604.09 76.9127 604.974 76.9127ZM615.938 72.9607V77.3027H619.786V77.8227H615.938V87.8847C615.938 88.6994 616.085 89.2714 616.38 89.6007C616.675 89.9301 617.082 90.0947 617.602 90.0947C618.122 90.0947 618.573 89.8867 618.954 89.4707C619.335 89.0374 619.665 88.3181 619.942 87.3127L620.462 87.4427C620.289 88.4481 619.942 89.2974 619.422 89.9907C618.919 90.6841 618.139 91.0307 617.082 91.0307C616.493 91.0307 616.007 90.9527 615.626 90.7967C615.245 90.6581 614.907 90.4501 614.612 90.1727C614.231 89.7741 613.962 89.2974 613.806 88.7427C613.667 88.1881 613.598 87.4514 613.598 86.5327V77.8227H611.102V77.3027H613.598V73.3247C614.031 73.3074 614.447 73.2727 614.846 73.2207C615.245 73.1687 615.609 73.0821 615.938 72.9607ZM625.597 76.9127C626.291 76.9127 626.88 77.0254 627.365 77.2507C627.851 77.4761 628.206 77.6841 628.431 77.8747C629.003 78.3427 629.35 78.0307 629.471 76.9387H630.069C630.035 77.4241 630.009 78.0047 629.991 78.6807C629.974 79.3394 629.965 80.2321 629.965 81.3587H629.367C629.263 80.7174 629.081 80.0934 628.821 79.4867C628.579 78.8801 628.215 78.3861 627.729 78.0047C627.244 77.6061 626.611 77.4067 625.831 77.4067C625.225 77.4067 624.713 77.5801 624.297 77.9267C623.899 78.2561 623.699 78.7501 623.699 79.4087C623.699 79.9287 623.855 80.3794 624.167 80.7607C624.479 81.1247 624.887 81.4714 625.389 81.8007C625.892 82.1127 626.438 82.4594 627.027 82.8407C627.686 83.2567 628.284 83.6814 628.821 84.1147C629.359 84.5481 629.783 85.0247 630.095 85.5447C630.425 86.0647 630.589 86.6801 630.589 87.3907C630.589 88.1881 630.381 88.8554 629.965 89.3927C629.549 89.9301 629.003 90.3374 628.327 90.6147C627.669 90.8921 626.941 91.0307 626.143 91.0307C625.762 91.0307 625.398 90.9961 625.051 90.9267C624.722 90.8747 624.401 90.7881 624.089 90.6667C623.916 90.5801 623.734 90.4761 623.543 90.3547C623.37 90.2334 623.197 90.1034 623.023 89.9647C622.85 89.8261 622.694 89.8347 622.555 89.9907C622.417 90.1294 622.313 90.4154 622.243 90.8487H621.645C621.68 90.2941 621.706 89.6181 621.723 88.8207C621.741 88.0234 621.749 86.9661 621.749 85.6487H622.347C622.469 86.6194 622.642 87.4687 622.867 88.1967C623.093 88.9247 623.448 89.4967 623.933 89.9127C624.419 90.3114 625.095 90.5107 625.961 90.5107C626.308 90.5107 626.655 90.4327 627.001 90.2767C627.365 90.1207 627.669 89.8607 627.911 89.4967C628.154 89.1327 628.275 88.6474 628.275 88.0407C628.275 87.2781 627.998 86.6541 627.443 86.1687C626.889 85.6834 626.187 85.1721 625.337 84.6347C624.713 84.2361 624.124 83.8374 623.569 83.4387C623.032 83.0401 622.59 82.5894 622.243 82.0867C621.914 81.5841 621.749 80.9774 621.749 80.2667C621.749 79.4867 621.923 78.8541 622.269 78.3687C622.633 77.8661 623.11 77.5021 623.699 77.2767C624.289 77.0341 624.921 76.9127 625.597 76.9127Z" fill="#8D6FC5"/>
</svg>
