<svg width="89" height="113" viewBox="0 0 89 113" fill="none" xmlns="http://www.w3.org/2000/svg">
<path d="M41.0268 4.52179C41.0141 3.08893 42.4681 2.108 43.7919 2.65628L85.2653 19.8324C86.0127 20.1419 86.5 20.8712 86.5 21.6802V75.858C86.5 77.3216 84.9794 78.2895 83.6534 77.6699L42.6421 58.5077C41.9442 58.1816 41.4957 57.4837 41.4888 56.7134L41.0268 4.52179Z" fill="#FF6B00"/>
<path d="M2.48294 36.4125C2.49378 35.8329 2.75555 35.2865 3.20045 34.9149L41.4448 2.96966C42.7904 1.84569 44.8281 2.87393 44.7233 4.62407L41.5547 57.5849C41.52 58.1659 41.2338 58.7029 40.771 59.0559L4.78964 86.4916C3.45948 87.5059 1.54605 86.5363 1.57731 84.8639L2.48294 36.4125Z" fill="#FF6B00"/>
<path d="M2.53908 86.6825C1.33939 85.8875 1.34682 84.1238 2.55315 83.3389L40.6556 58.5494C41.1867 58.2038 41.8502 58.1304 42.4441 58.3515L85.1623 74.2572C86.6251 74.8019 86.928 76.7375 85.7016 77.703L42.6363 111.605C41.9581 112.139 41.014 112.178 40.2945 111.701L2.53908 86.6825Z" fill="#FF6B00"/>
<path d="M41.5 7L81 24.5V36L41.5 19.5V7Z" fill="white"/>
<path d="M41.5 19L53 24V73.5L41.5 66.5V19Z" fill="white"/>
<path d="M52.5 50L81 64V75L52.5 61.5V50Z" fill="white"/>
<path d="M41.5 54.5L81 75L70.5 83.5L38 65.5L41.5 54.5Z" fill="#F4F4F4"/>
<path d="M23 82L50.5 99L40.5 106.5L6.5 85L23 82Z" fill="#F4F4F4"/>
<path d="M6.5 41L15 47.5V83.5L6.5 85V41Z" fill="#E4E4E4"/>
<path d="M14.5 33.5L33 47.5V62L6.5 41L14.5 33.5Z" fill="#E4E4E4"/>
<path d="M32.5 14.5L41.5 7V66.75L33 62L32.5 14.5Z" fill="#E4E4E4"/>
<path d="M6.5 85L41.5 54.5L52 60L17.5 92L6.5 85Z" fill="#F4F4F4"/>
</svg>
