<?xml version="1.0" encoding="UTF-8"?>
<svg xmlns="http://www.w3.org/2000/svg" xmlns:xlink="http://www.w3.org/1999/xlink" width="226pt" height="141pt" viewBox="0 0 226 141" version="1.1">
<defs>
<g>
<symbol overflow="visible" id="glyph0-0">
<path style="stroke:none;" d=""/>
</symbol>
<symbol overflow="visible" id="glyph0-1">
<path style="stroke:none;" d="M 2.34375 0 L 3.359375 -3.0625 L 3.359375 0 L 3.8125 0 L 3.8125 -3.640625 L 3.15625 -3.640625 L 2.09375 -0.46875 L 1.015625 -3.640625 L 0.375 -3.640625 L 0.375 0 L 0.8125 0 L 0.8125 -3.0625 L 1.84375 0 Z M 2.34375 0 "/>
</symbol>
<symbol overflow="visible" id="glyph0-2">
<path style="stroke:none;" d="M 2.5625 -1.171875 C 2.5625 -1.5625 2.53125 -1.8125 2.453125 -2 C 2.296875 -2.4375 1.890625 -2.6875 1.40625 -2.6875 C 0.671875 -2.6875 0.203125 -2.140625 0.203125 -1.28125 C 0.203125 -0.40625 0.65625 0.109375 1.390625 0.109375 C 1.984375 0.109375 2.40625 -0.21875 2.515625 -0.796875 L 2.09375 -0.796875 C 1.96875 -0.453125 1.734375 -0.265625 1.40625 -0.265625 C 1.140625 -0.265625 0.921875 -0.390625 0.78125 -0.609375 C 0.671875 -0.765625 0.640625 -0.90625 0.640625 -1.171875 Z M 0.640625 -1.515625 C 0.6875 -2 0.96875 -2.3125 1.390625 -2.3125 C 1.8125 -2.3125 2.109375 -1.984375 2.109375 -1.515625 Z M 0.640625 -1.515625 "/>
</symbol>
<symbol overflow="visible" id="glyph0-3">
<path style="stroke:none;" d="M 2.671875 -0.25 C 2.625 -0.234375 2.609375 -0.234375 2.578125 -0.234375 C 2.4375 -0.234375 2.359375 -0.3125 2.359375 -0.4375 L 2.359375 -1.984375 C 2.359375 -2.4375 2.015625 -2.6875 1.375 -2.6875 C 0.984375 -2.6875 0.6875 -2.578125 0.5 -2.390625 C 0.390625 -2.25 0.328125 -2.109375 0.328125 -1.84375 L 0.75 -1.84375 C 0.78125 -2.171875 0.96875 -2.3125 1.359375 -2.3125 C 1.734375 -2.3125 1.9375 -2.171875 1.9375 -1.921875 L 1.9375 -1.8125 C 1.9375 -1.625 1.84375 -1.5625 1.515625 -1.515625 C 0.921875 -1.4375 0.828125 -1.421875 0.671875 -1.359375 C 0.359375 -1.234375 0.203125 -1 0.203125 -0.65625 C 0.203125 -0.1875 0.546875 0.109375 1.0625 0.109375 C 1.40625 0.109375 1.671875 0 1.953125 -0.265625 C 1.984375 0 2.125 0.109375 2.390625 0.109375 C 2.484375 0.109375 2.53125 0.109375 2.671875 0.0625 Z M 1.9375 -0.828125 C 1.9375 -0.6875 1.90625 -0.59375 1.78125 -0.484375 C 1.609375 -0.328125 1.40625 -0.25 1.15625 -0.25 C 0.828125 -0.25 0.640625 -0.40625 0.640625 -0.671875 C 0.640625 -0.9375 0.828125 -1.078125 1.28125 -1.15625 C 1.71875 -1.203125 1.8125 -1.234375 1.9375 -1.296875 Z M 1.9375 -0.828125 "/>
</symbol>
<symbol overflow="visible" id="glyph0-4">
<path style="stroke:none;" d="M 0.34375 -2.625 L 0.34375 0 L 0.765625 0 L 0.765625 -1.4375 C 0.765625 -1.984375 1.046875 -2.328125 1.484375 -2.328125 C 1.8125 -2.328125 2.015625 -2.125 2.015625 -1.8125 L 2.015625 0 L 2.4375 0 L 2.4375 -1.984375 C 2.4375 -2.421875 2.109375 -2.6875 1.609375 -2.6875 C 1.21875 -2.6875 0.96875 -2.546875 0.734375 -2.1875 L 0.734375 -2.625 Z M 0.34375 -2.625 "/>
</symbol>
<symbol overflow="visible" id="glyph0-5">
<path style="stroke:none;" d="M 1.0625 -0.515625 L 0.546875 -0.515625 L 0.546875 0 L 1.0625 0 Z M 1.0625 -2.625 L 0.546875 -2.625 L 0.546875 -2.09375 L 1.0625 -2.09375 Z M 1.0625 -2.625 "/>
</symbol>
<symbol overflow="visible" id="glyph0-6">
<path style="stroke:none;" d=""/>
</symbol>
<symbol overflow="visible" id="glyph0-7">
<path style="stroke:none;" d="M 1.296875 -2.578125 L 1.296875 0 L 1.734375 0 L 1.734375 -3.609375 L 1.4375 -3.609375 C 1.296875 -3.0625 1.1875 -2.984375 0.515625 -2.890625 L 0.515625 -2.578125 Z M 1.296875 -2.578125 "/>
</symbol>
<symbol overflow="visible" id="glyph0-8">
<path style="stroke:none;" d="M 0.953125 -0.515625 L 0.4375 -0.515625 L 0.4375 0 L 0.953125 0 Z M 0.953125 -0.515625 "/>
</symbol>
<symbol overflow="visible" id="glyph0-9">
<path style="stroke:none;" d="M 1.640625 -0.875 L 1.640625 0 L 2.078125 0 L 2.078125 -0.875 L 2.59375 -0.875 L 2.59375 -1.265625 L 2.078125 -1.265625 L 2.078125 -3.609375 L 1.75 -3.609375 L 0.140625 -1.34375 L 0.140625 -0.875 Z M 1.640625 -1.265625 L 0.53125 -1.265625 L 1.640625 -2.859375 Z M 1.640625 -1.265625 "/>
</symbol>
<symbol overflow="visible" id="glyph0-10">
<path style="stroke:none;" d="M 2.46875 -3.640625 L 2.0625 -3.640625 L 2.0625 -2.296875 C 1.890625 -2.5625 1.609375 -2.6875 1.25 -2.6875 C 0.578125 -2.6875 0.125 -2.15625 0.125 -1.3125 C 0.125 -0.4375 0.5625 0.109375 1.265625 0.109375 C 1.625 0.109375 1.875 -0.015625 2.109375 -0.34375 L 2.109375 0 L 2.46875 0 Z M 1.328125 -2.3125 C 1.78125 -2.3125 2.0625 -1.90625 2.0625 -1.28125 C 2.0625 -0.671875 1.765625 -0.28125 1.328125 -0.28125 C 0.875 -0.28125 0.5625 -0.6875 0.5625 -1.296875 C 0.5625 -1.90625 0.875 -2.3125 1.328125 -2.3125 Z M 1.328125 -2.3125 "/>
</symbol>
<symbol overflow="visible" id="glyph0-11">
<path style="stroke:none;" d="M 0.75 -2.625 L 0.328125 -2.625 L 0.328125 0 L 0.75 0 Z M 0.75 -3.640625 L 0.328125 -3.640625 L 0.328125 -3.125 L 0.75 -3.125 Z M 0.75 -3.640625 "/>
</symbol>
<symbol overflow="visible" id="glyph0-12">
<path style="stroke:none;" d="M 2.59375 -3.546875 L 0.234375 -3.546875 L 0.234375 -3.109375 L 2.140625 -3.109375 C 1.296875 -1.90625 0.953125 -1.171875 0.6875 0 L 1.15625 0 C 1.359375 -1.140625 1.796875 -2.109375 2.59375 -3.171875 Z M 2.59375 -3.546875 "/>
</symbol>
<symbol overflow="visible" id="glyph0-13">
<path style="stroke:none;" d="M 2.984375 -2.578125 C 2.984375 -2.828125 2.96875 -2.890625 2.890625 -3.0625 C 2.6875 -3.484375 2.265625 -3.703125 1.640625 -3.703125 C 0.84375 -3.703125 0.34375 -3.296875 0.34375 -2.640625 C 0.34375 -2.1875 0.578125 -1.90625 1.0625 -1.78125 L 1.96875 -1.546875 C 2.4375 -1.421875 2.640625 -1.234375 2.640625 -0.953125 C 2.640625 -0.765625 2.53125 -0.5625 2.375 -0.453125 C 2.234375 -0.34375 2 -0.296875 1.703125 -0.296875 C 1.3125 -0.296875 1.046875 -0.390625 0.875 -0.59375 C 0.734375 -0.765625 0.671875 -0.9375 0.6875 -1.15625 L 0.234375 -1.15625 C 0.25 -0.828125 0.3125 -0.609375 0.453125 -0.40625 C 0.703125 -0.0625 1.125 0.109375 1.6875 0.109375 C 2.109375 0.109375 2.46875 0.015625 2.703125 -0.171875 C 2.953125 -0.359375 3.109375 -0.6875 3.109375 -1 C 3.109375 -1.453125 2.828125 -1.78125 2.328125 -1.921875 L 1.421875 -2.15625 C 0.96875 -2.28125 0.8125 -2.421875 0.8125 -2.703125 C 0.8125 -3.0625 1.140625 -3.3125 1.625 -3.3125 C 2.203125 -3.3125 2.53125 -3.0625 2.546875 -2.578125 Z M 2.984375 -2.578125 "/>
</symbol>
<symbol overflow="visible" id="glyph0-14">
<path style="stroke:none;" d="M 0.4375 0 L 1.84375 0 C 2.765625 0 3.328125 -0.6875 3.328125 -1.828125 C 3.328125 -2.953125 2.78125 -3.640625 1.84375 -3.640625 L 0.4375 -3.640625 Z M 0.90625 -0.40625 L 0.90625 -3.234375 L 1.765625 -3.234375 C 2.484375 -3.234375 2.875 -2.75 2.875 -1.8125 C 2.875 -0.890625 2.484375 -0.40625 1.765625 -0.40625 Z M 0.90625 -0.40625 "/>
</symbol>
<symbol overflow="visible" id="glyph0-15">
<path style="stroke:none;" d="M 1.953125 -1.90625 C 2.328125 -2.125 2.4375 -2.3125 2.4375 -2.65625 C 2.4375 -3.21875 2 -3.609375 1.375 -3.609375 C 0.75 -3.609375 0.3125 -3.21875 0.3125 -2.65625 C 0.3125 -2.3125 0.421875 -2.140625 0.796875 -1.90625 C 0.390625 -1.703125 0.1875 -1.40625 0.1875 -1 C 0.1875 -0.34375 0.671875 0.109375 1.375 0.109375 C 2.078125 0.109375 2.5625 -0.34375 2.5625 -1 C 2.5625 -1.40625 2.359375 -1.703125 1.953125 -1.90625 Z M 1.375 -3.21875 C 1.75 -3.21875 1.984375 -3 1.984375 -2.640625 C 1.984375 -2.296875 1.75 -2.078125 1.375 -2.078125 C 1 -2.078125 0.765625 -2.296875 0.765625 -2.65625 C 0.765625 -3 1 -3.21875 1.375 -3.21875 Z M 1.375 -1.703125 C 1.8125 -1.703125 2.109375 -1.421875 2.109375 -1 C 2.109375 -0.5625 1.8125 -0.28125 1.359375 -0.28125 C 0.9375 -0.28125 0.640625 -0.5625 0.640625 -0.984375 C 0.640625 -1.421875 0.9375 -1.703125 1.375 -1.703125 Z M 1.375 -1.703125 "/>
</symbol>
<symbol overflow="visible" id="glyph0-16">
<path style="stroke:none;" d="M 1.375 -3.609375 C 1.046875 -3.609375 0.75 -3.46875 0.5625 -3.21875 C 0.328125 -2.90625 0.21875 -2.421875 0.21875 -1.75 C 0.21875 -0.53125 0.609375 0.109375 1.375 0.109375 C 2.125 0.109375 2.53125 -0.53125 2.53125 -1.71875 C 2.53125 -2.421875 2.421875 -2.890625 2.1875 -3.21875 C 2 -3.46875 1.703125 -3.609375 1.375 -3.609375 Z M 1.375 -3.21875 C 1.84375 -3.21875 2.078125 -2.734375 2.078125 -1.765625 C 2.078125 -0.734375 1.859375 -0.25 1.359375 -0.25 C 0.90625 -0.25 0.671875 -0.75 0.671875 -1.75 C 0.671875 -2.734375 0.90625 -3.21875 1.375 -3.21875 Z M 1.375 -3.21875 "/>
</symbol>
<symbol overflow="visible" id="glyph0-17">
<path style="stroke:none;" d="M 1.9375 -2.625 L 1.21875 -0.578125 L 0.546875 -2.625 L 0.09375 -2.625 L 0.984375 0.015625 L 0.828125 0.421875 C 0.75 0.609375 0.671875 0.6875 0.484375 0.6875 C 0.421875 0.6875 0.359375 0.671875 0.265625 0.65625 L 0.265625 1.03125 C 0.359375 1.0625 0.4375 1.09375 0.546875 1.09375 C 0.6875 1.09375 0.828125 1.046875 0.9375 0.96875 C 1.0625 0.875 1.140625 0.765625 1.21875 0.546875 L 2.390625 -2.625 Z M 1.9375 -2.625 "/>
</symbol>
<symbol overflow="visible" id="glyph0-18">
<path style="stroke:none;" d="M 2.53125 -0.4375 L 0.671875 -0.4375 C 0.703125 -0.734375 0.875 -0.921875 1.3125 -1.1875 L 1.8125 -1.46875 C 2.296875 -1.75 2.5625 -2.109375 2.5625 -2.5625 C 2.5625 -2.859375 2.4375 -3.140625 2.21875 -3.328125 C 2.015625 -3.53125 1.75 -3.609375 1.421875 -3.609375 C 0.96875 -3.609375 0.640625 -3.453125 0.4375 -3.140625 C 0.3125 -2.953125 0.265625 -2.734375 0.25 -2.359375 L 0.6875 -2.359375 C 0.703125 -2.609375 0.734375 -2.75 0.796875 -2.875 C 0.90625 -3.09375 1.140625 -3.234375 1.40625 -3.234375 C 1.8125 -3.234375 2.109375 -2.9375 2.109375 -2.546875 C 2.109375 -2.265625 1.9375 -2.015625 1.625 -1.828125 L 1.171875 -1.5625 C 0.421875 -1.140625 0.203125 -0.796875 0.171875 0 L 2.53125 0 Z M 2.53125 -0.4375 "/>
</symbol>
<symbol overflow="visible" id="glyph0-19">
<path style="stroke:none;" d="M 2.484375 -2.671875 C 2.40625 -3.265625 2.03125 -3.609375 1.484375 -3.609375 C 1.09375 -3.609375 0.75 -3.421875 0.53125 -3.09375 C 0.3125 -2.75 0.21875 -2.3125 0.21875 -1.65625 C 0.21875 -1.046875 0.296875 -0.65625 0.515625 -0.328125 C 0.703125 -0.046875 1.015625 0.109375 1.40625 0.109375 C 2.078125 0.109375 2.5625 -0.390625 2.5625 -1.09375 C 2.5625 -1.765625 2.109375 -2.234375 1.484375 -2.234375 C 1.125 -2.234375 0.859375 -2.09375 0.671875 -1.828125 C 0.671875 -2.734375 0.953125 -3.21875 1.453125 -3.21875 C 1.765625 -3.21875 1.984375 -3.03125 2.046875 -2.671875 Z M 1.421875 -1.84375 C 1.84375 -1.84375 2.109375 -1.546875 2.109375 -1.0625 C 2.109375 -0.609375 1.8125 -0.28125 1.40625 -0.28125 C 1 -0.28125 0.6875 -0.625 0.6875 -1.078125 C 0.6875 -1.53125 0.984375 -1.84375 1.421875 -1.84375 Z M 1.421875 -1.84375 "/>
</symbol>
<symbol overflow="visible" id="glyph1-0">
<path style="stroke:none;" d=""/>
</symbol>
<symbol overflow="visible" id="glyph1-1">
<path style="stroke:none;" d="M 2.8125 0 L 4.03125 -3.671875 L 4.03125 0 L 4.5625 0 L 4.5625 -4.375 L 3.796875 -4.375 L 2.515625 -0.5625 L 1.21875 -4.375 L 0.453125 -4.375 L 0.453125 0 L 0.984375 0 L 0.984375 -3.671875 L 2.21875 0 Z M 2.8125 0 "/>
</symbol>
<symbol overflow="visible" id="glyph1-2">
<path style="stroke:none;" d="M 2.328125 -3.140625 L 1.453125 -0.703125 L 0.65625 -3.140625 L 0.125 -3.140625 L 1.1875 0.015625 L 0.984375 0.515625 C 0.90625 0.734375 0.796875 0.8125 0.59375 0.8125 C 0.5 0.8125 0.4375 0.796875 0.328125 0.78125 L 0.328125 1.234375 C 0.421875 1.28125 0.53125 1.3125 0.65625 1.3125 C 0.828125 1.3125 1 1.25 1.125 1.15625 C 1.28125 1.046875 1.375 0.90625 1.46875 0.65625 L 2.875 -3.140625 Z M 2.328125 -3.140625 "/>
</symbol>
<symbol overflow="visible" id="glyph1-3">
<path style="stroke:none;" d="M 3.203125 -0.296875 C 3.15625 -0.28125 3.125 -0.28125 3.109375 -0.28125 C 2.921875 -0.28125 2.828125 -0.375 2.828125 -0.53125 L 2.828125 -2.375 C 2.828125 -2.9375 2.421875 -3.234375 1.65625 -3.234375 C 1.1875 -3.234375 0.828125 -3.109375 0.609375 -2.875 C 0.46875 -2.703125 0.40625 -2.53125 0.390625 -2.21875 L 0.890625 -2.21875 C 0.9375 -2.59375 1.15625 -2.765625 1.625 -2.765625 C 2.09375 -2.765625 2.328125 -2.609375 2.328125 -2.296875 L 2.328125 -2.171875 C 2.328125 -1.953125 2.21875 -1.875 1.8125 -1.828125 C 1.109375 -1.734375 1 -1.703125 0.796875 -1.625 C 0.4375 -1.46875 0.25 -1.203125 0.25 -0.796875 C 0.25 -0.21875 0.640625 0.140625 1.28125 0.140625 C 1.6875 0.140625 2 0 2.359375 -0.328125 C 2.390625 0 2.546875 0.140625 2.875 0.140625 C 2.96875 0.140625 3.046875 0.125 3.203125 0.078125 Z M 2.328125 -0.984375 C 2.328125 -0.828125 2.28125 -0.71875 2.140625 -0.578125 C 1.9375 -0.390625 1.6875 -0.296875 1.390625 -0.296875 C 1 -0.296875 0.78125 -0.484375 0.78125 -0.796875 C 0.78125 -1.140625 0.984375 -1.296875 1.53125 -1.375 C 2.0625 -1.453125 2.171875 -1.46875 2.328125 -1.546875 Z M 2.328125 -0.984375 "/>
</symbol>
<symbol overflow="visible" id="glyph2-0">
<path style="stroke:none;" d=""/>
</symbol>
<symbol overflow="visible" id="glyph2-1">
<path style="stroke:none;" d="M 0 -0.53125 L 0 -2.21875 C 0 -3.328125 -0.828125 -4 -2.1875 -4 C -3.546875 -4 -4.375 -3.328125 -4.375 -2.21875 L -4.375 -0.53125 Z M -0.484375 -1.09375 L -3.875 -1.09375 L -3.875 -2.125 C -3.875 -2.984375 -3.296875 -3.4375 -2.1875 -3.4375 C -1.078125 -3.4375 -0.484375 -2.984375 -0.484375 -2.125 Z M -0.484375 -1.09375 "/>
</symbol>
<symbol overflow="visible" id="glyph2-2">
<path style="stroke:none;" d="M -1.40625 -3.078125 C -1.890625 -3.078125 -2.171875 -3.046875 -2.40625 -2.953125 C -2.921875 -2.75 -3.234375 -2.265625 -3.234375 -1.6875 C -3.234375 -0.796875 -2.5625 -0.234375 -1.53125 -0.234375 C -0.484375 -0.234375 0.140625 -0.78125 0.140625 -1.671875 C 0.140625 -2.390625 -0.265625 -2.890625 -0.953125 -3.015625 L -0.953125 -2.515625 C -0.546875 -2.375 -0.328125 -2.09375 -0.328125 -1.6875 C -0.328125 -1.375 -0.46875 -1.09375 -0.734375 -0.9375 C -0.90625 -0.8125 -1.09375 -0.765625 -1.40625 -0.765625 Z M -1.8125 -0.78125 C -2.390625 -0.8125 -2.765625 -1.171875 -2.765625 -1.671875 C -2.765625 -2.1875 -2.375 -2.53125 -1.8125 -2.53125 Z M -1.8125 -0.78125 "/>
</symbol>
<symbol overflow="visible" id="glyph2-3">
<path style="stroke:none;" d="M -3.140625 -0.421875 L 0 -0.421875 L 0 -0.921875 L -1.734375 -0.921875 C -2.375 -0.921875 -2.796875 -1.265625 -2.796875 -1.78125 C -2.796875 -2.171875 -2.5625 -2.421875 -2.171875 -2.421875 L 0 -2.421875 L 0 -2.921875 L -2.375 -2.921875 C -2.890625 -2.921875 -3.234375 -2.53125 -3.234375 -1.921875 C -3.234375 -1.453125 -3.046875 -1.15625 -2.609375 -0.875 L -3.140625 -0.875 Z M -3.140625 -0.421875 "/>
</symbol>
<symbol overflow="visible" id="glyph2-4">
<path style="stroke:none;" d="M -2.265625 -2.625 C -2.890625 -2.625 -3.234375 -2.21875 -3.234375 -1.484375 C -3.234375 -0.75 -2.859375 -0.28125 -2.28125 -0.28125 C -1.78125 -0.28125 -1.546875 -0.53125 -1.375 -1.28125 L -1.25 -1.75 C -1.171875 -2.09375 -1.046875 -2.234375 -0.828125 -2.234375 C -0.515625 -2.234375 -0.328125 -1.9375 -0.328125 -1.5 C -0.328125 -1.234375 -0.40625 -1 -0.53125 -0.875 C -0.625 -0.796875 -0.71875 -0.765625 -0.9375 -0.734375 L -0.9375 -0.203125 C -0.203125 -0.234375 0.140625 -0.640625 0.140625 -1.453125 C 0.140625 -2.25 -0.25 -2.75 -0.859375 -2.75 C -1.328125 -2.75 -1.578125 -2.484375 -1.734375 -1.859375 L -1.84375 -1.390625 C -1.9375 -0.984375 -2.078125 -0.796875 -2.296875 -0.796875 C -2.59375 -0.796875 -2.765625 -1.0625 -2.765625 -1.46875 C -2.765625 -1.875 -2.59375 -2.09375 -2.265625 -2.09375 Z M -2.265625 -2.625 "/>
</symbol>
<symbol overflow="visible" id="glyph2-5">
<path style="stroke:none;" d="M -3.140625 -0.90625 L -3.140625 -0.40625 L 0 -0.40625 L 0 -0.90625 Z M -4.375 -0.90625 L -4.375 -0.390625 L -3.75 -0.390625 L -3.75 -0.90625 Z M -4.375 -0.90625 "/>
</symbol>
<symbol overflow="visible" id="glyph2-6">
<path style="stroke:none;" d="M -3.140625 -1.53125 L -3.140625 -1.015625 L -4.015625 -1.015625 L -4.015625 -0.515625 L -3.140625 -0.515625 L -3.140625 -0.078125 L -2.734375 -0.078125 L -2.734375 -0.515625 L -0.359375 -0.515625 C -0.03125 -0.515625 0.140625 -0.71875 0.140625 -1.109375 C 0.140625 -1.25 0.125 -1.359375 0.09375 -1.53125 L -0.328125 -1.53125 C -0.3125 -1.453125 -0.296875 -1.390625 -0.296875 -1.28125 C -0.296875 -1.0625 -0.359375 -1.015625 -0.578125 -1.015625 L -2.734375 -1.015625 L -2.734375 -1.53125 Z M -3.140625 -1.53125 "/>
</symbol>
<symbol overflow="visible" id="glyph2-7">
<path style="stroke:none;" d="M -3.140625 -2.328125 L -0.703125 -1.453125 L -3.140625 -0.65625 L -3.140625 -0.125 L 0.015625 -1.1875 L 0.515625 -0.984375 C 0.734375 -0.90625 0.8125 -0.796875 0.8125 -0.59375 C 0.8125 -0.5 0.796875 -0.4375 0.78125 -0.328125 L 1.234375 -0.328125 C 1.28125 -0.421875 1.3125 -0.53125 1.3125 -0.65625 C 1.3125 -0.828125 1.25 -1 1.15625 -1.125 C 1.046875 -1.28125 0.90625 -1.375 0.65625 -1.46875 L -3.140625 -2.875 Z M -3.140625 -2.328125 "/>
</symbol>
<symbol overflow="visible" id="glyph3-0">
<path style="stroke:none;" d=""/>
</symbol>
<symbol overflow="visible" id="glyph3-1">
<path style="stroke:none;" d="M 1.375 -4.375 L 0.484375 -4.375 L 0.484375 0 L 3.46875 0 L 3.46875 -0.75 L 1.375 -0.75 Z M 1.375 -4.375 "/>
</symbol>
<symbol overflow="visible" id="glyph3-2">
<path style="stroke:none;" d="M 2.3125 -3.625 L 3.59375 -3.625 L 3.59375 -4.375 L 0.078125 -4.375 L 0.078125 -3.625 L 1.40625 -3.625 L 1.40625 0 L 2.3125 0 Z M 2.3125 -3.625 "/>
</symbol>
<symbol overflow="visible" id="glyph3-3">
<path style="stroke:none;" d="M 1.375 -1.734375 L 2.40625 -1.734375 C 2.796875 -1.734375 2.96875 -1.578125 2.96875 -1.21875 L 2.96875 -1.03125 C 2.96875 -0.921875 2.96875 -0.8125 2.96875 -0.75 C 2.96875 -0.34375 2.984375 -0.203125 3.09375 0 L 4.0625 0 L 4.0625 -0.15625 C 3.921875 -0.234375 3.875 -0.328125 3.875 -0.515625 C 3.84375 -1.8125 3.828125 -1.875 3.265625 -2.109375 C 3.75 -2.296875 4 -2.65625 4 -3.1875 C 4 -3.546875 3.875 -3.859375 3.671875 -4.078125 C 3.46875 -4.28125 3.203125 -4.375 2.828125 -4.375 L 0.484375 -4.375 L 0.484375 0 L 1.375 0 Z M 1.375 -2.484375 L 1.375 -3.625 L 2.46875 -3.625 C 2.71875 -3.625 2.828125 -3.59375 2.9375 -3.515625 C 3.046875 -3.421875 3.109375 -3.265625 3.109375 -3.0625 C 3.109375 -2.859375 3.046875 -2.6875 2.9375 -2.59375 C 2.84375 -2.515625 2.71875 -2.484375 2.46875 -2.484375 Z M 1.375 -2.484375 "/>
</symbol>
<symbol overflow="visible" id="glyph3-4">
<path style="stroke:none;" d=""/>
</symbol>
<symbol overflow="visible" id="glyph3-5">
<path style="stroke:none;" d="M 4.09375 -2.890625 C 4.0625 -3.265625 3.984375 -3.515625 3.796875 -3.75 C 3.46875 -4.203125 2.921875 -4.453125 2.265625 -4.453125 C 1.03125 -4.453125 0.265625 -3.5625 0.265625 -2.140625 C 0.265625 -0.734375 1.03125 0.140625 2.25 0.140625 C 3.34375 0.140625 4.0625 -0.484375 4.109375 -1.5 L 3.234375 -1.5 C 3.171875 -0.9375 2.828125 -0.625 2.265625 -0.625 C 1.578125 -0.625 1.15625 -1.1875 1.15625 -2.140625 C 1.15625 -3.109375 1.59375 -3.671875 2.296875 -3.671875 C 2.8125 -3.671875 3.109375 -3.421875 3.234375 -2.890625 Z M 4.09375 -2.890625 "/>
</symbol>
<symbol overflow="visible" id="glyph3-6">
<path style="stroke:none;" d="M 1.8125 -3.296875 C 0.8125 -3.296875 0.203125 -2.640625 0.203125 -1.578125 C 0.203125 -0.515625 0.8125 0.140625 1.8125 0.140625 C 2.796875 0.140625 3.40625 -0.515625 3.40625 -1.546875 C 3.40625 -2.65625 2.8125 -3.296875 1.8125 -3.296875 Z M 1.8125 -2.609375 C 2.28125 -2.609375 2.578125 -2.203125 2.578125 -1.5625 C 2.578125 -0.953125 2.265625 -0.546875 1.8125 -0.546875 C 1.359375 -0.546875 1.046875 -0.953125 1.046875 -1.578125 C 1.046875 -2.203125 1.359375 -2.609375 1.8125 -2.609375 Z M 1.8125 -2.609375 "/>
</symbol>
<symbol overflow="visible" id="glyph3-7">
<path style="stroke:none;" d="M 1.1875 -3.234375 L 0.34375 -3.234375 L 0.34375 1.3125 L 1.1875 1.3125 L 1.1875 -0.390625 C 1.390625 -0.03125 1.6875 0.140625 2.09375 0.140625 C 2.875 0.140625 3.4375 -0.59375 3.4375 -1.578125 C 3.4375 -2.03125 3.3125 -2.484375 3.09375 -2.78125 C 2.875 -3.09375 2.484375 -3.296875 2.09375 -3.296875 C 1.6875 -3.296875 1.390625 -3.125 1.1875 -2.765625 Z M 1.890625 -2.59375 C 2.328125 -2.59375 2.609375 -2.1875 2.609375 -1.5625 C 2.609375 -0.96875 2.3125 -0.5625 1.890625 -0.5625 C 1.46875 -0.5625 1.1875 -0.96875 1.1875 -1.578125 C 1.1875 -2.1875 1.46875 -2.59375 1.890625 -2.59375 Z M 1.890625 -2.59375 "/>
</symbol>
<symbol overflow="visible" id="glyph3-8">
<path style="stroke:none;" d="M 1.234375 -3.234375 L 0.40625 -3.234375 L 0.40625 0 L 1.234375 0 Z M 1.234375 -4.375 L 0.40625 -4.375 L 0.40625 -3.625 L 1.234375 -3.625 Z M 1.234375 -4.375 "/>
</symbol>
<symbol overflow="visible" id="glyph3-9">
<path style="stroke:none;" d="M 3.140625 -0.109375 C 3 -0.234375 2.953125 -0.34375 2.953125 -0.5 L 2.953125 -2.296875 C 2.953125 -2.953125 2.5 -3.296875 1.625 -3.296875 C 0.75 -3.296875 0.296875 -2.921875 0.234375 -2.171875 L 1.046875 -2.171875 C 1.09375 -2.515625 1.234375 -2.609375 1.640625 -2.609375 C 1.96875 -2.609375 2.125 -2.515625 2.125 -2.296875 C 2.125 -2.1875 2.078125 -2.09375 1.984375 -2.046875 C 1.875 -1.984375 1.875 -1.984375 1.453125 -1.90625 L 1.125 -1.859375 C 0.484375 -1.75 0.171875 -1.421875 0.171875 -0.828125 C 0.171875 -0.25 0.5625 0.140625 1.15625 0.140625 C 1.515625 0.140625 1.84375 -0.015625 2.140625 -0.328125 C 2.140625 -0.15625 2.15625 -0.09375 2.234375 0 L 3.140625 0 Z M 2.125 -1.296875 C 2.125 -0.8125 1.890625 -0.546875 1.46875 -0.546875 C 1.1875 -0.546875 1.015625 -0.6875 1.015625 -0.9375 C 1.015625 -1.1875 1.140625 -1.296875 1.484375 -1.375 L 1.78125 -1.421875 C 2 -1.46875 2.03125 -1.484375 2.125 -1.53125 Z M 2.125 -1.296875 "/>
</symbol>
<symbol overflow="visible" id="glyph3-10">
<path style="stroke:none;" d="M 0.375 -3.234375 L 0.375 0 L 1.21875 0 L 1.21875 -1.9375 C 1.21875 -2.328125 1.484375 -2.578125 1.890625 -2.578125 C 2.25 -2.578125 2.4375 -2.375 2.4375 -2 L 2.4375 0 L 3.28125 0 L 3.28125 -2.171875 C 3.28125 -2.890625 2.890625 -3.296875 2.1875 -3.296875 C 1.75 -3.296875 1.453125 -3.140625 1.21875 -2.765625 L 1.21875 -3.234375 Z M 0.375 -3.234375 "/>
</symbol>
<symbol overflow="visible" id="glyph3-11">
<path style="stroke:none;" d="M 3.03125 -2.203125 C 3.015625 -2.875 2.484375 -3.296875 1.625 -3.296875 C 0.796875 -3.296875 0.28125 -2.875 0.28125 -2.21875 C 0.28125 -2 0.359375 -1.8125 0.46875 -1.6875 C 0.578125 -1.578125 0.6875 -1.515625 1 -1.421875 L 2 -1.109375 C 2.203125 -1.03125 2.28125 -0.96875 2.28125 -0.84375 C 2.28125 -0.640625 2.046875 -0.515625 1.65625 -0.515625 C 1.4375 -0.515625 1.265625 -0.5625 1.15625 -0.640625 C 1.0625 -0.703125 1.03125 -0.765625 1 -0.9375 L 0.171875 -0.9375 C 0.203125 -0.234375 0.71875 0.140625 1.703125 0.140625 C 2.15625 0.140625 2.5 0.046875 2.734375 -0.15625 C 2.96875 -0.34375 3.125 -0.640625 3.125 -0.953125 C 3.125 -1.375 2.90625 -1.65625 2.484375 -1.78125 L 1.421875 -2.078125 C 1.1875 -2.15625 1.125 -2.203125 1.125 -2.328125 C 1.125 -2.515625 1.3125 -2.640625 1.609375 -2.640625 C 2.015625 -2.640625 2.21875 -2.484375 2.21875 -2.203125 Z M 3.03125 -2.203125 "/>
</symbol>
<symbol overflow="visible" id="glyph3-12">
<path style="stroke:none;" d="M 3.140625 -1.359375 C 3.15625 -1.421875 3.15625 -1.453125 3.15625 -1.5 C 3.15625 -1.828125 3.109375 -2.125 3.03125 -2.359375 C 2.8125 -2.9375 2.28125 -3.296875 1.625 -3.296875 C 0.703125 -3.296875 0.125 -2.625 0.125 -1.53125 C 0.125 -0.5 0.703125 0.140625 1.609375 0.140625 C 2.34375 0.140625 2.921875 -0.265625 3.109375 -0.90625 L 2.28125 -0.90625 C 2.1875 -0.65625 1.953125 -0.5 1.640625 -0.5 C 1.40625 -0.5 1.21875 -0.609375 1.09375 -0.78125 C 1.015625 -0.90625 0.984375 -1.046875 0.96875 -1.359375 Z M 0.984375 -1.90625 C 1.03125 -2.40625 1.25 -2.65625 1.625 -2.65625 C 2 -2.65625 2.234375 -2.390625 2.28125 -1.90625 Z M 0.984375 -1.90625 "/>
</symbol>
<symbol overflow="visible" id="glyph3-13">
<path style="stroke:none;" d="M 0.375 -3.234375 L 0.375 0 L 1.21875 0 L 1.21875 -1.71875 C 1.21875 -2.21875 1.46875 -2.453125 1.953125 -2.453125 C 2.046875 -2.453125 2.109375 -2.453125 2.21875 -2.4375 L 2.21875 -3.28125 C 2.171875 -3.296875 2.15625 -3.296875 2.125 -3.296875 C 1.734375 -3.296875 1.40625 -3.046875 1.21875 -2.609375 L 1.21875 -3.234375 Z M 0.375 -3.234375 "/>
</symbol>
<symbol overflow="visible" id="glyph3-14">
<path style="stroke:none;" d="M 1.8125 -3.171875 L 1.34375 -3.171875 L 1.34375 -4.046875 L 0.5 -4.046875 L 0.5 -3.171875 L 0.078125 -3.171875 L 0.078125 -2.609375 L 0.5 -2.609375 L 0.5 -0.625 C 0.5 -0.109375 0.765625 0.140625 1.3125 0.140625 C 1.515625 0.140625 1.65625 0.125 1.8125 0.078125 L 1.8125 -0.515625 C 1.71875 -0.5 1.6875 -0.5 1.609375 -0.5 C 1.390625 -0.5 1.34375 -0.5625 1.34375 -0.859375 L 1.34375 -2.609375 L 1.8125 -2.609375 Z M 1.8125 -3.171875 "/>
</symbol>
<symbol overflow="visible" id="glyph3-15">
<path style="stroke:none;" d="M 0.359375 -3.234375 L 0.359375 0 L 1.203125 0 L 1.203125 -1.9375 C 1.203125 -2.34375 1.421875 -2.578125 1.78125 -2.578125 C 2.0625 -2.578125 2.234375 -2.421875 2.234375 -2.15625 L 2.234375 0 L 3.078125 0 L 3.078125 -1.9375 C 3.078125 -2.34375 3.28125 -2.578125 3.640625 -2.578125 C 3.9375 -2.578125 4.109375 -2.421875 4.109375 -2.15625 L 4.109375 0 L 4.9375 0 L 4.9375 -2.296875 C 4.9375 -2.921875 4.5625 -3.296875 3.90625 -3.296875 C 3.5 -3.296875 3.21875 -3.15625 2.96875 -2.8125 C 2.8125 -3.125 2.484375 -3.296875 2.078125 -3.296875 C 1.703125 -3.296875 1.46875 -3.171875 1.1875 -2.84375 L 1.1875 -3.234375 Z M 0.359375 -3.234375 "/>
</symbol>
</g>
<clipPath id="clip1">
  <path d="M 20.75 11.871094 L 222.789062 11.871094 L 222.789062 122.511719 L 20.75 122.511719 Z M 20.75 11.871094 "/>
</clipPath>
<clipPath id="clip2">
  <path d="M 20.75 117 L 222.789062 117 L 222.789062 118 L 20.75 118 Z M 20.75 117 "/>
</clipPath>
<clipPath id="clip3">
  <path d="M 20.75 91 L 222.789062 91 L 222.789062 92 L 20.75 92 Z M 20.75 91 "/>
</clipPath>
<clipPath id="clip4">
  <path d="M 20.75 64 L 222.789062 64 L 222.789062 66 L 20.75 66 Z M 20.75 64 "/>
</clipPath>
<clipPath id="clip5">
  <path d="M 20.75 38 L 222.789062 38 L 222.789062 40 L 20.75 40 Z M 20.75 38 "/>
</clipPath>
<clipPath id="clip6">
  <path d="M 20.75 12 L 222.789062 12 L 222.789062 14 L 20.75 14 Z M 20.75 12 "/>
</clipPath>
<clipPath id="clip7">
  <path d="M 29 11.871094 L 31 11.871094 L 31 122.511719 L 29 122.511719 Z M 29 11.871094 "/>
</clipPath>
<clipPath id="clip8">
  <path d="M 84 11.871094 L 86 11.871094 L 86 122.511719 L 84 122.511719 Z M 84 11.871094 "/>
</clipPath>
<clipPath id="clip9">
  <path d="M 140 11.871094 L 141 11.871094 L 141 122.511719 L 140 122.511719 Z M 140 11.871094 "/>
</clipPath>
<clipPath id="clip10">
  <path d="M 195 11.871094 L 196 11.871094 L 196 122.511719 L 195 122.511719 Z M 195 11.871094 "/>
</clipPath>
<clipPath id="clip11">
  <path d="M 69 11.871094 L 70 11.871094 L 70 122.511719 L 69 122.511719 Z M 69 11.871094 "/>
</clipPath>
<clipPath id="clip12">
  <path d="M 61 11.871094 L 63 11.871094 L 63 122.511719 L 61 122.511719 Z M 61 11.871094 "/>
</clipPath>
</defs>
<g id="surface1">
<rect x="0" y="0" width="226" height="141" style="fill:rgb(100%,100%,100%);fill-opacity:1;stroke:none;"/>
<rect x="0" y="0" width="226" height="141" style="fill:rgb(100%,100%,100%);fill-opacity:1;stroke:none;"/>
<path style="fill:none;stroke-width:0.58;stroke-linecap:round;stroke-linejoin:round;stroke:rgb(100%,100%,100%);stroke-opacity:1;stroke-miterlimit:10;" d="M 0 0 L 226.769531 0 L 226.769531 141.730469 L 0 141.730469 Z M 0 0 " transform="matrix(1,0,0,-1,0,141)"/>
<g clip-path="url(#clip1)" clip-rule="nonzero">
<path style=" stroke:none;fill-rule:nonzero;fill:rgb(100%,100%,100%);fill-opacity:1;" d="M 20.75 122.511719 L 222.789062 122.511719 L 222.789062 11.871094 L 20.75 11.871094 Z M 20.75 122.511719 "/>
</g>
<g clip-path="url(#clip2)" clip-rule="nonzero">
<path style="fill:none;stroke-width:0.53;stroke-linecap:butt;stroke-linejoin:round;stroke:rgb(89.804077%,89.804077%,89.804077%);stroke-opacity:1;stroke-miterlimit:10;" d="M 20.75 23.519531 L 222.789062 23.519531 " transform="matrix(1,0,0,-1,0,141)"/>
</g>
<g clip-path="url(#clip3)" clip-rule="nonzero">
<path style="fill:none;stroke-width:0.53;stroke-linecap:butt;stroke-linejoin:round;stroke:rgb(89.804077%,89.804077%,89.804077%);stroke-opacity:1;stroke-miterlimit:10;" d="M 20.75 49.671875 L 222.789062 49.671875 " transform="matrix(1,0,0,-1,0,141)"/>
</g>
<g clip-path="url(#clip4)" clip-rule="nonzero">
<path style="fill:none;stroke-width:0.53;stroke-linecap:butt;stroke-linejoin:round;stroke:rgb(89.804077%,89.804077%,89.804077%);stroke-opacity:1;stroke-miterlimit:10;" d="M 20.75 75.820312 L 222.789062 75.820312 " transform="matrix(1,0,0,-1,0,141)"/>
</g>
<g clip-path="url(#clip5)" clip-rule="nonzero">
<path style="fill:none;stroke-width:0.53;stroke-linecap:butt;stroke-linejoin:round;stroke:rgb(89.804077%,89.804077%,89.804077%);stroke-opacity:1;stroke-miterlimit:10;" d="M 20.75 101.96875 L 222.789062 101.96875 " transform="matrix(1,0,0,-1,0,141)"/>
</g>
<g clip-path="url(#clip6)" clip-rule="nonzero">
<path style="fill:none;stroke-width:0.53;stroke-linecap:butt;stroke-linejoin:round;stroke:rgb(89.804077%,89.804077%,89.804077%);stroke-opacity:1;stroke-miterlimit:10;" d="M 20.75 128.121094 L 222.789062 128.121094 " transform="matrix(1,0,0,-1,0,141)"/>
</g>
<g clip-path="url(#clip7)" clip-rule="nonzero">
<path style="fill:none;stroke-width:0.53;stroke-linecap:butt;stroke-linejoin:round;stroke:rgb(89.804077%,89.804077%,89.804077%);stroke-opacity:1;stroke-miterlimit:10;" d="M 29.929688 18.488281 L 29.929688 129.128906 " transform="matrix(1,0,0,-1,0,141)"/>
</g>
<g clip-path="url(#clip8)" clip-rule="nonzero">
<path style="fill:none;stroke-width:0.53;stroke-linecap:butt;stroke-linejoin:round;stroke:rgb(89.804077%,89.804077%,89.804077%);stroke-opacity:1;stroke-miterlimit:10;" d="M 85.171875 18.488281 L 85.171875 129.128906 " transform="matrix(1,0,0,-1,0,141)"/>
</g>
<g clip-path="url(#clip9)" clip-rule="nonzero">
<path style="fill:none;stroke-width:0.53;stroke-linecap:butt;stroke-linejoin:round;stroke:rgb(89.804077%,89.804077%,89.804077%);stroke-opacity:1;stroke-miterlimit:10;" d="M 140.410156 18.488281 L 140.410156 129.128906 " transform="matrix(1,0,0,-1,0,141)"/>
</g>
<g clip-path="url(#clip10)" clip-rule="nonzero">
<path style="fill:none;stroke-width:0.53;stroke-linecap:butt;stroke-linejoin:round;stroke:rgb(89.804077%,89.804077%,89.804077%);stroke-opacity:1;stroke-miterlimit:10;" d="M 195.648438 18.488281 L 195.648438 129.128906 " transform="matrix(1,0,0,-1,0,141)"/>
</g>
<path style="fill-rule:nonzero;fill:rgb(90.98053%,45.097351%,41.960144%);fill-opacity:1;stroke-width:0.43;stroke-linecap:butt;stroke-linejoin:miter;stroke:rgb(100%,100%,100%);stroke-opacity:1;stroke-miterlimit:10;" d="M 31.308594 23.519531 L 34.070312 23.519531 L 34.070312 52.261719 L 31.308594 52.261719 Z M 31.308594 23.519531 " transform="matrix(1,0,0,-1,0,141)"/>
<path style="fill-rule:nonzero;fill:rgb(90.98053%,45.097351%,41.960144%);fill-opacity:1;stroke-width:0.43;stroke-linecap:butt;stroke-linejoin:miter;stroke:rgb(100%,100%,100%);stroke-opacity:1;stroke-miterlimit:10;" d="M 34.070312 23.519531 L 36.828125 23.519531 L 36.828125 124.101562 L 34.070312 124.101562 Z M 34.070312 23.519531 " transform="matrix(1,0,0,-1,0,141)"/>
<path style="fill-rule:nonzero;fill:rgb(90.98053%,45.097351%,41.960144%);fill-opacity:1;stroke-width:0.43;stroke-linecap:butt;stroke-linejoin:miter;stroke:rgb(100%,100%,100%);stroke-opacity:1;stroke-miterlimit:10;" d="M 36.839844 23.519531 L 39.601562 23.519531 L 39.601562 37.890625 L 36.839844 37.890625 Z M 36.839844 23.519531 " transform="matrix(1,0,0,-1,0,141)"/>
<path style="fill-rule:nonzero;fill:rgb(90.98053%,45.097351%,41.960144%);fill-opacity:1;stroke-width:0.43;stroke-linecap:butt;stroke-linejoin:miter;stroke:rgb(100%,100%,100%);stroke-opacity:1;stroke-miterlimit:10;" d="M 39.601562 23.519531 L 42.359375 23.519531 L 42.359375 124.101562 L 39.601562 124.101562 Z M 39.601562 23.519531 " transform="matrix(1,0,0,-1,0,141)"/>
<path style="fill-rule:nonzero;fill:rgb(90.98053%,45.097351%,41.960144%);fill-opacity:1;stroke-width:0.43;stroke-linecap:butt;stroke-linejoin:miter;stroke:rgb(100%,100%,100%);stroke-opacity:1;stroke-miterlimit:10;" d="M 42.359375 23.519531 L 45.121094 23.519531 L 45.121094 124.101562 L 42.359375 124.101562 Z M 42.359375 23.519531 " transform="matrix(1,0,0,-1,0,141)"/>
<path style="fill-rule:nonzero;fill:rgb(90.98053%,45.097351%,41.960144%);fill-opacity:1;stroke-width:0.43;stroke-linecap:butt;stroke-linejoin:miter;stroke:rgb(100%,100%,100%);stroke-opacity:1;stroke-miterlimit:10;" d="M 45.121094 23.519531 L 47.878906 23.519531 L 47.878906 66.628906 L 45.121094 66.628906 Z M 45.121094 23.519531 " transform="matrix(1,0,0,-1,0,141)"/>
<path style="fill-rule:nonzero;fill:rgb(90.98053%,45.097351%,41.960144%);fill-opacity:1;stroke-width:0.43;stroke-linecap:butt;stroke-linejoin:miter;stroke:rgb(100%,100%,100%);stroke-opacity:1;stroke-miterlimit:10;" d="M 47.878906 23.519531 L 50.640625 23.519531 L 50.640625 66.628906 L 47.878906 66.628906 Z M 47.878906 23.519531 " transform="matrix(1,0,0,-1,0,141)"/>
<path style="fill-rule:nonzero;fill:rgb(90.98053%,45.097351%,41.960144%);fill-opacity:1;stroke-width:0.43;stroke-linecap:butt;stroke-linejoin:miter;stroke:rgb(100%,100%,100%);stroke-opacity:1;stroke-miterlimit:10;" d="M 50.648438 23.519531 L 53.410156 23.519531 L 53.410156 95.371094 L 50.648438 95.371094 Z M 50.648438 23.519531 " transform="matrix(1,0,0,-1,0,141)"/>
<path style="fill-rule:nonzero;fill:rgb(90.98053%,45.097351%,41.960144%);fill-opacity:1;stroke-width:0.43;stroke-linecap:butt;stroke-linejoin:miter;stroke:rgb(100%,100%,100%);stroke-opacity:1;stroke-miterlimit:10;" d="M 53.410156 23.519531 L 56.171875 23.519531 L 56.171875 109.738281 L 53.410156 109.738281 Z M 53.410156 23.519531 " transform="matrix(1,0,0,-1,0,141)"/>
<path style="fill-rule:nonzero;fill:rgb(90.98053%,45.097351%,41.960144%);fill-opacity:1;stroke-width:0.43;stroke-linecap:butt;stroke-linejoin:miter;stroke:rgb(100%,100%,100%);stroke-opacity:1;stroke-miterlimit:10;" d="M 56.171875 23.519531 L 58.929688 23.519531 L 58.929688 66.628906 L 56.171875 66.628906 Z M 56.171875 23.519531 " transform="matrix(1,0,0,-1,0,141)"/>
<path style="fill-rule:nonzero;fill:rgb(90.98053%,45.097351%,41.960144%);fill-opacity:1;stroke-width:0.43;stroke-linecap:butt;stroke-linejoin:miter;stroke:rgb(100%,100%,100%);stroke-opacity:1;stroke-miterlimit:10;" d="M 58.929688 23.519531 L 61.691406 23.519531 L 61.691406 37.890625 L 58.929688 37.890625 Z M 58.929688 23.519531 " transform="matrix(1,0,0,-1,0,141)"/>
<path style="fill-rule:nonzero;fill:rgb(90.98053%,45.097351%,41.960144%);fill-opacity:1;stroke-width:0.43;stroke-linecap:butt;stroke-linejoin:miter;stroke:rgb(100%,100%,100%);stroke-opacity:1;stroke-miterlimit:10;" d="M 61.691406 23.519531 L 64.449219 23.519531 L 64.449219 66.628906 L 61.691406 66.628906 Z M 61.691406 23.519531 " transform="matrix(1,0,0,-1,0,141)"/>
<path style="fill-rule:nonzero;fill:rgb(90.98053%,45.097351%,41.960144%);fill-opacity:1;stroke-width:0.43;stroke-linecap:butt;stroke-linejoin:miter;stroke:rgb(100%,100%,100%);stroke-opacity:1;stroke-miterlimit:10;" d="M 64.460938 23.519531 L 67.21875 23.519531 L 67.21875 66.628906 L 64.460938 66.628906 Z M 64.460938 23.519531 " transform="matrix(1,0,0,-1,0,141)"/>
<path style="fill-rule:nonzero;fill:rgb(90.98053%,45.097351%,41.960144%);fill-opacity:1;stroke-width:0.43;stroke-linecap:butt;stroke-linejoin:miter;stroke:rgb(100%,100%,100%);stroke-opacity:1;stroke-miterlimit:10;" d="M 67.21875 23.519531 L 69.980469 23.519531 L 69.980469 66.628906 L 67.21875 66.628906 Z M 67.21875 23.519531 " transform="matrix(1,0,0,-1,0,141)"/>
<path style="fill-rule:nonzero;fill:rgb(90.98053%,45.097351%,41.960144%);fill-opacity:1;stroke-width:0.43;stroke-linecap:butt;stroke-linejoin:miter;stroke:rgb(100%,100%,100%);stroke-opacity:1;stroke-miterlimit:10;" d="M 69.980469 23.519531 L 72.738281 23.519531 L 72.738281 52.261719 L 69.980469 52.261719 Z M 69.980469 23.519531 " transform="matrix(1,0,0,-1,0,141)"/>
<path style="fill-rule:nonzero;fill:rgb(90.98053%,45.097351%,41.960144%);fill-opacity:1;stroke-width:0.43;stroke-linecap:butt;stroke-linejoin:miter;stroke:rgb(100%,100%,100%);stroke-opacity:1;stroke-miterlimit:10;" d="M 72.738281 23.519531 L 75.5 23.519531 L 75.5 52.261719 L 72.738281 52.261719 Z M 72.738281 23.519531 " transform="matrix(1,0,0,-1,0,141)"/>
<path style="fill:none;stroke-width:0.43;stroke-linecap:butt;stroke-linejoin:miter;stroke:rgb(100%,100%,100%);stroke-opacity:1;stroke-miterlimit:10;" d="M 75.5 23.519531 L 78.261719 23.519531 Z M 75.5 23.519531 " transform="matrix(1,0,0,-1,0,141)"/>
<path style="fill-rule:nonzero;fill:rgb(90.98053%,45.097351%,41.960144%);fill-opacity:1;stroke-width:0.43;stroke-linecap:butt;stroke-linejoin:miter;stroke:rgb(100%,100%,100%);stroke-opacity:1;stroke-miterlimit:10;" d="M 78.269531 23.519531 L 81.03125 23.519531 L 81.03125 109.738281 L 78.269531 109.738281 Z M 78.269531 23.519531 " transform="matrix(1,0,0,-1,0,141)"/>
<path style="fill-rule:nonzero;fill:rgb(90.98053%,45.097351%,41.960144%);fill-opacity:1;stroke-width:0.43;stroke-linecap:butt;stroke-linejoin:miter;stroke:rgb(100%,100%,100%);stroke-opacity:1;stroke-miterlimit:10;" d="M 81.03125 23.519531 L 83.789062 23.519531 L 83.789062 52.261719 L 81.03125 52.261719 Z M 81.03125 23.519531 " transform="matrix(1,0,0,-1,0,141)"/>
<path style="fill-rule:nonzero;fill:rgb(90.98053%,45.097351%,41.960144%);fill-opacity:1;stroke-width:0.43;stroke-linecap:butt;stroke-linejoin:miter;stroke:rgb(100%,100%,100%);stroke-opacity:1;stroke-miterlimit:10;" d="M 83.789062 23.519531 L 86.550781 23.519531 L 86.550781 66.628906 L 83.789062 66.628906 Z M 83.789062 23.519531 " transform="matrix(1,0,0,-1,0,141)"/>
<path style="fill-rule:nonzero;fill:rgb(90.98053%,45.097351%,41.960144%);fill-opacity:1;stroke-width:0.43;stroke-linecap:butt;stroke-linejoin:miter;stroke:rgb(100%,100%,100%);stroke-opacity:1;stroke-miterlimit:10;" d="M 86.550781 23.519531 L 89.308594 23.519531 L 89.308594 52.261719 L 86.550781 52.261719 Z M 86.550781 23.519531 " transform="matrix(1,0,0,-1,0,141)"/>
<path style="fill-rule:nonzero;fill:rgb(90.98053%,45.097351%,41.960144%);fill-opacity:1;stroke-width:0.43;stroke-linecap:butt;stroke-linejoin:miter;stroke:rgb(100%,100%,100%);stroke-opacity:1;stroke-miterlimit:10;" d="M 89.308594 23.519531 L 92.070312 23.519531 L 92.070312 52.261719 L 89.308594 52.261719 Z M 89.308594 23.519531 " transform="matrix(1,0,0,-1,0,141)"/>
<path style="fill-rule:nonzero;fill:rgb(90.98053%,45.097351%,41.960144%);fill-opacity:1;stroke-width:0.43;stroke-linecap:butt;stroke-linejoin:miter;stroke:rgb(100%,100%,100%);stroke-opacity:1;stroke-miterlimit:10;" d="M 92.078125 23.519531 L 94.839844 23.519531 L 94.839844 81 L 92.078125 81 Z M 92.078125 23.519531 " transform="matrix(1,0,0,-1,0,141)"/>
<path style="fill-rule:nonzero;fill:rgb(90.98053%,45.097351%,41.960144%);fill-opacity:1;stroke-width:0.43;stroke-linecap:butt;stroke-linejoin:miter;stroke:rgb(100%,100%,100%);stroke-opacity:1;stroke-miterlimit:10;" d="M 94.839844 23.519531 L 97.601562 23.519531 L 97.601562 52.261719 L 94.839844 52.261719 Z M 94.839844 23.519531 " transform="matrix(1,0,0,-1,0,141)"/>
<path style="fill:none;stroke-width:0.43;stroke-linecap:butt;stroke-linejoin:miter;stroke:rgb(100%,100%,100%);stroke-opacity:1;stroke-miterlimit:10;" d="M 97.601562 23.519531 L 100.359375 23.519531 Z M 97.601562 23.519531 " transform="matrix(1,0,0,-1,0,141)"/>
<path style="fill-rule:nonzero;fill:rgb(90.98053%,45.097351%,41.960144%);fill-opacity:1;stroke-width:0.43;stroke-linecap:butt;stroke-linejoin:miter;stroke:rgb(100%,100%,100%);stroke-opacity:1;stroke-miterlimit:10;" d="M 100.359375 23.519531 L 103.121094 23.519531 L 103.121094 37.890625 L 100.359375 37.890625 Z M 100.359375 23.519531 " transform="matrix(1,0,0,-1,0,141)"/>
<path style="fill-rule:nonzero;fill:rgb(90.98053%,45.097351%,41.960144%);fill-opacity:1;stroke-width:0.43;stroke-linecap:butt;stroke-linejoin:miter;stroke:rgb(100%,100%,100%);stroke-opacity:1;stroke-miterlimit:10;" d="M 103.121094 23.519531 L 105.878906 23.519531 L 105.878906 66.628906 L 103.121094 66.628906 Z M 103.121094 23.519531 " transform="matrix(1,0,0,-1,0,141)"/>
<path style="fill:none;stroke-width:0.43;stroke-linecap:butt;stroke-linejoin:miter;stroke:rgb(100%,100%,100%);stroke-opacity:1;stroke-miterlimit:10;" d="M 105.890625 23.519531 L 108.648438 23.519531 Z M 105.890625 23.519531 " transform="matrix(1,0,0,-1,0,141)"/>
<path style="fill-rule:nonzero;fill:rgb(90.98053%,45.097351%,41.960144%);fill-opacity:1;stroke-width:0.43;stroke-linecap:butt;stroke-linejoin:miter;stroke:rgb(100%,100%,100%);stroke-opacity:1;stroke-miterlimit:10;" d="M 108.648438 23.519531 L 111.410156 23.519531 L 111.410156 52.261719 L 108.648438 52.261719 Z M 108.648438 23.519531 " transform="matrix(1,0,0,-1,0,141)"/>
<path style="fill:none;stroke-width:0.43;stroke-linecap:butt;stroke-linejoin:miter;stroke:rgb(100%,100%,100%);stroke-opacity:1;stroke-miterlimit:10;" d="M 111.410156 23.519531 L 114.171875 23.519531 Z M 111.410156 23.519531 " transform="matrix(1,0,0,-1,0,141)"/>
<path style="fill:none;stroke-width:0.43;stroke-linecap:butt;stroke-linejoin:miter;stroke:rgb(100%,100%,100%);stroke-opacity:1;stroke-miterlimit:10;" d="M 114.171875 23.519531 L 116.929688 23.519531 Z M 114.171875 23.519531 " transform="matrix(1,0,0,-1,0,141)"/>
<path style="fill:none;stroke-width:0.43;stroke-linecap:butt;stroke-linejoin:miter;stroke:rgb(100%,100%,100%);stroke-opacity:1;stroke-miterlimit:10;" d="M 116.929688 23.519531 L 119.691406 23.519531 Z M 116.929688 23.519531 " transform="matrix(1,0,0,-1,0,141)"/>
<path style="fill-rule:nonzero;fill:rgb(90.98053%,45.097351%,41.960144%);fill-opacity:1;stroke-width:0.43;stroke-linecap:butt;stroke-linejoin:miter;stroke:rgb(100%,100%,100%);stroke-opacity:1;stroke-miterlimit:10;" d="M 119.699219 23.519531 L 122.460938 23.519531 L 122.460938 37.890625 L 119.699219 37.890625 Z M 119.699219 23.519531 " transform="matrix(1,0,0,-1,0,141)"/>
<path style="fill:none;stroke-width:0.43;stroke-linecap:butt;stroke-linejoin:miter;stroke:rgb(100%,100%,100%);stroke-opacity:1;stroke-miterlimit:10;" d="M 122.460938 23.519531 L 125.21875 23.519531 Z M 122.460938 23.519531 " transform="matrix(1,0,0,-1,0,141)"/>
<path style="fill:none;stroke-width:0.43;stroke-linecap:butt;stroke-linejoin:miter;stroke:rgb(100%,100%,100%);stroke-opacity:1;stroke-miterlimit:10;" d="M 125.21875 23.519531 L 127.980469 23.519531 Z M 125.21875 23.519531 " transform="matrix(1,0,0,-1,0,141)"/>
<path style="fill-rule:nonzero;fill:rgb(90.98053%,45.097351%,41.960144%);fill-opacity:1;stroke-width:0.43;stroke-linecap:butt;stroke-linejoin:miter;stroke:rgb(100%,100%,100%);stroke-opacity:1;stroke-miterlimit:10;" d="M 127.980469 23.519531 L 130.738281 23.519531 L 130.738281 37.890625 L 127.980469 37.890625 Z M 127.980469 23.519531 " transform="matrix(1,0,0,-1,0,141)"/>
<path style="fill:none;stroke-width:0.43;stroke-linecap:butt;stroke-linejoin:miter;stroke:rgb(100%,100%,100%);stroke-opacity:1;stroke-miterlimit:10;" d="M 130.738281 23.519531 L 133.5 23.519531 Z M 130.738281 23.519531 " transform="matrix(1,0,0,-1,0,141)"/>
<path style="fill:none;stroke-width:0.43;stroke-linecap:butt;stroke-linejoin:miter;stroke:rgb(100%,100%,100%);stroke-opacity:1;stroke-miterlimit:10;" d="M 133.511719 23.519531 L 136.269531 23.519531 Z M 133.511719 23.519531 " transform="matrix(1,0,0,-1,0,141)"/>
<path style="fill:none;stroke-width:0.43;stroke-linecap:butt;stroke-linejoin:miter;stroke:rgb(100%,100%,100%);stroke-opacity:1;stroke-miterlimit:10;" d="M 136.269531 23.519531 L 139.03125 23.519531 Z M 136.269531 23.519531 " transform="matrix(1,0,0,-1,0,141)"/>
<path style="fill-rule:nonzero;fill:rgb(90.98053%,45.097351%,41.960144%);fill-opacity:1;stroke-width:0.43;stroke-linecap:butt;stroke-linejoin:miter;stroke:rgb(100%,100%,100%);stroke-opacity:1;stroke-miterlimit:10;" d="M 139.03125 23.519531 L 141.789062 23.519531 L 141.789062 37.890625 L 139.03125 37.890625 Z M 139.03125 23.519531 " transform="matrix(1,0,0,-1,0,141)"/>
<path style="fill-rule:nonzero;fill:rgb(90.98053%,45.097351%,41.960144%);fill-opacity:1;stroke-width:0.43;stroke-linecap:butt;stroke-linejoin:miter;stroke:rgb(100%,100%,100%);stroke-opacity:1;stroke-miterlimit:10;" d="M 141.789062 23.519531 L 144.550781 23.519531 L 144.550781 37.890625 L 141.789062 37.890625 Z M 141.789062 23.519531 " transform="matrix(1,0,0,-1,0,141)"/>
<path style="fill:none;stroke-width:0.43;stroke-linecap:butt;stroke-linejoin:miter;stroke:rgb(100%,100%,100%);stroke-opacity:1;stroke-miterlimit:10;" d="M 144.550781 23.519531 L 147.308594 23.519531 Z M 144.550781 23.519531 " transform="matrix(1,0,0,-1,0,141)"/>
<path style="fill:none;stroke-width:0.43;stroke-linecap:butt;stroke-linejoin:miter;stroke:rgb(100%,100%,100%);stroke-opacity:1;stroke-miterlimit:10;" d="M 147.320312 23.519531 L 150.078125 23.519531 Z M 147.320312 23.519531 " transform="matrix(1,0,0,-1,0,141)"/>
<path style="fill:none;stroke-width:0.43;stroke-linecap:butt;stroke-linejoin:miter;stroke:rgb(100%,100%,100%);stroke-opacity:1;stroke-miterlimit:10;" d="M 150.078125 23.519531 L 152.839844 23.519531 Z M 150.078125 23.519531 " transform="matrix(1,0,0,-1,0,141)"/>
<path style="fill:none;stroke-width:0.43;stroke-linecap:butt;stroke-linejoin:miter;stroke:rgb(100%,100%,100%);stroke-opacity:1;stroke-miterlimit:10;" d="M 152.839844 23.519531 L 155.601562 23.519531 Z M 152.839844 23.519531 " transform="matrix(1,0,0,-1,0,141)"/>
<path style="fill:none;stroke-width:0.43;stroke-linecap:butt;stroke-linejoin:miter;stroke:rgb(100%,100%,100%);stroke-opacity:1;stroke-miterlimit:10;" d="M 155.601562 23.519531 L 158.359375 23.519531 Z M 155.601562 23.519531 " transform="matrix(1,0,0,-1,0,141)"/>
<path style="fill:none;stroke-width:0.43;stroke-linecap:butt;stroke-linejoin:miter;stroke:rgb(100%,100%,100%);stroke-opacity:1;stroke-miterlimit:10;" d="M 158.359375 23.519531 L 161.121094 23.519531 Z M 158.359375 23.519531 " transform="matrix(1,0,0,-1,0,141)"/>
<path style="fill:none;stroke-width:0.43;stroke-linecap:butt;stroke-linejoin:miter;stroke:rgb(100%,100%,100%);stroke-opacity:1;stroke-miterlimit:10;" d="M 161.128906 23.519531 L 163.890625 23.519531 Z M 161.128906 23.519531 " transform="matrix(1,0,0,-1,0,141)"/>
<path style="fill:none;stroke-width:0.43;stroke-linecap:butt;stroke-linejoin:miter;stroke:rgb(100%,100%,100%);stroke-opacity:1;stroke-miterlimit:10;" d="M 163.890625 23.519531 L 166.648438 23.519531 Z M 163.890625 23.519531 " transform="matrix(1,0,0,-1,0,141)"/>
<path style="fill:none;stroke-width:0.43;stroke-linecap:butt;stroke-linejoin:miter;stroke:rgb(100%,100%,100%);stroke-opacity:1;stroke-miterlimit:10;" d="M 166.648438 23.519531 L 169.410156 23.519531 Z M 166.648438 23.519531 " transform="matrix(1,0,0,-1,0,141)"/>
<path style="fill:none;stroke-width:0.43;stroke-linecap:butt;stroke-linejoin:miter;stroke:rgb(100%,100%,100%);stroke-opacity:1;stroke-miterlimit:10;" d="M 169.410156 23.519531 L 172.171875 23.519531 Z M 169.410156 23.519531 " transform="matrix(1,0,0,-1,0,141)"/>
<path style="fill:none;stroke-width:0.43;stroke-linecap:butt;stroke-linejoin:miter;stroke:rgb(100%,100%,100%);stroke-opacity:1;stroke-miterlimit:10;" d="M 172.171875 23.519531 L 174.929688 23.519531 Z M 172.171875 23.519531 " transform="matrix(1,0,0,-1,0,141)"/>
<path style="fill:none;stroke-width:0.43;stroke-linecap:butt;stroke-linejoin:miter;stroke:rgb(100%,100%,100%);stroke-opacity:1;stroke-miterlimit:10;" d="M 174.941406 23.519531 L 177.699219 23.519531 Z M 174.941406 23.519531 " transform="matrix(1,0,0,-1,0,141)"/>
<path style="fill:none;stroke-width:0.43;stroke-linecap:butt;stroke-linejoin:miter;stroke:rgb(100%,100%,100%);stroke-opacity:1;stroke-miterlimit:10;" d="M 177.699219 23.519531 L 180.460938 23.519531 Z M 177.699219 23.519531 " transform="matrix(1,0,0,-1,0,141)"/>
<path style="fill:none;stroke-width:0.43;stroke-linecap:butt;stroke-linejoin:miter;stroke:rgb(100%,100%,100%);stroke-opacity:1;stroke-miterlimit:10;" d="M 180.460938 23.519531 L 183.21875 23.519531 Z M 180.460938 23.519531 " transform="matrix(1,0,0,-1,0,141)"/>
<path style="fill:none;stroke-width:0.43;stroke-linecap:butt;stroke-linejoin:miter;stroke:rgb(100%,100%,100%);stroke-opacity:1;stroke-miterlimit:10;" d="M 183.21875 23.519531 L 185.980469 23.519531 Z M 183.21875 23.519531 " transform="matrix(1,0,0,-1,0,141)"/>
<path style="fill:none;stroke-width:0.43;stroke-linecap:butt;stroke-linejoin:miter;stroke:rgb(100%,100%,100%);stroke-opacity:1;stroke-miterlimit:10;" d="M 185.980469 23.519531 L 188.738281 23.519531 Z M 185.980469 23.519531 " transform="matrix(1,0,0,-1,0,141)"/>
<path style="fill-rule:nonzero;fill:rgb(90.98053%,45.097351%,41.960144%);fill-opacity:1;stroke-width:0.43;stroke-linecap:butt;stroke-linejoin:miter;stroke:rgb(100%,100%,100%);stroke-opacity:1;stroke-miterlimit:10;" d="M 188.75 23.519531 L 191.511719 23.519531 L 191.511719 37.890625 L 188.75 37.890625 Z M 188.75 23.519531 " transform="matrix(1,0,0,-1,0,141)"/>
<path style="fill:none;stroke-width:0.43;stroke-linecap:butt;stroke-linejoin:miter;stroke:rgb(100%,100%,100%);stroke-opacity:1;stroke-miterlimit:10;" d="M 191.511719 23.519531 L 194.269531 23.519531 Z M 191.511719 23.519531 " transform="matrix(1,0,0,-1,0,141)"/>
<path style="fill:none;stroke-width:0.43;stroke-linecap:butt;stroke-linejoin:miter;stroke:rgb(100%,100%,100%);stroke-opacity:1;stroke-miterlimit:10;" d="M 194.269531 23.519531 L 197.03125 23.519531 Z M 194.269531 23.519531 " transform="matrix(1,0,0,-1,0,141)"/>
<path style="fill:none;stroke-width:0.43;stroke-linecap:butt;stroke-linejoin:miter;stroke:rgb(100%,100%,100%);stroke-opacity:1;stroke-miterlimit:10;" d="M 197.03125 23.519531 L 199.789062 23.519531 Z M 197.03125 23.519531 " transform="matrix(1,0,0,-1,0,141)"/>
<path style="fill:none;stroke-width:0.43;stroke-linecap:butt;stroke-linejoin:miter;stroke:rgb(100%,100%,100%);stroke-opacity:1;stroke-miterlimit:10;" d="M 199.789062 23.519531 L 202.550781 23.519531 Z M 199.789062 23.519531 " transform="matrix(1,0,0,-1,0,141)"/>
<path style="fill:none;stroke-width:0.43;stroke-linecap:butt;stroke-linejoin:miter;stroke:rgb(100%,100%,100%);stroke-opacity:1;stroke-miterlimit:10;" d="M 202.558594 23.519531 L 205.320312 23.519531 Z M 202.558594 23.519531 " transform="matrix(1,0,0,-1,0,141)"/>
<path style="fill:none;stroke-width:0.43;stroke-linecap:butt;stroke-linejoin:miter;stroke:rgb(100%,100%,100%);stroke-opacity:1;stroke-miterlimit:10;" d="M 205.320312 23.519531 L 208.078125 23.519531 Z M 205.320312 23.519531 " transform="matrix(1,0,0,-1,0,141)"/>
<path style="fill:none;stroke-width:0.43;stroke-linecap:butt;stroke-linejoin:miter;stroke:rgb(100%,100%,100%);stroke-opacity:1;stroke-miterlimit:10;" d="M 208.078125 23.519531 L 210.839844 23.519531 Z M 208.078125 23.519531 " transform="matrix(1,0,0,-1,0,141)"/>
<path style="fill-rule:nonzero;fill:rgb(90.98053%,45.097351%,41.960144%);fill-opacity:1;stroke-width:0.43;stroke-linecap:butt;stroke-linejoin:miter;stroke:rgb(100%,100%,100%);stroke-opacity:1;stroke-miterlimit:10;" d="M 210.839844 23.519531 L 213.601562 23.519531 L 213.601562 37.890625 L 210.839844 37.890625 Z M 210.839844 23.519531 " transform="matrix(1,0,0,-1,0,141)"/>
<g clip-path="url(#clip11)" clip-rule="nonzero">
<path style="fill:none;stroke-width:0.64;stroke-linecap:butt;stroke-linejoin:round;stroke:rgb(0%,0%,0%);stroke-opacity:1;stroke-miterlimit:10;" d="M 69.589844 18.488281 L 69.589844 129.128906 " transform="matrix(1,0,0,-1,0,141)"/>
</g>
<g clip-path="url(#clip12)" clip-rule="nonzero">
<path style="fill:none;stroke-width:0.64;stroke-linecap:butt;stroke-linejoin:round;stroke:rgb(0%,0%,0%);stroke-opacity:1;stroke-dasharray:2.56,2.56;stroke-miterlimit:10;" d="M 62.269531 18.488281 L 62.269531 129.128906 " transform="matrix(1,0,0,-1,0,141)"/>
</g>
<path style=" stroke:none;fill-rule:nonzero;fill:rgb(90.98053%,45.097351%,41.960144%);fill-opacity:0.298;" d="M 29.929688 90.101562 L 30.289062 89.269531 L 30.640625 88.429688 L 31 87.601562 L 31.71875 85.921875 L 32.070312 85.078125 L 32.429688 84.238281 L 32.789062 83.410156 L 33.140625 82.578125 L 33.5 81.75 L 33.859375 80.929688 L 34.210938 80.121094 L 34.570312 79.308594 L 34.929688 78.511719 L 35.28125 77.730469 L 35.640625 76.949219 L 36 76.179688 L 36.351562 75.429688 L 37.070312 73.96875 L 37.421875 73.269531 L 37.78125 72.578125 L 38.140625 71.898438 L 38.488281 71.25 L 38.851562 70.609375 L 39.210938 70 L 39.570312 69.398438 L 39.921875 68.828125 L 40.28125 68.269531 L 40.640625 67.738281 L 40.988281 67.238281 L 41.351562 66.75 L 41.710938 66.289062 L 42.058594 65.851562 L 42.421875 65.441406 L 42.78125 65.050781 L 43.128906 64.679688 L 43.488281 64.339844 L 43.851562 64.03125 L 44.199219 63.738281 L 44.558594 63.46875 L 44.921875 63.230469 L 45.269531 63.019531 L 45.628906 62.820312 L 45.988281 62.660156 L 46.351562 62.519531 L 46.699219 62.398438 L 47.058594 62.300781 L 47.421875 62.230469 L 47.769531 62.179688 L 48.128906 62.148438 L 48.488281 62.148438 L 48.839844 62.171875 L 49.199219 62.210938 L 49.558594 62.269531 L 49.910156 62.351562 L 50.269531 62.441406 L 50.628906 62.558594 L 50.980469 62.699219 L 51.339844 62.839844 L 51.699219 63.019531 L 52.050781 63.199219 L 52.410156 63.398438 L 52.769531 63.609375 L 53.121094 63.839844 L 53.480469 64.078125 L 54.199219 64.601562 L 54.550781 64.878906 L 54.910156 65.160156 L 55.269531 65.460938 L 55.621094 65.761719 L 55.980469 66.070312 L 56.339844 66.390625 L 56.691406 66.710938 L 57.050781 67.050781 L 57.410156 67.378906 L 57.761719 67.71875 L 58.121094 68.058594 L 58.480469 68.410156 L 58.828125 68.75 L 59.191406 69.101562 L 59.550781 69.449219 L 59.898438 69.800781 L 60.261719 70.148438 L 60.621094 70.5 L 60.96875 70.839844 L 61.328125 71.191406 L 61.691406 71.53125 L 62.050781 71.871094 L 62.398438 72.210938 L 62.761719 72.539062 L 63.121094 72.859375 L 63.46875 73.191406 L 63.828125 73.5 L 64.191406 73.808594 L 64.539062 74.121094 L 64.898438 74.421875 L 65.261719 74.710938 L 65.609375 75 L 65.96875 75.28125 L 66.328125 75.550781 L 66.679688 75.820312 L 67.039062 76.078125 L 67.398438 76.328125 L 67.75 76.578125 L 68.46875 77.039062 L 68.828125 77.261719 L 69.179688 77.480469 L 69.539062 77.679688 L 69.898438 77.890625 L 70.25 78.078125 L 70.609375 78.261719 L 70.96875 78.441406 L 71.320312 78.609375 L 71.679688 78.78125 L 72.039062 78.941406 L 72.390625 79.089844 L 72.75 79.238281 L 73.109375 79.378906 L 73.460938 79.511719 L 73.820312 79.648438 L 74.179688 79.769531 L 74.53125 79.890625 L 74.890625 80.011719 L 75.25 80.121094 L 75.601562 80.230469 L 76.320312 80.449219 L 76.679688 80.550781 L 77.03125 80.648438 L 77.390625 80.738281 L 77.75 80.839844 L 78.101562 80.941406 L 78.460938 81.03125 L 78.820312 81.128906 L 79.171875 81.21875 L 79.890625 81.421875 L 80.238281 81.519531 L 80.601562 81.621094 L 80.960938 81.71875 L 81.308594 81.828125 L 81.671875 81.929688 L 82.03125 82.039062 L 82.378906 82.160156 L 82.738281 82.28125 L 83.101562 82.398438 L 83.460938 82.53125 L 83.808594 82.660156 L 84.171875 82.800781 L 84.53125 82.941406 L 84.878906 83.078125 L 85.238281 83.238281 L 85.601562 83.398438 L 85.949219 83.558594 L 86.308594 83.730469 L 86.671875 83.910156 L 87.019531 84.089844 L 87.378906 84.28125 L 87.738281 84.480469 L 88.089844 84.679688 L 88.808594 85.101562 L 89.160156 85.320312 L 89.519531 85.550781 L 89.878906 85.789062 L 90.230469 86.03125 L 90.949219 86.53125 L 91.308594 86.789062 L 91.660156 87.058594 L 92.019531 87.328125 L 92.378906 87.609375 L 92.730469 87.890625 L 93.089844 88.179688 L 93.449219 88.480469 L 93.800781 88.78125 L 94.160156 89.078125 L 94.519531 89.390625 L 94.871094 89.699219 L 95.589844 90.339844 L 95.941406 90.671875 L 96.660156 91.328125 L 97.011719 91.671875 L 98.089844 92.691406 L 98.441406 93.039062 L 98.800781 93.378906 L 99.160156 93.730469 L 99.511719 94.078125 L 100.230469 94.78125 L 100.578125 95.140625 L 100.941406 95.488281 L 101.300781 95.839844 L 101.648438 96.191406 L 102.011719 96.550781 L 102.371094 96.898438 L 102.71875 97.25 L 103.078125 97.601562 L 103.441406 97.941406 L 103.789062 98.289062 L 104.148438 98.640625 L 104.511719 98.980469 L 104.859375 99.320312 L 105.21875 99.660156 L 105.578125 99.988281 L 105.941406 100.328125 L 106.289062 100.660156 L 106.648438 100.988281 L 107.011719 101.308594 L 107.359375 101.628906 L 107.71875 101.949219 L 108.078125 102.261719 L 108.429688 102.570312 L 108.789062 102.878906 L 109.148438 103.179688 L 109.5 103.480469 L 109.859375 103.78125 L 110.21875 104.070312 L 110.570312 104.351562 L 110.929688 104.628906 L 111.289062 104.910156 L 111.640625 105.179688 L 112 105.449219 L 112.359375 105.710938 L 112.710938 105.96875 L 113.429688 106.46875 L 113.789062 106.710938 L 114.140625 106.949219 L 114.5 107.179688 L 114.859375 107.398438 L 115.210938 107.621094 L 115.570312 107.839844 L 115.929688 108.039062 L 116.28125 108.25 L 116.640625 108.449219 L 117 108.640625 L 117.351562 108.820312 L 118.070312 109.179688 L 118.421875 109.351562 L 119.140625 109.671875 L 119.488281 109.820312 L 119.851562 109.96875 L 120.570312 110.25 L 120.921875 110.378906 L 121.28125 110.511719 L 121.640625 110.628906 L 121.988281 110.738281 L 122.351562 110.851562 L 122.710938 110.960938 L 123.058594 111.058594 L 123.421875 111.160156 L 123.78125 111.25 L 124.128906 111.328125 L 124.488281 111.421875 L 124.851562 111.5 L 125.199219 111.570312 L 125.558594 111.640625 L 125.921875 111.710938 L 126.269531 111.769531 L 126.628906 111.828125 L 126.988281 111.890625 L 127.339844 111.941406 L 127.699219 112 L 128.058594 112.039062 L 128.421875 112.089844 L 128.769531 112.128906 L 129.128906 112.171875 L 129.488281 112.210938 L 129.839844 112.25 L 130.199219 112.289062 L 130.558594 112.320312 L 130.910156 112.351562 L 131.269531 112.378906 L 131.628906 112.421875 L 131.980469 112.449219 L 132.339844 112.46875 L 132.699219 112.5 L 133.050781 112.53125 L 133.410156 112.558594 L 133.769531 112.589844 L 134.121094 112.621094 L 134.480469 112.648438 L 134.839844 112.679688 L 135.199219 112.699219 L 135.550781 112.738281 L 136.269531 112.800781 L 136.621094 112.828125 L 136.980469 112.871094 L 137.339844 112.898438 L 137.691406 112.941406 L 138.410156 113.019531 L 138.761719 113.058594 L 139.121094 113.101562 L 139.480469 113.140625 L 139.828125 113.191406 L 140.191406 113.238281 L 140.550781 113.28125 L 140.898438 113.328125 L 141.261719 113.390625 L 141.621094 113.441406 L 141.96875 113.5 L 142.328125 113.550781 L 142.691406 113.609375 L 143.050781 113.671875 L 143.398438 113.730469 L 143.761719 113.789062 L 144.121094 113.859375 L 144.46875 113.921875 L 144.828125 113.988281 L 145.191406 114.058594 L 145.539062 114.128906 L 145.898438 114.199219 L 146.261719 114.269531 L 146.609375 114.339844 L 147.328125 114.480469 L 147.679688 114.558594 L 148.398438 114.699219 L 148.75 114.78125 L 149.109375 114.851562 L 149.46875 114.929688 L 149.820312 115 L 150.179688 115.070312 L 150.539062 115.148438 L 150.898438 115.21875 L 151.25 115.289062 L 151.609375 115.371094 L 151.96875 115.441406 L 152.320312 115.511719 L 152.679688 115.578125 L 153.039062 115.648438 L 153.390625 115.710938 L 154.109375 115.851562 L 154.460938 115.910156 L 154.820312 115.96875 L 155.179688 116.03125 L 155.53125 116.089844 L 155.890625 116.148438 L 156.25 116.210938 L 156.601562 116.261719 L 156.960938 116.320312 L 157.679688 116.421875 L 158.03125 116.46875 L 158.390625 116.519531 L 158.75 116.558594 L 159.101562 116.609375 L 159.460938 116.648438 L 159.820312 116.691406 L 160.171875 116.730469 L 160.53125 116.761719 L 160.890625 116.800781 L 161.238281 116.828125 L 161.601562 116.859375 L 161.960938 116.890625 L 162.308594 116.921875 L 162.671875 116.941406 L 163.03125 116.96875 L 163.378906 116.988281 L 163.738281 117.011719 L 164.101562 117.03125 L 164.449219 117.039062 L 164.808594 117.058594 L 165.171875 117.070312 L 165.53125 117.089844 L 165.878906 117.101562 L 166.238281 117.109375 L 166.601562 117.109375 L 166.949219 117.121094 L 167.308594 117.121094 L 167.671875 117.128906 L 168.738281 117.128906 L 169.089844 117.121094 L 169.449219 117.121094 L 169.808594 117.109375 L 170.160156 117.109375 L 170.519531 117.101562 L 170.878906 117.089844 L 171.230469 117.078125 L 171.589844 117.070312 L 171.949219 117.050781 L 172.308594 117.039062 L 172.660156 117.03125 L 173.019531 117.011719 L 173.378906 116.988281 L 173.730469 116.96875 L 174.089844 116.960938 L 174.449219 116.941406 L 174.800781 116.910156 L 175.519531 116.871094 L 175.871094 116.851562 L 176.230469 116.820312 L 176.589844 116.800781 L 176.941406 116.769531 L 177.300781 116.75 L 177.660156 116.71875 L 178.011719 116.691406 L 178.371094 116.660156 L 178.730469 116.640625 L 179.078125 116.609375 L 179.441406 116.578125 L 179.800781 116.550781 L 180.160156 116.519531 L 180.511719 116.488281 L 180.871094 116.460938 L 181.230469 116.441406 L 181.578125 116.410156 L 181.941406 116.378906 L 182.300781 116.351562 L 182.648438 116.320312 L 183.011719 116.289062 L 183.371094 116.261719 L 183.71875 116.238281 L 184.078125 116.210938 L 184.441406 116.179688 L 184.789062 116.160156 L 185.148438 116.128906 L 185.511719 116.109375 L 185.859375 116.078125 L 186.578125 116.039062 L 186.941406 116.019531 L 187.289062 116 L 187.648438 115.980469 L 188.011719 115.960938 L 188.359375 115.941406 L 188.71875 115.921875 L 189.078125 115.910156 L 189.429688 115.890625 L 189.789062 115.871094 L 190.148438 115.859375 L 190.5 115.851562 L 190.859375 115.839844 L 191.21875 115.820312 L 191.570312 115.808594 L 191.929688 115.800781 L 192.289062 115.789062 L 192.640625 115.789062 L 193 115.78125 L 193.359375 115.769531 L 193.710938 115.769531 L 194.070312 115.761719 L 194.429688 115.761719 L 194.789062 115.75 L 195.140625 115.75 L 195.5 115.738281 L 196.929688 115.738281 L 197.28125 115.730469 L 205.488281 115.730469 L 205.851562 115.738281 L 206.921875 115.738281 L 207.269531 115.75 L 207.988281 115.75 L 208.339844 115.761719 L 208.699219 115.761719 L 209.058594 115.769531 L 209.421875 115.769531 L 209.769531 115.78125 L 210.128906 115.789062 L 210.488281 115.800781 L 210.839844 115.808594 L 211.199219 115.820312 L 211.558594 115.828125 L 211.910156 115.839844 L 212.269531 115.851562 L 212.269531 117.480469 L 29.929688 117.480469 Z M 29.929688 90.101562 "/>
<path style="fill:none;stroke-width:1.07;stroke-linecap:butt;stroke-linejoin:round;stroke:rgb(0%,0%,0%);stroke-opacity:1;stroke-dasharray:4.27,4.27;stroke-miterlimit:10;" d="M 29.929688 50.898438 L 30.289062 51.730469 L 30.640625 52.570312 L 31 53.398438 L 31.71875 55.078125 L 32.070312 55.921875 L 32.429688 56.761719 L 32.789062 57.589844 L 33.140625 58.421875 L 33.5 59.25 L 33.859375 60.070312 L 34.210938 60.878906 L 34.570312 61.691406 L 34.929688 62.488281 L 35.28125 63.269531 L 35.640625 64.050781 L 36 64.820312 L 36.351562 65.570312 L 37.070312 67.03125 L 37.421875 67.730469 L 37.78125 68.421875 L 38.140625 69.101562 L 38.488281 69.75 L 38.851562 70.390625 L 39.210938 71 L 39.570312 71.601562 L 39.921875 72.171875 L 40.28125 72.730469 L 40.640625 73.261719 L 40.988281 73.761719 L 41.351562 74.25 L 41.710938 74.710938 L 42.058594 75.148438 L 42.421875 75.558594 L 42.78125 75.949219 L 43.128906 76.320312 L 43.488281 76.660156 L 43.851562 76.96875 L 44.199219 77.261719 L 44.558594 77.53125 L 44.921875 77.769531 L 45.269531 77.980469 L 45.628906 78.179688 L 45.988281 78.339844 L 46.351562 78.480469 L 46.699219 78.601562 L 47.058594 78.699219 L 47.421875 78.769531 L 47.769531 78.820312 L 48.128906 78.851562 L 48.488281 78.851562 L 48.839844 78.828125 L 49.199219 78.789062 L 49.558594 78.730469 L 49.910156 78.648438 L 50.269531 78.558594 L 50.628906 78.441406 L 50.980469 78.300781 L 51.339844 78.160156 L 51.699219 77.980469 L 52.050781 77.800781 L 52.410156 77.601562 L 52.769531 77.390625 L 53.121094 77.160156 L 53.480469 76.921875 L 54.199219 76.398438 L 54.550781 76.121094 L 54.910156 75.839844 L 55.269531 75.539062 L 55.621094 75.238281 L 55.980469 74.929688 L 56.339844 74.609375 L 56.691406 74.289062 L 57.050781 73.949219 L 57.410156 73.621094 L 57.761719 73.28125 L 58.121094 72.941406 L 58.480469 72.589844 L 58.828125 72.25 L 59.191406 71.898438 L 59.550781 71.550781 L 59.898438 71.199219 L 60.261719 70.851562 L 60.621094 70.5 L 60.96875 70.160156 L 61.328125 69.808594 L 61.691406 69.46875 L 62.050781 69.128906 L 62.398438 68.789062 L 62.761719 68.460938 L 63.121094 68.140625 L 63.46875 67.808594 L 63.828125 67.5 L 64.191406 67.191406 L 64.539062 66.878906 L 64.898438 66.578125 L 65.261719 66.289062 L 65.609375 66 L 65.96875 65.71875 L 66.328125 65.449219 L 66.679688 65.179688 L 67.039062 64.921875 L 67.398438 64.671875 L 67.75 64.421875 L 68.46875 63.960938 L 68.828125 63.738281 L 69.179688 63.519531 L 69.539062 63.320312 L 69.898438 63.109375 L 70.25 62.921875 L 70.609375 62.738281 L 70.96875 62.558594 L 71.320312 62.390625 L 71.679688 62.21875 L 72.039062 62.058594 L 72.390625 61.910156 L 72.75 61.761719 L 73.109375 61.621094 L 73.460938 61.488281 L 73.820312 61.351562 L 74.179688 61.230469 L 74.53125 61.109375 L 74.890625 60.988281 L 75.25 60.878906 L 75.601562 60.769531 L 76.320312 60.550781 L 76.679688 60.449219 L 77.03125 60.351562 L 77.390625 60.261719 L 77.75 60.160156 L 78.101562 60.058594 L 78.460938 59.96875 L 78.820312 59.871094 L 79.171875 59.78125 L 79.890625 59.578125 L 80.238281 59.480469 L 80.601562 59.378906 L 80.960938 59.28125 L 81.308594 59.171875 L 81.671875 59.070312 L 82.03125 58.960938 L 82.378906 58.839844 L 82.738281 58.71875 L 83.101562 58.601562 L 83.460938 58.46875 L 83.808594 58.339844 L 84.171875 58.199219 L 84.53125 58.058594 L 84.878906 57.921875 L 85.238281 57.761719 L 85.601562 57.601562 L 85.949219 57.441406 L 86.308594 57.269531 L 86.671875 57.089844 L 87.019531 56.910156 L 87.378906 56.71875 L 87.738281 56.519531 L 88.089844 56.320312 L 88.808594 55.898438 L 89.160156 55.679688 L 89.519531 55.449219 L 89.878906 55.210938 L 90.230469 54.96875 L 90.949219 54.46875 L 91.308594 54.210938 L 91.660156 53.941406 L 92.019531 53.671875 L 92.378906 53.390625 L 92.730469 53.109375 L 93.089844 52.820312 L 93.449219 52.519531 L 93.800781 52.21875 L 94.160156 51.921875 L 94.519531 51.609375 L 94.871094 51.300781 L 95.589844 50.660156 L 95.941406 50.328125 L 96.660156 49.671875 L 97.011719 49.328125 L 98.089844 48.308594 L 98.441406 47.960938 L 98.800781 47.621094 L 99.160156 47.269531 L 99.511719 46.921875 L 100.230469 46.21875 L 100.578125 45.859375 L 100.941406 45.511719 L 101.300781 45.160156 L 101.648438 44.808594 L 102.011719 44.449219 L 102.371094 44.101562 L 102.71875 43.75 L 103.078125 43.398438 L 103.441406 43.058594 L 103.789062 42.710938 L 104.148438 42.359375 L 104.511719 42.019531 L 104.859375 41.679688 L 105.21875 41.339844 L 105.578125 41.011719 L 105.941406 40.671875 L 106.289062 40.339844 L 106.648438 40.011719 L 107.011719 39.691406 L 107.359375 39.371094 L 107.71875 39.050781 L 108.078125 38.738281 L 108.429688 38.429688 L 108.789062 38.121094 L 109.148438 37.820312 L 109.5 37.519531 L 109.859375 37.21875 L 110.21875 36.929688 L 110.570312 36.648438 L 110.929688 36.371094 L 111.289062 36.089844 L 111.640625 35.820312 L 112 35.550781 L 112.359375 35.289062 L 112.710938 35.03125 L 113.429688 34.53125 L 113.789062 34.289062 L 114.140625 34.050781 L 114.5 33.820312 L 114.859375 33.601562 L 115.210938 33.378906 L 115.570312 33.160156 L 115.929688 32.960938 L 116.28125 32.75 L 116.640625 32.550781 L 117 32.359375 L 117.351562 32.179688 L 118.070312 31.820312 L 118.421875 31.648438 L 119.140625 31.328125 L 119.488281 31.179688 L 119.851562 31.03125 L 120.570312 30.75 L 120.921875 30.621094 L 121.28125 30.488281 L 121.640625 30.371094 L 121.988281 30.261719 L 122.351562 30.148438 L 122.710938 30.039062 L 123.058594 29.941406 L 123.421875 29.839844 L 123.78125 29.75 L 124.128906 29.671875 L 124.488281 29.578125 L 124.851562 29.5 L 125.199219 29.429688 L 125.558594 29.359375 L 125.921875 29.289062 L 126.269531 29.230469 L 126.628906 29.171875 L 126.988281 29.109375 L 127.339844 29.058594 L 127.699219 29 L 128.058594 28.960938 L 128.421875 28.910156 L 128.769531 28.871094 L 129.128906 28.828125 L 129.488281 28.789062 L 129.839844 28.75 L 130.199219 28.710938 L 130.558594 28.679688 L 130.910156 28.648438 L 131.269531 28.621094 L 131.628906 28.578125 L 131.980469 28.550781 L 132.339844 28.53125 L 132.699219 28.5 L 133.050781 28.46875 L 133.410156 28.441406 L 133.769531 28.410156 L 134.121094 28.378906 L 134.480469 28.351562 L 134.839844 28.320312 L 135.199219 28.300781 L 135.550781 28.261719 L 136.269531 28.199219 L 136.621094 28.171875 L 136.980469 28.128906 L 137.339844 28.101562 L 137.691406 28.058594 L 138.410156 27.980469 L 138.761719 27.941406 L 139.121094 27.898438 L 139.480469 27.859375 L 139.828125 27.808594 L 140.191406 27.761719 L 140.550781 27.71875 L 140.898438 27.671875 L 141.261719 27.609375 L 141.621094 27.558594 L 141.96875 27.5 L 142.328125 27.449219 L 142.691406 27.390625 L 143.050781 27.328125 L 143.398438 27.269531 L 143.761719 27.210938 L 144.121094 27.140625 L 144.46875 27.078125 L 144.828125 27.011719 L 145.191406 26.941406 L 145.539062 26.871094 L 145.898438 26.800781 L 146.261719 26.730469 L 146.609375 26.660156 L 147.328125 26.519531 L 147.679688 26.441406 L 148.398438 26.300781 L 148.75 26.21875 L 149.109375 26.148438 L 149.46875 26.070312 L 149.820312 26 L 150.179688 25.929688 L 150.539062 25.851562 L 150.898438 25.78125 L 151.25 25.710938 L 151.609375 25.628906 L 151.96875 25.558594 L 152.320312 25.488281 L 152.679688 25.421875 L 153.039062 25.351562 L 153.390625 25.289062 L 154.109375 25.148438 L 154.460938 25.089844 L 154.820312 25.03125 L 155.179688 24.96875 L 155.53125 24.910156 L 155.890625 24.851562 L 156.25 24.789062 L 156.601562 24.738281 L 156.960938 24.679688 L 157.679688 24.578125 L 158.03125 24.53125 L 158.390625 24.480469 L 158.75 24.441406 L 159.101562 24.390625 L 159.460938 24.351562 L 159.820312 24.308594 L 160.171875 24.269531 L 160.53125 24.238281 L 160.890625 24.199219 L 161.238281 24.171875 L 161.601562 24.140625 L 161.960938 24.109375 L 162.308594 24.078125 L 162.671875 24.058594 L 163.03125 24.03125 L 163.378906 24.011719 L 163.738281 23.988281 L 164.101562 23.96875 L 164.449219 23.960938 L 164.808594 23.941406 L 165.171875 23.929688 L 165.53125 23.910156 L 165.878906 23.898438 L 166.238281 23.890625 L 166.601562 23.890625 L 166.949219 23.878906 L 167.308594 23.878906 L 167.671875 23.871094 L 168.738281 23.871094 L 169.089844 23.878906 L 169.449219 23.878906 L 169.808594 23.890625 L 170.160156 23.890625 L 170.519531 23.898438 L 170.878906 23.910156 L 171.230469 23.921875 L 171.589844 23.929688 L 171.949219 23.949219 L 172.308594 23.960938 L 172.660156 23.96875 L 173.019531 23.988281 L 173.378906 24.011719 L 173.730469 24.03125 L 174.089844 24.039062 L 174.449219 24.058594 L 174.800781 24.089844 L 175.519531 24.128906 L 175.871094 24.148438 L 176.230469 24.179688 L 176.589844 24.199219 L 176.941406 24.230469 L 177.300781 24.25 L 177.660156 24.28125 L 178.011719 24.308594 L 178.371094 24.339844 L 178.730469 24.359375 L 179.078125 24.390625 L 179.441406 24.421875 L 179.800781 24.449219 L 180.160156 24.480469 L 180.511719 24.511719 L 180.871094 24.539062 L 181.230469 24.558594 L 181.578125 24.589844 L 181.941406 24.621094 L 182.300781 24.648438 L 182.648438 24.679688 L 183.011719 24.710938 L 183.371094 24.738281 L 183.71875 24.761719 L 184.078125 24.789062 L 184.441406 24.820312 L 184.789062 24.839844 L 185.148438 24.871094 L 185.511719 24.890625 L 185.859375 24.921875 L 186.578125 24.960938 L 186.941406 24.980469 L 187.289062 25 L 187.648438 25.019531 L 188.011719 25.039062 L 188.359375 25.058594 L 188.71875 25.078125 L 189.078125 25.089844 L 189.429688 25.109375 L 189.789062 25.128906 L 190.148438 25.140625 L 190.5 25.148438 L 190.859375 25.160156 L 191.21875 25.179688 L 191.570312 25.191406 L 191.929688 25.199219 L 192.289062 25.210938 L 192.640625 25.210938 L 193 25.21875 L 193.359375 25.230469 L 193.710938 25.230469 L 194.070312 25.238281 L 194.429688 25.238281 L 194.789062 25.25 L 195.140625 25.25 L 195.5 25.261719 L 196.929688 25.261719 L 197.28125 25.269531 L 205.488281 25.269531 L 205.851562 25.261719 L 206.921875 25.261719 L 207.269531 25.25 L 207.988281 25.25 L 208.339844 25.238281 L 208.699219 25.238281 L 209.058594 25.230469 L 209.421875 25.230469 L 209.769531 25.21875 L 210.128906 25.210938 L 210.488281 25.199219 L 210.839844 25.191406 L 211.199219 25.179688 L 211.558594 25.171875 L 211.910156 25.160156 L 212.269531 25.148438 " transform="matrix(1,0,0,-1,0,141)"/>
<path style="fill-rule:nonzero;fill:rgb(100%,100%,100%);fill-opacity:1;stroke-width:0.32;stroke-linecap:round;stroke-linejoin:round;stroke:rgb(0%,0%,0%);stroke-opacity:1;stroke-miterlimit:10;" d="M 177.570312 54.660156 L 207.699219 54.660156 L 207.660156 54.671875 L 207.808594 54.671875 L 207.960938 54.699219 L 208.101562 54.75 L 208.21875 54.828125 L 208.339844 54.921875 L 208.441406 55.03125 L 208.519531 55.160156 L 208.578125 55.289062 L 208.609375 55.441406 L 208.621094 55.589844 L 208.621094 75.160156 L 208.609375 75.300781 L 208.578125 75.449219 L 208.519531 75.578125 L 208.441406 75.710938 L 208.339844 75.820312 L 208.21875 75.910156 L 208.101562 75.988281 L 207.960938 76.039062 L 207.808594 76.070312 L 207.699219 76.078125 L 177.570312 76.078125 L 177.679688 76.070312 L 177.53125 76.078125 L 177.378906 76.058594 L 177.238281 76.019531 L 177.109375 75.949219 L 176.980469 75.871094 L 176.878906 75.769531 L 176.789062 75.648438 L 176.71875 75.519531 L 176.671875 75.378906 L 176.648438 75.230469 L 176.648438 55.589844 L 176.648438 55.660156 L 176.648438 55.511719 L 176.671875 55.371094 L 176.71875 55.230469 L 176.789062 55.089844 L 176.878906 54.980469 L 176.980469 54.871094 L 177.109375 54.789062 L 177.238281 54.71875 L 177.378906 54.679688 L 177.53125 54.671875 Z M 177.570312 54.660156 " transform="matrix(1,0,0,-1,0,141)"/>
<g style="fill:rgb(0%,0%,0%);fill-opacity:1;">
  <use xlink:href="#glyph0-1" x="182.07" y="70.05"/>
  <use xlink:href="#glyph0-2" x="186.235" y="70.05"/>
  <use xlink:href="#glyph0-3" x="189.015" y="70.05"/>
  <use xlink:href="#glyph0-4" x="191.795" y="70.05"/>
  <use xlink:href="#glyph0-5" x="194.575" y="70.05"/>
  <use xlink:href="#glyph0-6" x="195.965" y="70.05"/>
  <use xlink:href="#glyph0-7" x="197.355" y="70.05"/>
  <use xlink:href="#glyph0-8" x="200.135" y="70.05"/>
  <use xlink:href="#glyph0-9" x="201.525" y="70.05"/>
  <use xlink:href="#glyph0-9" x="204.305" y="70.05"/>
</g>
<g style="fill:rgb(0%,0%,0%);fill-opacity:1;">
  <use xlink:href="#glyph0-1" x="178.18" y="77.42"/>
  <use xlink:href="#glyph0-2" x="182.345" y="77.42"/>
  <use xlink:href="#glyph0-10" x="185.125" y="77.42"/>
  <use xlink:href="#glyph0-11" x="187.905" y="77.42"/>
  <use xlink:href="#glyph0-3" x="189.015" y="77.42"/>
  <use xlink:href="#glyph0-4" x="191.795" y="77.42"/>
  <use xlink:href="#glyph0-5" x="194.575" y="77.42"/>
  <use xlink:href="#glyph0-6" x="195.965" y="77.42"/>
  <use xlink:href="#glyph0-7" x="197.355" y="77.42"/>
  <use xlink:href="#glyph0-8" x="200.135" y="77.42"/>
  <use xlink:href="#glyph0-7" x="201.525" y="77.42"/>
  <use xlink:href="#glyph0-12" x="204.305" y="77.42"/>
</g>
<g style="fill:rgb(0%,0%,0%);fill-opacity:1;">
  <use xlink:href="#glyph0-13" x="187.63" y="84.8"/>
  <use xlink:href="#glyph0-14" x="190.965" y="84.8"/>
  <use xlink:href="#glyph0-5" x="194.575" y="84.8"/>
  <use xlink:href="#glyph0-6" x="195.965" y="84.8"/>
  <use xlink:href="#glyph0-7" x="197.355" y="84.8"/>
  <use xlink:href="#glyph0-8" x="200.135" y="84.8"/>
  <use xlink:href="#glyph0-7" x="201.525" y="84.8"/>
  <use xlink:href="#glyph0-15" x="204.305" y="84.8"/>
</g>
<path style="fill-rule:nonzero;fill:rgb(0%,0%,0%);fill-opacity:1;stroke-width:0.71;stroke-linecap:round;stroke-linejoin:round;stroke:rgb(0%,0%,0%);stroke-opacity:1;stroke-miterlimit:10;" d="M 46.519531 78.839844 C 46.519531 79.800781 47.308594 80.589844 48.269531 80.589844 C 49.21875 80.589844 50.011719 79.800781 50.011719 78.839844 C 50.011719 77.890625 49.21875 77.101562 48.269531 77.101562 C 47.308594 77.101562 46.519531 77.890625 46.519531 78.839844 " transform="matrix(1,0,0,-1,0,141)"/>
<path style="fill-rule:nonzero;fill:rgb(100%,100%,100%);fill-opacity:1;stroke-width:0.21;stroke-linecap:round;stroke-linejoin:round;stroke:rgb(0%,0%,0%);stroke-opacity:1;stroke-miterlimit:10;" d="M 51.128906 82 L 69.898438 82 L 69.871094 82.011719 L 70 82.011719 L 70.128906 82.039062 L 70.261719 82.078125 L 70.371094 82.148438 L 70.46875 82.230469 L 70.558594 82.328125 L 70.628906 82.441406 L 70.679688 82.558594 L 70.710938 82.691406 L 70.71875 82.820312 L 70.71875 87.511719 L 70.710938 87.640625 L 70.679688 87.769531 L 70.628906 87.890625 L 70.558594 88 L 70.46875 88.101562 L 70.371094 88.179688 L 70.261719 88.25 L 70.128906 88.289062 L 70 88.320312 L 69.898438 88.328125 L 51.128906 88.328125 L 51.230469 88.320312 L 51.089844 88.328125 L 50.960938 88.308594 L 50.839844 88.269531 L 50.71875 88.21875 L 50.609375 88.140625 L 50.511719 88.050781 L 50.429688 87.941406 L 50.371094 87.828125 L 50.328125 87.699219 L 50.308594 87.570312 L 50.308594 82.820312 L 50.308594 82.890625 L 50.308594 82.761719 L 50.328125 82.628906 L 50.371094 82.5 L 50.429688 82.390625 L 50.511719 82.28125 L 50.609375 82.191406 L 50.71875 82.109375 L 50.839844 82.058594 L 50.960938 82.019531 L 51.089844 82.011719 Z M 51.128906 82 " transform="matrix(1,0,0,-1,0,141)"/>
<g style="fill:rgb(0%,0%,0%);fill-opacity:1;">
  <use xlink:href="#glyph0-16" x="51.67" y="57.63"/>
  <use xlink:href="#glyph0-8" x="54.45" y="57.63"/>
  <use xlink:href="#glyph0-12" x="55.84" y="57.63"/>
  <use xlink:href="#glyph0-6" x="58.62" y="57.63"/>
  <use xlink:href="#glyph0-1" x="60.01" y="57.63"/>
  <use xlink:href="#glyph0-17" x="64.175" y="57.63"/>
</g>
<g style="fill:rgb(0%,0%,0%);fill-opacity:1;">
  <use xlink:href="#glyph0-3" x="66.575" y="57.63"/>
</g>
<path style="fill:none;stroke-width:0.58;stroke-linecap:butt;stroke-linejoin:round;stroke:rgb(0%,0%,0%);stroke-opacity:1;stroke-miterlimit:10;" d="M 20.75 18.488281 L 20.75 129.128906 " transform="matrix(1,0,0,-1,0,141)"/>
<g style="fill:rgb(30.195618%,30.195618%,30.195618%);fill-opacity:1;">
  <use xlink:href="#glyph0-16" x="11.11" y="119.28"/>
  <use xlink:href="#glyph0-8" x="13.89" y="119.28"/>
  <use xlink:href="#glyph0-16" x="15.28" y="119.28"/>
</g>
<g style="fill:rgb(30.195618%,30.195618%,30.195618%);fill-opacity:1;">
  <use xlink:href="#glyph0-16" x="11.11" y="93.13"/>
  <use xlink:href="#glyph0-8" x="13.89" y="93.13"/>
  <use xlink:href="#glyph0-18" x="15.28" y="93.13"/>
</g>
<g style="fill:rgb(30.195618%,30.195618%,30.195618%);fill-opacity:1;">
  <use xlink:href="#glyph0-16" x="11.11" y="66.97"/>
  <use xlink:href="#glyph0-8" x="13.89" y="66.97"/>
  <use xlink:href="#glyph0-9" x="15.28" y="66.97"/>
</g>
<g style="fill:rgb(30.195618%,30.195618%,30.195618%);fill-opacity:1;">
  <use xlink:href="#glyph0-16" x="11.11" y="40.82"/>
  <use xlink:href="#glyph0-8" x="13.89" y="40.82"/>
  <use xlink:href="#glyph0-19" x="15.28" y="40.82"/>
</g>
<g style="fill:rgb(30.195618%,30.195618%,30.195618%);fill-opacity:1;">
  <use xlink:href="#glyph0-16" x="11.11" y="14.67"/>
  <use xlink:href="#glyph0-8" x="13.89" y="14.67"/>
  <use xlink:href="#glyph0-15" x="15.28" y="14.67"/>
</g>
<path style="fill:none;stroke-width:0.58;stroke-linecap:butt;stroke-linejoin:round;stroke:rgb(19.999695%,19.999695%,19.999695%);stroke-opacity:1;stroke-miterlimit:10;" d="M 19.25 23.519531 L 20.75 23.519531 " transform="matrix(1,0,0,-1,0,141)"/>
<path style="fill:none;stroke-width:0.58;stroke-linecap:butt;stroke-linejoin:round;stroke:rgb(19.999695%,19.999695%,19.999695%);stroke-opacity:1;stroke-miterlimit:10;" d="M 19.25 49.671875 L 20.75 49.671875 " transform="matrix(1,0,0,-1,0,141)"/>
<path style="fill:none;stroke-width:0.58;stroke-linecap:butt;stroke-linejoin:round;stroke:rgb(19.999695%,19.999695%,19.999695%);stroke-opacity:1;stroke-miterlimit:10;" d="M 19.25 75.820312 L 20.75 75.820312 " transform="matrix(1,0,0,-1,0,141)"/>
<path style="fill:none;stroke-width:0.58;stroke-linecap:butt;stroke-linejoin:round;stroke:rgb(19.999695%,19.999695%,19.999695%);stroke-opacity:1;stroke-miterlimit:10;" d="M 19.25 101.96875 L 20.75 101.96875 " transform="matrix(1,0,0,-1,0,141)"/>
<path style="fill:none;stroke-width:0.58;stroke-linecap:butt;stroke-linejoin:round;stroke:rgb(19.999695%,19.999695%,19.999695%);stroke-opacity:1;stroke-miterlimit:10;" d="M 19.25 128.121094 L 20.75 128.121094 " transform="matrix(1,0,0,-1,0,141)"/>
<path style="fill:none;stroke-width:0.58;stroke-linecap:butt;stroke-linejoin:round;stroke:rgb(0%,0%,0%);stroke-opacity:1;stroke-miterlimit:10;" d="M 20.75 18.488281 L 222.789062 18.488281 " transform="matrix(1,0,0,-1,0,141)"/>
<path style="fill:none;stroke-width:0.58;stroke-linecap:butt;stroke-linejoin:round;stroke:rgb(19.999695%,19.999695%,19.999695%);stroke-opacity:1;stroke-miterlimit:10;" d="M 29.929688 16.988281 L 29.929688 18.488281 " transform="matrix(1,0,0,-1,0,141)"/>
<path style="fill:none;stroke-width:0.58;stroke-linecap:butt;stroke-linejoin:round;stroke:rgb(19.999695%,19.999695%,19.999695%);stroke-opacity:1;stroke-miterlimit:10;" d="M 85.171875 16.988281 L 85.171875 18.488281 " transform="matrix(1,0,0,-1,0,141)"/>
<path style="fill:none;stroke-width:0.58;stroke-linecap:butt;stroke-linejoin:round;stroke:rgb(19.999695%,19.999695%,19.999695%);stroke-opacity:1;stroke-miterlimit:10;" d="M 140.410156 16.988281 L 140.410156 18.488281 " transform="matrix(1,0,0,-1,0,141)"/>
<path style="fill:none;stroke-width:0.58;stroke-linecap:butt;stroke-linejoin:round;stroke:rgb(19.999695%,19.999695%,19.999695%);stroke-opacity:1;stroke-miterlimit:10;" d="M 195.648438 16.988281 L 195.648438 18.488281 " transform="matrix(1,0,0,-1,0,141)"/>
<g style="fill:rgb(30.195618%,30.195618%,30.195618%);fill-opacity:1;">
  <use xlink:href="#glyph0-16" x="28.54" y="128.79"/>
</g>
<g style="fill:rgb(30.195618%,30.195618%,30.195618%);fill-opacity:1;">
  <use xlink:href="#glyph0-18" x="83.78" y="128.79"/>
</g>
<g style="fill:rgb(30.195618%,30.195618%,30.195618%);fill-opacity:1;">
  <use xlink:href="#glyph0-9" x="139.02" y="128.79"/>
</g>
<g style="fill:rgb(30.195618%,30.195618%,30.195618%);fill-opacity:1;">
  <use xlink:href="#glyph0-19" x="194.26" y="128.79"/>
</g>
<g style="fill:rgb(0%,0%,0%);fill-opacity:1;">
  <use xlink:href="#glyph1-1" x="116.16" y="135.69"/>
  <use xlink:href="#glyph1-2" x="121.158" y="135.69"/>
</g>
<g style="fill:rgb(0%,0%,0%);fill-opacity:1;">
  <use xlink:href="#glyph1-3" x="124.038" y="135.69"/>
</g>
<g style="fill:rgb(0%,0%,0%);fill-opacity:1;">
  <use xlink:href="#glyph2-1" x="8.29" y="77.19"/>
  <use xlink:href="#glyph2-2" x="8.29" y="72.858"/>
  <use xlink:href="#glyph2-3" x="8.29" y="69.522"/>
  <use xlink:href="#glyph2-4" x="8.29" y="66.186"/>
  <use xlink:href="#glyph2-5" x="8.29" y="63.186"/>
  <use xlink:href="#glyph2-6" x="8.29" y="61.854"/>
  <use xlink:href="#glyph2-7" x="8.29" y="60.186"/>
</g>
<g style="fill:rgb(0%,0%,0%);fill-opacity:1;">
  <use xlink:href="#glyph3-1" x="86.47" y="7.56"/>
</g>
<g style="fill:rgb(0%,0%,0%);fill-opacity:1;">
  <use xlink:href="#glyph3-2" x="89.596" y="7.56"/>
  <use xlink:href="#glyph3-3" x="93.262" y="7.56"/>
  <use xlink:href="#glyph3-4" x="97.594" y="7.56"/>
  <use xlink:href="#glyph3-5" x="99.262" y="7.56"/>
  <use xlink:href="#glyph3-6" x="103.594" y="7.56"/>
  <use xlink:href="#glyph3-7" x="107.26" y="7.56"/>
  <use xlink:href="#glyph3-8" x="110.926" y="7.56"/>
  <use xlink:href="#glyph3-9" x="112.594" y="7.56"/>
  <use xlink:href="#glyph3-4" x="115.93" y="7.56"/>
  <use xlink:href="#glyph3-8" x="117.598" y="7.56"/>
  <use xlink:href="#glyph3-10" x="119.266" y="7.56"/>
  <use xlink:href="#glyph3-11" x="122.932" y="7.56"/>
  <use xlink:href="#glyph3-12" x="126.268" y="7.56"/>
  <use xlink:href="#glyph3-13" x="129.604" y="7.56"/>
</g>
<g style="fill:rgb(0%,0%,0%);fill-opacity:1;">
  <use xlink:href="#glyph3-14" x="132.058" y="7.56"/>
  <use xlink:href="#glyph3-8" x="134.056" y="7.56"/>
  <use xlink:href="#glyph3-6" x="135.724" y="7.56"/>
  <use xlink:href="#glyph3-10" x="139.39" y="7.56"/>
  <use xlink:href="#glyph3-4" x="143.056" y="7.56"/>
  <use xlink:href="#glyph3-14" x="144.724" y="7.56"/>
  <use xlink:href="#glyph3-8" x="146.722" y="7.56"/>
  <use xlink:href="#glyph3-15" x="148.39" y="7.56"/>
  <use xlink:href="#glyph3-12" x="153.724" y="7.56"/>
</g>
</g>
</svg>
