<?xml version="1.0" encoding="UTF-8"?>
<svg xmlns="http://www.w3.org/2000/svg" xmlns:xlink="http://www.w3.org/1999/xlink" width="864pt" height="360pt" viewBox="0 0 864 360" version="1.1">
<defs>
<g>
<symbol overflow="visible" id="glyph0-0">
<path style="stroke:none;" d=""/>
</symbol>
<symbol overflow="visible" id="glyph0-1">
<path style="stroke:none;" d="M 2.75 -7.234375 C 2.09375 -7.234375 1.484375 -6.9375 1.125 -6.4375 C 0.65625 -5.796875 0.4375 -4.84375 0.4375 -3.5 C 0.4375 -1.0625 1.234375 0.234375 2.75 0.234375 C 4.25 0.234375 5.0625 -1.0625 5.0625 -3.4375 C 5.0625 -4.84375 4.84375 -5.78125 4.375 -6.4375 C 4.015625 -6.9375 3.421875 -7.234375 2.75 -7.234375 Z M 2.75 -6.453125 C 3.703125 -6.453125 4.171875 -5.484375 4.171875 -3.515625 C 4.171875 -1.453125 3.703125 -0.5 2.734375 -0.5 C 1.796875 -0.5 1.328125 -1.5 1.328125 -3.484375 C 1.328125 -5.484375 1.796875 -6.453125 2.75 -6.453125 Z M 2.75 -6.453125 "/>
</symbol>
<symbol overflow="visible" id="glyph0-2">
<path style="stroke:none;" d="M 2.59375 -5.15625 L 2.59375 0 L 3.46875 0 L 3.46875 -7.234375 L 2.890625 -7.234375 C 2.578125 -6.125 2.375 -5.96875 1.015625 -5.796875 L 1.015625 -5.15625 Z M 2.59375 -5.15625 "/>
</symbol>
<symbol overflow="visible" id="glyph0-3">
<path style="stroke:none;" d="M 5.0625 -0.875 L 1.328125 -0.875 C 1.421875 -1.46875 1.734375 -1.84375 2.609375 -2.375 L 3.609375 -2.9375 C 4.59375 -3.484375 5.109375 -4.234375 5.109375 -5.125 C 5.109375 -5.71875 4.875 -6.28125 4.453125 -6.671875 C 4.03125 -7.046875 3.515625 -7.234375 2.84375 -7.234375 C 1.9375 -7.234375 1.265625 -6.90625 0.875 -6.296875 C 0.625 -5.90625 0.515625 -5.453125 0.5 -4.734375 L 1.375 -4.734375 C 1.40625 -5.21875 1.46875 -5.515625 1.59375 -5.75 C 1.8125 -6.1875 2.28125 -6.453125 2.8125 -6.453125 C 3.609375 -6.453125 4.203125 -5.875 4.203125 -5.09375 C 4.203125 -4.515625 3.875 -4.015625 3.25 -3.65625 L 2.328125 -3.125 C 0.84375 -2.265625 0.421875 -1.59375 0.34375 -0.015625 L 5.0625 -0.015625 Z M 5.0625 -0.875 "/>
</symbol>
<symbol overflow="visible" id="glyph0-4">
<path style="stroke:none;" d="M 2.203125 -3.328125 L 2.6875 -3.328125 C 3.65625 -3.328125 4.15625 -2.875 4.15625 -2.015625 C 4.15625 -1.09375 3.609375 -0.546875 2.703125 -0.546875 C 1.734375 -0.546875 1.265625 -1.046875 1.203125 -2.09375 L 0.3125 -2.09375 C 0.359375 -1.515625 0.453125 -1.140625 0.625 -0.8125 C 1 -0.125 1.6875 0.234375 2.65625 0.234375 C 4.125 0.234375 5.0625 -0.65625 5.0625 -2.015625 C 5.0625 -2.9375 4.703125 -3.4375 3.859375 -3.734375 C 4.515625 -4.015625 4.84375 -4.515625 4.84375 -5.234375 C 4.84375 -6.484375 4.046875 -7.234375 2.6875 -7.234375 C 1.265625 -7.234375 0.5 -6.4375 0.46875 -4.90625 L 1.34375 -4.90625 C 1.359375 -5.34375 1.40625 -5.59375 1.515625 -5.8125 C 1.703125 -6.21875 2.15625 -6.453125 2.703125 -6.453125 C 3.484375 -6.453125 3.953125 -5.984375 3.953125 -5.203125 C 3.953125 -4.703125 3.765625 -4.390625 3.375 -4.21875 C 3.140625 -4.125 2.8125 -4.078125 2.203125 -4.0625 Z M 2.203125 -3.328125 "/>
</symbol>
<symbol overflow="visible" id="glyph0-5">
<path style="stroke:none;" d="M 3.546875 -6.46875 L 5.9375 -6.46875 L 5.9375 -7.296875 L 0.203125 -7.296875 L 0.203125 -6.46875 L 2.609375 -6.46875 L 2.609375 0 L 3.546875 0 Z M 3.546875 -6.46875 "/>
</symbol>
<symbol overflow="visible" id="glyph0-6">
<path style="stroke:none;" d="M 3.875 -5.234375 L 2.4375 -1.15625 L 1.09375 -5.234375 L 0.203125 -5.234375 L 1.96875 0.015625 L 1.65625 0.84375 C 1.515625 1.21875 1.328125 1.359375 0.984375 1.359375 C 0.84375 1.359375 0.71875 1.34375 0.546875 1.296875 L 0.546875 2.046875 C 0.703125 2.140625 0.875 2.1875 1.09375 2.1875 C 1.375 2.1875 1.65625 2.09375 1.875 1.9375 C 2.140625 1.734375 2.296875 1.515625 2.453125 1.09375 L 4.78125 -5.234375 Z M 3.875 -5.234375 "/>
</symbol>
<symbol overflow="visible" id="glyph0-7">
<path style="stroke:none;" d="M 0.546875 2.1875 L 1.375 2.1875 L 1.375 -0.546875 C 1.8125 -0.015625 2.3125 0.234375 2.984375 0.234375 C 4.34375 0.234375 5.234375 -0.859375 5.234375 -2.53125 C 5.234375 -4.296875 4.375 -5.390625 2.984375 -5.390625 C 2.265625 -5.390625 1.703125 -5.0625 1.3125 -4.453125 L 1.3125 -5.234375 L 0.546875 -5.234375 Z M 2.84375 -4.609375 C 3.765625 -4.609375 4.359375 -3.796875 4.359375 -2.546875 C 4.359375 -1.359375 3.75 -0.546875 2.84375 -0.546875 C 1.953125 -0.546875 1.375 -1.34375 1.375 -2.578125 C 1.375 -3.8125 1.953125 -4.609375 2.84375 -4.609375 Z M 2.84375 -4.609375 "/>
</symbol>
<symbol overflow="visible" id="glyph0-8">
<path style="stroke:none;" d="M 5.125 -2.34375 C 5.125 -3.140625 5.0625 -3.625 4.921875 -4.015625 C 4.578125 -4.875 3.78125 -5.390625 2.796875 -5.390625 C 1.34375 -5.390625 0.40625 -4.28125 0.40625 -2.546875 C 0.40625 -0.8125 1.296875 0.234375 2.78125 0.234375 C 3.984375 0.234375 4.8125 -0.453125 5.015625 -1.59375 L 4.1875 -1.59375 C 3.953125 -0.90625 3.484375 -0.546875 2.8125 -0.546875 C 2.28125 -0.546875 1.828125 -0.78125 1.546875 -1.21875 C 1.34375 -1.515625 1.28125 -1.8125 1.265625 -2.34375 Z M 1.296875 -3.015625 C 1.359375 -3.984375 1.953125 -4.625 2.796875 -4.625 C 3.640625 -4.625 4.234375 -3.953125 4.234375 -3.015625 Z M 1.296875 -3.015625 "/>
</symbol>
<symbol overflow="visible" id="glyph1-0">
<path style="stroke:none;" d=""/>
</symbol>
<symbol overflow="visible" id="glyph1-1">
<path style="stroke:none;" d="M 2.203125 -3.703125 L 4.953125 -3.703125 C 5.640625 -3.703125 6.1875 -3.90625 6.640625 -4.328125 C 7.171875 -4.8125 7.40625 -5.375 7.40625 -6.1875 C 7.40625 -7.828125 6.4375 -8.75 4.703125 -8.75 L 1.09375 -8.75 L 1.09375 0 L 2.203125 0 Z M 2.203125 -4.6875 L 2.203125 -7.765625 L 4.53125 -7.765625 C 5.609375 -7.765625 6.234375 -7.1875 6.234375 -6.234375 C 6.234375 -5.265625 5.609375 -4.6875 4.53125 -4.6875 Z M 2.203125 -4.6875 "/>
</symbol>
<symbol overflow="visible" id="glyph1-2">
<path style="stroke:none;" d="M 3.265625 -6.46875 C 1.484375 -6.46875 0.4375 -5.203125 0.4375 -3.09375 C 0.4375 -0.96875 1.484375 0.28125 3.28125 0.28125 C 5.046875 0.28125 6.125 -0.984375 6.125 -3.046875 C 6.125 -5.234375 5.09375 -6.46875 3.265625 -6.46875 Z M 3.28125 -5.546875 C 4.40625 -5.546875 5.078125 -4.625 5.078125 -3.0625 C 5.078125 -1.578125 4.375 -0.640625 3.28125 -0.640625 C 2.15625 -0.640625 1.46875 -1.578125 1.46875 -3.09375 C 1.46875 -4.625 2.15625 -5.546875 3.28125 -5.546875 Z M 3.28125 -5.546875 "/>
</symbol>
<symbol overflow="visible" id="glyph1-3">
<path style="stroke:none;" d="M 5.25 -4.53125 C 5.25 -5.765625 4.421875 -6.46875 2.96875 -6.46875 C 1.515625 -6.46875 0.5625 -5.71875 0.5625 -4.546875 C 0.5625 -3.5625 1.0625 -3.09375 2.5625 -2.734375 L 3.484375 -2.515625 C 4.1875 -2.34375 4.46875 -2.09375 4.46875 -1.640625 C 4.46875 -1.046875 3.875 -0.640625 3 -0.640625 C 2.453125 -0.640625 2 -0.796875 1.75 -1.0625 C 1.59375 -1.25 1.53125 -1.421875 1.46875 -1.875 L 0.40625 -1.875 C 0.453125 -0.421875 1.265625 0.28125 2.921875 0.28125 C 4.5 0.28125 5.515625 -0.5 5.515625 -1.71875 C 5.515625 -2.65625 4.984375 -3.171875 3.734375 -3.46875 L 2.765625 -3.703125 C 1.953125 -3.890625 1.609375 -4.15625 1.609375 -4.59375 C 1.609375 -5.1875 2.125 -5.546875 2.9375 -5.546875 C 3.75 -5.546875 4.171875 -5.203125 4.203125 -4.53125 Z M 5.25 -4.53125 "/>
</symbol>
<symbol overflow="visible" id="glyph1-4">
<path style="stroke:none;" d="M 1.796875 -6.28125 L 0.796875 -6.28125 L 0.796875 0 L 1.796875 0 Z M 1.796875 -8.75 L 0.796875 -8.75 L 0.796875 -7.484375 L 1.796875 -7.484375 Z M 1.796875 -8.75 "/>
</symbol>
<symbol overflow="visible" id="glyph1-5">
<path style="stroke:none;" d="M 3.046875 -6.28125 L 2.015625 -6.28125 L 2.015625 -8.015625 L 1.015625 -8.015625 L 1.015625 -6.28125 L 0.171875 -6.28125 L 0.171875 -5.46875 L 1.015625 -5.46875 L 1.015625 -0.71875 C 1.015625 -0.078125 1.453125 0.28125 2.234375 0.28125 C 2.5 0.28125 2.71875 0.25 3.046875 0.1875 L 3.046875 -0.640625 C 2.90625 -0.609375 2.765625 -0.59375 2.5625 -0.59375 C 2.140625 -0.59375 2.015625 -0.71875 2.015625 -1.15625 L 2.015625 -5.46875 L 3.046875 -5.46875 Z M 3.046875 -6.28125 "/>
</symbol>
<symbol overflow="visible" id="glyph1-6">
<path style="stroke:none;" d="M 0.84375 -6.28125 L 0.84375 0 L 1.84375 0 L 1.84375 -3.46875 C 1.84375 -4.75 2.515625 -5.59375 3.546875 -5.59375 C 4.34375 -5.59375 4.84375 -5.109375 4.84375 -4.359375 L 4.84375 0 L 5.84375 0 L 5.84375 -4.75 C 5.84375 -5.796875 5.0625 -6.46875 3.859375 -6.46875 C 2.921875 -6.46875 2.3125 -6.109375 1.765625 -5.234375 L 1.765625 -6.28125 Z M 0.84375 -6.28125 "/>
</symbol>
<symbol overflow="visible" id="glyph1-7">
<path style="stroke:none;" d=""/>
</symbol>
<symbol overflow="visible" id="glyph1-8">
<path style="stroke:none;" d="M 2.828125 -8.75 C 1.625 -7.171875 0.875 -4.984375 0.875 -3.109375 C 0.875 -1.21875 1.625 0.96875 2.828125 2.546875 L 3.484375 2.546875 C 2.4375 0.828125 1.84375 -1.1875 1.84375 -3.109375 C 1.84375 -5.015625 2.4375 -7.046875 3.484375 -8.75 Z M 2.828125 -8.75 "/>
</symbol>
<symbol overflow="visible" id="glyph1-9">
<path style="stroke:none;" d="M 5.609375 0 L 8.078125 -7.328125 L 8.078125 0 L 9.125 0 L 9.125 -8.75 L 7.578125 -8.75 L 5.046875 -1.125 L 2.453125 -8.75 L 0.90625 -8.75 L 0.90625 0 L 1.953125 0 L 1.953125 -7.328125 L 4.4375 0 Z M 5.609375 0 "/>
</symbol>
<symbol overflow="visible" id="glyph1-10">
<path style="stroke:none;" d="M 0.640625 -8.75 L 0.640625 0 L 1.546875 0 L 1.546875 -0.796875 C 2.03125 -0.078125 2.65625 0.28125 3.546875 0.28125 C 5.203125 0.28125 6.28125 -1.078125 6.28125 -3.171875 C 6.28125 -5.203125 5.25 -6.46875 3.59375 -6.46875 C 2.71875 -6.46875 2.109375 -6.140625 1.640625 -5.4375 L 1.640625 -8.75 Z M 3.390625 -5.53125 C 4.515625 -5.53125 5.234375 -4.5625 5.234375 -3.0625 C 5.234375 -1.625 4.484375 -0.65625 3.390625 -0.65625 C 2.328125 -0.65625 1.640625 -1.625 1.640625 -3.09375 C 1.640625 -4.578125 2.328125 -5.53125 3.390625 -5.53125 Z M 3.390625 -5.53125 "/>
</symbol>
<symbol overflow="visible" id="glyph1-11">
<path style="stroke:none;" d="M 1.109375 2.546875 C 2.3125 0.96875 3.078125 -1.21875 3.078125 -3.09375 C 3.078125 -4.984375 2.3125 -7.171875 1.109375 -8.75 L 0.453125 -8.75 C 1.515625 -7.03125 2.09375 -5.015625 2.09375 -3.09375 C 2.09375 -1.1875 1.515625 0.84375 0.453125 2.546875 Z M 1.109375 2.546875 "/>
</symbol>
<symbol overflow="visible" id="glyph2-0">
<path style="stroke:none;" d=""/>
</symbol>
<symbol overflow="visible" id="glyph2-1">
<path style="stroke:none;" d="M 0 -1.0625 L 0 -4.4375 C 0 -6.640625 -1.65625 -8 -4.375 -8 C -7.09375 -8 -8.75 -6.65625 -8.75 -4.4375 L -8.75 -1.0625 Z M -0.984375 -2.1875 L -7.765625 -2.1875 L -7.765625 -4.25 C -7.765625 -5.96875 -6.59375 -6.890625 -4.375 -6.890625 C -2.140625 -6.890625 -0.984375 -5.96875 -0.984375 -4.25 Z M -0.984375 -2.1875 "/>
</symbol>
<symbol overflow="visible" id="glyph2-2">
<path style="stroke:none;" d="M -2.8125 -6.15625 C -3.765625 -6.15625 -4.34375 -6.078125 -4.8125 -5.90625 C -5.84375 -5.5 -6.46875 -4.53125 -6.46875 -3.359375 C -6.46875 -1.609375 -5.140625 -0.484375 -3.0625 -0.484375 C -0.984375 -0.484375 0.28125 -1.5625 0.28125 -3.34375 C 0.28125 -4.78125 -0.546875 -5.765625 -1.90625 -6.03125 L -1.90625 -5.015625 C -1.078125 -4.734375 -0.640625 -4.171875 -0.640625 -3.375 C -0.640625 -2.734375 -0.9375 -2.203125 -1.46875 -1.859375 C -1.828125 -1.625 -2.1875 -1.53125 -2.8125 -1.53125 Z M -3.625 -1.546875 C -4.78125 -1.625 -5.546875 -2.34375 -5.546875 -3.34375 C -5.546875 -4.375 -4.75 -5.078125 -3.625 -5.078125 Z M -3.625 -1.546875 "/>
</symbol>
<symbol overflow="visible" id="glyph2-3">
<path style="stroke:none;" d="M -6.28125 -0.84375 L 0 -0.84375 L 0 -1.84375 L -3.46875 -1.84375 C -4.75 -1.84375 -5.59375 -2.515625 -5.59375 -3.546875 C -5.59375 -4.34375 -5.109375 -4.84375 -4.359375 -4.84375 L 0 -4.84375 L 0 -5.84375 L -4.75 -5.84375 C -5.796875 -5.84375 -6.46875 -5.0625 -6.46875 -3.859375 C -6.46875 -2.921875 -6.109375 -2.3125 -5.234375 -1.765625 L -6.28125 -1.765625 Z M -6.28125 -0.84375 "/>
</symbol>
<symbol overflow="visible" id="glyph2-4">
<path style="stroke:none;" d="M -4.53125 -5.25 C -5.765625 -5.25 -6.46875 -4.421875 -6.46875 -2.96875 C -6.46875 -1.515625 -5.71875 -0.5625 -4.546875 -0.5625 C -3.5625 -0.5625 -3.09375 -1.0625 -2.734375 -2.5625 L -2.515625 -3.484375 C -2.34375 -4.1875 -2.09375 -4.46875 -1.640625 -4.46875 C -1.046875 -4.46875 -0.640625 -3.875 -0.640625 -3 C -0.640625 -2.453125 -0.796875 -2 -1.0625 -1.75 C -1.25 -1.59375 -1.421875 -1.53125 -1.875 -1.46875 L -1.875 -0.40625 C -0.421875 -0.453125 0.28125 -1.265625 0.28125 -2.921875 C 0.28125 -4.5 -0.5 -5.515625 -1.71875 -5.515625 C -2.65625 -5.515625 -3.171875 -4.984375 -3.46875 -3.734375 L -3.703125 -2.765625 C -3.890625 -1.953125 -4.15625 -1.609375 -4.59375 -1.609375 C -5.1875 -1.609375 -5.546875 -2.125 -5.546875 -2.9375 C -5.546875 -3.75 -5.203125 -4.171875 -4.53125 -4.203125 Z M -4.53125 -5.25 "/>
</symbol>
<symbol overflow="visible" id="glyph2-5">
<path style="stroke:none;" d="M -6.28125 -1.796875 L -6.28125 -0.796875 L 0 -0.796875 L 0 -1.796875 Z M -8.75 -1.796875 L -8.75 -0.796875 L -7.484375 -0.796875 L -7.484375 -1.796875 Z M -8.75 -1.796875 "/>
</symbol>
<symbol overflow="visible" id="glyph2-6">
<path style="stroke:none;" d="M -6.28125 -3.046875 L -6.28125 -2.015625 L -8.015625 -2.015625 L -8.015625 -1.015625 L -6.28125 -1.015625 L -6.28125 -0.171875 L -5.46875 -0.171875 L -5.46875 -1.015625 L -0.71875 -1.015625 C -0.078125 -1.015625 0.28125 -1.453125 0.28125 -2.234375 C 0.28125 -2.5 0.25 -2.71875 0.1875 -3.046875 L -0.640625 -3.046875 C -0.609375 -2.90625 -0.59375 -2.765625 -0.59375 -2.5625 C -0.59375 -2.140625 -0.71875 -2.015625 -1.15625 -2.015625 L -5.46875 -2.015625 L -5.46875 -3.046875 Z M -6.28125 -3.046875 "/>
</symbol>
<symbol overflow="visible" id="glyph2-7">
<path style="stroke:none;" d="M -6.28125 -4.65625 L -1.390625 -2.921875 L -6.28125 -1.3125 L -6.28125 -0.234375 L 0.03125 -2.359375 L 1.015625 -1.984375 C 1.46875 -1.8125 1.625 -1.59375 1.625 -1.171875 C 1.625 -1.015625 1.609375 -0.859375 1.5625 -0.640625 L 2.453125 -0.640625 C 2.5625 -0.859375 2.609375 -1.0625 2.609375 -1.3125 C 2.609375 -1.640625 2.515625 -1.984375 2.3125 -2.25 C 2.09375 -2.5625 1.828125 -2.75 1.3125 -2.9375 L -6.28125 -5.734375 Z M -6.28125 -4.65625 "/>
</symbol>
<symbol overflow="visible" id="glyph2-8">
<path style="stroke:none;" d=""/>
</symbol>
<symbol overflow="visible" id="glyph2-9">
<path style="stroke:none;" d="M -8.75 -2.828125 C -7.171875 -1.625 -4.984375 -0.875 -3.109375 -0.875 C -1.21875 -0.875 0.96875 -1.625 2.546875 -2.828125 L 2.546875 -3.484375 C 0.828125 -2.4375 -1.1875 -1.84375 -3.109375 -1.84375 C -5.015625 -1.84375 -7.046875 -2.4375 -8.75 -3.484375 Z M -8.75 -2.828125 "/>
</symbol>
<symbol overflow="visible" id="glyph2-10">
<path style="stroke:none;" d="M -8.21875 -2.390625 C -8.21875 -1.265625 -7.296875 -0.34375 -6.171875 -0.34375 C -5.046875 -0.34375 -4.109375 -1.265625 -4.109375 -2.40625 C -4.109375 -3.515625 -5.046875 -4.4375 -6.140625 -4.4375 C -7.3125 -4.4375 -8.21875 -3.546875 -8.21875 -2.390625 Z M -7.375 -2.390625 C -7.375 -3.078125 -6.84375 -3.609375 -6.15625 -3.609375 C -5.5 -3.609375 -4.953125 -3.0625 -4.953125 -2.40625 C -4.953125 -1.734375 -5.5 -1.171875 -6.171875 -1.171875 C -6.84375 -1.171875 -7.375 -1.71875 -7.375 -2.390625 Z M -8.515625 -7.3125 L 0.234375 -2.5625 L 0.234375 -3.359375 L -8.515625 -8.09375 Z M -3.859375 -8.25 C -3.859375 -7.125 -2.953125 -6.21875 -1.828125 -6.21875 C -0.6875 -6.21875 0.234375 -7.125 0.234375 -8.265625 C 0.234375 -9.390625 -0.6875 -10.3125 -1.796875 -10.3125 C -2.953125 -10.3125 -3.859375 -9.40625 -3.859375 -8.25 Z M -3.03125 -8.25 C -3.03125 -8.9375 -2.484375 -9.484375 -1.796875 -9.484375 C -1.15625 -9.484375 -0.609375 -8.921875 -0.609375 -8.265625 C -0.609375 -7.578125 -1.15625 -7.046875 -1.828125 -7.046875 C -2.484375 -7.046875 -3.03125 -7.578125 -3.03125 -8.25 Z M -3.03125 -8.25 "/>
</symbol>
<symbol overflow="visible" id="glyph2-11">
<path style="stroke:none;" d="M 2.546875 -1.109375 C 0.96875 -2.3125 -1.21875 -3.078125 -3.09375 -3.078125 C -4.984375 -3.078125 -7.171875 -2.3125 -8.75 -1.109375 L -8.75 -0.453125 C -7.03125 -1.515625 -5.015625 -2.09375 -3.09375 -2.09375 C -1.1875 -2.09375 0.84375 -1.515625 2.546875 -0.453125 Z M 2.546875 -1.109375 "/>
</symbol>
<symbol overflow="visible" id="glyph3-0">
<path style="stroke:none;" d=""/>
</symbol>
<symbol overflow="visible" id="glyph3-1">
<path style="stroke:none;" d="M 4.40625 -2.65625 L 4.40625 0 L 5.15625 0 L 5.15625 -5.828125 L 4.40625 -5.828125 L 4.40625 -3.3125 L 1.40625 -3.3125 L 1.40625 -5.828125 L 0.65625 -5.828125 L 0.65625 0 L 1.40625 0 L 1.40625 -2.65625 Z M 4.40625 -2.65625 "/>
</symbol>
<symbol overflow="visible" id="glyph3-2">
<path style="stroke:none;" d="M 4.109375 -1.875 C 4.109375 -2.515625 4.0625 -2.890625 3.9375 -3.203125 C 3.65625 -3.890625 3.03125 -4.3125 2.234375 -4.3125 C 1.078125 -4.3125 0.3125 -3.421875 0.3125 -2.046875 C 0.3125 -0.65625 1.046875 0.1875 2.21875 0.1875 C 3.1875 0.1875 3.84375 -0.359375 4.015625 -1.265625 L 3.34375 -1.265625 C 3.15625 -0.71875 2.78125 -0.4375 2.25 -0.4375 C 1.828125 -0.4375 1.46875 -0.625 1.234375 -0.96875 C 1.078125 -1.21875 1.03125 -1.453125 1.015625 -1.875 Z M 1.03125 -2.421875 C 1.09375 -3.1875 1.5625 -3.703125 2.234375 -3.703125 C 2.90625 -3.703125 3.390625 -3.171875 3.390625 -2.421875 Z M 1.03125 -2.421875 "/>
</symbol>
<symbol overflow="visible" id="glyph3-3">
<path style="stroke:none;" d="M 1.21875 -5.828125 L 0.546875 -5.828125 L 0.546875 0 L 1.21875 0 Z M 1.21875 -5.828125 "/>
</symbol>
<symbol overflow="visible" id="glyph3-4">
<path style="stroke:none;" d="M 1.203125 -4.1875 L 0.53125 -4.1875 L 0.53125 0 L 1.203125 0 Z M 1.203125 -5.828125 L 0.53125 -5.828125 L 0.53125 -4.984375 L 1.203125 -4.984375 Z M 1.203125 -5.828125 "/>
</symbol>
<symbol overflow="visible" id="glyph3-5">
<path style="stroke:none;" d="M 2.03125 -4.1875 L 1.34375 -4.1875 L 1.34375 -5.34375 L 0.6875 -5.34375 L 0.6875 -4.1875 L 0.109375 -4.1875 L 0.109375 -3.640625 L 0.6875 -3.640625 L 0.6875 -0.484375 C 0.6875 -0.046875 0.96875 0.1875 1.484375 0.1875 C 1.65625 0.1875 1.8125 0.171875 2.03125 0.125 L 2.03125 -0.4375 C 1.9375 -0.40625 1.84375 -0.40625 1.71875 -0.40625 C 1.421875 -0.40625 1.34375 -0.484375 1.34375 -0.78125 L 1.34375 -3.640625 L 2.03125 -3.640625 Z M 2.03125 -4.1875 "/>
</symbol>
<symbol overflow="visible" id="glyph3-6">
<path style="stroke:none;" d="M 0.546875 -4.1875 L 0.546875 0 L 1.21875 0 L 1.21875 -2.171875 C 1.234375 -3.1875 1.640625 -3.625 2.5625 -3.609375 L 2.5625 -4.28125 C 2.453125 -4.296875 2.390625 -4.3125 2.3125 -4.3125 C 1.875 -4.3125 1.546875 -4.0625 1.171875 -3.4375 L 1.171875 -4.1875 Z M 0.546875 -4.1875 "/>
</symbol>
<symbol overflow="visible" id="glyph3-7">
<path style="stroke:none;" d="M 2.171875 -4.3125 C 0.984375 -4.3125 0.28125 -3.46875 0.28125 -2.0625 C 0.28125 -0.640625 0.984375 0.1875 2.1875 0.1875 C 3.375 0.1875 4.078125 -0.65625 4.078125 -2.03125 C 4.078125 -3.484375 3.390625 -4.3125 2.171875 -4.3125 Z M 2.1875 -3.703125 C 2.9375 -3.703125 3.390625 -3.078125 3.390625 -2.046875 C 3.390625 -1.046875 2.921875 -0.4375 2.1875 -0.4375 C 1.4375 -0.4375 0.984375 -1.046875 0.984375 -2.0625 C 0.984375 -3.078125 1.4375 -3.703125 2.1875 -3.703125 Z M 2.1875 -3.703125 "/>
</symbol>
<symbol overflow="visible" id="glyph3-8">
<path style="stroke:none;" d="M 0.5625 -4.1875 L 0.5625 0 L 1.234375 0 L 1.234375 -2.3125 C 1.234375 -3.171875 1.6875 -3.734375 2.375 -3.734375 C 2.890625 -3.734375 3.234375 -3.40625 3.234375 -2.90625 L 3.234375 0 L 3.890625 0 L 3.890625 -3.171875 C 3.890625 -3.859375 3.375 -4.3125 2.5625 -4.3125 C 1.9375 -4.3125 1.546875 -4.078125 1.171875 -3.484375 L 1.171875 -4.1875 Z M 0.5625 -4.1875 "/>
</symbol>
<symbol overflow="visible" id="glyph3-9">
<path style="stroke:none;" d="M 1.390625 -5.828125 L 0.640625 -5.828125 L 0.640625 0 L 4.265625 0 L 4.265625 -0.65625 L 1.390625 -0.65625 Z M 1.390625 -5.828125 "/>
</symbol>
<symbol overflow="visible" id="glyph3-10">
<path style="stroke:none;" d="M 1.546875 -5.828125 L 0.796875 -5.828125 L 0.796875 0 L 1.546875 0 Z M 1.546875 -5.828125 "/>
</symbol>
<symbol overflow="visible" id="glyph3-11">
<path style="stroke:none;" d="M 5.171875 -5.828125 L 4.46875 -5.828125 L 4.46875 -1.0625 L 1.421875 -5.828125 L 0.609375 -5.828125 L 0.609375 0 L 1.3125 0 L 1.3125 -4.734375 L 4.328125 0 L 5.171875 0 Z M 5.171875 -5.828125 "/>
</symbol>
<symbol overflow="visible" id="glyph3-12">
<path style="stroke:none;" d="M 1.46875 -2.65625 L 4.640625 -2.65625 L 4.640625 -3.3125 L 1.46875 -3.3125 L 1.46875 -5.171875 L 4.765625 -5.171875 L 4.765625 -5.828125 L 0.71875 -5.828125 L 0.71875 0 L 4.90625 0 L 4.90625 -0.65625 L 1.46875 -0.65625 Z M 1.46875 -2.65625 "/>
</symbol>
<symbol overflow="visible" id="glyph3-13">
<path style="stroke:none;" d="M 1.828125 -5.828125 L -0.0625 0.15625 L 0.375 0.15625 L 2.265625 -5.828125 Z M 1.828125 -5.828125 "/>
</symbol>
<symbol overflow="visible" id="glyph3-14">
<path style="stroke:none;" d="M 2.078125 -4.125 L 2.078125 0 L 2.78125 0 L 2.78125 -5.78125 L 2.3125 -5.78125 C 2.0625 -4.890625 1.90625 -4.78125 0.8125 -4.625 L 0.8125 -4.125 Z M 2.078125 -4.125 "/>
</symbol>
<symbol overflow="visible" id="glyph3-15">
<path style="stroke:none;" d="M 3.859375 0 L 3.859375 -4.1875 L 3.1875 -4.1875 L 3.1875 -1.8125 C 3.1875 -0.953125 2.75 -0.40625 2.046875 -0.40625 C 1.515625 -0.40625 1.1875 -0.71875 1.1875 -1.21875 L 1.1875 -4.1875 L 0.515625 -4.1875 L 0.515625 -0.953125 C 0.515625 -0.265625 1.046875 0.1875 1.859375 0.1875 C 2.46875 0.1875 2.859375 -0.03125 3.25 -0.578125 L 3.25 0 Z M 3.859375 0 "/>
</symbol>
<symbol overflow="visible" id="glyph3-16">
<path style="stroke:none;" d="M 1.125 -5.828125 L 0.46875 -5.828125 L 0.46875 0 L 1.125 0 L 1.125 -1.625 L 1.78125 -2.265625 L 3.1875 0 L 4.015625 0 L 2.296875 -2.75 L 3.765625 -4.1875 L 2.90625 -4.1875 L 1.125 -2.421875 Z M 1.125 -5.828125 "/>
</symbol>
<symbol overflow="visible" id="glyph3-17">
<path style="stroke:none;" d="M 4.4375 0 L 5.65625 -4.1875 L 4.90625 -4.1875 L 4.078125 -0.921875 L 3.25 -4.1875 L 2.4375 -4.1875 L 1.640625 -0.921875 L 0.78125 -4.1875 L 0.046875 -4.1875 L 1.265625 0 L 2.015625 0 L 2.828125 -3.28125 L 3.671875 0 Z M 4.4375 0 "/>
</symbol>
<symbol overflow="visible" id="glyph3-18">
<path style="stroke:none;" d="M 2.828125 -5.171875 L 4.75 -5.171875 L 4.75 -5.828125 L 0.171875 -5.828125 L 0.171875 -5.171875 L 2.09375 -5.171875 L 2.09375 0 L 2.828125 0 Z M 2.828125 -5.171875 "/>
</symbol>
<symbol overflow="visible" id="glyph3-19">
<path style="stroke:none;" d="M 1.484375 -2.515625 L 3.40625 -2.515625 C 4.078125 -2.515625 4.375 -2.1875 4.375 -1.46875 L 4.359375 -0.953125 C 4.359375 -0.59375 4.421875 -0.234375 4.53125 0 L 5.4375 0 L 5.4375 -0.1875 C 5.15625 -0.375 5.09375 -0.578125 5.078125 -1.359375 C 5.078125 -2.3125 4.921875 -2.609375 4.28125 -2.875 C 4.9375 -3.203125 5.203125 -3.59375 5.203125 -4.265625 C 5.203125 -5.28125 4.578125 -5.828125 3.4375 -5.828125 L 0.75 -5.828125 L 0.75 0 L 1.484375 0 Z M 1.484375 -3.171875 L 1.484375 -5.171875 L 3.28125 -5.171875 C 3.703125 -5.171875 3.9375 -5.109375 4.125 -4.953125 C 4.328125 -4.78125 4.4375 -4.515625 4.4375 -4.171875 C 4.4375 -3.484375 4.078125 -3.171875 3.28125 -3.171875 Z M 1.484375 -3.171875 "/>
</symbol>
<symbol overflow="visible" id="glyph3-20">
<path style="stroke:none;" d="M 0.625 0 L 3.265625 0 C 3.8125 0 4.21875 -0.15625 4.53125 -0.484375 C 4.828125 -0.796875 4.984375 -1.203125 4.984375 -1.65625 C 4.984375 -2.375 4.65625 -2.796875 3.921875 -3.078125 C 4.453125 -3.328125 4.734375 -3.75 4.734375 -4.359375 C 4.734375 -4.78125 4.5625 -5.15625 4.265625 -5.421875 C 3.953125 -5.703125 3.5625 -5.828125 3 -5.828125 L 0.625 -5.828125 Z M 1.375 -3.3125 L 1.375 -5.171875 L 2.8125 -5.171875 C 3.234375 -5.171875 3.46875 -5.125 3.65625 -4.96875 C 3.875 -4.8125 3.984375 -4.5625 3.984375 -4.25 C 3.984375 -3.921875 3.875 -3.6875 3.65625 -3.53125 C 3.46875 -3.375 3.234375 -3.3125 2.8125 -3.3125 Z M 1.375 -0.65625 L 1.375 -2.65625 L 3.1875 -2.65625 C 3.84375 -2.65625 4.234375 -2.28125 4.234375 -1.65625 C 4.234375 -1.03125 3.84375 -0.65625 3.1875 -0.65625 Z M 1.375 -0.65625 "/>
</symbol>
<symbol overflow="visible" id="glyph3-21">
<path style="stroke:none;" d="M 3.796875 -1.75 L 4.390625 0 L 5.21875 0 L 3.171875 -5.828125 L 2.21875 -5.828125 L 0.140625 0 L 0.921875 0 L 1.546875 -1.75 Z M 3.578125 -2.375 L 1.734375 -2.375 L 2.6875 -5.03125 Z M 3.578125 -2.375 "/>
</symbol>
<symbol overflow="visible" id="glyph3-22">
<path style="stroke:none;" d="M 4.359375 -2.140625 L 0.3125 -2.140625 L 0.3125 -1.578125 L 4.359375 -1.578125 Z M 4.359375 -2.140625 "/>
</symbol>
<symbol overflow="visible" id="glyph3-23">
<path style="stroke:none;" d="M 4.046875 -0.703125 L 1.0625 -0.703125 C 1.140625 -1.171875 1.390625 -1.484375 2.09375 -1.90625 L 2.890625 -2.359375 C 3.6875 -2.796875 4.09375 -3.390625 4.09375 -4.09375 C 4.09375 -4.578125 3.890625 -5.03125 3.5625 -5.328125 C 3.21875 -5.640625 2.8125 -5.78125 2.265625 -5.78125 C 1.546875 -5.78125 1.015625 -5.53125 0.703125 -5.03125 C 0.5 -4.734375 0.421875 -4.375 0.40625 -3.78125 L 1.109375 -3.78125 C 1.125 -4.171875 1.171875 -4.40625 1.265625 -4.59375 C 1.453125 -4.953125 1.828125 -5.171875 2.25 -5.171875 C 2.890625 -5.171875 3.375 -4.703125 3.375 -4.078125 C 3.375 -3.609375 3.109375 -3.21875 2.59375 -2.921875 L 1.859375 -2.5 C 0.6875 -1.8125 0.34375 -1.265625 0.265625 -0.015625 L 4.046875 -0.015625 Z M 4.046875 -0.703125 "/>
</symbol>
<symbol overflow="visible" id="glyph3-24">
<path style="stroke:none;" d="M 5.296875 -4.03125 C 5.0625 -5.296875 4.328125 -5.921875 3.046875 -5.921875 C 2.265625 -5.921875 1.625 -5.6875 1.203125 -5.203125 C 0.671875 -4.625 0.390625 -3.796875 0.390625 -2.84375 C 0.390625 -1.890625 0.6875 -1.0625 1.21875 -0.5 C 1.6875 -0.03125 2.25 0.1875 3.015625 0.1875 C 4.4375 0.1875 5.234375 -0.578125 5.421875 -2.125 L 4.640625 -2.125 C 4.578125 -1.734375 4.5 -1.453125 4.390625 -1.21875 C 4.140625 -0.75 3.640625 -0.46875 3.03125 -0.46875 C 1.859375 -0.46875 1.125 -1.40625 1.125 -2.859375 C 1.125 -4.359375 1.828125 -5.265625 2.953125 -5.265625 C 3.4375 -5.265625 3.875 -5.140625 4.109375 -4.90625 C 4.328125 -4.703125 4.453125 -4.46875 4.53125 -4.03125 Z M 5.296875 -4.03125 "/>
</symbol>
<symbol overflow="visible" id="glyph3-25">
<path style="stroke:none;" d="M 0.4375 1.75 L 1.109375 1.75 L 1.109375 -0.4375 C 1.453125 -0.015625 1.84375 0.1875 2.390625 0.1875 C 3.484375 0.1875 4.1875 -0.6875 4.1875 -2.03125 C 4.1875 -3.4375 3.5 -4.3125 2.390625 -4.3125 C 1.8125 -4.3125 1.359375 -4.0625 1.046875 -3.5625 L 1.046875 -4.1875 L 0.4375 -4.1875 Z M 2.265625 -3.6875 C 3.015625 -3.6875 3.484375 -3.046875 3.484375 -2.046875 C 3.484375 -1.09375 3 -0.4375 2.265625 -0.4375 C 1.5625 -0.4375 1.109375 -1.078125 1.109375 -2.0625 C 1.109375 -3.046875 1.5625 -3.6875 2.265625 -3.6875 Z M 2.265625 -3.6875 "/>
</symbol>
<symbol overflow="visible" id="glyph3-26">
<path style="stroke:none;" d="M 4.28125 -0.390625 C 4.203125 -0.375 4.171875 -0.375 4.140625 -0.375 C 3.90625 -0.375 3.78125 -0.5 3.78125 -0.703125 L 3.78125 -3.171875 C 3.78125 -3.90625 3.234375 -4.3125 2.203125 -4.3125 C 1.578125 -4.3125 1.09375 -4.140625 0.8125 -3.828125 C 0.609375 -3.609375 0.53125 -3.375 0.515625 -2.953125 L 1.1875 -2.953125 C 1.25 -3.46875 1.546875 -3.703125 2.171875 -3.703125 C 2.78125 -3.703125 3.109375 -3.46875 3.109375 -3.078125 L 3.109375 -2.890625 C 3.109375 -2.609375 2.953125 -2.5 2.421875 -2.4375 C 1.46875 -2.3125 1.328125 -2.28125 1.078125 -2.171875 C 0.578125 -1.96875 0.34375 -1.59375 0.34375 -1.0625 C 0.34375 -0.296875 0.859375 0.1875 1.71875 0.1875 C 2.234375 0.1875 2.65625 0 3.140625 -0.4375 C 3.1875 0 3.390625 0.1875 3.828125 0.1875 C 3.96875 0.1875 4.0625 0.171875 4.28125 0.109375 Z M 3.109375 -1.3125 C 3.109375 -1.09375 3.046875 -0.953125 2.84375 -0.78125 C 2.578125 -0.53125 2.25 -0.40625 1.859375 -0.40625 C 1.34375 -0.40625 1.03125 -0.640625 1.03125 -1.078125 C 1.03125 -1.515625 1.3125 -1.734375 2.046875 -1.84375 C 2.75 -1.9375 2.890625 -1.96875 3.109375 -2.078125 Z M 3.109375 -1.3125 "/>
</symbol>
<symbol overflow="visible" id="glyph3-27">
<path style="stroke:none;" d="M 5.671875 -3.078125 L 3.234375 -3.078125 L 3.234375 -2.421875 L 5.015625 -2.421875 L 5.015625 -2.265625 C 5.015625 -1.21875 4.25 -0.46875 3.1875 -0.46875 C 2.59375 -0.46875 2.0625 -0.6875 1.71875 -1.0625 C 1.328125 -1.484375 1.09375 -2.171875 1.09375 -2.890625 C 1.09375 -4.328125 1.90625 -5.265625 3.140625 -5.265625 C 4.03125 -5.265625 4.671875 -4.8125 4.828125 -4.0625 L 5.59375 -4.0625 C 5.390625 -5.25 4.484375 -5.921875 3.15625 -5.921875 C 2.4375 -5.921875 1.859375 -5.75 1.40625 -5.375 C 0.734375 -4.8125 0.359375 -3.90625 0.359375 -2.859375 C 0.359375 -1.0625 1.453125 0.1875 3.03125 0.1875 C 3.8125 0.1875 4.4375 -0.109375 5.015625 -0.75 L 5.203125 0.03125 L 5.671875 0.03125 Z M 5.671875 -3.078125 "/>
</symbol>
<symbol overflow="visible" id="glyph3-28">
<path style="stroke:none;" d="M 3.109375 -4.1875 L 1.9375 -0.921875 L 0.875 -4.1875 L 0.15625 -4.1875 L 1.578125 0.015625 L 1.3125 0.6875 C 1.203125 0.96875 1.0625 1.09375 0.78125 1.09375 C 0.671875 1.09375 0.578125 1.078125 0.4375 1.046875 L 0.4375 1.640625 C 0.5625 1.71875 0.703125 1.75 0.875 1.75 C 1.09375 1.75 1.328125 1.671875 1.5 1.546875 C 1.71875 1.390625 1.828125 1.21875 1.953125 0.875 L 3.828125 -4.1875 Z M 3.109375 -4.1875 "/>
</symbol>
<symbol overflow="visible" id="glyph3-29">
<path style="stroke:none;" d="M 3.5 -3.03125 C 3.5 -3.84375 2.953125 -4.3125 1.984375 -4.3125 C 1.015625 -4.3125 0.375 -3.8125 0.375 -3.03125 C 0.375 -2.375 0.71875 -2.0625 1.703125 -1.828125 L 2.328125 -1.671875 C 2.796875 -1.5625 2.96875 -1.390625 2.96875 -1.09375 C 2.96875 -0.703125 2.578125 -0.4375 2 -0.4375 C 1.640625 -0.4375 1.34375 -0.53125 1.171875 -0.71875 C 1.0625 -0.828125 1.015625 -0.953125 0.96875 -1.25 L 0.265625 -1.25 C 0.296875 -0.28125 0.84375 0.1875 1.9375 0.1875 C 3 0.1875 3.671875 -0.34375 3.671875 -1.140625 C 3.671875 -1.765625 3.3125 -2.109375 2.484375 -2.3125 L 1.84375 -2.46875 C 1.296875 -2.59375 1.078125 -2.765625 1.078125 -3.0625 C 1.078125 -3.453125 1.421875 -3.703125 1.953125 -3.703125 C 2.5 -3.703125 2.78125 -3.46875 2.796875 -3.03125 Z M 3.5 -3.03125 "/>
</symbol>
<symbol overflow="visible" id="glyph3-30">
<path style="stroke:none;" d="M 0.71875 0 L 2.953125 0 C 4.4375 0 5.328125 -1.109375 5.328125 -2.921875 C 5.328125 -4.734375 4.4375 -5.828125 2.953125 -5.828125 L 0.71875 -5.828125 Z M 1.453125 -0.65625 L 1.453125 -5.171875 L 2.828125 -5.171875 C 3.984375 -5.171875 4.59375 -4.40625 4.59375 -2.90625 C 4.59375 -1.4375 3.984375 -0.65625 2.828125 -0.65625 Z M 1.453125 -0.65625 "/>
</symbol>
<symbol overflow="visible" id="glyph3-31">
<path style="stroke:none;" d="M 3.75 0 L 5.390625 -4.890625 L 5.390625 0 L 6.09375 0 L 6.09375 -5.828125 L 5.0625 -5.828125 L 3.359375 -0.75 L 1.625 -5.828125 L 0.59375 -5.828125 L 0.59375 0 L 1.296875 0 L 1.296875 -4.890625 L 2.953125 0 Z M 3.75 0 "/>
</symbol>
<symbol overflow="visible" id="glyph3-32">
<path style="stroke:none;" d="M 4.625 1.015625 L -0.171875 1.015625 L -0.171875 1.40625 L 4.625 1.40625 Z M 4.625 1.015625 "/>
</symbol>
<symbol overflow="visible" id="glyph3-33">
<path style="stroke:none;" d="M 2.0625 -4.1875 L 1.375 -4.1875 L 1.375 -4.84375 C 1.375 -5.125 1.515625 -5.265625 1.828125 -5.265625 C 1.890625 -5.265625 1.90625 -5.265625 2.0625 -5.265625 L 2.0625 -5.8125 C 1.90625 -5.84375 1.828125 -5.859375 1.6875 -5.859375 C 1.078125 -5.859375 0.703125 -5.5 0.703125 -4.90625 L 0.703125 -4.1875 L 0.140625 -4.1875 L 0.140625 -3.640625 L 0.703125 -3.640625 L 0.703125 0 L 1.375 0 L 1.375 -3.640625 L 2.0625 -3.640625 Z M 2.0625 -4.1875 "/>
</symbol>
<symbol overflow="visible" id="glyph3-34">
<path style="stroke:none;" d="M 3.234375 -4.1875 L 3.234375 -3.578125 C 2.890625 -4.09375 2.53125 -4.3125 2 -4.3125 C 0.984375 -4.3125 0.28125 -3.375 0.28125 -2.03125 C 0.28125 -1.3125 0.453125 -0.8125 0.8125 -0.390625 C 1.125 -0.015625 1.515625 0.1875 1.953125 0.1875 C 2.453125 0.1875 2.8125 -0.046875 3.171875 -0.5625 L 3.171875 -0.359375 C 3.171875 0.765625 2.859375 1.1875 2.03125 1.1875 C 1.453125 1.1875 1.15625 0.953125 1.09375 0.484375 L 0.421875 0.484375 C 0.484375 1.25 1.09375 1.75 2.015625 1.75 C 2.625 1.75 3.140625 1.546875 3.40625 1.203125 C 3.734375 0.8125 3.84375 0.296875 3.84375 -0.6875 L 3.84375 -4.1875 Z M 2.0625 -3.703125 C 2.765625 -3.703125 3.171875 -3.109375 3.171875 -2.046875 C 3.171875 -1.03125 2.765625 -0.4375 2.0625 -0.4375 C 1.375 -0.4375 0.96875 -1.03125 0.96875 -2.0625 C 0.96875 -3.09375 1.375 -3.703125 2.0625 -3.703125 Z M 2.0625 -3.703125 "/>
</symbol>
<symbol overflow="visible" id="glyph3-35">
<path style="stroke:none;" d="M 0.5625 -4.1875 L 0.5625 0 L 1.234375 0 L 1.234375 -2.625 C 1.234375 -3.234375 1.671875 -3.734375 2.21875 -3.734375 C 2.71875 -3.734375 2.984375 -3.421875 2.984375 -2.890625 L 2.984375 0 L 3.65625 0 L 3.65625 -2.625 C 3.65625 -3.234375 4.109375 -3.734375 4.640625 -3.734375 C 5.140625 -3.734375 5.421875 -3.421875 5.421875 -2.890625 L 5.421875 0 L 6.09375 0 L 6.09375 -3.140625 C 6.09375 -3.890625 5.65625 -4.3125 4.875 -4.3125 C 4.3125 -4.3125 3.984375 -4.140625 3.59375 -3.671875 C 3.34375 -4.125 3.015625 -4.3125 2.46875 -4.3125 C 1.90625 -4.3125 1.53125 -4.109375 1.171875 -3.59375 L 1.171875 -4.1875 Z M 0.5625 -4.1875 "/>
</symbol>
<symbol overflow="visible" id="glyph3-36">
<path style="stroke:none;" d="M 4.765625 -4.125 C 4.765625 -4.515625 4.75 -4.625 4.609375 -4.90625 C 4.296875 -5.578125 3.609375 -5.921875 2.625 -5.921875 C 1.359375 -5.921875 0.5625 -5.265625 0.5625 -4.21875 C 0.5625 -3.5 0.9375 -3.0625 1.703125 -2.859375 L 3.15625 -2.46875 C 3.890625 -2.28125 4.21875 -1.984375 4.21875 -1.53125 C 4.21875 -1.21875 4.0625 -0.890625 3.8125 -0.71875 C 3.578125 -0.546875 3.203125 -0.46875 2.734375 -0.46875 C 2.09375 -0.46875 1.671875 -0.625 1.390625 -0.953125 C 1.171875 -1.21875 1.078125 -1.5 1.09375 -1.859375 L 0.390625 -1.859375 C 0.390625 -1.3125 0.5 -0.96875 0.734375 -0.640625 C 1.125 -0.09375 1.796875 0.1875 2.6875 0.1875 C 3.390625 0.1875 3.953125 0.03125 4.328125 -0.265625 C 4.71875 -0.578125 4.96875 -1.09375 4.96875 -1.59375 C 4.96875 -2.3125 4.515625 -2.84375 3.734375 -3.0625 L 2.265625 -3.453125 C 1.5625 -3.640625 1.296875 -3.875 1.296875 -4.3125 C 1.296875 -4.90625 1.828125 -5.296875 2.609375 -5.296875 C 3.53125 -5.296875 4.0625 -4.890625 4.0625 -4.125 Z M 4.765625 -4.125 "/>
</symbol>
<symbol overflow="visible" id="glyph3-37">
<path style="stroke:none;" d="M 0.5625 -5.828125 L 0.5625 0 L 1.21875 0 L 1.21875 -2.3125 C 1.21875 -3.171875 1.671875 -3.734375 2.359375 -3.734375 C 2.578125 -3.734375 2.796875 -3.65625 2.953125 -3.546875 C 3.140625 -3.40625 3.21875 -3.203125 3.21875 -2.90625 L 3.21875 0 L 3.890625 0 L 3.890625 -3.171875 C 3.890625 -3.875 3.390625 -4.3125 2.5625 -4.3125 C 1.96875 -4.3125 1.609375 -4.125 1.21875 -3.609375 L 1.21875 -5.828125 Z M 0.5625 -5.828125 "/>
</symbol>
<symbol overflow="visible" id="glyph3-38">
<path style="stroke:none;" d="M 1.46875 -2.46875 L 3.296875 -2.46875 C 3.765625 -2.46875 4.125 -2.609375 4.4375 -2.890625 C 4.78125 -3.203125 4.9375 -3.578125 4.9375 -4.125 C 4.9375 -5.21875 4.28125 -5.828125 3.140625 -5.828125 L 0.734375 -5.828125 L 0.734375 0 L 1.46875 0 Z M 1.46875 -3.125 L 1.46875 -5.171875 L 3.03125 -5.171875 C 3.734375 -5.171875 4.15625 -4.796875 4.15625 -4.15625 C 4.15625 -3.515625 3.734375 -3.125 3.03125 -3.125 Z M 1.46875 -3.125 "/>
</symbol>
<symbol overflow="visible" id="glyph3-39">
<path style="stroke:none;" d="M 1.46875 -2.65625 L 4.25 -2.65625 L 4.25 -3.3125 L 1.46875 -3.3125 L 1.46875 -5.171875 L 4.625 -5.171875 L 4.625 -5.828125 L 0.71875 -5.828125 L 0.71875 0 L 1.46875 0 Z M 1.46875 -2.65625 "/>
</symbol>
<symbol overflow="visible" id="glyph3-40">
<path style="stroke:none;" d="M 0.4375 -5.828125 L 0.4375 0 L 1.03125 0 L 1.03125 -0.53125 C 1.359375 -0.046875 1.78125 0.1875 2.359375 0.1875 C 3.46875 0.1875 4.1875 -0.71875 4.1875 -2.109375 C 4.1875 -3.46875 3.5 -4.3125 2.390625 -4.3125 C 1.8125 -4.3125 1.40625 -4.09375 1.09375 -3.625 L 1.09375 -5.828125 Z M 2.265625 -3.6875 C 3.015625 -3.6875 3.484375 -3.046875 3.484375 -2.046875 C 3.484375 -1.09375 2.984375 -0.4375 2.265625 -0.4375 C 1.546875 -0.4375 1.09375 -1.078125 1.09375 -2.0625 C 1.09375 -3.046875 1.546875 -3.6875 2.265625 -3.6875 Z M 2.265625 -3.6875 "/>
</symbol>
<symbol overflow="visible" id="glyph4-0">
<path style="stroke:none;" d=""/>
</symbol>
<symbol overflow="visible" id="glyph4-1">
<path style="stroke:none;" d="M 1.078125 0 L 5.0625 0 C 6.625 0 7.609375 -0.359375 8.296875 -1.1875 C 9.09375 -2.140625 9.53125 -3.515625 9.53125 -5.109375 C 9.53125 -6.6875 9.09375 -8.0625 8.296875 -9.03125 C 7.609375 -9.859375 6.640625 -10.203125 5.0625 -10.203125 L 1.078125 -10.203125 Z M 3.171875 -1.75 L 3.171875 -8.453125 L 5.0625 -8.453125 C 6.65625 -8.453125 7.4375 -7.34375 7.4375 -5.09375 C 7.4375 -2.859375 6.65625 -1.75 5.0625 -1.75 Z M 3.171875 -1.75 "/>
</symbol>
<symbol overflow="visible" id="glyph4-2">
<path style="stroke:none;" d="M 7.34375 -3.15625 C 7.34375 -3.328125 7.34375 -3.40625 7.34375 -3.5 C 7.34375 -4.25 7.234375 -4.953125 7.0625 -5.484375 C 6.546875 -6.859375 5.328125 -7.6875 3.8125 -7.6875 C 1.640625 -7.6875 0.3125 -6.125 0.3125 -3.578125 C 0.3125 -1.15625 1.625 0.328125 3.765625 0.328125 C 5.453125 0.328125 6.828125 -0.625 7.265625 -2.125 L 5.328125 -2.125 C 5.09375 -1.53125 4.546875 -1.171875 3.84375 -1.171875 C 3.28125 -1.171875 2.828125 -1.40625 2.546875 -1.828125 C 2.359375 -2.109375 2.296875 -2.453125 2.265625 -3.15625 Z M 2.296875 -4.46875 C 2.421875 -5.625 2.90625 -6.1875 3.78125 -6.1875 C 4.671875 -6.1875 5.203125 -5.59375 5.3125 -4.46875 Z M 2.296875 -4.46875 "/>
</symbol>
<symbol overflow="visible" id="glyph4-3">
<path style="stroke:none;" d="M 0.875 -7.5625 L 0.875 0 L 2.84375 0 L 2.84375 -4.53125 C 2.84375 -5.4375 3.453125 -6.015625 4.421875 -6.015625 C 5.265625 -6.015625 5.6875 -5.5625 5.6875 -4.65625 L 5.6875 0 L 7.640625 0 L 7.640625 -5.0625 C 7.640625 -6.75 6.734375 -7.6875 5.109375 -7.6875 C 4.09375 -7.6875 3.40625 -7.328125 2.84375 -6.46875 L 2.84375 -7.5625 Z M 0.875 -7.5625 "/>
</symbol>
<symbol overflow="visible" id="glyph4-4">
<path style="stroke:none;" d="M 7.0625 -5.125 C 7.046875 -6.71875 5.8125 -7.6875 3.78125 -7.6875 C 1.859375 -7.6875 0.671875 -6.71875 0.671875 -5.171875 C 0.671875 -4.65625 0.828125 -4.234375 1.09375 -3.9375 C 1.359375 -3.671875 1.59375 -3.546875 2.328125 -3.296875 L 4.65625 -2.578125 C 5.15625 -2.421875 5.3125 -2.265625 5.3125 -1.953125 C 5.3125 -1.5 4.78125 -1.21875 3.859375 -1.21875 C 3.34375 -1.21875 2.953125 -1.296875 2.703125 -1.484375 C 2.484375 -1.640625 2.40625 -1.796875 2.328125 -2.203125 L 0.40625 -2.203125 C 0.46875 -0.53125 1.6875 0.328125 3.96875 0.328125 C 5.03125 0.328125 5.828125 0.09375 6.390625 -0.34375 C 6.9375 -0.796875 7.28125 -1.5 7.28125 -2.234375 C 7.28125 -3.21875 6.796875 -3.84375 5.796875 -4.140625 L 3.3125 -4.859375 C 2.765625 -5.03125 2.625 -5.140625 2.625 -5.453125 C 2.625 -5.859375 3.078125 -6.140625 3.765625 -6.140625 C 4.703125 -6.140625 5.171875 -5.8125 5.1875 -5.125 Z M 7.0625 -5.125 "/>
</symbol>
<symbol overflow="visible" id="glyph4-5">
<path style="stroke:none;" d="M 2.890625 -7.5625 L 0.9375 -7.5625 L 0.9375 0 L 2.890625 0 Z M 2.890625 -10.203125 L 0.9375 -10.203125 L 0.9375 -8.453125 L 2.890625 -8.453125 Z M 2.890625 -10.203125 "/>
</symbol>
<symbol overflow="visible" id="glyph4-6">
<path style="stroke:none;" d="M 4.21875 -7.40625 L 3.125 -7.40625 L 3.125 -9.4375 L 1.15625 -9.4375 L 1.15625 -7.40625 L 0.203125 -7.40625 L 0.203125 -6.109375 L 1.15625 -6.109375 L 1.15625 -1.453125 C 1.15625 -0.265625 1.796875 0.328125 3.078125 0.328125 C 3.53125 0.328125 3.84375 0.28125 4.21875 0.171875 L 4.21875 -1.203125 C 4.015625 -1.171875 3.921875 -1.15625 3.765625 -1.15625 C 3.25 -1.15625 3.125 -1.3125 3.125 -1.984375 L 3.125 -6.109375 L 4.21875 -6.109375 Z M 4.21875 -7.40625 "/>
</symbol>
<symbol overflow="visible" id="glyph4-7">
<path style="stroke:none;" d="M 5.515625 -7.5625 L 3.953125 -2.0625 L 2.28125 -7.5625 L 0.125 -7.5625 L 2.9375 0.3125 C 2.9375 1.09375 2.453125 1.625 1.71875 1.625 C 1.5625 1.625 1.4375 1.59375 1.203125 1.546875 L 1.203125 3.015625 C 1.5 3.046875 1.671875 3.0625 1.90625 3.0625 C 2.40625 3.0625 2.96875 2.96875 3.3125 2.828125 C 3.859375 2.609375 4.109375 2.296875 4.421875 1.390625 L 7.53125 -7.5625 Z M 5.515625 -7.5625 "/>
</symbol>
<symbol overflow="visible" id="glyph4-8">
<path style="stroke:none;" d=""/>
</symbol>
<symbol overflow="visible" id="glyph4-9">
<path style="stroke:none;" d="M 4.21875 -7.6875 C 1.90625 -7.6875 0.484375 -6.15625 0.484375 -3.6875 C 0.484375 -1.1875 1.90625 0.328125 4.234375 0.328125 C 6.53125 0.328125 7.96875 -1.1875 7.96875 -3.625 C 7.96875 -6.1875 6.578125 -7.6875 4.21875 -7.6875 Z M 4.234375 -6.109375 C 5.3125 -6.109375 6 -5.140625 6 -3.65625 C 6 -2.234375 5.28125 -1.265625 4.234375 -1.265625 C 3.15625 -1.265625 2.453125 -2.21875 2.453125 -3.6875 C 2.453125 -5.140625 3.15625 -6.109375 4.234375 -6.109375 Z M 4.234375 -6.109375 "/>
</symbol>
<symbol overflow="visible" id="glyph4-10">
<path style="stroke:none;" d="M 7.3125 -4.734375 C 7.171875 -6.578125 5.953125 -7.6875 4.046875 -7.6875 C 1.78125 -7.6875 0.46875 -6.203125 0.46875 -3.625 C 0.46875 -1.140625 1.78125 0.328125 4.015625 0.328125 C 5.859375 0.328125 7.125 -0.8125 7.3125 -2.625 L 5.4375 -2.625 C 5.1875 -1.640625 4.796875 -1.265625 4.015625 -1.265625 C 3.03125 -1.265625 2.4375 -2.140625 2.4375 -3.625 C 2.4375 -4.359375 2.578125 -5.015625 2.8125 -5.453125 C 3.03125 -5.875 3.46875 -6.109375 4.03125 -6.109375 C 4.828125 -6.109375 5.203125 -5.71875 5.4375 -4.734375 Z M 7.3125 -4.734375 "/>
</symbol>
<symbol overflow="visible" id="glyph4-11">
<path style="stroke:none;" d="M 0.9375 -10.203125 L 0.9375 0 L 2.890625 0 L 2.890625 -4.53125 C 2.890625 -5.40625 3.53125 -6.015625 4.40625 -6.015625 C 4.84375 -6.015625 5.171875 -5.859375 5.390625 -5.5625 C 5.578125 -5.3125 5.609375 -5.09375 5.609375 -4.625 L 5.609375 0 L 7.578125 0 L 7.578125 -5.0625 C 7.578125 -6 7.328125 -6.671875 6.796875 -7.109375 C 6.375 -7.46875 5.734375 -7.6875 5.109375 -7.6875 C 4.140625 -7.6875 3.4375 -7.3125 2.890625 -6.46875 L 2.890625 -10.203125 Z M 0.9375 -10.203125 "/>
</symbol>
<symbol overflow="visible" id="glyph4-12">
<path style="stroke:none;" d="M 0.875 -7.5625 L 0.875 0 L 2.84375 0 L 2.84375 -4.015625 C 2.84375 -5.171875 3.421875 -5.734375 4.5625 -5.734375 C 4.78125 -5.734375 4.90625 -5.71875 5.1875 -5.6875 L 5.1875 -7.671875 C 5.0625 -7.6875 5.03125 -7.6875 4.9375 -7.6875 C 4.046875 -7.6875 3.28125 -7.09375 2.84375 -6.078125 L 2.84375 -7.5625 Z M 0.875 -7.5625 "/>
</symbol>
<symbol overflow="visible" id="glyph4-13">
<path style="stroke:none;" d="M 3.328125 -6.84375 L 3.328125 0 L 5.296875 0 L 5.296875 -9.921875 L 3.984375 -9.921875 C 3.6875 -8.75 2.65625 -8.140625 0.953125 -8.140625 L 0.953125 -6.84375 Z M 3.328125 -6.84375 "/>
</symbol>
</g>
<clipPath id="clip1">
  <path d="M 40.011719 28.570312 L 742.230469 28.570312 L 742.230469 321.730469 L 40.011719 321.730469 Z M 40.011719 28.570312 "/>
</clipPath>
<clipPath id="clip2">
  <path d="M 40.011719 275 L 742.230469 275 L 742.230469 277 L 40.011719 277 Z M 40.011719 275 "/>
</clipPath>
<clipPath id="clip3">
  <path d="M 40.011719 190 L 742.230469 190 L 742.230469 191 L 40.011719 191 Z M 40.011719 190 "/>
</clipPath>
<clipPath id="clip4">
  <path d="M 40.011719 104 L 742.230469 104 L 742.230469 105 L 40.011719 105 Z M 40.011719 104 "/>
</clipPath>
<clipPath id="clip5">
  <path d="M 156 28.570312 L 158 28.570312 L 158 321.730469 L 156 321.730469 Z M 156 28.570312 "/>
</clipPath>
<clipPath id="clip6">
  <path d="M 390 28.570312 L 392 28.570312 L 392 321.730469 L 390 321.730469 Z M 390 28.570312 "/>
</clipPath>
<clipPath id="clip7">
  <path d="M 625 28.570312 L 626 28.570312 L 626 321.730469 L 625 321.730469 Z M 625 28.570312 "/>
</clipPath>
<clipPath id="clip8">
  <path d="M 40.011719 318 L 742.230469 318 L 742.230469 320 L 40.011719 320 Z M 40.011719 318 "/>
</clipPath>
<clipPath id="clip9">
  <path d="M 40.011719 232 L 742.230469 232 L 742.230469 234 L 40.011719 234 Z M 40.011719 232 "/>
</clipPath>
<clipPath id="clip10">
  <path d="M 40.011719 147 L 742.230469 147 L 742.230469 148 L 40.011719 148 Z M 40.011719 147 "/>
</clipPath>
<clipPath id="clip11">
  <path d="M 40.011719 61 L 742.230469 61 L 742.230469 62 L 40.011719 62 Z M 40.011719 61 "/>
</clipPath>
<clipPath id="clip12">
  <path d="M 40.011719 28.570312 L 41 28.570312 L 41 321.730469 L 40.011719 321.730469 Z M 40.011719 28.570312 "/>
</clipPath>
<clipPath id="clip13">
  <path d="M 273 28.570312 L 275 28.570312 L 275 321.730469 L 273 321.730469 Z M 273 28.570312 "/>
</clipPath>
<clipPath id="clip14">
  <path d="M 507 28.570312 L 509 28.570312 L 509 321.730469 L 507 321.730469 Z M 507 28.570312 "/>
</clipPath>
<clipPath id="clip15">
  <path d="M 741 28.570312 L 742.230469 28.570312 L 742.230469 321.730469 L 741 321.730469 Z M 741 28.570312 "/>
</clipPath>
<clipPath id="clip16">
  <path d="M 40.011719 222 L 742.230469 222 L 742.230469 316 L 40.011719 316 Z M 40.011719 222 "/>
</clipPath>
<clipPath id="clip17">
  <path d="M 40.011719 313 L 742.230469 313 L 742.230469 320 L 40.011719 320 Z M 40.011719 313 "/>
</clipPath>
<clipPath id="clip18">
  <path d="M 40.011719 311 L 742.230469 311 L 742.230469 320 L 40.011719 320 Z M 40.011719 311 "/>
</clipPath>
<clipPath id="clip19">
  <path d="M 40.011719 315 L 742.230469 315 L 742.230469 320 L 40.011719 320 Z M 40.011719 315 "/>
</clipPath>
<clipPath id="clip20">
  <path d="M 40.011719 278 L 742.230469 278 L 742.230469 320 L 40.011719 320 Z M 40.011719 278 "/>
</clipPath>
<clipPath id="clip21">
  <path d="M 40.011719 33 L 742.230469 33 L 742.230469 320 L 40.011719 320 Z M 40.011719 33 "/>
</clipPath>
<clipPath id="clip22">
  <path d="M 40.011719 278 L 742.230469 278 L 742.230469 320 L 40.011719 320 Z M 40.011719 278 "/>
</clipPath>
<clipPath id="clip23">
  <path d="M 40.011719 315 L 742.230469 315 L 742.230469 320 L 40.011719 320 Z M 40.011719 315 "/>
</clipPath>
<clipPath id="clip24">
  <path d="M 40.011719 187 L 742.230469 187 L 742.230469 319 L 40.011719 319 Z M 40.011719 187 "/>
</clipPath>
<clipPath id="clip25">
  <path d="M 40.011719 316 L 742.230469 316 L 742.230469 320 L 40.011719 320 Z M 40.011719 316 "/>
</clipPath>
<clipPath id="clip26">
  <path d="M 40.011719 304 L 742.230469 304 L 742.230469 320 L 40.011719 320 Z M 40.011719 304 "/>
</clipPath>
<clipPath id="clip27">
  <path d="M 40.011719 312 L 742.230469 312 L 742.230469 320 L 40.011719 320 Z M 40.011719 312 "/>
</clipPath>
<clipPath id="clip28">
  <path d="M 40.011719 191 L 742.230469 191 L 742.230469 320 L 40.011719 320 Z M 40.011719 191 "/>
</clipPath>
<clipPath id="clip29">
  <path d="M 40.011719 311 L 742.230469 311 L 742.230469 320 L 40.011719 320 Z M 40.011719 311 "/>
</clipPath>
<clipPath id="clip30">
  <path d="M 40.011719 314 L 742.230469 314 L 742.230469 320 L 40.011719 320 Z M 40.011719 314 "/>
</clipPath>
<clipPath id="clip31">
  <path d="M 40.011719 28.570312 L 742.230469 28.570312 L 742.230469 321.730469 L 40.011719 321.730469 Z M 40.011719 28.570312 "/>
</clipPath>
</defs>
<g id="surface1">
<rect x="0" y="0" width="864" height="360" style="fill:rgb(100%,100%,100%);fill-opacity:1;stroke:none;"/>
<path style="fill:none;stroke-width:1.07;stroke-linecap:round;stroke-linejoin:round;stroke:rgb(100%,100%,100%);stroke-opacity:1;stroke-miterlimit:10;" d="M 0 0 L 864 0 L 864 360 L 0 360 Z M 0 0 " transform="matrix(1,0,0,-1,0,360)"/>
<g clip-path="url(#clip1)" clip-rule="nonzero">
<path style=" stroke:none;fill-rule:nonzero;fill:rgb(100%,100%,100%);fill-opacity:1;" d="M 40.011719 321.730469 L 742.230469 321.730469 L 742.230469 28.570312 L 40.011719 28.570312 Z M 40.011719 321.730469 "/>
</g>
<g clip-path="url(#clip2)" clip-rule="nonzero">
<path style="fill:none;stroke-width:0.27;stroke-linecap:butt;stroke-linejoin:round;stroke:rgb(87.059021%,87.059021%,87.059021%);stroke-opacity:1;stroke-miterlimit:10;" d="M 40.011719 83.980469 L 742.230469 83.980469 " transform="matrix(1,0,0,-1,0,360)"/>
</g>
<g clip-path="url(#clip3)" clip-rule="nonzero">
<path style="fill:none;stroke-width:0.27;stroke-linecap:butt;stroke-linejoin:round;stroke:rgb(87.059021%,87.059021%,87.059021%);stroke-opacity:1;stroke-miterlimit:10;" d="M 40.011719 169.710938 L 742.230469 169.710938 " transform="matrix(1,0,0,-1,0,360)"/>
</g>
<g clip-path="url(#clip4)" clip-rule="nonzero">
<path style="fill:none;stroke-width:0.27;stroke-linecap:butt;stroke-linejoin:round;stroke:rgb(87.059021%,87.059021%,87.059021%);stroke-opacity:1;stroke-miterlimit:10;" d="M 40.011719 255.429688 L 742.230469 255.429688 " transform="matrix(1,0,0,-1,0,360)"/>
</g>
<g clip-path="url(#clip5)" clip-rule="nonzero">
<path style="fill:none;stroke-width:0.27;stroke-linecap:butt;stroke-linejoin:round;stroke:rgb(87.059021%,87.059021%,87.059021%);stroke-opacity:1;stroke-miterlimit:10;" d="M 157.050781 38.269531 L 157.050781 331.429688 " transform="matrix(1,0,0,-1,0,360)"/>
</g>
<g clip-path="url(#clip6)" clip-rule="nonzero">
<path style="fill:none;stroke-width:0.27;stroke-linecap:butt;stroke-linejoin:round;stroke:rgb(87.059021%,87.059021%,87.059021%);stroke-opacity:1;stroke-miterlimit:10;" d="M 391.121094 38.269531 L 391.121094 331.429688 " transform="matrix(1,0,0,-1,0,360)"/>
</g>
<g clip-path="url(#clip7)" clip-rule="nonzero">
<path style="fill:none;stroke-width:0.27;stroke-linecap:butt;stroke-linejoin:round;stroke:rgb(87.059021%,87.059021%,87.059021%);stroke-opacity:1;stroke-miterlimit:10;" d="M 625.199219 38.269531 L 625.199219 331.429688 " transform="matrix(1,0,0,-1,0,360)"/>
</g>
<g clip-path="url(#clip8)" clip-rule="nonzero">
<path style="fill:none;stroke-width:0.53;stroke-linecap:butt;stroke-linejoin:round;stroke:rgb(87.059021%,87.059021%,87.059021%);stroke-opacity:1;stroke-miterlimit:10;" d="M 40.011719 41.121094 L 742.230469 41.121094 " transform="matrix(1,0,0,-1,0,360)"/>
</g>
<g clip-path="url(#clip9)" clip-rule="nonzero">
<path style="fill:none;stroke-width:0.53;stroke-linecap:butt;stroke-linejoin:round;stroke:rgb(87.059021%,87.059021%,87.059021%);stroke-opacity:1;stroke-miterlimit:10;" d="M 40.011719 126.839844 L 742.230469 126.839844 " transform="matrix(1,0,0,-1,0,360)"/>
</g>
<g clip-path="url(#clip10)" clip-rule="nonzero">
<path style="fill:none;stroke-width:0.53;stroke-linecap:butt;stroke-linejoin:round;stroke:rgb(87.059021%,87.059021%,87.059021%);stroke-opacity:1;stroke-miterlimit:10;" d="M 40.011719 212.570312 L 742.230469 212.570312 " transform="matrix(1,0,0,-1,0,360)"/>
</g>
<g clip-path="url(#clip11)" clip-rule="nonzero">
<path style="fill:none;stroke-width:0.53;stroke-linecap:butt;stroke-linejoin:round;stroke:rgb(87.059021%,87.059021%,87.059021%);stroke-opacity:1;stroke-miterlimit:10;" d="M 40.011719 298.300781 L 742.230469 298.300781 " transform="matrix(1,0,0,-1,0,360)"/>
</g>
<g clip-path="url(#clip12)" clip-rule="nonzero">
<path style="fill:none;stroke-width:0.53;stroke-linecap:butt;stroke-linejoin:round;stroke:rgb(87.059021%,87.059021%,87.059021%);stroke-opacity:1;stroke-miterlimit:10;" d="M 40.011719 38.269531 L 40.011719 331.429688 " transform="matrix(1,0,0,-1,0,360)"/>
</g>
<g clip-path="url(#clip13)" clip-rule="nonzero">
<path style="fill:none;stroke-width:0.53;stroke-linecap:butt;stroke-linejoin:round;stroke:rgb(87.059021%,87.059021%,87.059021%);stroke-opacity:1;stroke-miterlimit:10;" d="M 274.078125 38.269531 L 274.078125 331.429688 " transform="matrix(1,0,0,-1,0,360)"/>
</g>
<g clip-path="url(#clip14)" clip-rule="nonzero">
<path style="fill:none;stroke-width:0.53;stroke-linecap:butt;stroke-linejoin:round;stroke:rgb(87.059021%,87.059021%,87.059021%);stroke-opacity:1;stroke-miterlimit:10;" d="M 508.160156 38.269531 L 508.160156 331.429688 " transform="matrix(1,0,0,-1,0,360)"/>
</g>
<g clip-path="url(#clip15)" clip-rule="nonzero">
<path style="fill:none;stroke-width:0.53;stroke-linecap:butt;stroke-linejoin:round;stroke:rgb(87.059021%,87.059021%,87.059021%);stroke-opacity:1;stroke-miterlimit:10;" d="M 742.230469 38.269531 L 742.230469 331.429688 " transform="matrix(1,0,0,-1,0,360)"/>
</g>
<g clip-path="url(#clip16)" clip-rule="nonzero">
<path style="fill:none;stroke-width:1.07;stroke-linecap:butt;stroke-linejoin:round;stroke:rgb(0%,50.196838%,100%);stroke-opacity:1;stroke-miterlimit:10;" d="M 40.011719 61.660156 L 51.710938 73.960938 L 63.421875 65.980469 L 75.121094 64.410156 L 86.820312 62.828125 L 98.53125 68.738281 L 110.230469 71.710938 L 121.941406 68.011719 L 133.640625 69.628906 L 145.339844 76.738281 L 157.050781 76.75 L 168.75 74.5 L 180.449219 74.308594 L 192.160156 82.039062 L 203.859375 76.101562 L 215.570312 61.691406 L 227.269531 78.691406 L 238.96875 72.921875 L 250.679688 75.648438 L 262.378906 86.398438 L 274.078125 78.550781 L 285.789062 101.679688 L 297.488281 133.609375 L 309.199219 111.359375 L 320.898438 94.328125 L 332.601562 120.550781 L 344.308594 128.449219 L 356.011719 92.21875 L 367.710938 56.398438 L 379.421875 44.941406 L 391.121094 80.160156 L 402.820312 107.710938 L 414.53125 115.191406 L 426.230469 119.421875 L 437.941406 93.28125 L 449.640625 86.179688 L 461.339844 93.828125 L 473.050781 137.28125 L 484.75 136.839844 L 496.449219 93.691406 L 508.160156 117.609375 L 519.859375 122.25 L 531.570312 89.628906 L 543.269531 71.628906 L 554.96875 71.460938 L 566.679688 84.148438 L 578.378906 80.25 L 590.078125 67.601562 L 601.789062 89.609375 L 613.488281 85.140625 L 625.199219 84.429688 L 636.898438 96.890625 L 648.601562 74.101562 L 660.308594 55.78125 L 672.011719 51.949219 L 683.710938 55.21875 L 695.421875 57.039062 L 707.121094 58.640625 L 718.820312 62.941406 L 730.53125 77.679688 L 742.230469 86.519531 " transform="matrix(1,0,0,-1,0,360)"/>
</g>
<g clip-path="url(#clip17)" clip-rule="nonzero">
<path style="fill:none;stroke-width:1.07;stroke-linecap:butt;stroke-linejoin:round;stroke:rgb(100%,100%,0%);stroke-opacity:1;stroke-miterlimit:10;" d="M 40.011719 41.121094 L 192.160156 41.121094 L 203.859375 44 L 215.570312 44 L 227.269531 43.511719 L 238.96875 43.511719 L 250.679688 41.121094 L 262.378906 44.050781 L 274.078125 44.050781 L 285.789062 41.121094 L 309.199219 41.121094 L 320.898438 43.859375 L 332.601562 45.980469 L 344.308594 44.738281 L 356.011719 42.621094 L 367.710938 41.121094 L 391.121094 41.121094 L 402.820312 41.261719 L 414.53125 41.261719 L 426.230469 41.121094 L 590.078125 41.121094 L 601.789062 41.371094 L 613.488281 41.371094 L 625.199219 41.121094 L 648.601562 41.121094 L 660.308594 41.328125 L 672.011719 41.328125 L 683.710938 41.121094 L 742.230469 41.121094 " transform="matrix(1,0,0,-1,0,360)"/>
</g>
<g clip-path="url(#clip18)" clip-rule="nonzero">
<path style="fill:none;stroke-width:1.07;stroke-linecap:butt;stroke-linejoin:round;stroke:rgb(100%,83.137512%,0%);stroke-opacity:1;stroke-miterlimit:10;" d="M 40.011719 41.519531 L 51.710938 41.121094 L 86.820312 41.121094 L 98.53125 41.269531 L 110.230469 42.128906 L 121.941406 41.980469 L 133.640625 41.121094 L 168.75 41.121094 L 180.449219 41.761719 L 192.160156 41.761719 L 203.859375 41.261719 L 215.570312 43.339844 L 227.269531 43.199219 L 238.96875 41.519531 L 250.679688 41.609375 L 262.378906 41.648438 L 274.078125 43.269531 L 285.789062 45.21875 L 297.488281 45.160156 L 309.199219 43.300781 L 320.898438 42.210938 L 332.601562 43.851562 L 344.308594 45.121094 L 356.011719 44.148438 L 367.710938 42.328125 L 379.421875 41.121094 L 391.121094 43.460938 L 402.820312 47.578125 L 414.53125 45.941406 L 426.230469 44.179688 L 437.941406 46.328125 L 449.640625 44.539062 L 461.339844 41.691406 L 473.050781 43.179688 L 484.75 43.289062 L 496.449219 42.660156 L 508.160156 43.691406 L 519.859375 42.488281 L 531.570312 41.351562 L 543.269531 43.609375 L 554.96875 43.609375 L 566.679688 41.738281 L 578.378906 42 L 590.078125 42.121094 L 601.789062 42.410156 L 613.488281 41.859375 L 625.199219 41.378906 L 636.898438 41.261719 L 648.601562 41.191406 L 660.308594 41.121094 L 742.230469 41.121094 " transform="matrix(1,0,0,-1,0,360)"/>
</g>
<g clip-path="url(#clip19)" clip-rule="nonzero">
<path style="fill:none;stroke-width:1.07;stroke-linecap:butt;stroke-linejoin:round;stroke:rgb(100%,0%,0%);stroke-opacity:1;stroke-miterlimit:10;" d="M 40.011719 41.121094 L 262.378906 41.121094 L 274.078125 43.851562 L 285.789062 43.851562 L 297.488281 41.121094 L 309.199219 41.121094 L 320.898438 42.460938 L 332.601562 43.320312 L 344.308594 42.730469 L 356.011719 41.859375 L 367.710938 41.121094 L 379.421875 41.121094 L 391.121094 41.769531 L 402.820312 42.820312 L 414.53125 42.171875 L 426.230469 41.121094 L 508.160156 41.121094 L 519.859375 41.929688 L 531.570312 41.929688 L 543.269531 41.121094 L 742.230469 41.121094 " transform="matrix(1,0,0,-1,0,360)"/>
</g>
<g clip-path="url(#clip20)" clip-rule="nonzero">
<path style="fill:none;stroke-width:1.07;stroke-linecap:butt;stroke-linejoin:round;stroke:rgb(33.332825%,0%,0%);stroke-opacity:1;stroke-miterlimit:10;" d="M 40.011719 41.121094 L 51.710938 41.121094 L 63.421875 41.320312 L 75.121094 41.808594 L 86.820312 41.601562 L 98.53125 41.78125 L 110.230469 41.78125 L 121.941406 41.121094 L 133.640625 41.261719 L 145.339844 41.261719 L 157.050781 44.351562 L 168.75 48.71875 L 180.449219 50.511719 L 192.160156 46.328125 L 203.859375 41.871094 L 215.570312 42.140625 L 227.269531 41.71875 L 238.96875 45.738281 L 250.679688 48.550781 L 262.378906 45.988281 L 274.078125 44.839844 L 285.789062 44.070312 L 297.488281 42.628906 L 309.199219 48.578125 L 320.898438 59.808594 L 332.601562 66.980469 L 344.308594 72.601562 L 356.011719 58.570312 L 367.710938 41.359375 L 379.421875 41.589844 L 391.121094 57.019531 L 402.820312 71.429688 L 414.53125 80.621094 L 426.230469 76.410156 L 437.941406 52.128906 L 449.640625 51.789062 L 461.339844 52.441406 L 473.050781 45.550781 L 484.75 44.679688 L 496.449219 48.058594 L 508.160156 48.039062 L 519.859375 41.21875 L 531.570312 55.339844 L 543.269531 56.058594 L 554.96875 42.761719 L 566.679688 45.988281 L 578.378906 45.328125 L 590.078125 42.269531 L 601.789062 42.421875 L 613.488281 41.71875 L 625.199219 41.578125 L 636.898438 41.378906 L 648.601562 41.121094 L 660.308594 41.269531 L 672.011719 41.359375 L 683.710938 41.210938 L 695.421875 41.621094 L 707.121094 41.621094 L 718.820312 41.121094 L 742.230469 41.121094 " transform="matrix(1,0,0,-1,0,360)"/>
</g>
<g clip-path="url(#clip21)" clip-rule="nonzero">
<path style="fill:none;stroke-width:1.07;stroke-linecap:butt;stroke-linejoin:round;stroke:rgb(66.667175%,0%,0%);stroke-opacity:1;stroke-miterlimit:10;" d="M 40.011719 41.960938 L 51.710938 41.878906 L 63.421875 41.449219 L 75.121094 41.121094 L 86.820312 41.648438 L 98.53125 41.648438 L 110.230469 41.121094 L 168.75 41.121094 L 180.449219 41.5 L 192.160156 45.230469 L 203.859375 45.96875 L 215.570312 42.511719 L 227.269531 41.910156 L 238.96875 41.640625 L 250.679688 41.800781 L 262.378906 42.71875 L 274.078125 43.710938 L 285.789062 43.671875 L 297.488281 54.859375 L 309.199219 58.859375 L 320.898438 61.308594 L 332.601562 78.898438 L 344.308594 148.050781 L 356.011719 311.71875 L 367.710938 323.921875 L 379.421875 282.78125 L 391.121094 325.730469 L 402.820312 227.421875 L 414.53125 105.109375 L 426.230469 62.410156 L 437.941406 47 L 449.640625 43.96875 L 461.339844 53.121094 L 473.050781 52.53125 L 484.75 41.941406 L 496.449219 43.519531 L 508.160156 43.058594 L 519.859375 42.210938 L 531.570312 43.808594 L 543.269531 43.089844 L 554.96875 41.761719 L 566.679688 41.378906 L 578.378906 42.050781 L 590.078125 42.359375 L 601.789062 42.53125 L 613.488281 42.5 L 625.199219 41.789062 L 636.898438 41.578125 L 648.601562 41.199219 L 660.308594 41.558594 L 672.011719 41.558594 L 683.710938 41.121094 L 695.421875 41.121094 L 707.121094 41.558594 L 718.820312 42.050781 L 730.53125 41.648438 L 742.230469 41.121094 " transform="matrix(1,0,0,-1,0,360)"/>
</g>
<g clip-path="url(#clip22)" clip-rule="nonzero">
<path style="fill:none;stroke-width:1.07;stroke-linecap:butt;stroke-linejoin:round;stroke:rgb(100%,33.332825%,0%);stroke-opacity:1;stroke-miterlimit:10;" d="M 40.011719 41.121094 L 63.421875 41.121094 L 75.121094 41.261719 L 86.820312 41.261719 L 98.53125 41.121094 L 274.078125 41.121094 L 285.789062 41.421875 L 297.488281 41.421875 L 309.199219 41.71875 L 320.898438 43.398438 L 332.601562 44.648438 L 344.308594 52.441406 L 356.011719 66.640625 L 367.710938 57.269531 L 379.421875 43.710938 L 391.121094 73.300781 L 402.820312 81.429688 L 414.53125 52.429688 L 426.230469 42.128906 L 437.941406 42.128906 L 449.640625 42.25 L 461.339844 41.550781 L 473.050781 41.121094 L 484.75 41.121094 L 496.449219 41.429688 L 508.160156 41.429688 L 519.859375 41.121094 L 531.570312 41.121094 L 543.269531 41.371094 L 554.96875 41.371094 L 566.679688 41.121094 L 742.230469 41.121094 " transform="matrix(1,0,0,-1,0,360)"/>
</g>
<g clip-path="url(#clip23)" clip-rule="nonzero">
<path style="fill:none;stroke-width:1.07;stroke-linecap:butt;stroke-linejoin:round;stroke:rgb(83.137512%,0%,0%);stroke-opacity:1;stroke-miterlimit:10;" d="M 40.011719 41.121094 L 121.941406 41.121094 L 133.640625 41.210938 L 145.339844 41.210938 L 157.050781 41.121094 L 297.488281 41.121094 L 309.199219 43.320312 L 320.898438 44.339844 L 332.601562 42.128906 L 344.308594 41.199219 L 356.011719 41.199219 L 367.710938 41.121094 L 391.121094 41.121094 L 402.820312 41.480469 L 414.53125 41.480469 L 426.230469 42.480469 L 437.941406 42.480469 L 449.640625 41.121094 L 496.449219 41.121094 L 508.160156 41.351562 L 519.859375 41.351562 L 531.570312 41.121094 L 636.898438 41.121094 L 648.601562 41.289062 L 660.308594 41.289062 L 672.011719 41.121094 L 742.230469 41.121094 " transform="matrix(1,0,0,-1,0,360)"/>
</g>
<g clip-path="url(#clip24)" clip-rule="nonzero">
<path style="fill:none;stroke-width:1.07;stroke-linecap:butt;stroke-linejoin:round;stroke:rgb(54.902649%,53.726196%,54.118347%);stroke-opacity:1;stroke-miterlimit:10;" d="M 40.011719 45.609375 L 51.710938 45 L 63.421875 44.210938 L 75.121094 43.140625 L 86.820312 44.441406 L 98.53125 45.289062 L 110.230469 46.460938 L 121.941406 46.191406 L 133.640625 43.460938 L 145.339844 42.671875 L 157.050781 43.179688 L 168.75 44.710938 L 180.449219 48.019531 L 192.160156 53.308594 L 203.859375 52.269531 L 215.570312 53.03125 L 227.269531 86.789062 L 238.96875 86 L 250.679688 60.808594 L 262.378906 59.421875 L 274.078125 50.550781 L 285.789062 53.160156 L 297.488281 62.128906 L 309.199219 66.929688 L 320.898438 91.371094 L 332.601562 116.019531 L 344.308594 109.511719 L 356.011719 107.488281 L 367.710938 83 L 379.421875 136.808594 L 391.121094 171.820312 L 402.820312 115.460938 L 414.53125 110.96875 L 426.230469 98.339844 L 437.941406 68.648438 L 449.640625 56.890625 L 461.339844 57.671875 L 473.050781 60.261719 L 484.75 58.871094 L 496.449219 48.96875 L 508.160156 46.289062 L 519.859375 68.699219 L 531.570312 94.390625 L 543.269531 74.871094 L 554.96875 51.148438 L 566.679688 50.621094 L 578.378906 49.710938 L 590.078125 53.929688 L 601.789062 53.800781 L 613.488281 48.019531 L 625.199219 44.800781 L 636.898438 45.109375 L 648.601562 44.910156 L 660.308594 42.828125 L 672.011719 47.851562 L 683.710938 49.550781 L 695.421875 45.671875 L 707.121094 45.539062 L 718.820312 44.761719 L 730.53125 43.050781 L 742.230469 42.121094 " transform="matrix(1,0,0,-1,0,360)"/>
</g>
<g clip-path="url(#clip25)" clip-rule="nonzero">
<path style="fill:none;stroke-width:1.07;stroke-linecap:butt;stroke-linejoin:round;stroke:rgb(66.667175%,100%,33.332825%);stroke-opacity:1;stroke-miterlimit:10;" d="M 40.011719 41.121094 L 133.640625 41.121094 L 145.339844 41.230469 L 157.050781 41.230469 L 168.75 41.121094 L 180.449219 41.121094 L 192.160156 41.410156 L 203.859375 41.410156 L 215.570312 41.300781 L 227.269531 41.300781 L 238.96875 41.230469 L 250.679688 41.339844 L 262.378906 41.320312 L 274.078125 41.21875 L 285.789062 41.609375 L 297.488281 42.019531 L 309.199219 41.609375 L 320.898438 42.398438 L 332.601562 42.578125 L 344.308594 41.761719 L 356.011719 41.730469 L 367.710938 41.339844 L 379.421875 41.121094 L 391.121094 41.339844 L 402.820312 41.570312 L 414.53125 41.878906 L 426.230469 42.511719 L 437.941406 42.191406 L 449.640625 41.339844 L 461.339844 41.378906 L 473.050781 42.308594 L 484.75 42.421875 L 496.449219 41.851562 L 508.160156 41.480469 L 519.859375 41.578125 L 531.570312 42.460938 L 543.269531 42.398438 L 554.96875 41.671875 L 566.679688 41.359375 L 578.378906 41.359375 L 590.078125 41.808594 L 601.789062 41.828125 L 613.488281 41.28125 L 625.199219 41.511719 L 636.898438 41.511719 L 648.601562 41.25 L 660.308594 41.398438 L 672.011719 41.339844 L 683.710938 41.191406 L 695.421875 41.121094 L 742.230469 41.121094 " transform="matrix(1,0,0,-1,0,360)"/>
</g>
<g clip-path="url(#clip26)" clip-rule="nonzero">
<path style="fill:none;stroke-width:1.07;stroke-linecap:butt;stroke-linejoin:round;stroke:rgb(0%,83.137512%,100%);stroke-opacity:1;stroke-miterlimit:10;" d="M 40.011719 41.121094 L 262.378906 41.121094 L 274.078125 41.28125 L 285.789062 45.75 L 297.488281 45.589844 L 309.199219 41.960938 L 320.898438 46.371094 L 332.601562 47 L 344.308594 50.171875 L 356.011719 50.480469 L 367.710938 46.160156 L 379.421875 49.261719 L 391.121094 54.480469 L 402.820312 53.421875 L 414.53125 45.839844 L 426.230469 42.410156 L 437.941406 41.519531 L 449.640625 42.011719 L 461.339844 42.910156 L 473.050781 42.011719 L 484.75 41.589844 L 496.449219 41.589844 L 508.160156 41.121094 L 742.230469 41.121094 " transform="matrix(1,0,0,-1,0,360)"/>
</g>
<g clip-path="url(#clip27)" clip-rule="nonzero">
<path style="fill:none;stroke-width:1.07;stroke-linecap:butt;stroke-linejoin:round;stroke:rgb(0%,100%,100%);stroke-opacity:1;stroke-miterlimit:10;" d="M 40.011719 41.46875 L 51.710938 41.179688 L 63.421875 41.179688 L 75.121094 41.210938 L 86.820312 42.558594 L 98.53125 42.460938 L 110.230469 41.121094 L 121.941406 41.589844 L 133.640625 41.589844 L 145.339844 41.121094 L 157.050781 42.238281 L 168.75 43.359375 L 180.449219 42.570312 L 192.160156 41.449219 L 203.859375 41.871094 L 215.570312 42.710938 L 227.269531 41.949219 L 238.96875 41.121094 L 250.679688 41.121094 L 262.378906 41.308594 L 274.078125 42.160156 L 285.789062 42.878906 L 297.488281 42.648438 L 309.199219 42.289062 L 320.898438 43.78125 L 332.601562 45.539062 L 344.308594 43.421875 L 356.011719 43.980469 L 367.710938 43.980469 L 379.421875 41.121094 L 391.121094 43.800781 L 402.820312 45.101562 L 414.53125 44.019531 L 426.230469 47.179688 L 437.941406 46.070312 L 449.640625 43.039062 L 461.339844 42.550781 L 473.050781 42.140625 L 484.75 42.511719 L 496.449219 41.480469 L 508.160156 41.121094 L 519.859375 41.800781 L 531.570312 44.109375 L 543.269531 43.910156 L 554.96875 41.601562 L 566.679688 42.550781 L 578.378906 42.550781 L 590.078125 41.121094 L 601.789062 42.25 L 613.488281 42.730469 L 625.199219 41.71875 L 636.898438 41.238281 L 648.601562 41.121094 L 660.308594 41.21875 L 672.011719 41.648438 L 683.710938 41.550781 L 695.421875 41.46875 L 707.121094 41.46875 L 718.820312 41.121094 L 742.230469 41.121094 " transform="matrix(1,0,0,-1,0,360)"/>
</g>
<g clip-path="url(#clip28)" clip-rule="nonzero">
<path style="fill:none;stroke-width:1.07;stroke-linecap:butt;stroke-linejoin:round;stroke:rgb(16.862488%,100%,83.137512%);stroke-opacity:1;stroke-miterlimit:10;" d="M 40.011719 41.5 L 51.710938 41.5 L 63.421875 41.691406 L 75.121094 41.691406 L 86.820312 41.121094 L 98.53125 41.121094 L 110.230469 41.429688 L 121.941406 41.808594 L 133.640625 41.488281 L 145.339844 41.289062 L 157.050781 41.980469 L 168.75 42.109375 L 180.449219 42.140625 L 192.160156 41.828125 L 203.859375 41.28125 L 215.570312 41.578125 L 227.269531 41.621094 L 238.96875 41.328125 L 250.679688 41.308594 L 262.378906 41.539062 L 274.078125 41.46875 L 285.789062 41.871094 L 297.488281 41.738281 L 309.199219 42.128906 L 320.898438 42.410156 L 332.601562 41.5 L 344.308594 41.488281 L 356.011719 48.539062 L 367.710938 54.109375 L 379.421875 167.300781 L 391.121094 167.539062 L 402.820312 47.488281 L 414.53125 41.488281 L 426.230469 43.039062 L 437.941406 44.160156 L 449.640625 42.328125 L 461.339844 41.679688 L 473.050781 41.808594 L 484.75 41.5 L 496.449219 41.808594 L 508.160156 41.929688 L 519.859375 42.121094 L 531.570312 42.039062 L 543.269531 41.570312 L 554.96875 41.640625 L 566.679688 41.671875 L 578.378906 41.308594 L 590.078125 41.699219 L 601.789062 41.929688 L 613.488281 41.488281 L 625.199219 41.609375 L 636.898438 41.691406 L 648.601562 41.449219 L 660.308594 41.488281 L 672.011719 41.390625 L 683.710938 41.121094 L 695.421875 41.121094 L 707.121094 41.449219 L 718.820312 41.699219 L 730.53125 41.378906 L 742.230469 41.121094 " transform="matrix(1,0,0,-1,0,360)"/>
</g>
<g clip-path="url(#clip29)" clip-rule="nonzero">
<path style="fill:none;stroke-width:1.07;stroke-linecap:butt;stroke-linejoin:round;stroke:rgb(33.332825%,100%,66.667175%);stroke-opacity:1;stroke-miterlimit:10;" d="M 40.011719 41.121094 L 51.710938 41.121094 L 63.421875 41.269531 L 75.121094 41.269531 L 86.820312 41.121094 L 98.53125 41.121094 L 110.230469 41.300781 L 121.941406 45.148438 L 133.640625 48.199219 L 145.339844 44.671875 L 157.050781 44.191406 L 168.75 43.871094 L 180.449219 41.121094 L 203.859375 41.121094 L 215.570312 41.71875 L 227.269531 41.71875 L 238.96875 41.121094 L 250.679688 41.121094 L 262.378906 41.269531 L 274.078125 41.5 L 285.789062 41.441406 L 297.488281 43.988281 L 309.199219 47.628906 L 320.898438 45.261719 L 332.601562 45.128906 L 344.308594 46.441406 L 356.011719 42.839844 L 367.710938 41.121094 L 379.421875 41.121094 L 391.121094 41.5 L 402.820312 43.359375 L 414.53125 47.460938 L 426.230469 45.609375 L 437.941406 44.308594 L 449.640625 45.519531 L 461.339844 42.328125 L 473.050781 41.269531 L 484.75 44.941406 L 496.449219 44.941406 L 508.160156 41.269531 L 519.859375 41.230469 L 531.570312 41.230469 L 543.269531 41.558594 L 554.96875 41.558594 L 566.679688 41.121094 L 578.378906 41.410156 L 590.078125 41.410156 L 601.789062 41.121094 L 613.488281 44.921875 L 625.199219 44.921875 L 636.898438 41.121094 L 683.710938 41.121094 L 695.421875 41.390625 L 707.121094 47.5 L 718.820312 47.230469 L 730.53125 41.121094 L 742.230469 41.121094 " transform="matrix(1,0,0,-1,0,360)"/>
</g>
<g clip-path="url(#clip30)" clip-rule="nonzero">
<path style="fill:none;stroke-width:1.07;stroke-linecap:butt;stroke-linejoin:round;stroke:rgb(50.196838%,100%,50.196838%);stroke-opacity:1;stroke-miterlimit:10;" d="M 40.011719 41.121094 L 133.640625 41.121094 L 145.339844 41.191406 L 157.050781 41.351562 L 168.75 41.28125 L 180.449219 41.121094 L 203.859375 41.121094 L 215.570312 41.378906 L 227.269531 41.730469 L 238.96875 43.328125 L 250.679688 43.539062 L 262.378906 41.671875 L 274.078125 41.390625 L 285.789062 41.390625 L 297.488281 41.121094 L 309.199219 41.859375 L 320.898438 41.949219 L 332.601562 42.128906 L 344.308594 42.398438 L 356.011719 42.929688 L 367.710938 42.578125 L 379.421875 41.121094 L 391.121094 41.121094 L 402.820312 44 L 414.53125 44.988281 L 426.230469 42.601562 L 437.941406 41.601562 L 449.640625 41.210938 L 461.339844 41.210938 L 473.050781 41.308594 L 484.75 41.441406 L 496.449219 41.25 L 508.160156 41.191406 L 519.859375 41.378906 L 531.570312 41.308594 L 543.269531 41.121094 L 554.96875 45.261719 L 566.679688 45.261719 L 578.378906 41.351562 L 590.078125 41.351562 L 601.789062 41.359375 L 613.488281 41.449219 L 625.199219 41.960938 L 636.898438 41.871094 L 648.601562 41.121094 L 660.308594 41.121094 L 672.011719 41.261719 L 683.710938 41.261719 L 695.421875 41.121094 L 718.820312 41.121094 L 730.53125 41.230469 L 742.230469 41.359375 " transform="matrix(1,0,0,-1,0,360)"/>
</g>
<g clip-path="url(#clip31)" clip-rule="nonzero">
<path style="fill:none;stroke-width:1.71;stroke-linecap:round;stroke-linejoin:round;stroke:rgb(74.510193%,74.510193%,74.510193%);stroke-opacity:1;stroke-miterlimit:10;" d="M 40.011719 38.269531 L 742.230469 38.269531 L 742.230469 331.429688 L 40.011719 331.429688 Z M 40.011719 38.269531 " transform="matrix(1,0,0,-1,0,360)"/>
</g>
<g style="fill:rgb(30.195618%,30.195618%,30.195618%);fill-opacity:1;">
  <use xlink:href="#glyph0-1" x="29.52" y="322.47"/>
</g>
<g style="fill:rgb(30.195618%,30.195618%,30.195618%);fill-opacity:1;">
  <use xlink:href="#glyph0-2" x="23.96" y="236.75"/>
  <use xlink:href="#glyph0-1" x="29.52" y="236.75"/>
</g>
<g style="fill:rgb(30.195618%,30.195618%,30.195618%);fill-opacity:1;">
  <use xlink:href="#glyph0-3" x="23.96" y="151.02"/>
  <use xlink:href="#glyph0-1" x="29.52" y="151.02"/>
</g>
<g style="fill:rgb(30.195618%,30.195618%,30.195618%);fill-opacity:1;">
  <use xlink:href="#glyph0-4" x="23.96" y="65.29"/>
  <use xlink:href="#glyph0-1" x="29.52" y="65.29"/>
</g>
<path style="fill:none;stroke-width:0.53;stroke-linecap:butt;stroke-linejoin:round;stroke:rgb(70.196533%,70.196533%,70.196533%);stroke-opacity:1;stroke-miterlimit:10;" d="M 37.269531 41.121094 L 40.011719 41.121094 " transform="matrix(1,0,0,-1,0,360)"/>
<path style="fill:none;stroke-width:0.53;stroke-linecap:butt;stroke-linejoin:round;stroke:rgb(70.196533%,70.196533%,70.196533%);stroke-opacity:1;stroke-miterlimit:10;" d="M 37.269531 126.839844 L 40.011719 126.839844 " transform="matrix(1,0,0,-1,0,360)"/>
<path style="fill:none;stroke-width:0.53;stroke-linecap:butt;stroke-linejoin:round;stroke:rgb(70.196533%,70.196533%,70.196533%);stroke-opacity:1;stroke-miterlimit:10;" d="M 37.269531 212.570312 L 40.011719 212.570312 " transform="matrix(1,0,0,-1,0,360)"/>
<path style="fill:none;stroke-width:0.53;stroke-linecap:butt;stroke-linejoin:round;stroke:rgb(70.196533%,70.196533%,70.196533%);stroke-opacity:1;stroke-miterlimit:10;" d="M 37.269531 298.300781 L 40.011719 298.300781 " transform="matrix(1,0,0,-1,0,360)"/>
<path style="fill:none;stroke-width:0.53;stroke-linecap:butt;stroke-linejoin:round;stroke:rgb(70.196533%,70.196533%,70.196533%);stroke-opacity:1;stroke-miterlimit:10;" d="M 40.011719 35.53125 L 40.011719 38.269531 " transform="matrix(1,0,0,-1,0,360)"/>
<path style="fill:none;stroke-width:0.53;stroke-linecap:butt;stroke-linejoin:round;stroke:rgb(70.196533%,70.196533%,70.196533%);stroke-opacity:1;stroke-miterlimit:10;" d="M 274.078125 35.53125 L 274.078125 38.269531 " transform="matrix(1,0,0,-1,0,360)"/>
<path style="fill:none;stroke-width:0.53;stroke-linecap:butt;stroke-linejoin:round;stroke:rgb(70.196533%,70.196533%,70.196533%);stroke-opacity:1;stroke-miterlimit:10;" d="M 508.160156 35.53125 L 508.160156 38.269531 " transform="matrix(1,0,0,-1,0,360)"/>
<path style="fill:none;stroke-width:0.53;stroke-linecap:butt;stroke-linejoin:round;stroke:rgb(70.196533%,70.196533%,70.196533%);stroke-opacity:1;stroke-miterlimit:10;" d="M 742.230469 35.53125 L 742.230469 38.269531 " transform="matrix(1,0,0,-1,0,360)"/>
<g style="fill:rgb(30.195618%,30.195618%,30.195618%);fill-opacity:1;">
  <use xlink:href="#glyph0-1" x="37.23" y="333.84"/>
</g>
<g style="fill:rgb(30.195618%,30.195618%,30.195618%);fill-opacity:1;">
  <use xlink:href="#glyph0-2" x="268.52" y="333.84"/>
  <use xlink:href="#glyph0-1" x="274.08" y="333.84"/>
</g>
<g style="fill:rgb(30.195618%,30.195618%,30.195618%);fill-opacity:1;">
  <use xlink:href="#glyph0-3" x="502.6" y="333.84"/>
  <use xlink:href="#glyph0-1" x="508.16" y="333.84"/>
</g>
<g style="fill:rgb(30.195618%,30.195618%,30.195618%);fill-opacity:1;">
  <use xlink:href="#glyph0-4" x="736.67" y="333.84"/>
  <use xlink:href="#glyph0-1" x="742.23" y="333.84"/>
</g>
<g style="fill:rgb(0%,0%,0%);fill-opacity:1;">
  <use xlink:href="#glyph1-1" x="356.08" y="347.4"/>
</g>
<g style="fill:rgb(0%,0%,0%);fill-opacity:1;">
  <use xlink:href="#glyph1-2" x="363.484" y="347.4"/>
  <use xlink:href="#glyph1-3" x="370.156" y="347.4"/>
  <use xlink:href="#glyph1-4" x="376.156" y="347.4"/>
  <use xlink:href="#glyph1-5" x="378.82" y="347.4"/>
  <use xlink:href="#glyph1-4" x="382.156" y="347.4"/>
  <use xlink:href="#glyph1-2" x="384.82" y="347.4"/>
  <use xlink:href="#glyph1-6" x="391.492" y="347.4"/>
  <use xlink:href="#glyph1-7" x="398.164" y="347.4"/>
  <use xlink:href="#glyph1-8" x="401.5" y="347.4"/>
  <use xlink:href="#glyph1-9" x="405.496" y="347.4"/>
  <use xlink:href="#glyph1-10" x="415.492" y="347.4"/>
  <use xlink:href="#glyph1-11" x="422.164" y="347.4"/>
</g>
<g style="fill:rgb(0%,0%,0%);fill-opacity:1;">
  <use xlink:href="#glyph2-1" x="18.58" y="206.15"/>
  <use xlink:href="#glyph2-2" x="18.58" y="197.486"/>
  <use xlink:href="#glyph2-3" x="18.58" y="190.814"/>
  <use xlink:href="#glyph2-4" x="18.58" y="184.142"/>
  <use xlink:href="#glyph2-5" x="18.58" y="178.142"/>
  <use xlink:href="#glyph2-6" x="18.58" y="175.478"/>
  <use xlink:href="#glyph2-7" x="18.58" y="172.142"/>
  <use xlink:href="#glyph2-8" x="18.58" y="166.142"/>
  <use xlink:href="#glyph2-9" x="18.58" y="162.806"/>
  <use xlink:href="#glyph2-10" x="18.58" y="158.81"/>
  <use xlink:href="#glyph2-11" x="18.58" y="148.142"/>
</g>
<path style=" stroke:none;fill-rule:nonzero;fill:rgb(100%,100%,100%);fill-opacity:1;" d="M 753.191406 317.660156 L 854.039062 317.660156 L 854.039062 32.640625 L 753.191406 32.640625 Z M 753.191406 317.660156 "/>
<g style="fill:rgb(0%,0%,0%);fill-opacity:1;">
  <use xlink:href="#glyph0-5" x="758.67" y="46.4"/>
</g>
<g style="fill:rgb(0%,0%,0%);fill-opacity:1;">
  <use xlink:href="#glyph0-6" x="763.58" y="46.4"/>
  <use xlink:href="#glyph0-7" x="768.58" y="46.4"/>
  <use xlink:href="#glyph0-8" x="774.14" y="46.4"/>
</g>
<path style=" stroke:none;fill-rule:nonzero;fill:rgb(100%,100%,100%);fill-opacity:1;" d="M 758.671875 70.261719 L 775.949219 70.261719 L 775.949219 52.980469 L 758.671875 52.980469 Z M 758.671875 70.261719 "/>
<path style="fill:none;stroke-width:1.07;stroke-linecap:butt;stroke-linejoin:round;stroke:rgb(0%,50.196838%,100%);stroke-opacity:1;stroke-miterlimit:10;" d="M 760.398438 298.378906 L 774.21875 298.378906 " transform="matrix(1,0,0,-1,0,360)"/>
<path style=" stroke:none;fill-rule:nonzero;fill:rgb(100%,100%,100%);fill-opacity:1;" d="M 758.671875 87.539062 L 775.949219 87.539062 L 775.949219 70.261719 L 758.671875 70.261719 Z M 758.671875 87.539062 "/>
<path style="fill:none;stroke-width:1.07;stroke-linecap:butt;stroke-linejoin:round;stroke:rgb(100%,100%,0%);stroke-opacity:1;stroke-miterlimit:10;" d="M 760.398438 281.101562 L 774.21875 281.101562 " transform="matrix(1,0,0,-1,0,360)"/>
<path style=" stroke:none;fill-rule:nonzero;fill:rgb(100%,100%,100%);fill-opacity:1;" d="M 758.671875 104.820312 L 775.949219 104.820312 L 775.949219 87.539062 L 758.671875 87.539062 Z M 758.671875 104.820312 "/>
<path style="fill:none;stroke-width:1.07;stroke-linecap:butt;stroke-linejoin:round;stroke:rgb(100%,83.137512%,0%);stroke-opacity:1;stroke-miterlimit:10;" d="M 760.398438 263.820312 L 774.21875 263.820312 " transform="matrix(1,0,0,-1,0,360)"/>
<path style=" stroke:none;fill-rule:nonzero;fill:rgb(100%,100%,100%);fill-opacity:1;" d="M 758.671875 122.101562 L 775.949219 122.101562 L 775.949219 104.820312 L 758.671875 104.820312 Z M 758.671875 122.101562 "/>
<path style="fill:none;stroke-width:1.07;stroke-linecap:butt;stroke-linejoin:round;stroke:rgb(100%,0%,0%);stroke-opacity:1;stroke-miterlimit:10;" d="M 760.398438 246.539062 L 774.21875 246.539062 " transform="matrix(1,0,0,-1,0,360)"/>
<path style=" stroke:none;fill-rule:nonzero;fill:rgb(100%,100%,100%);fill-opacity:1;" d="M 758.671875 139.378906 L 775.949219 139.378906 L 775.949219 122.101562 L 758.671875 122.101562 Z M 758.671875 139.378906 "/>
<path style="fill:none;stroke-width:1.07;stroke-linecap:butt;stroke-linejoin:round;stroke:rgb(33.332825%,0%,0%);stroke-opacity:1;stroke-miterlimit:10;" d="M 760.398438 229.261719 L 774.21875 229.261719 " transform="matrix(1,0,0,-1,0,360)"/>
<path style=" stroke:none;fill-rule:nonzero;fill:rgb(100%,100%,100%);fill-opacity:1;" d="M 758.671875 156.660156 L 775.949219 156.660156 L 775.949219 139.378906 L 758.671875 139.378906 Z M 758.671875 156.660156 "/>
<path style="fill:none;stroke-width:1.07;stroke-linecap:butt;stroke-linejoin:round;stroke:rgb(66.667175%,0%,0%);stroke-opacity:1;stroke-miterlimit:10;" d="M 760.398438 211.980469 L 774.21875 211.980469 " transform="matrix(1,0,0,-1,0,360)"/>
<path style=" stroke:none;fill-rule:nonzero;fill:rgb(100%,100%,100%);fill-opacity:1;" d="M 758.671875 173.941406 L 775.949219 173.941406 L 775.949219 156.660156 L 758.671875 156.660156 Z M 758.671875 173.941406 "/>
<path style="fill:none;stroke-width:1.07;stroke-linecap:butt;stroke-linejoin:round;stroke:rgb(100%,33.332825%,0%);stroke-opacity:1;stroke-miterlimit:10;" d="M 760.398438 194.699219 L 774.21875 194.699219 " transform="matrix(1,0,0,-1,0,360)"/>
<path style=" stroke:none;fill-rule:nonzero;fill:rgb(100%,100%,100%);fill-opacity:1;" d="M 758.671875 191.21875 L 775.949219 191.21875 L 775.949219 173.941406 L 758.671875 173.941406 Z M 758.671875 191.21875 "/>
<path style="fill:none;stroke-width:1.07;stroke-linecap:butt;stroke-linejoin:round;stroke:rgb(83.137512%,0%,0%);stroke-opacity:1;stroke-miterlimit:10;" d="M 760.398438 177.421875 L 774.21875 177.421875 " transform="matrix(1,0,0,-1,0,360)"/>
<path style=" stroke:none;fill-rule:nonzero;fill:rgb(100%,100%,100%);fill-opacity:1;" d="M 758.671875 208.5 L 775.949219 208.5 L 775.949219 191.21875 L 758.671875 191.21875 Z M 758.671875 208.5 "/>
<path style="fill:none;stroke-width:1.07;stroke-linecap:butt;stroke-linejoin:round;stroke:rgb(54.902649%,53.726196%,54.118347%);stroke-opacity:1;stroke-miterlimit:10;" d="M 760.398438 160.140625 L 774.21875 160.140625 " transform="matrix(1,0,0,-1,0,360)"/>
<path style=" stroke:none;fill-rule:nonzero;fill:rgb(100%,100%,100%);fill-opacity:1;" d="M 758.671875 225.78125 L 775.949219 225.78125 L 775.949219 208.5 L 758.671875 208.5 Z M 758.671875 225.78125 "/>
<path style="fill:none;stroke-width:1.07;stroke-linecap:butt;stroke-linejoin:round;stroke:rgb(66.667175%,100%,33.332825%);stroke-opacity:1;stroke-miterlimit:10;" d="M 760.398438 142.859375 L 774.21875 142.859375 " transform="matrix(1,0,0,-1,0,360)"/>
<path style=" stroke:none;fill-rule:nonzero;fill:rgb(100%,100%,100%);fill-opacity:1;" d="M 758.671875 243.058594 L 775.949219 243.058594 L 775.949219 225.78125 L 758.671875 225.78125 Z M 758.671875 243.058594 "/>
<path style="fill:none;stroke-width:1.07;stroke-linecap:butt;stroke-linejoin:round;stroke:rgb(0%,83.137512%,100%);stroke-opacity:1;stroke-miterlimit:10;" d="M 760.398438 125.578125 L 774.21875 125.578125 " transform="matrix(1,0,0,-1,0,360)"/>
<path style=" stroke:none;fill-rule:nonzero;fill:rgb(100%,100%,100%);fill-opacity:1;" d="M 758.671875 260.339844 L 775.949219 260.339844 L 775.949219 243.058594 L 758.671875 243.058594 Z M 758.671875 260.339844 "/>
<path style="fill:none;stroke-width:1.07;stroke-linecap:butt;stroke-linejoin:round;stroke:rgb(0%,100%,100%);stroke-opacity:1;stroke-miterlimit:10;" d="M 760.398438 108.300781 L 774.21875 108.300781 " transform="matrix(1,0,0,-1,0,360)"/>
<path style=" stroke:none;fill-rule:nonzero;fill:rgb(100%,100%,100%);fill-opacity:1;" d="M 758.671875 277.621094 L 775.949219 277.621094 L 775.949219 260.339844 L 758.671875 260.339844 Z M 758.671875 277.621094 "/>
<path style="fill:none;stroke-width:1.07;stroke-linecap:butt;stroke-linejoin:round;stroke:rgb(16.862488%,100%,83.137512%);stroke-opacity:1;stroke-miterlimit:10;" d="M 760.398438 91.019531 L 774.21875 91.019531 " transform="matrix(1,0,0,-1,0,360)"/>
<path style=" stroke:none;fill-rule:nonzero;fill:rgb(100%,100%,100%);fill-opacity:1;" d="M 758.671875 294.898438 L 775.949219 294.898438 L 775.949219 277.621094 L 758.671875 277.621094 Z M 758.671875 294.898438 "/>
<path style="fill:none;stroke-width:1.07;stroke-linecap:butt;stroke-linejoin:round;stroke:rgb(33.332825%,100%,66.667175%);stroke-opacity:1;stroke-miterlimit:10;" d="M 760.398438 73.738281 L 774.21875 73.738281 " transform="matrix(1,0,0,-1,0,360)"/>
<path style=" stroke:none;fill-rule:nonzero;fill:rgb(100%,100%,100%);fill-opacity:1;" d="M 758.671875 312.179688 L 775.949219 312.179688 L 775.949219 294.898438 L 758.671875 294.898438 Z M 758.671875 312.179688 "/>
<path style="fill:none;stroke-width:1.07;stroke-linecap:butt;stroke-linejoin:round;stroke:rgb(50.196838%,100%,50.196838%);stroke-opacity:1;stroke-miterlimit:10;" d="M 760.398438 56.460938 L 774.21875 56.460938 " transform="matrix(1,0,0,-1,0,360)"/>
<g style="fill:rgb(0%,0%,0%);fill-opacity:1;">
  <use xlink:href="#glyph3-1" x="781.43" y="64.49"/>
  <use xlink:href="#glyph3-2" x="787.206" y="64.49"/>
  <use xlink:href="#glyph3-3" x="791.654" y="64.49"/>
  <use xlink:href="#glyph3-4" x="793.43" y="64.49"/>
  <use xlink:href="#glyph3-5" x="795.206" y="64.49"/>
  <use xlink:href="#glyph3-6" x="797.43" y="64.49"/>
  <use xlink:href="#glyph3-7" x="800.094" y="64.49"/>
  <use xlink:href="#glyph3-8" x="804.542" y="64.49"/>
</g>
<g style="fill:rgb(0%,0%,0%);fill-opacity:1;">
  <use xlink:href="#glyph3-9" x="781.43" y="81.77"/>
  <use xlink:href="#glyph3-10" x="785.878" y="81.77"/>
  <use xlink:href="#glyph3-11" x="788.102" y="81.77"/>
  <use xlink:href="#glyph3-12" x="793.878" y="81.77"/>
  <use xlink:href="#glyph3-13" x="799.214" y="81.77"/>
  <use xlink:href="#glyph3-9" x="801.438" y="81.77"/>
  <use xlink:href="#glyph3-14" x="805.886" y="81.77"/>
</g>
<g style="fill:rgb(0%,0%,0%);fill-opacity:1;">
  <use xlink:href="#glyph3-9" x="781.43" y="99.05"/>
  <use xlink:href="#glyph3-10" x="785.878" y="99.05"/>
  <use xlink:href="#glyph3-11" x="788.102" y="99.05"/>
  <use xlink:href="#glyph3-12" x="793.878" y="99.05"/>
  <use xlink:href="#glyph3-13" x="799.214" y="99.05"/>
  <use xlink:href="#glyph3-15" x="801.438" y="99.05"/>
  <use xlink:href="#glyph3-8" x="805.886" y="99.05"/>
  <use xlink:href="#glyph3-16" x="810.334" y="99.05"/>
  <use xlink:href="#glyph3-8" x="814.334" y="99.05"/>
  <use xlink:href="#glyph3-7" x="818.782" y="99.05"/>
</g>
<g style="fill:rgb(0%,0%,0%);fill-opacity:1;">
  <use xlink:href="#glyph3-17" x="823.11" y="99.05"/>
  <use xlink:href="#glyph3-8" x="828.886" y="99.05"/>
</g>
<g style="fill:rgb(0%,0%,0%);fill-opacity:1;">
  <use xlink:href="#glyph3-9" x="781.43" y="116.33"/>
</g>
<g style="fill:rgb(0%,0%,0%);fill-opacity:1;">
  <use xlink:href="#glyph3-18" x="784.998" y="116.33"/>
  <use xlink:href="#glyph3-19" x="789.886" y="116.33"/>
  <use xlink:href="#glyph3-13" x="795.662" y="116.33"/>
  <use xlink:href="#glyph3-20" x="797.886" y="116.33"/>
  <use xlink:href="#glyph3-21" x="803.222" y="116.33"/>
  <use xlink:href="#glyph3-19" x="808.558" y="116.33"/>
  <use xlink:href="#glyph3-12" x="814.334" y="116.33"/>
  <use xlink:href="#glyph3-22" x="819.67" y="116.33"/>
  <use xlink:href="#glyph3-23" x="824.342" y="116.33"/>
</g>
<g style="fill:rgb(0%,0%,0%);fill-opacity:1;">
  <use xlink:href="#glyph3-9" x="781.43" y="133.61"/>
</g>
<g style="fill:rgb(0%,0%,0%);fill-opacity:1;">
  <use xlink:href="#glyph3-18" x="784.998" y="133.61"/>
  <use xlink:href="#glyph3-19" x="789.886" y="133.61"/>
  <use xlink:href="#glyph3-13" x="795.662" y="133.61"/>
  <use xlink:href="#glyph3-24" x="797.886" y="133.61"/>
  <use xlink:href="#glyph3-7" x="803.662" y="133.61"/>
  <use xlink:href="#glyph3-25" x="808.11" y="133.61"/>
  <use xlink:href="#glyph3-4" x="812.558" y="133.61"/>
  <use xlink:href="#glyph3-26" x="814.334" y="133.61"/>
</g>
<g style="fill:rgb(0%,0%,0%);fill-opacity:1;">
  <use xlink:href="#glyph3-9" x="781.43" y="150.89"/>
</g>
<g style="fill:rgb(0%,0%,0%);fill-opacity:1;">
  <use xlink:href="#glyph3-18" x="784.998" y="150.89"/>
  <use xlink:href="#glyph3-19" x="789.886" y="150.89"/>
  <use xlink:href="#glyph3-13" x="795.662" y="150.89"/>
  <use xlink:href="#glyph3-27" x="797.886" y="150.89"/>
  <use xlink:href="#glyph3-28" x="804.11" y="150.89"/>
  <use xlink:href="#glyph3-25" x="808.11" y="150.89"/>
  <use xlink:href="#glyph3-29" x="812.558" y="150.89"/>
  <use xlink:href="#glyph3-28" x="816.558" y="150.89"/>
</g>
<g style="fill:rgb(0%,0%,0%);fill-opacity:1;">
  <use xlink:href="#glyph3-9" x="781.43" y="168.17"/>
</g>
<g style="fill:rgb(0%,0%,0%);fill-opacity:1;">
  <use xlink:href="#glyph3-18" x="784.998" y="168.17"/>
  <use xlink:href="#glyph3-19" x="789.886" y="168.17"/>
  <use xlink:href="#glyph3-13" x="795.662" y="168.17"/>
  <use xlink:href="#glyph3-9" x="797.886" y="168.17"/>
  <use xlink:href="#glyph3-21" x="802.334" y="168.17"/>
  <use xlink:href="#glyph3-19" x="807.67" y="168.17"/>
  <use xlink:href="#glyph3-30" x="813.446" y="168.17"/>
</g>
<g style="fill:rgb(0%,0%,0%);fill-opacity:1;">
  <use xlink:href="#glyph3-9" x="781.43" y="185.45"/>
</g>
<g style="fill:rgb(0%,0%,0%);fill-opacity:1;">
  <use xlink:href="#glyph3-18" x="784.998" y="185.45"/>
  <use xlink:href="#glyph3-19" x="789.886" y="185.45"/>
  <use xlink:href="#glyph3-13" x="795.662" y="185.45"/>
  <use xlink:href="#glyph3-18" x="797.886" y="185.45"/>
  <use xlink:href="#glyph3-19" x="802.774" y="185.45"/>
  <use xlink:href="#glyph3-10" x="808.55" y="185.45"/>
  <use xlink:href="#glyph3-31" x="810.774" y="185.45"/>
</g>
<g style="fill:rgb(0%,0%,0%);fill-opacity:1;">
  <use xlink:href="#glyph3-6" x="781.43" y="202.73"/>
  <use xlink:href="#glyph3-2" x="784.094" y="202.73"/>
  <use xlink:href="#glyph3-25" x="788.542" y="202.73"/>
  <use xlink:href="#glyph3-2" x="792.99" y="202.73"/>
  <use xlink:href="#glyph3-26" x="797.438" y="202.73"/>
  <use xlink:href="#glyph3-5" x="801.886" y="202.73"/>
  <use xlink:href="#glyph3-32" x="804.11" y="202.73"/>
  <use xlink:href="#glyph3-33" x="808.558" y="202.73"/>
  <use xlink:href="#glyph3-6" x="810.782" y="202.73"/>
</g>
<g style="fill:rgb(0%,0%,0%);fill-opacity:1;">
  <use xlink:href="#glyph3-26" x="813.366" y="202.73"/>
  <use xlink:href="#glyph3-34" x="817.814" y="202.73"/>
  <use xlink:href="#glyph3-35" x="822.262" y="202.73"/>
  <use xlink:href="#glyph3-2" x="828.926" y="202.73"/>
  <use xlink:href="#glyph3-8" x="833.374" y="202.73"/>
  <use xlink:href="#glyph3-5" x="837.822" y="202.73"/>
</g>
<g style="fill:rgb(0%,0%,0%);fill-opacity:1;">
  <use xlink:href="#glyph3-36" x="781.43" y="220.01"/>
  <use xlink:href="#glyph3-10" x="786.766" y="220.01"/>
  <use xlink:href="#glyph3-11" x="788.99" y="220.01"/>
  <use xlink:href="#glyph3-12" x="794.766" y="220.01"/>
  <use xlink:href="#glyph3-13" x="800.102" y="220.01"/>
  <use xlink:href="#glyph3-15" x="802.326" y="220.01"/>
  <use xlink:href="#glyph3-8" x="806.774" y="220.01"/>
  <use xlink:href="#glyph3-16" x="811.222" y="220.01"/>
  <use xlink:href="#glyph3-8" x="815.222" y="220.01"/>
  <use xlink:href="#glyph3-7" x="819.67" y="220.01"/>
</g>
<g style="fill:rgb(0%,0%,0%);fill-opacity:1;">
  <use xlink:href="#glyph3-17" x="823.998" y="220.01"/>
  <use xlink:href="#glyph3-8" x="829.774" y="220.01"/>
</g>
<g style="fill:rgb(0%,0%,0%);fill-opacity:1;">
  <use xlink:href="#glyph3-18" x="781.43" y="237.29"/>
  <use xlink:href="#glyph3-10" x="786.318" y="237.29"/>
  <use xlink:href="#glyph3-19" x="788.542" y="237.29"/>
  <use xlink:href="#glyph3-13" x="794.318" y="237.29"/>
  <use xlink:href="#glyph3-24" x="796.542" y="237.29"/>
  <use xlink:href="#glyph3-21" x="802.318" y="237.29"/>
</g>
<g style="fill:rgb(0%,0%,0%);fill-opacity:1;">
  <use xlink:href="#glyph3-24" x="807.414" y="237.29"/>
  <use xlink:href="#glyph3-18" x="813.19" y="237.29"/>
</g>
<g style="fill:rgb(0%,0%,0%);fill-opacity:1;">
  <use xlink:href="#glyph3-21" x="817.118" y="237.29"/>
</g>
<g style="fill:rgb(0%,0%,0%);fill-opacity:1;">
  <use xlink:href="#glyph3-18" x="781.43" y="254.57"/>
  <use xlink:href="#glyph3-10" x="786.318" y="254.57"/>
  <use xlink:href="#glyph3-19" x="788.542" y="254.57"/>
  <use xlink:href="#glyph3-13" x="794.318" y="254.57"/>
  <use xlink:href="#glyph3-37" x="796.542" y="254.57"/>
  <use xlink:href="#glyph3-21" x="800.99" y="254.57"/>
</g>
<g style="fill:rgb(0%,0%,0%);fill-opacity:1;">
  <use xlink:href="#glyph3-18" x="805.366" y="254.57"/>
</g>
<g style="fill:rgb(0%,0%,0%);fill-opacity:1;">
  <use xlink:href="#glyph3-18" x="781.43" y="271.85"/>
  <use xlink:href="#glyph3-10" x="786.318" y="271.85"/>
  <use xlink:href="#glyph3-19" x="788.542" y="271.85"/>
  <use xlink:href="#glyph3-13" x="794.318" y="271.85"/>
  <use xlink:href="#glyph3-31" x="796.542" y="271.85"/>
  <use xlink:href="#glyph3-10" x="803.206" y="271.85"/>
  <use xlink:href="#glyph3-18" x="805.43" y="271.85"/>
  <use xlink:href="#glyph3-12" x="810.318" y="271.85"/>
</g>
<g style="fill:rgb(0%,0%,0%);fill-opacity:1;">
  <use xlink:href="#glyph3-18" x="781.43" y="289.13"/>
  <use xlink:href="#glyph3-10" x="786.318" y="289.13"/>
  <use xlink:href="#glyph3-19" x="788.542" y="289.13"/>
  <use xlink:href="#glyph3-13" x="794.318" y="289.13"/>
  <use xlink:href="#glyph3-31" x="796.542" y="289.13"/>
  <use xlink:href="#glyph3-15" x="803.206" y="289.13"/>
  <use xlink:href="#glyph3-5" x="807.654" y="289.13"/>
  <use xlink:href="#glyph3-26" x="809.878" y="289.13"/>
  <use xlink:href="#glyph3-5" x="814.326" y="289.13"/>
  <use xlink:href="#glyph3-7" x="816.55" y="289.13"/>
  <use xlink:href="#glyph3-6" x="820.998" y="289.13"/>
</g>
<g style="fill:rgb(0%,0%,0%);fill-opacity:1;">
  <use xlink:href="#glyph3-18" x="781.43" y="306.41"/>
  <use xlink:href="#glyph3-10" x="786.318" y="306.41"/>
  <use xlink:href="#glyph3-19" x="788.542" y="306.41"/>
  <use xlink:href="#glyph3-13" x="794.318" y="306.41"/>
  <use xlink:href="#glyph3-38" x="796.542" y="306.41"/>
  <use xlink:href="#glyph3-10" x="801.878" y="306.41"/>
  <use xlink:href="#glyph3-39" x="804.102" y="306.41"/>
  <use xlink:href="#glyph3-32" x="808.99" y="306.41"/>
  <use xlink:href="#glyph3-1" x="813.438" y="306.41"/>
  <use xlink:href="#glyph3-26" x="819.214" y="306.41"/>
  <use xlink:href="#glyph3-6" x="823.662" y="306.41"/>
  <use xlink:href="#glyph3-40" x="826.326" y="306.41"/>
  <use xlink:href="#glyph3-4" x="830.774" y="306.41"/>
  <use xlink:href="#glyph3-8" x="832.55" y="306.41"/>
  <use xlink:href="#glyph3-34" x="836.998" y="306.41"/>
  <use xlink:href="#glyph3-2" x="841.446" y="306.41"/>
  <use xlink:href="#glyph3-6" x="845.894" y="306.41"/>
</g>
<g style="fill:rgb(0%,0%,0%);fill-opacity:1;">
  <use xlink:href="#glyph4-1" x="40.01" y="20.01"/>
  <use xlink:href="#glyph4-2" x="50.118" y="20.01"/>
  <use xlink:href="#glyph4-3" x="57.902" y="20.01"/>
  <use xlink:href="#glyph4-4" x="66.456" y="20.01"/>
  <use xlink:href="#glyph4-5" x="74.24" y="20.01"/>
  <use xlink:href="#glyph4-6" x="78.132" y="20.01"/>
  <use xlink:href="#glyph4-7" x="82.794" y="20.01"/>
  <use xlink:href="#glyph4-8" x="90.578" y="20.01"/>
  <use xlink:href="#glyph4-9" x="94.47" y="20.01"/>
  <use xlink:href="#glyph4-3" x="103.024" y="20.01"/>
  <use xlink:href="#glyph4-8" x="111.578" y="20.01"/>
  <use xlink:href="#glyph4-10" x="115.47" y="20.01"/>
</g>
<g style="fill:rgb(0%,0%,0%);fill-opacity:1;">
  <use xlink:href="#glyph4-11" x="123.114" y="20.01"/>
  <use xlink:href="#glyph4-12" x="131.668" y="20.01"/>
  <use xlink:href="#glyph4-13" x="137.114" y="20.01"/>
</g>
</g>
</svg>
